<svg id="Layer_1" data-name="Layer 1" xmlns="http://www.w3.org/2000/svg" viewBox="0 0 338.97 225.02"><defs><style>.cls-1{fill:#f7dce7;}.cls-2{fill:#fff;}.cls-3{fill:#ff7bac;}.cls-4{fill:#333335;}.cls-5{fill:#e8c842;}.cls-6{fill:#6da0ab;}.cls-7{fill:#3f3d56;}.cls-10,.cls-8{fill:none;}.cls-8{stroke:#3f3d56;stroke-width:3px;}.cls-10,.cls-11,.cls-8,.cls-9{stroke-miterlimit:10;}.cls-12,.cls-9{fill:#f2f2fb;}.cls-9{stroke:#f2f2fb;}.cls-10,.cls-11{stroke:#510f38;}.cls-11{fill:#510f38;}</style></defs><title>3pt</title><path class="cls-1" d="M905.4,517c1.7,3.86,6.71,4.45,6.71,4.45l1,1.94-3.06,1.87-5.37-1.79Z" transform="translate(-791.17 -428.52)"/><path class="cls-2" d="M934.77,527.89h0c8.92-.67,15.44-3.58,19.4-8.66a18.51,18.51,0,0,0,2.82-5.16c-11.71-4.36-15.69-11.35-13.29-23.32a42.28,42.28,0,0,1,2.46-8,28,28,0,0,1-6.92,6,23.32,23.32,0,0,1-5.31,2.28l-.67,3.62a26.89,26.89,0,0,1,4.17,1.58c.46.24.58.83,0,5.7v.47a35.06,35.06,0,0,1-1.29,6.51,25.23,25.23,0,0,1-4.93,9.09,13,13,0,0,1-5.65,3.91,16.93,16.93,0,0,1,7.32,4A19.6,19.6,0,0,1,934.77,527.89Z" transform="translate(-791.17 -428.52)"/><path class="cls-2" d="M919,511.68a25.59,25.59,0,0,0-1-6.5,9.68,9.68,0,0,0-3.42-5.08,5.41,5.41,0,0,0-5.27-.58,3.73,3.73,0,0,0-.39.25c-1.14.84-1.67,2.49-1.59,4.9a21.66,21.66,0,0,0,1.7,7.62c1.07,2.49,2.44,4.15,4.07,4.94s4.21.56,5.28-1.33A7.83,7.83,0,0,0,919,511.68Z" transform="translate(-791.17 -428.52)"/><path class="cls-2" d="M954.15,456.7c-.68-4.83-2.66-7.88-5.89-9.08a14.06,14.06,0,0,0-4.85-.84,17.86,17.86,0,0,0-9.21,2.66c-3.57,2.18-8.18,6.62-9.91,15.35-3.13,15.81,5.24,25,6,25.32,1,.34,3.46.49,8.51-2.33,4.48-2.5,8.72-8.34,9.36-9.24A28.93,28.93,0,0,1,952,473.1a.47.47,0,0,1,.45-.12,4.52,4.52,0,0,0,3-1.32,6.19,6.19,0,0,0,2.42-4.87,2.92,2.92,0,0,0-.88-2.38,2.64,2.64,0,0,0-2.23-.09.45.45,0,0,1-.46-.08.55.55,0,0,1-.16-.46A28.92,28.92,0,0,0,954.15,456.7Z" transform="translate(-791.17 -428.52)"/><path class="cls-2" d="M963.57,626.43a69.14,69.14,0,0,1-1.5-7c-.46-3.27.27-6.06,1-9,.24-.94.49-1.91.7-2.89L956.84,606c-.19,1-.33,2.07-.47,3.1a24.58,24.58,0,0,1-1.31,6.18,20.74,20.74,0,0,1-2.74,4.51,26.89,26.89,0,0,0-2.21,3.38c-3,5.73-4.69,16-2.35,22.58a11.32,11.32,0,0,0,1.23,2.55,10.4,10.4,0,0,0,4.6,3.8c1.85.68,4.18,0,6.24-1.71a14.54,14.54,0,0,0,3.92-5.53v-.09a.52.52,0,0,1,.21-.41,19.36,19.36,0,0,0,1.22-5.14C965.63,634.76,964.57,630.72,963.57,626.43Z" transform="translate(-791.17 -428.52)"/><path class="cls-2" d="M946.51,631.08a.47.47,0,0,1-.22-.2c-1.28-2.4-3.88-4.57-6.56-3.64a8,8,0,0,0-3.49,3c-.25.34-.5.69-.74,1a18,18,0,0,1-2.42,3,10.42,10.42,0,0,1-8.15,2.47,18.91,18.91,0,0,1-6-1.8,15.7,15.7,0,0,1-1.45-.8c-1.17-.69-2.38-1.4-3.49-1.29-2.23.24-3.74,3.39-4.75,5.47l-.14.31a.45.45,0,0,1-.58.23s-2.06-.88-3.43-.15a2.3,2.3,0,0,0-1.09,1.51,3.56,3.56,0,0,0,.21,2.66c.66,1.26,2.25,2.29,4.6,3l1.28.42c5.08,1.71,20.27,6.81,37.51,1.35-.25-.52-.47-1.06-.67-1.61C945.3,641.5,945.57,635.89,946.51,631.08Z" transform="translate(-791.17 -428.52)"/><path class="cls-1" d="M909,512.29c1.07,2.49,2.44,4.15,4.07,4.94a4.49,4.49,0,0,0,2,.44,12.15,12.15,0,0,1-2.07-3.39,21.22,21.22,0,0,1-1.7-7.61c-.08-2.41.45-4.06,1.59-4.91a3,3,0,0,1,.38-.24,4.37,4.37,0,0,1,2.41-.44,6.67,6.67,0,0,0-1.12-1,5.41,5.41,0,0,0-5.27-.58,3.73,3.73,0,0,0-.39.25c-1.14.84-1.67,2.49-1.59,4.9A21.58,21.58,0,0,0,909,512.29Z" transform="translate(-791.17 -428.52)"/><path class="cls-1" d="M930.33,490.11a4.85,4.85,0,0,0,2.24.11c-2.55-3.48-6.64-11.62-4.3-23.43,1.73-8.73,6.35-13.17,9.92-15.35a17.83,17.83,0,0,1,9.2-2.66,14.61,14.61,0,0,1,3.42.41,7.46,7.46,0,0,0-2.55-1.57,14.06,14.06,0,0,0-4.85-.84,17.86,17.86,0,0,0-9.21,2.66c-3.57,2.18-8.18,6.62-9.91,15.35C921.16,480.6,929.57,489.82,930.33,490.11Z" transform="translate(-791.17 -428.52)"/><path class="cls-1" d="M953,650.22a11.76,11.76,0,0,1-1.23-2.55c-2.33-6.59-.59-16.85,2.36-22.58a26.89,26.89,0,0,1,2.21-3.38,20.32,20.32,0,0,0,2.73-4.51,25,25,0,0,0,1.32-6.18c.13-1,.27-2.09.47-3.1l2.69.6c.09-.35.17-.7.25-1L956.85,606c-.19,1-.33,2.07-.47,3.1a24.58,24.58,0,0,1-1.31,6.18,20.74,20.74,0,0,1-2.74,4.51,26.89,26.89,0,0,0-2.21,3.38c-3,5.73-4.69,16-2.35,22.58a11.32,11.32,0,0,0,1.23,2.55,10.4,10.4,0,0,0,4.6,3.8,4.14,4.14,0,0,0,1.2.25A11.4,11.4,0,0,1,953,650.22Z" transform="translate(-791.17 -428.52)"/><path class="cls-1" d="M908.18,644.89a3.56,3.56,0,0,1-.21-2.66,2.2,2.2,0,0,1,1.09-1.51c1.36-.73,3.4.14,3.42.15a.45.45,0,0,0,.58-.24l.15-.3c1-2.08,2.52-5.23,4.74-5.47a2.91,2.91,0,0,1,.93.08,15.11,15.11,0,0,1-1.42-.79c-1.17-.69-2.38-1.4-3.49-1.29-2.23.24-3.74,3.39-4.75,5.47l-.14.31a.45.45,0,0,1-.58.23s-2.06-.88-3.43-.15a2.3,2.3,0,0,0-1.09,1.51,3.56,3.56,0,0,0,.21,2.66c.66,1.26,2.25,2.29,4.6,3l.19.06A3.62,3.62,0,0,1,908.18,644.89Z" transform="translate(-791.17 -428.52)"/><path class="cls-1" d="M922.89,637a18.64,18.64,0,0,0,6,1.79,10.38,10.38,0,0,0,8.15-2.47,18,18,0,0,0,2.42-3,11.26,11.26,0,0,1,.74-1,8,8,0,0,1,3.48-3,2.3,2.3,0,0,1,1.42,0c-1.4-1.6-3.37-2.66-5.4-2a8,8,0,0,0-3.49,3c-.25.34-.5.69-.74,1a18,18,0,0,1-2.42,3,10.42,10.42,0,0,1-8.15,2.47,16.91,16.91,0,0,1-4.31-1.07l.83.47A15.11,15.11,0,0,0,922.89,637Z" transform="translate(-791.17 -428.52)"/><path class="cls-2" d="M940,518.13a1.5,1.5,0,1,0-1.5-1.5A1.5,1.5,0,0,0,940,518.13Z" transform="translate(-791.17 -428.52)"/><path class="cls-3" d="M910.57,549.69s-5.44,14.09-2.72,39.66,18.75,42.59,24.19,45.8l4.36-6.58s-15.25-12.07-22.17-36.15S910.57,549.69,910.57,549.69Z" transform="translate(-791.17 -428.52)"/><path class="cls-4" d="M906.24,505.89c0-.45-.06-.83-.08-1.2-.1-2.87.61-4.88,2.1-6a4.59,4.59,0,0,1,.52-.33l.5-.23a13.8,13.8,0,0,1,.37-3.32.74.74,0,0,1,.49-.51,41.59,41.59,0,0,1,22-.35l.47-2.54a5.79,5.79,0,0,1-2.68-.15c-1.56-.53-10-10.72-6.84-26.77,1.42-7.17,5.14-12.92,10.48-16.18,4.71-2.89,10.46-3.62,15-1.92,3.64,1.35,5.94,4.84,6.68,10.1a28.62,28.62,0,0,1,.14,6.34,3.13,3.13,0,0,1,2.23.49,4,4,0,0,1,1.41,3.39,7.44,7.44,0,0,1-2.88,5.89,6.24,6.24,0,0,1-3.51,1.6h0a37.11,37.11,0,0,0-7.8,16.7c-2.23,11.14,1.45,17.67,12.3,21.79a18.82,18.82,0,0,0,.76-6.11.79.79,0,0,1,.17-.57.74.74,0,0,1,.54-.25c.18,0,4.52,0,13.45,2.92,4.36,1.42,18.31,7.58,14.59,27.54-2,10.5-7.93,41.07-11.45,59.08,11.09-14,26.74-23.56,43.23-26.29a15.23,15.23,0,0,1-7.32-5.11,11,11,0,0,1-2-8.67,32.3,32.3,0,0,1,1.69-5.58c.27-.71.59-1.57.87-2.39a34.59,34.59,0,0,0-.29-22.27A32.09,32.09,0,0,0,993,506.13a70,70,0,0,0-8.62-2.47c-4.71-1.12-9.58-2.29-13.84-5a17,17,0,0,1-6.22-6.72c-1.84-3.75-2.17-8.47-1-14.42.35-1.8.8-3.59,1.23-5.33a60.93,60.93,0,0,0,1.71-8.48A18.89,18.89,0,0,0,963.34,451s-3.27-5.13-5.84-4.67a.71.71,0,0,1-.74-.36.82.82,0,0,1,0-.83c2-2.72,4.12-6.67,3.38-10a5.84,5.84,0,0,0-2.94-4.1c-6-3.29-18.46,2.12-20.9,3.24-8.34,3.82-19.76,10.81-26.8,22.44A40,40,0,0,0,904,480.28c.11,1.46.27,2.94.42,4.37.74,6.84,1.44,13.25-2.41,19.52a34.86,34.86,0,0,1-3.2,4.43A33.84,33.84,0,0,1,906.24,505.89Z" transform="translate(-791.17 -428.52)"/><path class="cls-5" d="M922.57,521c3.92,0,9.52-3.3,12.41-12.6a33.28,33.28,0,0,0,1.23-6.27l.06-.47a33.12,33.12,0,0,0,.37-4.56c-1.66-.78-12-5.23-25.75-1.45a15.5,15.5,0,0,0-.21,2.15,7.28,7.28,0,0,1,4.51,1.21,10.84,10.84,0,0,1,3.89,5.73,27.24,27.24,0,0,1,1,6.83,8.83,8.83,0,0,1-.74,4.94h0a4.52,4.52,0,0,1-2.59,2.09,8.44,8.44,0,0,0,5.67,2.4Z" transform="translate(-791.17 -428.52)"/><path class="cls-6" d="M904.57,637.61a5.14,5.14,0,0,1,3.76-.11c1-2.17,2.77-5.57,5.54-5.87,1.49-.15,2.91.69,4.18,1.44.48.29.93.55,1.35.75a17.55,17.55,0,0,0,5.66,1.69,9.25,9.25,0,0,0,7.27-2.17,16.37,16.37,0,0,0,2.25-2.79v-.07c.23-.34.46-.67.71-1l.07-.1c-5.26-4-8.66-9.94-11.94-15.73l-.21-.37c-15-26.41-18.42-55-9.18-76.44a.75.75,0,0,1,.42-.4.62.62,0,0,1,.53,0,.76.76,0,0,1,.35,1c-9.06,21-5.65,49.06,9.1,75l.21.38c3.23,5.7,6.57,11.58,11.64,15.36a7.45,7.45,0,0,1,3.06-2.19c3-1,5.75,1,7.3,3.17a33,33,0,0,1,2.43-6.73,28.21,28.21,0,0,1,2.3-3.54,19.35,19.35,0,0,0,2.59-4.24,23.89,23.89,0,0,0,1.23-5.86c.13-1,.26-2,.44-2.94l-5.53-1.24a.69.69,0,0,1-.45-.33.77.77,0,0,1-.1-.56l3.35-16.2c-.26-1.07-.5-2.13-.75-3.18-1.3-5.51-2.52-10.71-4.17-16.14-1.11-3.66-2.05-7.45-3-11.1V557c-1.65-6.57-3.35-13.36-6-19.64-2-4.83-4.24-8.22-6.9-10.66a15.52,15.52,0,0,0-10.78-4.24,21.85,21.85,0,0,0-2.8.21c-9.09,1.34-17.26,8.5-21.33,15-4.69,7.49-7.1,16.07-9.43,24.37-1.06,3.76-2,7.49-2.75,11.07v.14c-5.07,23.75-2.24,37.18.33,45.21,3.33,10.44,9.53,19,17.52,24.11a5.14,5.14,0,0,1,0-2.75A3.47,3.47,0,0,1,904.57,637.61Z" transform="translate(-791.17 -428.52)"/><path class="cls-6" d="M1040,616.2c7.21-8.88,10.79-20.29,9.58-30.52a19.21,19.21,0,0,0-3.26-9.33c-2.83-3.79-7.62-5.9-14.63-6.43-20.87-1.57-43.29,9.67-57.12,28.66l-2,10.31a.69.69,0,0,1-.79.6h0L964.88,608c-.22,1-.46,1.93-.66,2.72-.74,2.84-1.43,5.5-1,8.5a65.53,65.53,0,0,0,1.48,6.92c.27,1.1.52,2.1.75,3.13h.07c10.16-3.34,16.39-8.38,19.08-15.39.75-2,1.34-4,1.91-6.06q.9-3.36,2.13-6.62a29.08,29.08,0,0,1,10.65-13.55,23.72,23.72,0,0,1,12.56-3.77h.2c3.7,0,8.76,1,11.85,5.88a.78.78,0,0,1-.18,1,.69.69,0,0,1-1-.16l0,0a11.06,11.06,0,0,0-7.31-4.84c-5.52-1.17-11.69.74-15.36,3.16A27.59,27.59,0,0,0,990,601.69a66.67,66.67,0,0,0-2.07,6.47,60.19,60.19,0,0,1-2,6.19c-2.86,7.46-9.39,12.77-20,16.26h-.19a27.94,27.94,0,0,1,.61,8.6,21.16,21.16,0,0,1-1,4.66,135,135,0,0,0,37.3-5.53C1019.76,633.36,1032,626.1,1040,616.2Z" transform="translate(-791.17 -428.52)"/><path class="cls-7" d="M1051,585.49a20.83,20.83,0,0,0-3.56-10.06c-3.1-4.15-8.21-6.44-15.65-7a56.75,56.75,0,0,0-8.45,0h0A14.83,14.83,0,0,1,1012.3,563a9.41,9.41,0,0,1-1.73-7.47,31,31,0,0,1,1.63-5.31c.28-.75.6-1.6.88-2.44a36.21,36.21,0,0,0-.3-23.29,33.6,33.6,0,0,0-19.21-19.72,70.19,70.19,0,0,0-8.8-2.52c-4.59-1.1-9.34-2.24-13.41-4.84a15.45,15.45,0,0,1-5.69-6.12c-1.69-3.44-2-7.83-.89-13.43.34-1.76.79-3.53,1.23-5.28a63.67,63.67,0,0,0,1.74-8.67,20.34,20.34,0,0,0-3.18-13.72c-.3-.48-2.93-4.51-5.81-5.25,1.79-2.74,3.65-6.62,2.86-10.13a7.31,7.31,0,0,0-3.66-5.09c-6.41-3.5-18.56,1.56-22.13,3.19-8.52,3.91-20.19,11.07-27.43,23a41.62,41.62,0,0,0-5.71,24.51c.11,1.48.27,3,.43,4.4v.07c.7,6.51,1.37,12.67-2.2,18.48a37,37,0,0,1-7.07,8.36l-.09.11a27.41,27.41,0,0,0-4.61,4.46c-3.43,4.23-6.22,12.43-7.47,21.92a97.6,97.6,0,0,0,1.89,34.86c-5.13,24.07-2.24,37.75.38,45.94,4,12.66,12.26,22.62,22.55,27.33a14.52,14.52,0,0,0,2,.73c.29.08.71.22,1.24.4a66.53,66.53,0,0,0,21.73,3.87h0A54.08,54.08,0,0,0,948,648.83a10.22,10.22,0,0,0,5.26,4.37,5.3,5.3,0,0,0,1.93.33,8.54,8.54,0,0,0,5.42-2.24,16,16,0,0,0,4.2-5.85,137.69,137.69,0,0,0,38.26-5.59c17.39-5.13,29.85-12.54,38.07-22.67C1048.57,608,1052.27,596.14,1051,585.49ZM963.5,644.75a14.55,14.55,0,0,1-3.83,5.37c-2,1.69-4.22,2.31-6,1.66a10.19,10.19,0,0,1-4.49-3.7,12.43,12.43,0,0,1-1.2-2.49c-2.31-6.53-.58-16.7,2.35-22.38a25.41,25.41,0,0,1,2.24-3.32,21.4,21.4,0,0,0,2.76-4.56,24.62,24.62,0,0,0,1.33-6.25c.13-1,.25-1.92.42-2.83l6.43,1.44c-.22,1-.46,1.91-.65,2.64-.77,3-1.51,5.8-1,9.11a70.7,70.7,0,0,0,1.51,7.08c1.07,4.26,2.07,8.29,1.63,12.62a19.39,19.39,0,0,1-1.18,5,.77.77,0,0,0-.25.56Zm-60.67-2.1c-8-5.15-14.19-13.67-17.52-24.11-2.57-8-5.4-21.46-.33-45.21v-.14c.77-3.58,1.69-7.31,2.75-11.07,2.33-8.3,4.74-16.88,9.43-24.37,4.07-6.5,12.24-13.66,21.33-15a21.85,21.85,0,0,1,2.8-.21,15.52,15.52,0,0,1,10.78,4.24c2.66,2.44,4.85,5.83,6.9,10.66,2.67,6.28,4.37,13.07,6,19.64v.08c.92,3.65,1.86,7.44,3,11.1,1.65,5.43,2.87,10.63,4.17,16.14.25,1,.49,2.11.75,3.18l-3.32,16.2a.77.77,0,0,0,.1.56.69.69,0,0,0,.45.33l5.53,1.24c-.18,1-.31,1.94-.44,2.94a23.89,23.89,0,0,1-1.23,5.86,19.35,19.35,0,0,1-2.59,4.24,28.21,28.21,0,0,0-2.3,3.54,33,33,0,0,0-2.43,6.73c-1.55-2.21-4.26-4.22-7.3-3.17a7.45,7.45,0,0,0-3.06,2.19c-5.07-3.78-8.41-9.66-11.64-15.36l-.21-.38c-14.75-26-18.16-54-9.1-75a.76.76,0,0,0-.35-1,.62.62,0,0,0-.53,0,.75.75,0,0,0-.42.4c-9.24,21.45-5.81,50,9.18,76.44l.21.37c3.28,5.79,6.68,11.77,11.94,15.73l-.07.1c-.25.33-.48.66-.71,1v.07a16.37,16.37,0,0,1-2.25,2.79,9.25,9.25,0,0,1-7.27,2.17,17.55,17.55,0,0,1-5.66-1.69c-.42-.2-.87-.46-1.35-.75-1.27-.75-2.69-1.59-4.18-1.44-2.77.3-4.49,3.7-5.54,5.87a5.14,5.14,0,0,0-3.76.11,3.48,3.48,0,0,0-1.7,2.29,5.12,5.12,0,0,0-.06,2.69Zm1.66-158c-.15-1.43-.31-2.91-.42-4.37a40,40,0,0,1,5.5-23.55c7-11.63,18.46-18.62,26.8-22.44,2.44-1.12,14.89-6.53,20.9-3.24a5.84,5.84,0,0,1,2.94,4.1c.74,3.34-1.43,7.29-3.38,10a.82.82,0,0,0,0,.83.71.71,0,0,0,.74.36c2.57-.46,5.81,4.62,5.84,4.67a18.89,18.89,0,0,1,2.93,12.73,60.93,60.93,0,0,1-1.71,8.48c-.43,1.74-.88,3.53-1.23,5.33-1.16,6-.83,10.67,1,14.42a17.05,17.05,0,0,0,6.22,6.72c4.26,2.72,9.13,3.89,13.84,5a69.51,69.51,0,0,1,8.62,2.47A32.09,32.09,0,0,1,1011.45,525a34.59,34.59,0,0,1,.29,22.27c-.28.82-.6,1.68-.87,2.39a32.3,32.3,0,0,0-1.69,5.58,11,11,0,0,0,2,8.67,15.23,15.23,0,0,0,7.32,5.11c-16.49,2.73-32.14,12.25-43.23,26.29,3.52-18,9.49-48.58,11.45-59.08,3.72-20-10.23-26.12-14.59-27.54-8.93-2.89-13.27-2.92-13.45-2.92a.74.74,0,0,0-.54.25.79.79,0,0,0-.17.57,18.82,18.82,0,0,1-.76,6.11c-10.85-4.12-14.53-10.65-12.3-21.79a37.11,37.11,0,0,1,7.8-16.7h0a6.24,6.24,0,0,0,3.51-1.6,7.44,7.44,0,0,0,2.88-5.89,4,4,0,0,0-1.41-3.39,3.13,3.13,0,0,0-2.23-.49,28.62,28.62,0,0,0-.14-6.34c-.74-5.26-3-8.75-6.68-10.1a17.53,17.53,0,0,0-15,1.92c-5.34,3.26-9.06,9-10.48,16.18-3.18,16.05,5.28,26.24,6.84,26.77a5.79,5.79,0,0,0,2.68.15l-.47,2.54a41.59,41.59,0,0,0-22,.35.74.74,0,0,0-.49.51,13.8,13.8,0,0,0-.37,3.32l-.5.23a4.59,4.59,0,0,0-.52.33c-1.49,1.1-2.2,3.11-2.1,6a6.47,6.47,0,0,0,.08,1.2,33.36,33.36,0,0,0-7.36,2.71,34.86,34.86,0,0,0,3.2-4.43c3.78-6.31,3.08-12.68,2.34-19.52Zm49.7-20.25a.66.66,0,0,0,.72.12,2.41,2.41,0,0,1,2,.06,2.75,2.75,0,0,1,.77,2.19,6,6,0,0,1-2.33,4.67,4.5,4.5,0,0,1-2.73,1.28.67.67,0,0,0-.71.17,28.86,28.86,0,0,0-3.9,5.48c-.48.67-4.79,6.66-9.28,9.16-5,2.77-7.33,2.64-8.3,2.32-.81-.34-9-9.51-5.89-25,1.72-8.64,6.28-13,9.8-15.19a17.74,17.74,0,0,1,9.08-2.62,13.78,13.78,0,0,1,4.76.82c3.14,1.17,5.07,4.16,5.74,8.88a27.33,27.33,0,0,1,0,7,.79.79,0,0,0,.27.69Zm-34.81,52.12h0a8.83,8.83,0,0,0,.74-4.94,27.24,27.24,0,0,0-1-6.83,10.84,10.84,0,0,0-3.89-5.73,7.28,7.28,0,0,0-4.51-1.21,15.5,15.5,0,0,1,.21-2.15c13.7-3.78,24.09.67,25.75,1.45a33.12,33.12,0,0,1-.37,4.56l-.06.47a33.28,33.28,0,0,1-1.23,6.27c-2.89,9.3-8.49,12.6-12.41,12.6h-.14a8.44,8.44,0,0,1-5.67-2.4,4.52,4.52,0,0,0,2.58-2.06Zm12,1.53a25.39,25.39,0,0,0,5-9.18,34.79,34.79,0,0,0,1.3-6.56c.51-6.09.06-6.33-.09-6.41a27.29,27.29,0,0,0-4-1.54l.59-3.24a23.77,23.77,0,0,0,5.23-2.26,26.18,26.18,0,0,0,6-5,43.22,43.22,0,0,0-2,6.78c-2.41,12,1.54,19.09,13.22,23.51a17.73,17.73,0,0,1-2.7,4.87c-3.9,5-10.33,7.88-19.11,8.56a21,21,0,0,0-1.85-1.93,17.27,17.27,0,0,0-6.67-3.86,13.53,13.53,0,0,0,5.08-3.71ZM909.07,500a3.17,3.17,0,0,1,.36-.23,4.18,4.18,0,0,1,1.84-.43,5.86,5.86,0,0,1,3.17,1,9.38,9.38,0,0,1,3.32,4.94,26,26,0,0,1,.94,6.44,7.63,7.63,0,0,1-.54,4.09,3.8,3.8,0,0,1-5,1.23c-1.57-.77-2.9-2.39-3.95-4.82a21.42,21.42,0,0,1-1.68-7.53C907.5,502.34,908,500.76,909.07,500Zm55.42,106.38-13.36-3,11.8-57.18c.61-2.87.51-4.56-.31-5.31a1.39,1.39,0,0,0-1.48-.26.76.76,0,0,0-.39,1,.67.67,0,0,0,.4.42.64.64,0,0,0,.54,0s.55.57-.15,3.86l-8,38.39V584c-1.3-5.53-2.53-10.75-4.19-16.24-1.1-3.63-2-7.4-3-11v-.06c-1.66-6.63-3.38-13.49-6.09-19.87A39.52,39.52,0,0,0,936,529c8.68-.85,15.11-3.88,19.1-9a21,21,0,0,0,4.28-12.62,57.5,57.5,0,0,1,12.29,2.81c4.08,1.33,17.11,7.09,13.61,25.82-2.58,13.84-12,61.73-14,71.89Zm-51.87-88a5.51,5.51,0,0,0,2.39.55,11.34,11.34,0,0,0,2.94,2.4c-9.37,1.54-17.75,8.91-22,15.61-4.8,7.67-7.24,16.36-9.6,24.76-.76,2.69-1.46,5.41-2.09,8.1-4.6-22.67-.68-44.4,5.9-52.51,5.66-7,14-9.35,16.22-9.87a22,22,0,0,0,1.54,5.4c1.24,2.79,2.8,4.66,4.7,5.58Zm-8.4,121.94a2,2,0,0,1,1-1.36c1.2-.64,3,.07,3.21.16a.68.68,0,0,0,.9-.36l.15-.3c1-2,2.46-5.11,4.54-5.33,1-.11,2.21.59,3.35,1.26.51.3,1,.59,1.46.81a18.73,18.73,0,0,0,6.11,1.81,10.61,10.61,0,0,0,8.34-2.53,18.14,18.14,0,0,0,2.45-3v-.07l.69-1a7.85,7.85,0,0,1,3.37-2.93c2.54-.87,5,1.21,6.26,3.52a.53.53,0,0,0,.16.2c-1.13,5.64-1,10.94.44,14.93.16.46.35.91.56,1.37-17,5.29-32.11.23-37.08-1.44l-1.29-.42c-2.29-.66-3.82-1.64-4.45-2.84a3.33,3.33,0,0,1-.17-2.46Zm62.13-1a27.94,27.94,0,0,0-.61-8.6h.19c10.58-3.49,17.11-8.8,20-16.26.78-2,1.38-4.14,2-6.19a66.67,66.67,0,0,1,2.07-6.47,27.59,27.59,0,0,1,10.1-12.86c3.67-2.42,9.84-4.33,15.36-3.16a11.06,11.06,0,0,1,7.31,4.84.71.71,0,0,0,1,.23l0,0a.78.78,0,0,0,.18-1c-3.09-4.83-8.15-5.86-11.85-5.88h-.2a23.72,23.72,0,0,0-12.56,3.77,29.08,29.08,0,0,0-10.65,13.55q-1.23,3.25-2.13,6.62c-.57,2-1.16,4.09-1.91,6.06-2.69,7-8.92,12.05-19.08,15.39h-.07c-.23-1-.48-2-.75-3.13a64.47,64.47,0,0,1-1.48-6.92c-.42-3,.27-5.66,1-8.5.2-.79.44-1.73.66-2.72l6.85,1.53a.7.7,0,0,0,.83-.53.13.13,0,0,0,0-.06l2-10.33c13.83-19,36.25-30.23,57.12-28.66,7,.53,11.8,2.64,14.63,6.43a19.21,19.21,0,0,1,3.26,9.33c1.21,10.23-2.37,21.64-9.58,30.52-8,9.9-20.26,17.16-37.38,22.2a135,135,0,0,1-37.3,5.53,21.08,21.08,0,0,0,1-4.72Z" transform="translate(-791.17 -428.52)"/><line class="cls-8" y1="163.91" x2="89.82" y2="163.91"/><line class="cls-8" x1="259.84" y1="163.91" x2="338.97" y2="163.91"/><path class="cls-9" d="M1087.45,591.83c-2.64-1.2-11.24-2.51-11.25-5.93s-.07-13.84-.07-13.84l.51-.12a8.58,8.58,0,0,1,4.18-.23,13.7,13.7,0,0,1,2.16.91c2.38,1.11,5.14,1.67,7.58.72a13.43,13.43,0,0,0,3.3-2.11c.42-.32,2.3-2.13,2.8-1.29l-.32,17.91s-6.25,5.17-8.89,4" transform="translate(-791.17 -428.52)"/><path class="cls-10" d="M1080.44,591.1c3.86,1.59,16.86,3.31,17.12-5s0-34.76,0-34.76l-4.38-7-.13-7.43" transform="translate(-791.17 -428.52)"/><path class="cls-10" d="M1080.44,536.89v7.3l-4.64,7.16v33s.78,5.18,4.64,6.77" transform="translate(-791.17 -428.52)"/><ellipse class="cls-11" cx="295.06" cy="108.6" rx="10.43" ry="2.39"/><path class="cls-12" d="M824.14,580l.21-.39,14.25.22v.64l2.44-.22a1.53,1.53,0,0,0,.64-.25c2.38-1.41,4.8-9,5.66-11.9.4-.18.38-.34.33-.64s-.23-.62-.93-.52l-.42.06v.09c-.52.11-1.55.33-3.62.73a16.57,16.57,0,0,0-7.69,3.55l-.94-3.63c-1.28-4.92-9.37-9.2-9.71-9.38l-.69-.35-2.9,9.6c-2.45,8.09,1.81,11.61,3,12.39.17.12.27.17.28.18Z" transform="translate(-791.17 -428.52)"/><path class="cls-7" d="M844.67,579.47l-2.74,10.95H825.54l-2.4-10.95Z" transform="translate(-791.17 -428.52)"/></svg>