<svg id="Layer_1" data-name="Layer 1" xmlns="http://www.w3.org/2000/svg" viewBox="0 0 429.76 293.23"><defs><style>.cls-1{fill:#333335;}.cls-2{fill:#6da0ab;}.cls-3{fill:#e8c842;}.cls-4,.cls-6{fill:#3f3d56;}.cls-5,.cls-7{fill:#143068;}.cls-6{stroke:#000;stroke-miterlimit:10;}.cls-7{stroke:#143068;stroke-linecap:round;stroke-linejoin:round;stroke-width:0;}</style></defs><title>4ptest</title><path class="cls-1" d="M1057,671.06l65.31-95c-1.51-1.4-4.95-3.94-7-2.7L1053.59,665Z" transform="translate(-745.39 -394.66)"/><path class="cls-2" d="M930.67,626.85l-7.41-3.29.15.14-2.6-1.24h0c-.91-.43-1.82-.88-2.71-1.34l-5.4,6.42.26,0C914.33,627.33,921.16,627,930.67,626.85Z" transform="translate(-745.39 -394.66)"/><path class="cls-1" d="M1057,672.94l-2.3-4a5,5,0,0,1-.37,3.26,3.16,3.16,0,0,1-1.62,1.33H1057c.17,0,17,0,26.81-4,2.91-1.16,4.47-2.42,4.52-3.64.09-2.13-4.23-4.29-6.55-5.45-3.5-1.75-11.82-3.53-13.56-3.89Z" transform="translate(-745.39 -394.66)"/><path class="cls-2" d="M1141.22,671.19A14.46,14.46,0,0,0,1145,668a12.7,12.7,0,0,0,3.06-8.22c.22-22.6,2-208.73,0-239.85h0v-.05a20.14,20.14,0,0,0-.51-4.2l.18-.08a7.07,7.07,0,0,0-2.52-3.72,14.24,14.24,0,0,0-7.7-2.9H942.87A76.43,76.43,0,0,1,951,420.59c1,1.84,2.08,4,1.92,6.33s-1.8,4.62-4.21,4.8c0,.2-.06.4-.08.58l-.78,7A76.38,76.38,0,0,1,945.48,453c-2.06,6.87-6,13-9.71,18.88a10.45,10.45,0,0,1-3,3.41c-2.21,1.4-5,1-6.88.38l-.21-.07-1.21-.38V476a37.08,37.08,0,0,0,4.38,14.12,74.27,74.27,0,0,0,5.71,8.29,71.87,71.87,0,0,1,6.22,9.22c2.88,5.44,4,11.07,3.08,15.87a23.72,23.72,0,0,1-2,5.62,38.33,38.33,0,0,1,10.48-6,19.09,19.09,0,0,1,11.37-.72c8.37,2.25,14.66,10.79,17.66,15.68A164.57,164.57,0,0,1,994.2,563c1.55,3.86,3,7.82,4.46,11.65l1,2.73c3.11,8.3,6.54,17.08,11.11,25.22a112.06,112.06,0,0,0,7.71,11.44,2.59,2.59,0,0,1,.69,1.87,1.51,1.51,0,0,1-.32.69c1.13,2.13,8.86,16.54,12.51,21.11a27.14,27.14,0,0,0,7.83,6.86l.06,0,.42-1.28,11.74,5.44L1103,575s0,1,11-2l-61.78,91.74,0,0,.36-.36.25-.25-.07-.07,61.34-91,.31-.05.15,0,0-.16.16-.25c3.31-2.2,8.42,2.85,8.63,3.07l.3.29-.24.34-54.57,79.38c2.39.51,10,2.18,13.38,3.89,2.88,1.44,7.22,3.61,7.11,6.39-.07,1.69-1.76,3.17-5.14,4.52a56.81,56.81,0,0,1-13.26,3.07l62.68-.32,4.75-1A10.4,10.4,0,0,0,1141.22,671.19ZM1102.11,526.5c-.95,3.34-3.88,6.89-7.46,6.89-13.64,0-27.49.16-40.88.31-11.49.13-23.36.26-35.06.29h-1.66c-3.91,0-8.17-.2-11.32-2.88h0l.35-.41-.36.4c-4.15-3.56-4.7-9.41-4.71-14.11,0-9.91.06-20,.12-29.72s.13-19.81.13-29.72a5.78,5.78,0,0,1,1-3.26,7.64,7.64,0,0,1,6.4-3.3h85.78a7.75,7.75,0,0,1,3.87,1c1.94,1.12,4.26,3,4.26,5.53V507c0,1.7.09,3.5.19,5.41C1103,517.3,1103.29,522.31,1102.11,526.5ZM1103,430a6.19,6.19,0,0,1-4,2h-16s-6,0-6-2a3.7,3.7,0,0,1,2-3h21S1105,428,1103,430Zm26.5-6a4.5,4.5,0,1,1,4.5-4.5A4.49,4.49,0,0,1,1129.5,424Z" transform="translate(-745.39 -394.66)"/><path class="cls-1" d="M915.19,618.4c.87.49,1.74,1,2.63,1.45l.08-.09.37.32c.75.39,1.51.77,2.27,1.15.55-1.93,3.45-5.55,6.08-8.56,6-6.85,14.26-11.56,16.55-12.8L938,595l.2.31C935.17,593.87,922.92,608.25,915.19,618.4Z" transform="translate(-745.39 -394.66)"/><path class="cls-3" d="M825,429.47V499.8c1.38-.68,2.77-1.33,4.19-1.89,2.59-1,5.28-1.9,7.89-2.74a93.42,93.42,0,0,0,9.8-3.55c12.45-5.6,20.37-15.82,24.83-23.41a34.65,34.65,0,0,0,5-16.08c.19-2.18.3-4.42.4-6.58a80.28,80.28,0,0,1,1.43-13.66c1.6-7.2,7-14.06,11.52-19.24.8-.92,1.61-1.8,2.43-2.65h-57C824.16,411.9,825,429.3,825,429.47ZM862.5,418a4.5,4.5,0,1,1-4.5,4.5A4.49,4.49,0,0,1,862.5,418Zm-13,0a4.5,4.5,0,1,1-4.5,4.5A4.49,4.49,0,0,1,849.5,418Zm-9.5,4.5a4.5,4.5,0,1,1-4.5-4.5A4.49,4.49,0,0,1,840,422.5Z" transform="translate(-745.39 -394.66)"/><path class="cls-4" d="M901.83,610.15l-.05,0a9.66,9.66,0,0,1-.31,1.06c-.87,2.63-6.35,8-8.13,9.74,1.36.59,2.79,1.29,4.27,2,4.4,2.16,9.32,4.57,13.71,4.66l5.85-7c-2.59-1.37-5.12-2.83-7.54-4.39A43.72,43.72,0,0,1,901.83,610.15Z" transform="translate(-745.39 -394.66)"/><path class="cls-2" d="M998.69,628.08a8.67,8.67,0,0,1-3.06-1.88c-12.18-10.44-19.55-25.34-25.7-39.88-2.45-5.78-5-12.17-7.8-19.54-.34-.89-.67-1.79-1-2.68l-2.65,7.08c-2.74,7.3-14.26,21.67-17.29,25.29l3.66,3.67-.62.31s-.87.44-2.23,1.23c2.58,2.49,15.11,14.49,21.3,18.91a93.2,93.2,0,0,0,10.93,7l.13.09.69.69c10.28.95,20,2.45,27.25,4.76l-1.75-3.88-.57-.86.11-.07A5.49,5.49,0,0,1,998.69,628.08Z" transform="translate(-745.39 -394.66)"/><path class="cls-3" d="M882.74,672.45c-11.81-.67-26.5-1.51-35.09-10.1-13.42-13.41-17.15-38-17.15-40.35v-2.47c-1.53-1.06-3-2.37-3-3.53h0c.1-3.6,1.06-35.24,3.08-38.27,1.07-1.86,3.71-7.28,2.95-9.56-.47-1.39.33-3.42,1.42-5.33a2,2,0,0,1-.34,0c-2.82-.49-4.74-6.73-4.76-6.79-1-3.63-3.27-5.38-6.86-5.33V660.43a13.17,13.17,0,0,0,4.75,10.27c1.83,1.46,10.32,3.68,13.7,3.3l.06.47,56,.27a6.52,6.52,0,0,1-.69-.29C894.07,673.09,888.82,672.8,882.74,672.45Z" transform="translate(-745.39 -394.66)"/><path class="cls-1" d="M1050.87,649.57l-10.57-4.88-.23.68.28.28-.56.56-.32.95c-4.67,8.57-17.76,11.23-24,12h0l-.48.15,0-.09c-1.64.19-2.72.25-2.91.26h-1.09a21.59,21.59,0,0,1-3.29,4.21c6.66-.22,36.56-1.21,38.36-1.21a13.91,13.91,0,0,1,3.94.46l-5.79-3.78Z" transform="translate(-745.39 -394.66)"/><path class="cls-1" d="M830.81,555.74c.47,1.67,2.28,5.78,4,6.08a1.15,1.15,0,0,0,1-.38,41.25,41.25,0,0,1,2.68-3.6,148.61,148.61,0,0,1-1-15.84c0-7.87,6.69-25.72,19.09-43.29,11.61-16.45,26.24-12.58,27.48-12.21h.8c7-6.53,13.18-12.57,17.43-20.24,4.79-8.63,6.17-18.07,3.77-25.88-.19-.63-.41-1.26-.63-1.89a17.12,17.12,0,0,1-1.34-6.35,9,9,0,0,1,5.39-7.76,4.23,4.23,0,0,1,3.61-.1c1.54.83,1.91,2.75,2.06,4.12a35,35,0,0,1-.3,9.11,20.23,20.23,0,0,1,5.48-2.08l1.28-.35c1.75-.52,3.54-1,5.27-1.43,1-.26,2.05-.52,3.08-.8a47.18,47.18,0,0,0,9.8-3.61,15,15,0,0,0,1.55-1.13c1.95-1.53,4.63-3.63,6.39-3.18a1.87,1.87,0,0,1,1.27,1.13c.51,1.18.2,3.05-.08,4.61a4.15,4.15,0,0,0,3-3.82,10.81,10.81,0,0,0-1.79-5.77c-6.48-11.43-21.34-29.49-36-24.61-6.95,2.32-13.71,6.81-20.16,13.37V410h-.16q-1.53,1.58-3.06,3.31c-4.44,5.08-9.74,11.82-11.29,18.8a78.76,78.76,0,0,0-1.41,13.48c-.1,2.18-.21,4.42-.4,6.63a36,36,0,0,1-5.11,16.5c-4.53,7.71-12.59,18.1-25.28,23.81a92.67,92.67,0,0,1-9.91,3.59c-2.58.83-5.26,1.69-7.82,2.71-1.54.62-3.06,1.32-4.56,2.08V501h-.18a58.93,58.93,0,0,0-14.23,10.13c-8.35,8.1-10.91,22.14-6.08,33.38,1.5,3.48,4.17,5.91,7.15,6.5,2.17.43,4.34-.07,6.64-.6.75-.17,1.5-.35,2.24-.49.51-.09,1-.15,1.45-.19v-.05h.51C826.83,549.45,829.62,551.48,830.81,555.74Z" transform="translate(-745.39 -394.66)"/><path class="cls-2" d="M1020.63,530h.57c11,0,22.22-.16,33-.28,12.63-.14,25.69-.28,38.55-.28,2.78,0,5.27-2.87,6.08-5.63,1.07-3.7.83-8.24.61-12.62-.1-1.78-.18-3.45-.18-5V460.56c0-1.87-1.91-3.34-3.51-4.24a6.39,6.39,0,0,0-3.16-.82h-80.88a6.26,6.26,0,0,0-5.21,2.6,4.36,4.36,0,0,0-.82,2.46c0,9.13-.06,18.41-.11,27.39s-.12,18.25-.12,27.37c0,4.38.51,9.25,4.08,12.24l-.3.4.32-.38C1012.56,530,1016.85,530,1020.63,530ZM1085,487.35a1.4,1.4,0,0,1-1.53,1.25H1049l-.11-.26c-.2-.46-1.19-2.87-.8-4.35a1.14,1.14,0,0,1,1.09-1h34.37l.1.16C1084,483.75,1085.26,485.8,1085,487.35Zm0,12a1.4,1.4,0,0,1-1.53,1.25H1049l-.11-.26c-.2-.46-1.19-2.87-.8-4.35a1.14,1.14,0,0,1,1.09-1h34.37l.1.16C1084,495.75,1085.26,497.8,1085,499.35Zm-47.82-32.71a1.54,1.54,0,0,1,1.59-1.15h50.16l.15.18c.56.69,2.34,3.07,1.9,4.88a2,2,0,0,1-2.24,1.45h-50.23l-.16-.3C1038,471.16,1036.57,468.36,1037.13,466.64Zm0,44a1.54,1.54,0,0,1,1.59-1.15h50.16l.15.18c.56.69,2.34,3.07,1.9,4.88a2,2,0,0,1-2.24,1.45h-50.23l-.16-.3C1038,515.16,1036.57,512.36,1037.13,510.64ZM1018.5,464a5.5,5.5,0,1,1-5.5,5.5A5.5,5.5,0,0,1,1018.5,464Z" transform="translate(-745.39 -394.66)"/><path class="cls-4" d="M1012.63,651.93l.48-.15h0a53.29,53.29,0,0,0,1.39-6.85,6.18,6.18,0,0,0-2-5.44c-10.16-10.34-53.55-12-79.83-11.78v0l-.06,0c-9.7.1-17.06.48-19.53.79-.42,0-.84.07-1.27.08l-.27.32-.39-.32c-4.56-.15-9.52-2.59-14-4.77-3.09-1.51-6-2.94-8.25-3.32-5.74-1-16.43,0-23.85,1-7,1-30.11,0-31.09,0l-.2,0c-.38-.19-1.28-.65-2.28-1.27V622c0,2.32,3.67,26.46,16.85,39.65,8.32,8.32,22.81,9.14,34.45,9.8,6.19.35,11.53.66,14.42,2.1a17.43,17.43,0,0,0,4.28,1.21l3.52,0v.53c1.16.15,2.43.3,3.77.43l64.18-.66a79.17,79.17,0,0,0,8.91-1.57l.25-.06,22.81-8.65c3.65-2.82,6.22-6.59,7.91-12.16Z" transform="translate(-745.39 -394.66)"/><path class="cls-1" d="M923.5,475h.25a37.2,37.2,0,0,1-3.61-1.36c-.33.43-.66.83-1,1.24a13.62,13.62,0,0,0-2.42,3.63,27.75,27.75,0,0,0-1.51,6c-1.05,6.26-1.9,12.64-2.55,19,0,.49-.06,1-.08,1.5s-.05,1.23-.13,1.85h0l1,2.94c.61,1,8,13,6,30.28a98,98,0,0,1-4.84,21.09l.25.46a26.62,26.62,0,0,1,2-2.89c.25-.32.45-.58.54-.71,1.38-2.11,2.55-3.86,3.67-5.48,2.87-4.17,5.53-7.7,8.12-10.8a92.1,92.1,0,0,1,10.87-11.18c.17-.36.32-.71.49-1.06a26.5,26.5,0,0,0,2.3-6.18c.86-4.57-.2-10-3-15.21a69.54,69.54,0,0,0-6.13-9.09,77.07,77.07,0,0,1-5.78-8.4,38.16,38.16,0,0,1-4.51-14.56Z" transform="translate(-745.39 -394.66)"/><path class="cls-1" d="M995.39,624.63l.89.81a7.75,7.75,0,0,0,2.68,1.68c3,.85,6.63-1.79,9.27-3.73l.83-.6c1-.72,2-1.45,3-2.19l5.13-3.82c.56-.42,1-.74,1.05-1s-.13-.61-.51-1.12c-1-1.3-1.91-2.62-2.86-4l-6.59,3.76A67.26,67.26,0,0,0,995.39,624.63Z" transform="translate(-745.39 -394.66)"/><path class="cls-4" d="M940.46,532.2,940,532a91.89,91.89,0,0,0-10,10.39c-2.57,3.07-5.21,6.58-8.07,10.71-1.11,1.63-2.28,3.36-3.66,5.46-.09.15-.3.43-.57.78a18.36,18.36,0,0,0-2.2,3.35l1.43,2.58-.12.06c2.7,4.88,8.8,15.59,12.53,19.33l11.12,11.11c3-3.61,14.43-17.91,17.06-24.94l2-5.2-8.82-8.25.68-.74,8.52,8,.67-1.79.13,0q-1.14-3-2.27-6.08c-.36-1-.77-1.94-1.2-3a34.52,34.52,0,0,1-2.37-6.94l-.25-1.34,1.06.87a2.13,2.13,0,0,1,.58.78l.25.62-.37.15a42.63,42.63,0,0,0,2,5.47c.42,1,.85,2,1.21,3q1.86,5,3.74,10c2.8,7.35,5.35,13.73,7.79,19.5,5.82,13.76,12.74,27.82,23.79,38a68.89,68.89,0,0,1,13.11-10.39l6.51-3.72c-1.52-2.18-3-4.42-4.33-6.78-4.61-8.2-8-17-11.18-25.36l-1-2.73c-1.43-3.82-2.91-7.78-4.46-11.62a162.09,162.09,0,0,0-12.74-24.73c-2.93-4.77-9-13.08-17.07-15.25a18.44,18.44,0,0,0-10.77.7,39.51,39.51,0,0,0-11.76,7.08C940.77,531.51,940.61,531.85,940.46,532.2Z" transform="translate(-745.39 -394.66)"/><path class="cls-5" d="M825,429.47c0-.17-.84-17.57,10.5-19.47h57c.32-.34.64-.67,1-1h-58C823.12,411.06,824,429.34,824,429.5v70.79l1-.49Z" transform="translate(-745.39 -394.66)"/><path class="cls-5" d="M894,409.84a1.21,1.21,0,0,1-.16.16H894Z" transform="translate(-745.39 -394.66)"/><path class="cls-5" d="M825,500.91l-.18.09H825Z" transform="translate(-745.39 -394.66)"/><path class="cls-4" d="M973,675.08l-64.18.66C925.49,677.38,955,677.37,973,675.08Z" transform="translate(-745.39 -394.66)"/><path class="cls-1" d="M1175,673.8l-.16-.8-36.18.18-.08,0-6.2,1.28-.21-1,1.46-.3-62.68.32a123.33,123.33,0,0,1-13.93,1h-6l-3.37.17h0c-6.14.47-27.92.56-45.36.56-12.23,0-22.31,0-23.36-.05h0C969,677,953,677.86,937.66,677.86c-17.91,0-34.89-1.14-40.19-3.12l-56-.27.06.53a8.86,8.86,0,0,1-.93,0,27.25,27.25,0,0,1-5-.6L747,674h-.23l-.21.1a2.18,2.18,0,0,0-1.08,1.46c-.33,1.28.25,3,1.71,5A15.51,15.51,0,0,0,761.05,687c11.1.06,177.58.89,293.43.89,60.33,0,107-.22,110.7-.91s6.42-2.27,8.11-4.75A12,12,0,0,0,1175,673.8Z" transform="translate(-745.39 -394.66)"/><path class="cls-5" d="M901.5,674.76c1,.2,2.22.38,3.52.55v-.53Z" transform="translate(-745.39 -394.66)"/><path class="cls-5" d="M1004.94,664.8l-22.81,8.65C992.36,670.89,999.75,668.81,1004.94,664.8Z" transform="translate(-745.39 -394.66)"/><path class="cls-5" d="M1052.15,664.85l.09-.09,0,0Z" transform="translate(-745.39 -394.66)"/><path class="cls-6" d="M1104.6,507.58V457.25c0-2.59-2.39-4.49-4.38-5.63a8.1,8.1,0,0,0-4-1h-88.31a7.88,7.88,0,0,0-6.58,3.35,5.87,5.87,0,0,0-1.09,3.32c0,10.07-.06,20.32-.12,30.23s-.13,20.15-.13,30.23c0,4.78.58,10.73,4.85,14.35l.37-.41.33-.44c-3.9-3.29-4.44-8.67-4.46-13.5,0-10.07.07-20.32.13-30.22s.13-20.16.13-30.24a4.83,4.83,0,0,1,.89-2.71,6.8,6.8,0,0,1,5.68-2.87h88.31a7,7,0,0,1,3.45.9c1.74,1,3.82,2.62,3.82,4.68v50.33c0,1.76.1,3.6.2,5.56.25,4.84.5,9.85-.67,13.93-.87,3-3.59,6.22-6.63,6.22-14,0-28.3.15-42.09.31-11.82.13-24,.27-36.08.3h-.63c-4.12,0-8.8,0-12-2.66l-.35.41-.36.42h0c3.24,2.72,7.62,2.93,11.66,2.93h1.7c12,0,24.27-.17,36.09-.3,13.79-.15,28-.31,42.08-.31,3.69,0,6.71-3.61,7.68-7,1.22-4.26,1-9.36.71-14.29C1104.69,511.14,1104.6,509.31,1104.6,507.58Z" transform="translate(-745.39 -394.66)"/><path class="cls-4" d="M820.54,549.92c-.74.14-1.49.32-2.24.49-2.3.53-4.47,1-6.64.6-3-.59-5.65-3-7.15-6.5-4.83-11.24-2.27-25.28,6.08-33.38A58.93,58.93,0,0,1,824.82,501l.18-.09c1.5-.76,3-1.46,4.56-2.08,2.56-1,5.24-1.88,7.82-2.71a92.67,92.67,0,0,0,9.91-3.59c12.69-5.71,20.75-16.1,25.28-23.81a36,36,0,0,0,5.11-16.5c.19-2.21.3-4.45.4-6.63a78.76,78.76,0,0,1,1.41-13.48c1.55-7,6.85-13.72,11.29-18.8q1.53-1.74,3.06-3.31a1.21,1.21,0,0,0,.16-.16c6.45-6.56,13.21-11,20.16-13.37,14.63-4.88,29.49,13.18,36,24.61a10.81,10.81,0,0,1,1.79,5.77,4.15,4.15,0,0,1-3,3.82c.28-1.56.59-3.43.08-4.61a1.87,1.87,0,0,0-1.27-1.13c-1.76-.45-4.44,1.65-6.39,3.18a15,15,0,0,1-1.55,1.13,47.18,47.18,0,0,1-9.8,3.61c-1,.28-2.05.54-3.08.8-1.73.45-3.52.91-5.27,1.43l-1.28.35a20.23,20.23,0,0,0-5.48,2.08,35,35,0,0,0,.3-9.11c-.15-1.37-.52-3.29-2.06-4.12a4.23,4.23,0,0,0-3.61.1,9,9,0,0,0-5.39,7.76,17.12,17.12,0,0,0,1.34,6.35c.22.63.44,1.26.63,1.89,2.4,7.81,1,17.25-3.77,25.88-4.25,7.67-10.41,13.71-17.43,20.24h-.8c-1.24-.37-15.87-4.24-27.48,12.21-12.4,17.57-19.09,35.42-19.09,43.29a148.61,148.61,0,0,0,1,15.84,41.25,41.25,0,0,0-2.68,3.6,1.15,1.15,0,0,1-1,.38c-1.69-.3-3.5-4.41-4-6.08-1.19-4.26-4-6.29-8.31-6.06H823v1c3.59,0,5.84,1.7,6.86,5.33,0,.06,1.94,6.3,4.76,6.79a2,2,0,0,0,.34,0c-1.09,1.91-1.89,3.94-1.42,5.33.76,2.28-1.88,7.7-2.95,9.56-2,3-3,34.67-3.08,38.27h0c0,1.16,1.47,2.47,3,3.53V622c0,2.37,3.73,26.94,17.15,40.35,8.59,8.59,23.28,9.43,35.09,10.1,6.08.35,11.33.64,14,2a6.52,6.52,0,0,0,.69.29c5.3,2,22.28,3.12,40.19,3.12,15.36,0,31.37-.84,41.25-2.69h0c1.05,0,11.13.05,23.36.05,17.44,0,39.22-.09,45.36-.56h0l3.37-.17h6a123.33,123.33,0,0,0,13.93-1,56.81,56.81,0,0,0,13.26-3.07c3.38-1.35,5.07-2.83,5.14-4.52.11-2.78-4.23-5-7.11-6.39-3.43-1.71-11-3.38-13.38-3.89l54.57-79.38.24-.34-.3-.29c-.21-.22-5.32-5.27-8.63-3.07l-.16.25,0,.16-.15,0-.31.05-61.34,91,.07.07-.25.25-.36.36-.09.09L1050,663l-.06,0a13.91,13.91,0,0,0-3.94-.46c-1.8,0-31.7,1-38.36,1.21a21.59,21.59,0,0,0,3.29-4.21H1012c.19,0,1.27-.07,2.91-.26l0,.09.48-.15h0c6.27-.79,19.36-3.45,24-12l.32-.95.56-.56-.28-.28.23-.68,10.57,4.88.57-.82-11.74-5.44-.42,1.28-.06,0a27.14,27.14,0,0,1-7.83-6.86c-3.65-4.57-11.38-19-12.51-21.11a1.51,1.51,0,0,0,.32-.69,2.59,2.59,0,0,0-.69-1.87,112.06,112.06,0,0,1-7.71-11.44c-4.57-8.14-8-16.92-11.11-25.22l-1-2.73c-1.43-3.83-2.91-7.79-4.46-11.65a164.57,164.57,0,0,0-12.82-24.88c-3-4.89-9.29-13.43-17.66-15.68a19.09,19.09,0,0,0-11.37.72,38.33,38.33,0,0,0-10.48,6,23.72,23.72,0,0,0,2-5.62c.9-4.8-.2-10.43-3.08-15.87a71.87,71.87,0,0,0-6.22-9.22,74.27,74.27,0,0,1-5.71-8.29A37.08,37.08,0,0,1,924.5,476v-.75l1.21.38.21.07c1.92.6,4.67,1,6.88-.38a10.45,10.45,0,0,0,3-3.41c3.76-5.9,7.65-12,9.71-18.88a76.38,76.38,0,0,0,2.37-13.72l.78-7c0-.18,0-.38.08-.58,2.41-.18,4-2.59,4.21-4.8s-.89-4.49-1.92-6.33A76.43,76.43,0,0,0,942.87,409h-.42v-.5c-7.69-8.88-18.16-16.46-28.61-13-7,2.34-13.89,6.87-20.41,13.47-.33.33-.65.66-1,1-.82.85-1.63,1.73-2.43,2.65-4.52,5.18-9.92,12-11.52,19.24a80.28,80.28,0,0,0-1.43,13.66c-.1,2.16-.21,4.4-.4,6.58a34.65,34.65,0,0,1-5,16.08c-4.46,7.59-12.38,17.81-24.83,23.41a93.42,93.42,0,0,1-9.8,3.55c-2.61.84-5.3,1.7-7.89,2.74-1.42.56-2.81,1.21-4.19,1.89l-1,.49a59.72,59.72,0,0,0-14.1,10.13c-8.65,8.37-11.3,22.87-6.3,34.49,1.62,3.78,4.56,6.42,7.87,7.08a16.84,16.84,0,0,0,7-.61c.74-.17,1.47-.34,2.21-.47.44-.08.85-.14,1.26-.18v-1C821.52,549.77,821.05,549.83,820.54,549.92Zm8,66.08c.4-14,1.51-35.61,2.93-37.75.17-.3,4.1-7.23,3-10.41-.43-1.3.75-3.66,2.14-5.79a5.14,5.14,0,0,0,.45-.54l-.06,0a35.53,35.53,0,0,1,2.38-3.14l.14-.17,0-.22a147.94,147.94,0,0,1-1-15.94c0-7.83,7.07-25.94,18.91-42.71,11.63-16.48,26.29-11.86,26.43-11.82l.95,0a9.23,9.23,0,0,0,2.18,1.39c.34.18.68.36,1,.54,1.2.72,2.4,1.47,3.58,2.23,2.35,1.51,4.7,3.11,7,4.77s4.51,3.38,6.68,5.16c.85.7,1.71,1.49,2.54,2.26a37.69,37.69,0,0,0,3.87,3.28l-.07,0,1,3,.05.12c.08.12,7.88,12.05,5.92,29.66a96.89,96.89,0,0,1-4.93,21.3h0a73.75,73.75,0,0,1-4,9.51l.88.48a74.27,74.27,0,0,0,3.77-8.83l.27.48a1,1,0,0,0,.08.35c.37.7,9.1,17.13,14.09,22.11l8.91,8.91c-5.73.69-20.26,19.83-23.25,23.65-1.4-.81-2.79-1.64-4.14-2.51a42.84,42.84,0,0,1-7.62-5.95c-.22-.22-.42-.46-.63-.7a.94.94,0,0,0-.29-.63.67.67,0,0,0-.35-.17,41.54,41.54,0,0,1-4-6.82c-.34-.69-.68-1.38-1-2a161.93,161.93,0,0,1-11.36-27.2c-.76-2.52-1.44-5.18-2.09-7.75-1.6-6.27-3.24-12.75-6.4-18.38l-.88.5c3.1,5.5,4.73,11.92,6.31,18.12.66,2.59,1.34,5.26,2.11,7.8a161.94,161.94,0,0,0,11.43,27.37c.34.67.68,1.34,1,2a38.24,38.24,0,0,0,4.51,7.57,7.29,7.29,0,0,1-.41,1.7c-.86,2.58-7,8.49-8.2,9.65a16.12,16.12,0,0,0-3.25-1c-5.84-1-16.66-.07-24.15,1-6.64,1-29,.07-30.8,0C831.76,619.31,828.5,617.15,828.5,616ZM938,595l5.17,4.87c-2.29,1.24-10.56,6-16.55,12.8-2.63,3-5.53,6.63-6.08,8.56-.76-.38-1.52-.76-2.27-1.15l-.37-.32-.08.09c-.89-.46-1.76-1-2.63-1.45,7.73-10.15,20-24.53,23-23.09Zm62.54,34.21,1.75,3.88c-7.3-2.31-17-3.81-27.25-4.76l-.69-.69-.13-.09a93.2,93.2,0,0,1-10.93-7c-6.19-4.42-18.72-16.42-21.3-18.91,1.36-.79,2.21-1.22,2.23-1.23l.62-.31-3.66-3.67c3-3.62,14.55-18,17.29-25.29l2.65-7.08c.34.89.67,1.79,1,2.68,2.8,7.37,5.35,13.76,7.8,19.54,6.15,14.54,13.52,29.44,25.7,39.88a8.67,8.67,0,0,0,3.06,1.88,5.49,5.49,0,0,0,1.39.2l-.11.07Zm-79.08-7.55c.09-.51.8-2.48,5.92-8.33a59.81,59.81,0,0,1,13.72-11.12c2,2,15.18,14.6,21.61,19.2a105.91,105.91,0,0,0,10.53,6.76c-13.89-1.2-28.69-1.44-40.19-1.34h0Zm-4.29-1-5.85,7c-4.39-.09-9.31-2.5-13.71-4.66-1.48-.73-2.91-1.43-4.27-2,1.78-1.7,7.26-7.11,8.13-9.74a9.66,9.66,0,0,0,.31-1.06l.05,0a43.72,43.72,0,0,0,7.8,6.09C912.05,617.8,914.58,619.26,917.17,620.63Zm.91.48c.89.46,1.8.91,2.71,1.34h0l2.6,1.24-.15-.14,7.41,3.29c-9.51.13-16.34.48-17.73.65l-.26,0Zm163.7,39.34c2.32,1.16,6.64,3.32,6.55,5.45,0,1.22-1.61,2.48-4.52,3.64-9.79,3.91-26.64,4-26.81,4h-4.33a3.16,3.16,0,0,0,1.62-1.33,5,5,0,0,0,.37-3.26l2.3,4,11.26-16.38C1070,656.92,1078.28,658.7,1081.78,660.45Zm33.58-87.08c2-1.24,5.48,1.3,7,2.7l-65.31,95-3.45-6Zm-61.85,94.73c.35,1.75.32,2.88-.08,3.57-.51.87-1.73,1.17-3.58,1.61l-1,.23a7.37,7.37,0,0,1-1.19.15h-.11c-8.41.66-50.49.57-64.28.52,10.37-2.62,18-4.88,23.23-9.44,2.14-.08,37.55-1.25,39.47-1.25S1052.59,663.5,1053.51,668.1Zm-48.57-3.3c-5.19,4-12.58,6.09-22.81,8.65l-.25.06a79.17,79.17,0,0,1-8.91,1.57c-18,2.29-47.48,2.3-64.18.66-1.34-.13-2.61-.28-3.77-.43s-2.48-.35-3.52-.55a17.43,17.43,0,0,1-4.28-1.21c-2.89-1.44-8.23-1.75-14.42-2.1-11.64-.66-26.13-1.48-34.45-9.8C835.17,648.46,831.5,624.32,831.5,622v-1.82c1,.62,1.9,1.08,2.28,1.27l.2,0c1,0,24.12,1,31.09,0,7.42-1.06,18.11-2,23.85-1,2.24.38,5.16,1.81,8.25,3.32,4.44,2.18,9.4,4.62,14,4.77l.39.32.27-.32c.43,0,.85,0,1.27-.08,2.47-.31,9.83-.69,19.53-.79l.06,0v0c26.28-.27,69.67,1.44,79.83,11.78a6.18,6.18,0,0,1,2,5.44,53.29,53.29,0,0,1-1.39,6.85h0l-.48.15.22.71C1011.16,658.21,1008.59,662,1004.94,664.8Zm25.67-26.49a27.71,27.71,0,0,0,8.09,7.1l.23.23-.37,1.12c-4.3,7.88-16.72,10.52-22.93,11.37l-1.73-5.52a53.58,53.58,0,0,0,1.6-7.54,7.24,7.24,0,0,0-2.3-6.28c-2.05-2.1-5.39-3.83-9.62-5.28l-2.16-4.79-.35-.52c2.77-.37,5.57-2.41,7.75-4l.82-.6c1-.72,2-1.46,3-2.2l5.12-3.82.38-.28C1019.66,620.17,1027,633.77,1030.61,638.31Zm-12.91-23.69c.38.51.55.88.51,1.12s-.49.62-1.05,1L1012,620.6c-1,.74-2,1.47-3,2.19l-.83.6c-2.64,1.94-6.26,4.58-9.27,3.73a7.75,7.75,0,0,1-2.68-1.68l-.89-.81a67.26,67.26,0,0,1,12.86-10.2l6.59-3.76C1015.79,612,1016.75,613.32,1017.7,614.62Zm-65-90.54a18.44,18.44,0,0,1,10.77-.7c8,2.17,14.14,10.48,17.07,15.25a162.09,162.09,0,0,1,12.74,24.73c1.55,3.84,3,7.8,4.46,11.62l1,2.73c3.13,8.33,6.57,17.16,11.18,25.36,1.33,2.36,2.81,4.6,4.33,6.78l-6.51,3.72A68.89,68.89,0,0,0,994.64,624c-11-10.21-18-24.27-23.79-38-2.44-5.77-5-12.15-7.79-19.5q-1.89-5-3.74-10c-.36-1-.79-2-1.21-3a42.63,42.63,0,0,1-2-5.47l.37-.15-.25-.62a2.13,2.13,0,0,0-.58-.78l-1.06-.87.25,1.34a34.52,34.52,0,0,0,2.37,6.94c.43,1,.84,2,1.2,3q1.13,3,2.27,6.08l-.13,0-.67,1.79-8.52-8-.68.74,8.82,8.25-2,5.2c-2.63,7-14,21.33-17.06,24.94l-11.12-11.11c-3.73-3.74-9.83-14.45-12.53-19.33l.12-.06-1.43-2.58a18.36,18.36,0,0,1,2.2-3.35c.27-.35.48-.63.57-.78,1.38-2.1,2.55-3.83,3.66-5.46,2.86-4.13,5.5-7.64,8.07-10.71A91.89,91.89,0,0,1,940,532l.49.21c.15-.35.31-.69.47-1A39.51,39.51,0,0,1,952.69,524.08ZM928,490.61a77.07,77.07,0,0,0,5.78,8.4,69.54,69.54,0,0,1,6.13,9.09c2.78,5.24,3.84,10.64,3,15.21a26.5,26.5,0,0,1-2.3,6.18c-.17.35-.32.7-.49,1.06a92.1,92.1,0,0,0-10.87,11.18c-2.59,3.1-5.25,6.63-8.12,10.8-1.12,1.62-2.29,3.37-3.67,5.48-.09.13-.29.39-.54.71a26.62,26.62,0,0,0-2,2.89l-.25-.46a98,98,0,0,0,4.84-21.09c1.92-17.33-5.44-29.33-6-30.28l-1-2.94h0c.08-.62.1-1.24.13-1.85s0-1,.08-1.5c.65-6.32,1.5-12.7,2.55-19a27.75,27.75,0,0,1,1.51-6,13.62,13.62,0,0,1,2.42-3.63c.33-.41.66-.81,1-1.24a37.2,37.2,0,0,0,3.61,1.36h-.25v1.05A38.16,38.16,0,0,0,928,490.61Zm19.86-59.9c-.1.56-.19,1.07-.24,1.48l-.77,7a77.17,77.17,0,0,1-2.33,13.54c-2,6.74-5.88,12.79-9.6,18.63a9.64,9.64,0,0,1-2.67,3.11c-1.88,1.19-4.32.8-6,.27l-.21-.07a35.31,35.31,0,0,1-7.27-2.88c-2.63-1.56-5.41-4.43-5.33-7.79l-1,0c-.09,3.79,3,7,5.82,8.67q.48.29,1,.54c-.28.36-.56.7-.84,1a14.64,14.64,0,0,0-2.58,3.89,29.73,29.73,0,0,0-1.57,6.24c-1.05,6.29-1.91,12.69-2.55,19,0,.51-.07,1-.09,1.56,0,.3,0,.6,0,.9-1.09-.84-2.13-1.81-3.15-2.75-.83-.77-1.7-1.57-2.58-2.3-2.18-1.78-4.44-3.53-6.72-5.19s-4.65-3.28-7-4.8c-1.19-.77-2.39-1.52-3.61-2.25-.32-.19-.68-.38-1.05-.57a11.38,11.38,0,0,1-1.65-1c7-6.51,13.13-12.57,17.4-20.28,4.93-8.88,6.33-18.59,3.86-26.66-.2-.64-.42-1.29-.65-1.93a16.12,16.12,0,0,1-1.28-6,8,8,0,0,1,4.78-6.88,3.43,3.43,0,0,1,2.75-.14c.85.46,1.34,1.52,1.53,3.34a34.12,34.12,0,0,1-.52,10.16l-.35,1.74,1.2-1.31c1.27-1.37,4-2.1,6.11-2.69l1.31-.37c1.72-.51,3.5-1,5.23-1.41l3.09-.81a48.27,48.27,0,0,0,10-3.68,15.53,15.53,0,0,0,1.69-1.23c1.59-1.24,4.25-3.32,5.54-3a.84.84,0,0,1,.59.56C948.48,427.41,948.14,429.24,947.87,430.71Z" transform="translate(-745.39 -394.66)"/><line class="cls-7" x1="267.72" y1="257.12" x2="267.72" y2="257.12"/><line class="cls-7" x1="270.05" y1="264.52" x2="270.05" y2="264.52"/><line class="cls-7" x1="270.05" y1="264.52" x2="270.05" y2="264.52"/><path class="cls-5" d="M942.87,409H1137.5a14.24,14.24,0,0,1,7.7,2.9,7.07,7.07,0,0,1,2.52,3.72l-.18.08a20.14,20.14,0,0,1,.51,4.2V420h0c2,31.12.21,217.25,0,239.85A12.7,12.7,0,0,1,1145,668a14.46,14.46,0,0,1-3.76,3.17,10.4,10.4,0,0,1-2.86,1l-4.75,1-1.46.3.21,1,6.2-1.28.08,0a10.84,10.84,0,0,0,3.07-1.12,15.54,15.54,0,0,0,4-3.38,13.78,13.78,0,0,0,3.3-8.87c.36-36.61,1.93-208.22,0-239.7,0-.31.94-5.88-3.23-9a15.07,15.07,0,0,0-8.3-3.1h-195v1Z" transform="translate(-745.39 -394.66)"/><path class="cls-5" d="M841.56,675l-.06-.53-.06-.47c-3.38.38-11.87-1.84-13.7-3.3A13.17,13.17,0,0,1,823,660.43V549.68h-1V660.43a14.15,14.15,0,0,0,5.13,11.05c1.33,1.06,5,2.26,8.53,3a27.25,27.25,0,0,0,5,.6A8.86,8.86,0,0,0,841.56,675Z" transform="translate(-745.39 -394.66)"/></svg>