<svg id="Outline" xmlns="http://www.w3.org/2000/svg" viewBox="0 0 1808.68 331.6"><defs><style>.cls-1,.cls-25{fill:#fff;}.cls-2{fill:#867f77;stroke:#867f77;}.cls-10,.cls-11,.cls-12,.cls-13,.cls-14,.cls-15,.cls-16,.cls-17,.cls-18,.cls-19,.cls-2,.cls-21,.cls-22,.cls-23,.cls-24,.cls-25,.cls-3,.cls-34,.cls-35,.cls-36,.cls-37,.cls-38,.cls-39,.cls-40,.cls-41,.cls-6,.cls-7,.cls-8,.cls-9{stroke-miterlimit:10;}.cls-3{fill:#9a9a9a;stroke:#9a9a9a;}.cls-4{fill:#a8a8a8;}.cls-15,.cls-21,.cls-24,.cls-34,.cls-36,.cls-38,.cls-5{fill:#3f3d56;}.cls-31,.cls-35,.cls-6{fill:#c0dcf3;}.cls-23,.cls-35,.cls-6{stroke:#143068;}.cls-6{stroke-width:3px;opacity:0.1;}.cls-12,.cls-22,.cls-23,.cls-26,.cls-29,.cls-30,.cls-37,.cls-39,.cls-40,.cls-7{fill:none;}.cls-10,.cls-11,.cls-12,.cls-13,.cls-14,.cls-15,.cls-16,.cls-17,.cls-18,.cls-19,.cls-21,.cls-22,.cls-24,.cls-25,.cls-29,.cls-34,.cls-36,.cls-40,.cls-41,.cls-7,.cls-8,.cls-9{stroke:#3f3d56;}.cls-8{fill:#6da0ab;}.cls-10,.cls-11,.cls-12,.cls-13,.cls-14,.cls-15,.cls-16,.cls-17,.cls-18,.cls-8,.cls-9{stroke-width:0.75px;}.cls-9{fill:#e8c842;}.cls-10,.cls-32{fill:#8fd182;}.cls-11,.cls-33{fill:#ca8a65;}.cls-13{fill:#d1eff2;}.cls-14{fill:#f4a671;}.cls-16{fill:#f4a0a0;}.cls-17{fill:#70595e;}.cls-18,.cls-19{fill:#4ab19a;}.cls-19,.cls-21,.cls-40{stroke-width:0.25px;}.cls-20{fill:#ff7bac;}.cls-22,.cls-36,.cls-38,.cls-39{stroke-width:2px;}.cls-27{fill:#143068;}.cls-28{fill:#f7dce7;}.cls-29,.cls-30{stroke-linecap:round;stroke-linejoin:round;stroke-width:0;}.cls-30,.cls-37,.cls-38,.cls-39{stroke:#fff;}.cls-34,.cls-35{stroke-width:0.5px;}.cls-41{fill:#f6f9f8;}</style></defs><title>bg12</title><polygon class="cls-1" points="9.16 201.21 291.8 200.22 293.79 0.5 709.39 0.5 707.4 202.75 1807.14 202.75 1808.68 331.6 10.7 331.6 9.16 201.21"/><polygon class="cls-2" points="627.51 276.74 1714.31 276.74 1714.31 282.59 627.79 282.59 627.51 276.74"/><rect class="cls-3" x="628.36" y="214.52" width="1085.94" height="13.35"/><path class="cls-4" d="M709.66,657.6V608.73H1796.17V657.6Z" transform="translate(-81.87 -380.86)"/><polyline class="cls-5" points="460.87 202.35 460.22 191.54 432.17 191.49 393.33 192.3 357.19 202.47 356.23 203.06"/><polyline class="cls-6" points="516.37 186.5 688.72 187.69 688.72 16.65 579.25 16.65 438.57 16.65 438.57 187.42 460.2 187.42"/><polyline class="cls-7" points="1713.44 202.75 1414.59 202.75 1414.59 202.75 1414.59 202.75 1307.97 202.75 1259.59 202.75 707.4 202.75 707.4 0.5 311.78 0.5 291.8 0.5 291.8 200.22 25.31 200.22"/><polyline class="cls-8" points="903.63 129.73 902.61 129.68 899.3 129.84 899.3 184.03 933.29 184.03 933.29 129.73 905.23 129.73 903.63 129.73 903.63 115.12 865.3 115.12 865.3 202.75 904.54 202.75"/><polyline class="cls-8" points="975.05 202.75 975.05 108.96 933.29 108.96 923.71 108.96 923.71 129.73"/><polyline class="cls-9" points="1024.34 202.75 1024.34 126.99 1016.01 126.99 1016.01 202.75 1024.34 202.75"/><polyline class="cls-9" points="810.08 202.75 810.08 131.78 798.9 131.78 798.9 202.75"/><polygon class="cls-10" points="756.46 158.02 745.5 197.04 768.32 197.04 756.46 158.02"/><polygon class="cls-10" points="736.26 160.4 725.31 199.42 748.13 199.42 736.26 160.4"/><polyline class="cls-11" points="810.08 202.75 810.08 115.12 849.33 115.12 849.33 202.75"/><line class="cls-12" x1="904.54" y1="184.03" x2="904.54" y2="202.75"/><path class="cls-12" d="M1015.16,583.61" transform="translate(-81.87 -380.86)"/><path class="cls-12" d="M1015.16,564.9" transform="translate(-81.87 -380.86)"/><path class="cls-12" d="M1015.16,510.59" transform="translate(-81.87 -380.86)"/><polyline class="cls-11" points="984.64 202.75 984.64 108.96 1015.44 108.96 1015.44 202.75"/><polyline class="cls-13" points="913.79 202.75 913.79 184.49 921.32 184.49 921.32 202.18 913.79 202.18"/><polyline class="cls-13" points="921.77 202.18 921.77 184.49 928.33 184.49 928.33 202.18"/><polyline class="cls-14" points="1153.03 202.75 1152.52 202.75 1152.12 202.75 1024.34 202.75 1024.34 162.36 1153.72 162.36 1153.72 202.75 1156.97 202.75 1156.97 94.42 1153.72 94.42 1153.72 160.36 1153.72 162.36"/><polyline class="cls-14" points="1252.12 162.36 1252.12 158.94 1252.12 94.42 1255.54 94.42 1255.54 202.75 1252.12 202.75 1252.12 162.36 1157.65 162.36"/><rect class="cls-15" x="1108.2" y="158.82" width="45.07" height="3.08"/><rect class="cls-15" x="1157.65" y="158.82" width="93.95" height="3.08"/><rect class="cls-15" x="1255.97" y="158.82" width="38.16" height="4.68"/><path class="cls-12" d="M1235.59,475.28" transform="translate(-81.87 -380.86)"/><path class="cls-12" d="M1197.94,510.59" transform="translate(-81.87 -380.86)"/><path class="cls-12" d="M1238.84,475.28s47.06,65.31,95.15,0" transform="translate(-81.87 -380.86)"/><path class="cls-12" d="M1381.62,510.59" transform="translate(-81.87 -380.86)"/><path class="cls-12" d="M1337.41,475.28" transform="translate(-81.87 -380.86)"/><path class="cls-12" d="M1385.16,514" transform="translate(-81.87 -380.86)"/><path class="cls-12" d="M1337.41,475.28" transform="translate(-81.87 -380.86)"/><path class="cls-12" d="M1337.41,475.28s26.7,35.19,38.59,35.31" transform="translate(-81.87 -380.86)"/><path class="cls-12" d="M1235.59,475.28s-30.47,37.59-37.65,35.31" transform="translate(-81.87 -380.86)"/><line class="cls-12" x1="1126.3" y1="124.05" x2="1126.3" y2="158.82"/><line class="cls-12" x1="1134.89" y1="115.12" x2="1134.89" y2="158.93"/><line class="cls-12" x1="1143.54" y1="106.38" x2="1143.54" y2="158.82"/><line class="cls-12" x1="1174.99" y1="112.07" x2="1174.99" y2="158.82"/><line class="cls-12" x1="1192.04" y1="121.09" x2="1192.04" y2="158.82"/><line class="cls-12" x1="1213.43" y1="122.77" x2="1213.43" y2="158.93"/><line class="cls-12" x1="1233.13" y1="113.97" x2="1233.13" y2="158.82"/><line class="cls-12" x1="1266.21" y1="107.39" x2="1266.21" y2="158.82"/><line class="cls-12" x1="1275.05" y1="116.89" x2="1275.05" y2="158.82"/><line class="cls-12" x1="1282.95" y1="124.05" x2="1282.95" y2="158.82"/><line class="cls-12" x1="756.46" y1="187.69" x2="756.46" y2="202.75"/><polyline class="cls-12" points="752.8 191.34 756.57 195.1 760.33 191.34"/><polyline class="cls-16" points="762.39 177.53 771.51 154.14 782.47 193.39 772.43 193.55 767.28 193.63"/><polyline class="cls-12" points="772.43 184.03 772.43 193.55 772.43 202.75"/><polyline class="cls-12" points="775.17 187 772.43 189.63 770.49 187.69"/><polyline class="cls-12" points="769.69 183.01 772.43 187 775.17 183.01"/><line class="cls-7" x1="810.08" y1="129.73" x2="835.41" y2="129.73"/><line class="cls-7" x1="810.08" y1="140.85" x2="835.41" y2="140.85"/><line class="cls-7" x1="810.08" y1="152.09" x2="835.41" y2="152.09"/><line class="cls-7" x1="810.08" y1="162.36" x2="835.41" y2="162.36"/><line class="cls-7" x1="810.08" y1="173.89" x2="835.41" y2="173.89"/><line class="cls-7" x1="810.08" y1="185" x2="835.41" y2="185"/><line class="cls-7" x1="810.08" y1="195.1" x2="835.41" y2="195.1"/><line class="cls-7" x1="899.3" y1="139.96" x2="933.3" y2="139.96"/><line class="cls-7" x1="899.3" y1="150.04" x2="933.3" y2="150.04"/><line class="cls-7" x1="899.3" y1="160.36" x2="933.3" y2="160.36"/><line class="cls-7" x1="899.3" y1="169.54" x2="933.3" y2="169.54"/><line class="cls-7" x1="865.3" y1="129.73" x2="893.93" y2="129.73"/><line class="cls-7" x1="865.3" y1="141.43" x2="893.93" y2="141.43"/><line class="cls-7" x1="865.3" y1="154.14" x2="893.93" y2="154.14"/><line class="cls-7" x1="865.3" y1="167.26" x2="893.93" y2="167.26"/><line class="cls-7" x1="865.3" y1="179.13" x2="893.93" y2="179.13"/><line class="cls-7" x1="865.3" y1="191.34" x2="893.93" y2="191.34"/><line class="cls-7" x1="923.71" y1="121.09" x2="975.05" y2="121.09"/><line class="cls-7" x1="933.3" y1="135.45" x2="975.05" y2="135.45"/><line class="cls-7" x1="933.3" y1="152.09" x2="975.05" y2="152.09"/><polyline class="cls-7" points="933.29 167.26 950.29 167.26 975.05 167.26"/><line class="cls-7" x1="931.58" y1="184.03" x2="975.05" y2="184.03"/><line class="cls-12" x1="998.33" y1="122.2" x2="1015.44" y2="122.2"/><line class="cls-12" x1="998.33" y1="129.83" x2="1015.44" y2="129.83"/><line class="cls-12" x1="998.33" y1="137.03" x2="1015.44" y2="137.03"/><line class="cls-12" x1="998.33" y1="145.24" x2="1015.44" y2="145.24"/><line class="cls-12" x1="998.33" y1="154.14" x2="1015.44" y2="154.14"/><line class="cls-12" x1="998.33" y1="162.36" x2="1015.44" y2="162.36"/><line class="cls-12" x1="998.33" y1="171.03" x2="1015.44" y2="171.03"/><line class="cls-12" x1="998.33" y1="179.13" x2="1015.44" y2="179.13"/><line class="cls-12" x1="998.33" y1="188.37" x2="1015.44" y2="188.37"/><line class="cls-12" x1="998.33" y1="196.13" x2="1015.44" y2="196.13"/><polyline class="cls-12" points="975.05 202.75 929.07 202.75 929.07 184.49"/><polyline class="cls-8" points="923.71 129.73 933.29 129.73 933.29 184.03 929.07 184.03 929.07 202.18 975.05 202.18"/><polyline class="cls-7" points="933.29 167.26 950.29 167.26 952.18 167.26"/><line class="cls-7" x1="933.3" y1="152.09" x2="940.37" y2="152.09"/><line class="cls-7" x1="962.67" y1="184.03" x2="933.69" y2="184.03"/><line class="cls-7" x1="930.44" y1="139.96" x2="933.3" y2="139.96"/><rect class="cls-13" x="904.97" y="184.49" width="8.13" height="17.68"/><line class="cls-17" x1="922.17" y1="202.17" x2="927.99" y2="202.17"/><polyline class="cls-18" points="1156.97 202.29 1156.97 163.04 1251.61 163.04 1251.61 202.29"/><polyline class="cls-18" points="1153.26 202.29 1153.26 163.04 1024.34 163.04 1024.34 202.29"/><polyline class="cls-19" points="1293.98 163.04 1255.54 163.04 1294.96 163.04 1294.96 202.29 1255.54 202.29 1255.54 163.04"/><path class="cls-20" d="M563.91,541.36a17.47,17.47,0,0,0,7.79,2.71,33,33,0,0,0,7.35.24c-1,.71-2.17,2-3.46,1.89a50.32,50.32,0,0,1-6.82-.67,18.85,18.85,0,0,1-8.25-3.74l3.3-.79" transform="translate(-81.87 -380.86)"/><polyline class="cls-20" points="499.62 194.64 506.19 212.73 505.09 212.73 499.02 197.64"/><path class="cls-20" d="M603,669.9s3.9,3.16,7.74,1.91l3.85-1.26.88-.65s-8.59,1.52-10.53,0L603,668.38Z" transform="translate(-81.87 -380.86)"/><line class="cls-21" x1="513.59" y1="252.76" x2="512.72" y2="280.59"/><line class="cls-20" x1="2.62" y1="191.86" y2="192.42"/><path class="cls-20" d="M532.76,657.87" transform="translate(-81.87 -380.86)"/><path class="cls-20" d="M594,673.38c.36-2.83.57-4.35.57-4.35l.95,4.44s-1.73,2.7-3.58,3.43c-.46.18-1.14.45-1.63.59a5.25,5.25,0,0,1-2.07.23" transform="translate(-81.87 -380.86)"/><path class="cls-22" d="M373.67,718.72" transform="translate(-81.87 -380.86)"/><path class="cls-1" d="M373.67,647.53" transform="translate(-81.87 -380.86)"/><line class="cls-23" x1="445.42" y1="192.08" x2="459.15" y2="192.08"/><polyline class="cls-24" points="519.44 202.47 517.76 192.43 531.27 192.43 584.66 192.71 592.78 192.56"/><line class="cls-7" x1="547.96" y1="192.56" x2="592.78" y2="192.56"/><path class="cls-25" d="M517,666.88" transform="translate(-81.87 -380.86)"/><path class="cls-24" d="M441.58,617.37" transform="translate(-81.87 -380.86)"/><path class="cls-24" d="M451.27,593.59" transform="translate(-81.87 -380.86)"/><rect class="cls-3" x="25.31" y="213.78" width="330.66" height="13.88"/><path class="cls-3" d="M527.29,595.2" transform="translate(-81.87 -380.86)"/><path class="cls-3" d="M491.65,595.2" transform="translate(-81.87 -380.86)"/><path class="cls-3" d="M643.36,593.77" transform="translate(-81.87 -380.86)"/><path class="cls-3" d="M604.33,593.77" transform="translate(-81.87 -380.86)"/><path class="cls-3" d="M527.12,609.59" transform="translate(-81.87 -380.86)"/><path class="cls-3" d="M491.91,609.59" transform="translate(-81.87 -380.86)"/><path class="cls-3" d="M644.53,607.71" transform="translate(-81.87 -380.86)"/><path class="cls-3" d="M616.71,607.71" transform="translate(-81.87 -380.86)"/><polyline class="cls-2" points="25.31 277.01 357.05 277.01 357.05 284.88 25.31 284.88"/><rect class="cls-4" x="25.31" y="227.66" width="331.74" height="49.35"/><path class="cls-25" d="M644.26,646.2" transform="translate(-81.87 -380.86)"/><path class="cls-7" d="M709.38,661.45" transform="translate(-81.87 -380.86)"/><path class="cls-7" d="M643.84,663.45" transform="translate(-81.87 -380.86)"/><path class="cls-25" d="M513.33,664.31" transform="translate(-81.87 -380.86)"/><rect class="cls-6" x="314.48" y="16.65" width="102.96" height="173.1"/><path class="cls-26" d="M603.26,630c4.57-2.12,10.73-6,14.1-12.35a9.49,9.49,0,0,0,1.35-5.67,8,8,0,0,0-1.94-4.09,16.81,16.81,0,0,0-3.6-3,37.24,37.24,0,0,0-4.48-2.55,104.68,104.68,0,0,0-10.32-4.06l-2.12-.75c-5.2-1.86-10.61-3.7-16.06-5.46-6.37-2.06-11.59-3.63-16.44-5l-.16,0a84.41,84.41,0,0,0-12.11-2.69c-5.5-.67-11.21-.95-15.69,1.48a12,12,0,0,0-1.88,1.25c-3.36,2.7-4.37,6.93-5.11,11A83.66,83.66,0,0,0,527.73,614c0,2.28.1,4.65.24,7.07,0,.6,0,1.21,0,1.82a18.76,18.76,0,0,0,.41,4.31,7.81,7.81,0,0,0,2.89,4.15c2.8,2.15,6.4,3,9.89,3.78l.38.08a99.12,99.12,0,0,0,15.77,2.07c3.54.2,6,.19,6,.19h.37c2.49,0,5.12-.15,8.28-.4a126.14,126.14,0,0,0,15-2A72.07,72.07,0,0,0,603.26,630Z" transform="translate(-81.87 -380.86)"/><path class="cls-26" d="M602.08,671l-1.11.12c-1.81.18-4.22,2.28-4.63,2.65-1.58,4.5-6.37,4.91-8,5h-.21a6,6,0,0,0,1.11,3.88,5.37,5.37,0,0,0,2.16,1.41,7.61,7.61,0,0,0,2.4.53,6.21,6.21,0,0,0,2.91-.69,15.69,15.69,0,0,0,4.16-3.08l2.88-3.4A25.26,25.26,0,0,1,602.4,674,6,6,0,0,1,602.08,671Z" transform="translate(-81.87 -380.86)"/><path class="cls-26" d="M626.53,667.2a4.93,4.93,0,0,0-3.34-.28,13.23,13.23,0,0,0-4.22,2.21,3.23,3.23,0,0,1-1.51,1l-.41.19c-.84.41-1.49.71-2.12,1a18.47,18.47,0,0,1-4.55,1.4,9.63,9.63,0,0,1-7.47-1.63,5.18,5.18,0,0,0,.3,2.67,25.51,25.51,0,0,0,1.58,3.83,4.21,4.21,0,0,0,1.15,1.53,4,4,0,0,0,2.27.53,26.53,26.53,0,0,0,5.5-.71,38.14,38.14,0,0,0,7.07-2.12,17.72,17.72,0,0,0,6-4.06,4.48,4.48,0,0,0,1.48-3A3.13,3.13,0,0,0,626.53,667.2Z" transform="translate(-81.87 -380.86)"/><path class="cls-26" d="M595.53,673.47c-2-6.05-.31-34.88,0-39.63-2.57.78-5.32,1.46-8.32,2.06-1.83.37-3.74.69-5.67,1,.33,3.47,2.83,29.09,3.49,33.29l.1.59c.7,4.43,1.23,7.19,3,7.19h.16C590.82,677.73,594.28,677,595.53,673.47Z" transform="translate(-81.87 -380.86)"/><path class="cls-26" d="M603.62,630.81q-1.9.88-4,1.65c.36,3.58,3.3,33.12,3.39,35.92,0,1,0,1.46.06,1.74a8.6,8.6,0,0,0,7.17,1.78,17.91,17.91,0,0,0,4.35-1.35c.7-.3,1.39-.63,2.08-1l.44-.2a3.89,3.89,0,0,0,.93-.49,15.56,15.56,0,0,1-1.92-5.19,39.58,39.58,0,0,1-.13-9.36c0-.65.09-1.29.12-1.93.21-3.77.54-7.58,1-11.32.3-2.51.67-5.05,1-7.5l.27-1.83a35.82,35.82,0,0,0,.54-6.34,17.28,17.28,0,0,0-1.52-6.16C613.86,625.13,608,628.76,603.62,630.81Z" transform="translate(-81.87 -380.86)"/><path class="cls-26" d="M596.39,633.58c-.21,3.15-2,32.23-.2,39.16.93-.78,3-2.32,4.7-2.49.71-.08,1.11-.13,1.34-.17,0-.37,0-.91-.06-1.67-.09-2.69-2.94-31.38-3.36-35.65C598,633,597.22,633.32,596.39,633.58Z" transform="translate(-81.87 -380.86)"/><path class="cls-26" d="M586.06,524.76c12.75-8.38,7.07-21.83,7-22l-.12-.23a4.16,4.16,0,0,0-1.55.17,3.73,3.73,0,0,1-1,.17,1.2,1.2,0,0,1-.61-.15,1,1,0,0,0-.53-.1,1.55,1.55,0,0,1-1.55-.89,2.72,2.72,0,0,0-.76-.7,5.36,5.36,0,0,1-1.09-1,21.35,21.35,0,0,1-7.19,17,40.24,40.24,0,0,1-3.78,2.87c-1.18.81-2.41,1.59-3.6,2.34l-.89.56-1.05.68a28.1,28.1,0,0,1-3.2,1.9c1.54.54,3.28,1.74,3.23,3.93-.08,3-3.92,10.26-4.74,11.77.53.46,2.68,1.85,9.84,2.75,7.73,1,9.49-2.11,9.78-2.8l-1.68-3.15C578.55,529.91,586,524.81,586.06,524.76Z" transform="translate(-81.87 -380.86)"/><path class="cls-26" d="M591.39,493.63,588,489.4c-4.26-5.35-17.11-4.69-22.73-3.16s-7.37,3.58-7.39,3.6l-1.5,1.56c-.26.35-.44.54-.45.56l-.07.06-.56.37a6.94,6.94,0,0,1-.24,1.93,21.77,21.77,0,0,1-2.68,5.53l-.17.28a7.8,7.8,0,0,0-1,2,7,7,0,0,0,0,2.55,29.19,29.19,0,0,0,11.09,19.45,3.77,3.77,0,0,0,2.09,1,3.57,3.57,0,0,0,1.35-.4,27.53,27.53,0,0,0,3.19-1.89l1.06-.69.88-.56c1.19-.75,2.41-1.52,3.58-2.32a37.34,37.34,0,0,0,3.7-2.81,20.69,20.69,0,0,0,6.56-19.46l.83-.15c0,.08,0,.17,0,.25h0c.42,2.27,1.21,2.84,1.91,3.34a3.29,3.29,0,0,1,1,.93c.33.51.49.51.83.51a1.7,1.7,0,0,1,1,.2,1.82,1.82,0,0,0,1-.1,3.88,3.88,0,0,1,2.55,0,.65.65,0,0,0,.56,0,3.12,3.12,0,0,0,1.11-1.63l-.3-.42-2.74-5-.39-.49-.69-.75Z" transform="translate(-81.87 -380.86)"/><polygon class="cls-26" points="428.86 192.3 428.73 192.56 438.29 192.56 438.28 192.45 428.86 192.3"/><path class="cls-26" d="M668.84,496.12H594l1.8,3.27.52.72-.06.2a4.2,4.2,0,0,1-1.61,2.34,1.38,1.38,0,0,1-.71.15c.84,2.29,4.69,14.69-7.45,22.67-.28.19-6.88,4.73-3.16,12l1.67,3.13c3.05.5,6,3.93,7.58,6.77a26.42,26.42,0,0,1,2.15,5.26h74.07ZM608.28,505l4.42,1.66v2.05h-4.42Zm0,8.56,4.42,1.66v2h-4.42Zm0,8.73,4.42,1.65V526h-4.42Zm4.85,12.43h-4.42V531l4.42,1.65Zm36.78-.33H622V531.5h27.87Zm0-8.72H622v-2.87h27.87Zm0-8.72H622v-2.87h27.87Zm0-8.24H622v-2.87h27.87Z" transform="translate(-81.87 -380.86)"/><path class="cls-26" d="M551.66,499.41a21.24,21.24,0,0,0,2.59-5.31,8.47,8.47,0,0,0-.93-5.9,16,16,0,0,0-3.93-5.68,10.24,10.24,0,0,0-6.55-2.31,10.57,10.57,0,0,0-2.78.37,12.17,12.17,0,0,0-8,7.56,8.84,8.84,0,0,0-.33,5c.72,3,3.15,5.15,5.07,6.42a26.36,26.36,0,0,0,6.9,3.14,10.62,10.62,0,0,0,3.3.59,4.82,4.82,0,0,0,1.74-.36,3,3,0,0,0,.61-.39,3.13,3.13,0,0,1,1-.55l0,.11c0-.05,0-.1,0-.16a8.25,8.25,0,0,1,1.06-2.21Z" transform="translate(-81.87 -380.86)"/><polygon class="cls-26" points="520.09 201.49 520.38 203.45 521.19 203.45 520.9 201.49 520.09 201.49"/><path class="cls-27" d="M593,502.67l0-.1a3.21,3.21,0,0,0-.76,0,1.82,1.82,0,0,0,.65.08Z" transform="translate(-81.87 -380.86)"/><path class="cls-28" d="M574.52,543.84a19.27,19.27,0,0,0,4.49.1l-1-.1c-7.16-.9-9.31-2.29-9.84-2.75.82-1.51,4.66-8.75,4.73-11.77.06-2.19-1.68-3.39-3.22-3.93a29,29,0,0,0,3.2-1.9l1.05-.68.88-.56c1.19-.75,2.42-1.53,3.61-2.34a40.24,40.24,0,0,0,3.78-2.87,21.19,21.19,0,0,0,7.13-14.37h-.08a1.55,1.55,0,0,1-1.55-.89,2.72,2.72,0,0,0-.76-.7,5.36,5.36,0,0,1-1.09-1,21.35,21.35,0,0,1-7.19,17,40.24,40.24,0,0,1-3.78,2.87c-1.18.81-2.41,1.59-3.6,2.34l-.89.56-1.05.68a28.1,28.1,0,0,1-3.2,1.9c1.54.54,3.28,1.74,3.23,3.93-.08,3-3.92,10.26-4.74,11.77C565.21,541.55,567.36,542.94,574.52,543.84Z" transform="translate(-81.87 -380.86)"/><path class="cls-28" d="M608.33,677.6a24.51,24.51,0,0,1-1.58-3.83,8.84,8.84,0,0,1-.28-1.1c-.31-.06-3.41-1.2-3.7-1.29.07.55.84,3.46,1,3.94s.61,1.47.81,2c.48,1.18.45.58,1.35,1.8h0a3.92,3.92,0,0,0,2.29.55,19.8,19.8,0,0,0,2.19-.14,2.83,2.83,0,0,1-.93-.39A4.3,4.3,0,0,1,608.33,677.6Z" transform="translate(-81.87 -380.86)"/><path class="cls-27" d="M602.91,671.1a2.57,2.57,0,0,0-.06.55c.17-.09.34-.16.51-.23C603.21,671.31,603.05,671.22,602.91,671.1Z" transform="translate(-81.87 -380.86)"/><path class="cls-28" d="M613.92,672.73a18.47,18.47,0,0,0,4.55-1.4c.62-.27,1.28-.57,2.12-1l.41-.19a3.2,3.2,0,0,0,1.5-1,14.74,14.74,0,0,1,3.69-2,5,5,0,0,0-3-.16,13.23,13.23,0,0,0-4.22,2.21,3.23,3.23,0,0,1-1.51,1l-.41.19c-.84.41-1.49.71-2.12,1a18.47,18.47,0,0,1-4.55,1.4h0A11.13,11.13,0,0,0,613.92,672.73Z" transform="translate(-81.87 -380.86)"/><path class="cls-28" d="M592.81,682.68a6,6,0,0,1-1.1-3.88h.21c1.58-.14,6.37-.55,8-5a18.55,18.55,0,0,1,2.15-1.62,3.71,3.71,0,0,1,.06-1.15l-1.11.12c-1.81.18-4.22,2.28-4.63,2.65-1.58,4.5-6.37,4.91-8,5h-.21a6,6,0,0,0,1.11,3.88,5.37,5.37,0,0,0,2.16,1.41,7.61,7.61,0,0,0,2.4.53,5.47,5.47,0,0,0,1.87-.29l-.73-.24A5.41,5.41,0,0,1,592.81,682.68Z" transform="translate(-81.87 -380.86)"/><path class="cls-28" d="M545.12,635.25l-.37-.08c-3.49-.8-7.1-1.63-9.89-3.78a7.88,7.88,0,0,1-2.9-4.15,18.75,18.75,0,0,1-.4-4.31c0-.61,0-1.22-.06-1.82-.13-2.42-.21-4.79-.24-7.07a83.56,83.56,0,0,1,1.08-15.88c.74-4.11,1.74-8.34,5.11-11a12,12,0,0,1,1.88-1.25,17.51,17.51,0,0,1,7.44-1.9c-3.94-.19-7.78.16-11,1.9a12,12,0,0,0-1.88,1.25c-3.36,2.7-4.37,6.93-5.11,11A83.66,83.66,0,0,0,527.73,614c0,2.28.1,4.65.24,7.07,0,.6,0,1.21,0,1.82a18.76,18.76,0,0,0,.41,4.31,7.81,7.81,0,0,0,2.89,4.15c2.8,2.15,6.4,3,9.89,3.78l.38.08a99.12,99.12,0,0,0,15.77,2.07c3.54.2,6,.19,6,.19h.37l1.38,0c-1,0-2.5-.08-4.21-.17A99.23,99.23,0,0,1,545.12,635.25Z" transform="translate(-81.87 -380.86)"/><path class="cls-24" d="M626.85,666.22a5.72,5.72,0,0,0-3.93-.35,13.09,13.09,0,0,0-4.3,2.2,14.86,14.86,0,0,1-1.71-4.75,38.3,38.3,0,0,1-.12-9.15c0-.65.08-1.3.11-1.94.21-3.75.55-7.54,1-11.27.31-2.49.68-5,1-7.47l.27-1.83a37.23,37.23,0,0,0,.55-6.5,18.86,18.86,0,0,0-1.85-7,2,2,0,0,0,.14-.25,10.25,10.25,0,0,0,1.44-6.17,8.77,8.77,0,0,0-2.14-4.53,17.08,17.08,0,0,0-3.77-3.19,37.7,37.7,0,0,0-4.59-2.61c-.66-.32-1.33-.61-2-.9-1.64-3.57-4.77-12.35-5-14.23s-.87-3.31-1.13-5c-.09-.55-.21-1.09-.3-1.62-.67-4-1.44-8.08-2.3-12.24-.75-3.66-1.42-6.68-2.12-9.51l-.23-1c-.18-.76-.37-1.54-.57-2.31h-.6l-.34-2.15h.34a25.65,25.65,0,0,0-2.16-5.26c-1.6-2.85-4.52-6.28-7.57-6.77l-1.67-3.13c-3.72-7.3,2.88-11.84,3.15-12,12.15-8,8.3-20.37,7.46-22.66a1.55,1.55,0,0,0,.7-.15,4.19,4.19,0,0,0,1.62-2.35l0-.2-.51-.72-3.37-5.76-.64-.79-.11-.12c-1-1.28-2-2.57-3-3.85-4.57-5.72-17.64-5.07-23.62-3.45a19,19,0,0,0-7.3,3.38,14.72,14.72,0,0,0,.93-4c.44-4.84-1.45-6-1.53-6l-.43.73s1.5,1,1.11,5.23a13.71,13.71,0,0,1-1.42,5.05,8,8,0,0,1-1.07,1.6l-.11.08a12.76,12.76,0,0,0-1.15-3.57,16.92,16.92,0,0,0-4.16-6,11.25,11.25,0,0,0-10.09-2.1,12.82,12.82,0,0,0-8.56,8.1,9.59,9.59,0,0,0-.36,5.43c.78,3.27,3.38,5.58,5.43,6.93a27.1,27.1,0,0,0,7.12,3.25,11.49,11.49,0,0,0,3.57.62,5.48,5.48,0,0,0,2-.43,3.4,3.4,0,0,0,.78-.48l.41-.28a10.41,10.41,0,0,0,.08,1.86,30.08,30.08,0,0,0,11.43,20,4.31,4.31,0,0,0,2.57,1.12h0l.35,0s3.89.56,3.82,3.4-4,10.13-4.67,11.45c-2.28.13-19.32,1.71-21.6,19.32,0,0-2,20.41-1.94,21.89l.05,1.48s-.7.09-1.62.31a30,30,0,0,0-3.41,1.38,13.45,13.45,0,0,0-2,1.33c-3.59,2.89-4.64,7.29-5.4,11.55a83.67,83.67,0,0,0-1.09,16.05c0,2.28.1,4.67.24,7.1,0,.59,0,1.19.05,1.79a19.65,19.65,0,0,0,.43,4.51,8.7,8.7,0,0,0,3.2,4.61c2.93,2.25,6.62,3.1,10.19,3.92L517,693.91l.78.32L541.77,636a102.58,102.58,0,0,0,15.15,2L568.31,701l.84-.15L557.79,638c3.05.16,5.19.17,5.48.17h.41c2.51-.3,5.16-.23,8.34-.4,3-.15,5.82-.55,8.6-1,.35,3.62,2.83,29.09,3.5,33.3l.1.59c.59,3.75,1.11,7.05,3,7.76v.1a6.76,6.76,0,0,0,1.31,4.48,6.26,6.26,0,0,0,2.5,1.64,8.45,8.45,0,0,0,2.67.6H594a7.16,7.16,0,0,0,3.09-.78,16.14,16.14,0,0,0,4.41-3.27l2.67-3.15a4.39,4.39,0,0,0,1.25,1.54,4.68,4.68,0,0,0,2.77.69h.05a27.6,27.6,0,0,0,5.62-.72,39.35,39.35,0,0,0,7.23-2.17,18.57,18.57,0,0,0,6.29-4.27,5.23,5.23,0,0,0,1.7-3.57A3.93,3.93,0,0,0,626.85,666.22Zm-24.68,3.64c-.23,0-.63.09-1.34.16-1.72.17-3.77,1.72-4.7,2.49-1.8-6.93,0-36,.19-39.16q1.24-.39,2.43-.81c.42,4.26,3.27,33,3.35,35.64C602.13,669,602.14,669.48,602.17,669.86ZM569.36,529.09c0-2.19-1.69-3.39-3.23-3.93a27.52,27.52,0,0,0,3.2-1.9l1-.68.88-.56c1.19-.75,2.42-1.53,3.61-2.33a42,42,0,0,0,3.78-2.87,21.42,21.42,0,0,0,7.19-17,4.93,4.93,0,0,0,1.09,1,2.54,2.54,0,0,1,.75.7,1.61,1.61,0,0,0,1.56.89.9.9,0,0,1,.52.09,1.24,1.24,0,0,0,.62.15,4.28,4.28,0,0,0,1-.16,4,4,0,0,1,1.55-.17l.12.22c0,.14,5.74,13.59-7,22-.08.05-7.51,5.14-3.44,13.12l1.68,3.16c-.29.69-2.06,3.77-9.78,2.8-7.16-.91-9.31-2.3-9.84-2.75C565.44,539.35,569.28,532.12,569.36,529.09Zm10.76,62.76c5.46,1.77,10.87,3.61,16.07,5.47l2.11.75a101.5,101.5,0,0,1,10.33,4.06,37.43,37.43,0,0,1,4.48,2.55,16.53,16.53,0,0,1,3.6,3,8,8,0,0,1,1.94,4.09,9.51,9.51,0,0,1-1.35,5.67c-3.38,6.36-9.53,10.22-14.1,12.34a72.05,72.05,0,0,1-16.23,5,130.39,130.39,0,0,1-15,2c-3.16.25-5.79.37-8.28.4h-.37s-2.46,0-6-.2A100.27,100.27,0,0,1,541.52,635l-.37-.09c-3.49-.8-7.1-1.62-9.89-3.77a7.92,7.92,0,0,1-2.9-4.15,18.89,18.89,0,0,1-.4-4.32c0-.61,0-1.22-.06-1.82-.13-2.41-.21-4.79-.24-7.06a83.68,83.68,0,0,1,1.08-15.89c.74-4.1,1.74-8.34,5.11-11a12.79,12.79,0,0,1,1.88-1.25c4.47-2.42,10.18-2.14,15.69-1.48,4.08.49,24.76,6.62,28.7,7.69m20.72,88.78a15.67,15.67,0,0,1-4.15,3.07,6.13,6.13,0,0,1-2.91.7,7.31,7.31,0,0,1-2.4-.54,5.41,5.41,0,0,1-2.17-1.41,6,6,0,0,1-1.1-3.88h.21c1.58-.13,6.37-.55,7.95-5,.42-.37,2.83-2.46,4.64-2.64l1.1-.13a6.14,6.14,0,0,0,.33,3.06,25.26,25.26,0,0,0,1.39,3.42Zm25.88-8.09a17.68,17.68,0,0,1-6,4.07,37.61,37.61,0,0,1-7.07,2.11,25.07,25.07,0,0,1-5.49.71,3.94,3.94,0,0,1-2.28-.53,4.21,4.21,0,0,1-1.14-1.53,25.09,25.09,0,0,1-1.58-3.83,5.14,5.14,0,0,1-.3-2.66,9.71,9.71,0,0,0,7.47,1.63,18.91,18.91,0,0,0,4.55-1.4c.62-.27,1.28-.58,2.12-1l.41-.18a3.2,3.2,0,0,0,1.5-1,13,13,0,0,1,4.22-2.21,4.81,4.81,0,0,1,3.34.28,3.09,3.09,0,0,1,1.73,2.58A4.45,4.45,0,0,1,626.72,672.54Z" transform="translate(-81.87 -380.86)"/><path class="cls-5" d="M602.51,581.92l1.14-.83-2-1,.3,2Z" transform="translate(-81.87 -380.86)"/><line class="cls-29" x1="626.82" y1="217.01" x2="626.82" y2="217.01"/><line class="cls-29" x1="562.12" y1="217.01" x2="562.12" y2="217.01"/><line class="cls-30" x1="626.82" y1="250.25" x2="563.51" y2="250.25"/><line class="cls-30" x1="563.51" y1="250.25" x2="562.66" y2="250.25"/><line class="cls-30" x1="562.12" y1="250.25" x2="562.66" y2="250.25"/><path class="cls-5" d="M478.38,627.11" transform="translate(-81.87 -380.86)"/><path class="cls-5" d="M478.8,650.76" transform="translate(-81.87 -380.86)"/><rect class="cls-31" x="540.17" y="124.96" width="27.87" height="2.87"/><rect class="cls-31" x="540.17" y="141.92" width="27.87" height="2.87"/><polygon class="cls-31" points="530.83 125.78 526.41 124.12 526.41 127.83 530.83 127.83 530.83 125.78"/><polygon class="cls-31" points="530.83 134.34 526.41 132.68 526.41 136.39 530.83 136.39 530.83 134.34"/><polygon class="cls-31" points="530.83 143.06 526.41 141.4 526.41 145.11 530.83 145.11 530.83 143.06"/><polygon class="cls-31" points="526.84 153.84 531.27 153.84 531.27 151.78 526.84 150.13 526.84 153.84"/><polygon class="cls-5" points="588.15 213.55 588.15 214.34 588.53 214.34 588.53 215.49 596.99 215.49 596.99 214.34 597.41 214.34 597.41 213.55 588.15 213.55"/><polygon class="cls-5" points="587.68 215.34 568.4 215.34 568.4 222.88 622.83 222.88 622.83 215.34 597.84 215.34 597.84 216.48 587.68 216.48 587.68 215.34"/><polygon class="cls-5" points="587.68 250.32 568.4 250.32 568.4 257.86 622.83 257.86 622.83 250.32 597.84 250.32 597.84 251.46 587.68 251.46 587.68 250.32"/><polygon class="cls-5" points="587.23 231.97 567.95 231.97 567.95 239.5 622.38 239.5 622.38 231.97 597.39 231.97 597.39 233.11 587.23 233.11 587.23 231.97"/><polyline class="cls-5" points="588.15 248.83 588.15 249.63 588.53 249.63 588.53 250.77 596.99 250.77 596.99 249.63 597.41 249.63 597.41 248.83"/><polyline class="cls-5" points="588.15 230 588.15 230.79 588.53 230.79 588.53 231.94 596.99 231.94 596.99 230.79 597.41 230.79 597.41 230"/><line class="cls-29" x1="562.12" y1="249.8" x2="562.12" y2="249.8"/><line class="cls-29" x1="627.79" y1="249.8" x2="627.79" y2="249.8"/><polygon class="cls-5" points="509.36 112.58 510.05 113.33 511.38 114.78 511.38 115.07 512.09 115.07 586.89 115.07 586.89 171.6 512.82 171.6 512.48 171.6 512.83 173.75 513.42 173.75 589.63 173.75 589.63 112.58 510.53 112.58 509.45 112.58 509.36 112.58"/><rect class="cls-31" x="540.17" y="150.64" width="27.87" height="2.87"/><rect class="cls-31" x="540.17" y="133.2" width="27.87" height="2.87"/><path class="cls-32" d="M515.48,572.86l.14-.26,9.42.14v.12l0,.3,1.61-.14a1,1,0,0,0,.43-.16c1.57-.94,3.17-5.92,3.74-7.87.26-.11.25-.22.21-.42s-.15-.41-.61-.34l-.27,0,0,.06-2.39.48a10.79,10.79,0,0,0-5.08,2.35l-.62-2.4c-.85-3.25-6.19-6.08-6.41-6.2l-.46-.23-1.92,6.34c-1.61,5.35,1.2,7.67,2,8.19l.18.11Z" transform="translate(-81.87 -380.86)"/><path class="cls-5" d="M442.75,581.16" transform="translate(-81.87 -380.86)"/><path class="cls-5" d="M471.05,573.74" transform="translate(-81.87 -380.86)"/><polygon class="cls-33" points="431.12 191.49 434.67 198.87 443.87 198.87 447.24 191.19 430.92 191.19 431.12 191.49"/><polyline class="cls-5" points="443.97 198.66 446.64 192.56 447.09 191.54 459.18 191.54 458.32 198.66"/><path class="cls-5" d="M600.53,579.6" transform="translate(-81.87 -380.86)"/><path class="cls-25" d="M601.1,580.37" transform="translate(-81.87 -380.86)"/><polyline class="cls-5" points="518.96 199.24 517.76 192.71 531.86 192.71 529.51 199.24"/><line class="cls-5" x1="547.17" y1="192.24" x2="594" y2="192.24"/><path class="cls-5" d="M644,583.33" transform="translate(-81.87 -380.86)"/><path class="cls-24" d="M515.38,596.75" transform="translate(-81.87 -380.86)"/><path class="cls-24" d="M436.87,596.75" transform="translate(-81.87 -380.86)"/><path class="cls-24" d="M515.14,611.83" transform="translate(-81.87 -380.86)"/><path class="cls-24" d="M436.64,611.83" transform="translate(-81.87 -380.86)"/><path class="cls-24" d="M515.14,628.86" transform="translate(-81.87 -380.86)"/><path class="cls-24" d="M436.64,628.86" transform="translate(-81.87 -380.86)"/><path class="cls-34" d="M708.69,617.37" transform="translate(-81.87 -380.86)"/><path class="cls-34" d="M642.29,617.37" transform="translate(-81.87 -380.86)"/><path class="cls-24" d="M709,652.53" transform="translate(-81.87 -380.86)"/><path class="cls-24" d="M642.29,652.53" transform="translate(-81.87 -380.86)"/><polyline class="cls-24" points="513.47 172.68 588.04 172.68 589.1 172.68 589.1 185.6 516.16 185.6"/><polyline class="cls-24" points="540.64 185.94 537.74 192.06 549.49 192.06 546.22 185.94"/><path class="cls-35" d="M515.14,606.07" transform="translate(-81.87 -380.86)"/><path class="cls-35" d="M515.5,625.47" transform="translate(-81.87 -380.86)"/><path class="cls-24" d="M616.91,663.32" transform="translate(-81.87 -380.86)"/><polyline class="cls-1" points="563.64 209.37 563.64 235.73 622.38 235.73 622.38 202.47 563.64 202.47"/><polygon class="cls-1" points="563.64 240.28 563.64 279.67 622.38 279.67 622.38 240.39 563.64 240.28"/><rect class="cls-36" x="574.56" y="211.73" width="35.54" height="11.14"/><polyline class="cls-36" points="439.28 278.18 441.55 278.18 441.55 271.31 441.73 259.16 442.15 244.76 443.97 211.34 369.4 211.34 369.4 278.85 441.44 278.85 441.55 278.18"/><rect class="cls-36" x="575.24" y="254.4" width="35.54" height="11.14"/><path class="cls-24" d="M515.14,606.07" transform="translate(-81.87 -380.86)"/><path class="cls-24" d="M437.84,606.07" transform="translate(-81.87 -380.86)"/><path class="cls-24" d="M515.14,625.47" transform="translate(-81.87 -380.86)"/><path class="cls-24" d="M437.84,625.47" transform="translate(-81.87 -380.86)"/><path class="cls-24" d="M515.09,645.38" transform="translate(-81.87 -380.86)"/><path class="cls-24" d="M436.87,645.38" transform="translate(-81.87 -380.86)"/><path class="cls-22" d="M438.1,590.54" transform="translate(-81.87 -380.86)"/><polyline class="cls-22" points="446.42 284.88 433.88 284.88 357.05 284.88 357.05 204.72 434.51 204.34 453.77 204.34"/><path class="cls-22" d="M437.05,664.31" transform="translate(-81.87 -380.86)"/><path class="cls-5" d="M439.06,584.55" transform="translate(-81.87 -380.86)"/><polygon class="cls-36" points="563.51 206.45 622.83 206.45 622.83 283.45 563.64 283.45 563.51 206.45"/><path class="cls-24" d="M601.6,663.45" transform="translate(-81.87 -380.86)"/><path class="cls-24" d="M562.55,664" transform="translate(-81.87 -380.86)"/><path class="cls-24" d="M583.38,664" transform="translate(-81.87 -380.86)"/><polyline class="cls-24" points="592.78 192.56 625.72 199.51 625.72 203.06 519.74 203.06 519.74 201.21"/><line class="cls-22" x1="535.25" y1="283.45" x2="561.5" y2="283.45"/><path class="cls-26" d="M603.77,592.2" transform="translate(-81.87 -380.86)"/><path class="cls-36" d="M527.72,598.19" transform="translate(-81.87 -380.86)"/><polygon class="cls-34" points="446.04 216.92 444.38 216.92 445.21 218.25 446.04 216.92"/><line class="cls-34" x1="460.87" y1="255.29" x2="459.9" y2="255.29"/><path class="cls-34" d="M535.42,651.41" transform="translate(-81.87 -380.86)"/><polygon class="cls-34" points="524.71 211.73 549.49 211.73 549.49 278.96 534.84 278.96 534.84 242.51 537.63 229.37 537.11 225.62 537.46 228.33 535.65 223.29 528.53 217.18 525.11 215.12 524.13 212.21 523.98 211.73 524.71 211.73"/><polygon class="cls-24" points="442.23 279.35 452.28 279.35 452.28 259.7 452.28 258.32 449.99 257.34 448.51 255.64 445.79 251.5 444.92 245.18 444.92 241.48 444.79 227.35 445.79 216.93 443.89 217.68 441.44 270.59 442.23 279.35"/><polyline class="cls-24" points="520.01 279.35 510.8 279.35 510.8 260.08 512.14 254.41 517.76 251.6"/><path class="cls-5" d="M583.2,658l.18,2.62H534.15V632.76L543,636.4c-.07-.29,17.1,5.35,21.51,2.75" transform="translate(-81.87 -380.86)"/><polyline class="cls-5" points="467.98 256.43 478.53 256.92 482.68 257.11 495 256.43 498.75 255.92"/><polyline class="cls-5" points="482.68 257.11 499.44 255.29 501.03 269.9 482.14 257.56"/><polyline class="cls-37" points="459.35 254.31 453.09 271.66 436.16 312.87"/><line class="cls-37" x1="475.92" y1="257.11" x2="487.28" y2="319.96"/><polyline class="cls-22" points="446.13 284.88 481.81 284.88 501.51 284.88"/><line class="cls-38" x1="417.44" y1="216.92" x2="417.44" y2="271.66"/><path class="cls-38" d="M567.31,651.27" transform="translate(-81.87 -380.86)"/><path class="cls-38" d="M579,636.15" transform="translate(-81.87 -380.86)"/><line class="cls-39" x1="562.66" y1="278.18" x2="623.74" y2="278.18"/><path class="cls-39" d="M644.53,586.52" transform="translate(-81.87 -380.86)"/><path class="cls-39" d="M644.53,586.52" transform="translate(-81.87 -380.86)"/><polyline class="cls-39" points="562.66 205.66 562.66 278.98 562.66 262.59 562.66 204.4"/><line class="cls-39" x1="620.42" y1="278.18" x2="624.64" y2="278.18"/><polyline class="cls-39" points="562.66 279.2 562.66 284.14 562.66 278.18"/><polyline class="cls-39" points="562.66 284.14 563.12 284.14 563.51 284.14"/><path class="cls-39" d="M644.53,664.87v.54" transform="translate(-81.87 -380.86)"/><path class="cls-40" d="M707.58,580" transform="translate(-81.87 -380.86)"/><path class="cls-34" d="M495.6,596.35l7.18.4s8.08,58.88.9,58.34l-7.18-.54-.9-59.17" transform="translate(-81.87 -380.86)"/><line class="cls-21" x1="442.36" y1="278.96" x2="449.25" y2="278.96"/><polygon class="cls-34" points="442.36 278.68 448.86 278.18 448.86 278.85 442.36 278.68"/><polygon class="cls-34" points="446.03 248 453.17 253.59 452.46 258.73 444.89 253.37 446.03 248"/><polygon class="cls-5" points="452.28 278.98 450.69 278.98 451.11 278.25 452.46 278.25 452.28 278.98"/><path class="cls-5" d="M533.18,660.65" transform="translate(-81.87 -380.86)"/><polygon class="cls-5" points="460.87 255.87 475.05 257.06 475.05 259.33 460.87 255.87"/><polyline class="cls-5" points="476.57 257.6 476.88 259.17 482.01 259.54 500.31 278.98 503.14 278.93 502.61 266.67 489.21 259.33 484.9 257.6 478.24 257.6"/><polygon class="cls-5" points="520.3 211.73 526.64 211.73 536.06 218.25 537.46 228.33 520.01 215.89 520.3 211.73"/><polyline class="cls-5" points="444.38 210.33 447.81 210.33 445.62 217.59 445.25 218.63 443.26 218.25 443.26 210.51"/><polyline class="cls-5" points="522.38 211.47 523.77 211.47 523.98 211.99 522.62 212.17 522.19 211.58 522.1 211.52"/><polyline class="cls-12" points="736.28 195.1 736.28 199.42 736.28 202.75"/><polyline class="cls-12" points="732.74 195.1 736.28 198.12 739.24 194.88"/><line class="cls-24" x1="619.06" y1="198.11" x2="628.02" y2="200.28"/><polyline class="cls-21" points="625.15 198.98 628.02 199.62 628.02 200.96"/><polyline class="cls-5" points="450.93 278.28 450.62 278.98 450.93 278.98"/><line class="cls-36" x1="627.16" y1="199.61" x2="627.16" y2="284.55"/><line class="cls-22" x1="513.59" y1="284.28" x2="520.01" y2="284.28"/><polyline class="cls-22" points="519.23 206.45 560.42 206.45 560.42 284.01"/><path class="cls-41" d="M932.58,460h24.51s7.47-8-1.53-10.73c-3.32-1,.68-9.53-6.81-8.85a9.63,9.63,0,0,0-8.75,7.49s-8.61-2.59-10.31,2.28S932.58,460,932.58,460Z" transform="translate(-81.87 -380.86)"/><path class="cls-41" d="M1105.32,475.28h24.51s7.46-8-1.54-10.73c-3.32-1,.69-9.53-6.8-8.85a9.65,9.65,0,0,0-8.76,7.49s-8.61-2.59-10.31,2.28S1105.32,475.28,1105.32,475.28Z" transform="translate(-81.87 -380.86)"/></svg>