<svg width="51" height="51" viewBox="0 0 51 51" fill="none" xmlns="http://www.w3.org/2000/svg">
<path d="M25.5 0C11.4198 0 0 11.4176 0 25.5C0 36.7668 7.30575 46.325 17.4399 49.6974C18.7127 49.9332 19.125 49.1427 19.125 48.4712V43.724C12.0317 45.2668 10.5549 40.715 10.5549 40.715C9.39462 37.7676 7.72225 36.9835 7.72225 36.9835C5.40812 35.4004 7.89862 35.4344 7.89862 35.4344C10.4593 35.6129 11.8065 38.063 11.8065 38.063C14.0803 41.9603 17.7714 40.834 19.227 40.1816C19.4544 38.5348 20.1153 37.4085 20.8463 36.7731C15.1831 36.125 9.22888 33.9384 9.22888 24.1697C9.22888 21.3839 10.2255 19.1101 11.8554 17.3251C11.5919 16.6812 10.7185 14.0866 12.104 10.5761C12.104 10.5761 14.246 9.89187 19.1186 13.1899C21.1523 12.6246 23.3325 12.342 25.5 12.3314C27.6675 12.342 29.8499 12.6246 31.8877 13.1899C36.7561 9.89187 38.8939 10.5761 38.8939 10.5761C40.2815 14.0888 39.4081 16.6834 39.1446 17.3251C40.7809 19.1101 41.769 21.386 41.769 24.1697C41.769 33.9639 35.8041 36.1208 30.1261 36.7519C31.0399 37.5424 31.875 39.0936 31.875 41.4736V48.4712C31.875 49.1491 32.283 49.946 33.5771 49.6952C43.7027 46.3186 51 36.7625 51 25.5C51 11.4176 39.5824 0 25.5 0Z" fill="black"/>
</svg>
