<svg id="Layer_1" data-name="Layer 1" xmlns="http://www.w3.org/2000/svg" viewBox="0 0 429.76 293.48"><defs><style>.cls-1,.cls-10,.cls-11,.cls-12,.cls-2,.cls-7,.cls-8{fill:none;}.cls-1,.cls-10,.cls-15{stroke:#3f3d56;}.cls-1,.cls-10,.cls-11,.cls-15,.cls-2,.cls-3,.cls-5,.cls-7,.cls-8{stroke-miterlimit:10;}.cls-1{stroke-width:3px;}.cls-2{stroke:#c3d7e6;}.cls-15,.cls-3,.cls-5,.cls-9{fill:#3f3d56;}.cls-3{stroke:#e6e6e6;}.cls-3,.cls-8{stroke-width:2px;}.cls-4{fill:#fff;}.cls-5{stroke:#f2f2fb;}.cls-6{fill:#f2f3f8;}.cls-16,.cls-7{stroke:#143068;}.cls-8{stroke:#f24c40;}.cls-11{stroke:#ff7c79;}.cls-13,.cls-16{fill:#143068;}.cls-14{fill:#f7dce7;}.cls-15{stroke-width:0.5px;}.cls-16{stroke-linecap:round;stroke-linejoin:round;stroke-width:0;}.cls-17{fill:#ff7bac;}</style></defs><title>l1</title><path class="cls-1" d="M835.61,410.65h-57.9c-12,2-11,20-11,20v71.7" transform="translate(-688.6 -395.56)"/><path class="cls-2" d="M753.71,572.65" transform="translate(-688.6 -395.56)"/><path class="cls-3" d="M924.21,676.15l193-1s2,10-9,12-404,0-404,0a14.65,14.65,0,0,1-13-6c-2.9-4.07-1-5-1-5l158,.78" transform="translate(-688.6 -395.56)"/><path class="cls-4" d="M949.61,665.4s37.6-1.25,39.6-1.25,7,0,8,5c.39,2,.33,3.14-.13,3.92-.73,1.23-2.42,1.47-4.87,2.08-4,1-70.08.67-70.08.67" transform="translate(-688.6 -395.56)"/><path class="cls-5" d="M979.71,517.65h71s6,5,0,5H978.15a4.21,4.21,0,0,1-4.14-3.12c-.24-1,0-1.88,1.7-1.88Z" transform="translate(-688.6 -395.56)"/><path class="cls-6" d="M778.21,430.15" transform="translate(-688.6 -395.56)"/><line class="cls-6" x1="136.29" y1="274.59" x2="1.61" y2="274.31"/><line class="cls-6" x1="87.29" y1="189.59" x2="105.29" y2="205.59"/><path class="cls-7" d="M754.71,548.65" transform="translate(-688.6 -395.56)"/><path class="cls-7" d="M758.71,538.65" transform="translate(-688.6 -395.56)"/><path class="cls-8" d="M884.21,430.26" transform="translate(-688.6 -395.56)"/><path class="cls-2" d="M887.09,409.92" transform="translate(-688.6 -395.56)"/><path class="cls-1" d="M1091.21,416.65c2.78,6.49.84,214,.54,244.31a13.2,13.2,0,0,1-3.17,8.54,15,15,0,0,1-3.9,3.27,10.36,10.36,0,0,1-3,1.1l-6.2,1.28" transform="translate(-688.6 -395.56)"/><path class="cls-2" d="M889.21,408.65" transform="translate(-688.6 -395.56)"/><path class="cls-9" d="M1022.21,428.15h21s5,1,3,3a6.19,6.19,0,0,1-4,2h-16s-6,0-6-2A3.7,3.7,0,0,1,1022.21,428.15Z" transform="translate(-688.6 -395.56)"/><circle class="cls-9" cx="90.11" cy="28.09" r="4.5"/><circle class="cls-9" cx="104.11" cy="28.09" r="4.5"/><circle class="cls-9" cx="117.11" cy="28.09" r="4.5"/><circle class="cls-9" cx="384.11" cy="25.09" r="4.5"/><path class="cls-5" d="M977.71,464.65h71s6,5,0,5h-75s-4-5,0-5Z" transform="translate(-688.6 -395.56)"/><path class="cls-5" d="M995.71,489.65h47s3,3,0,3h-45s-3,0-4-1S995.71,489.65,995.71,489.65Z" transform="translate(-688.6 -395.56)"/><path class="cls-5" d="M995.71,496.65h47s3,3,0,3h-45s-3,0-4-1S995.71,496.65,995.71,496.65Z" transform="translate(-688.6 -395.56)"/><path class="cls-10" d="M935.49,543.81c4.64,3.88,11.24,3.66,17,3.64,34.1-.1,68.13-.8,102.21-.8,4.57,0,8.22-4.66,9.36-8.64,2.18-7.61.64-17.65.64-25.64V446.65c0-3.08-3-5.4-5.36-6.73a9.86,9.86,0,0,0-4.87-1.27H939a9.64,9.64,0,0,0-8,4.07,6.92,6.92,0,0,0-1.3,3.93c0,26.31-.33,52.64-.33,78.94,0,6.47.8,13.73,6.08,18.19Z" transform="translate(-688.6 -395.56)"/><circle class="cls-9" cx="266.61" cy="71.59" r="10"/><path class="cls-11" d="M1057.71,613.65" transform="translate(-688.6 -395.56)"/><path class="cls-12" d="M883.67,533.35l-.49-.21a91.89,91.89,0,0,0-10,10.39c-2.57,3.07-5.21,6.58-8.06,10.71-1.12,1.63-2.29,3.36-3.67,5.47-.09.14-.3.42-.57.77-.56.73-2.26,3-2.24,3.51.07.11,9,16.93,13.89,21.81l15.49,15.49-.62.31s-.88.44-2.23,1.23c2.57,2.49,15.1,14.49,21.29,18.91a92.66,92.66,0,0,0,10.94,7l.13.1.68.68c17.09,1.59,32.49,4.68,38.17,10.46a7.23,7.23,0,0,1,2.29,6.28,39.83,39.83,0,0,1-4,13.43h.49c.19,0,20.77-1.11,26.56-11.74l.38-1.12-.23-.23a27.68,27.68,0,0,1-8.1-7.1c-3.63-4.54-10.94-18.14-12.48-21-.12.09-.24.19-.38.28l-5.12,3.82c-1,.74-2,1.48-3,2.21l-.81.59c-2.41,1.76-5.59,4.08-8.63,4.08a5.55,5.55,0,0,1-1.51-.2,8.41,8.41,0,0,1-3-1.88c-12.19-10.44-19.56-25.34-25.71-39.88-2.45-5.78-5-12.17-7.8-19.54-.34-.89-.67-1.79-1-2.68l-2.66,7.08c-3,8-16.51,24.44-17.08,25.14l-.77-.64c.14-.17,14-17,16.92-24.86l2-5.2-8.83-8.25.69-.73,8.52,8,.67-1.79.13,0c-.76-2-1.53-4-2.28-6.08-.36-1-.77-1.94-1.2-3A35.29,35.29,0,0,1,898,548l-.25-1.35,1.06.87a2,2,0,0,1,.58.78l.26.62-.38.15a44.19,44.19,0,0,0,2,5.47c.42,1,.85,2,1.22,3q1.85,5,3.74,10c2.79,7.35,5.34,13.73,7.78,19.5,5.82,13.76,12.74,27.82,23.8,38A68.22,68.22,0,0,1,951,614.72l6.51-3.72c-1.53-2.18-3-4.42-4.34-6.78-4.61-8.2-8-17-11.18-25.36l-1-2.73c-1.43-3.82-2.91-7.78-4.45-11.62a163.12,163.12,0,0,0-12.75-24.73c-2.92-4.77-9-13.08-17.07-15.25a18.44,18.44,0,0,0-10.77.7,39.34,39.34,0,0,0-11.75,7.08C884,532.66,883.82,533,883.67,533.35Z" transform="translate(-688.6 -395.56)"/><path class="cls-12" d="M836.55,622.06c1.36.58,2.79,1.28,4.27,2,4.95,2.43,10.56,5.18,15.33,4.58,3.13-.39,33.44-1.65,60.31.67a106.78,106.78,0,0,1-10.54-6.76c-6.43-4.59-19.56-17.22-21.61-19.2a60.23,60.23,0,0,0-13.72,11.12c-5.47,6.25-5.9,8.07-5.93,8.41l2,2L864,623.6a100.63,100.63,0,0,1-11.15-6.21A44.14,44.14,0,0,1,845,611.3l0,0c-.08.31-.18.66-.31,1.06C843.81,614.94,838.33,620.35,836.55,622.06Z" transform="translate(-688.6 -395.56)"/><path class="cls-12" d="M890.68,427.05c-1.29-.32-3.95,1.76-5.53,3a16.59,16.59,0,0,1-1.69,1.23,48.56,48.56,0,0,1-10,3.68l-3.09.81c-1.72.44-3.5.9-5.23,1.41l-1.31.37c-2.15.59-4.84,1.32-6.1,2.69l-1.21,1.31.35-1.74a34.13,34.13,0,0,0,.53-10.16c-.19-1.82-.68-2.88-1.54-3.34a3.44,3.44,0,0,0-2.75.14,8,8,0,0,0-4.78,6.88,16.13,16.13,0,0,0,1.29,6c.22.64.44,1.29.64,1.93,2.48,8.07,1.07,17.78-3.85,26.66-4.28,7.71-10.41,13.77-17.41,20.28a11.5,11.5,0,0,0,1.66,1c.37.19.72.38,1,.57,1.22.73,2.42,1.48,3.62,2.25,2.36,1.52,4.72,3.13,7,4.8s4.55,3.41,6.72,5.19c.89.73,1.75,1.53,2.59,2.3,1,.94,2.06,1.91,3.14,2.75,0-.3,0-.59,0-.9,0-.52,0-1.05.09-1.56.65-6.34,1.51-12.74,2.56-19a28.55,28.55,0,0,1,1.57-6.24,14.62,14.62,0,0,1,2.57-3.89c.28-.34.56-.68.84-1q-.51-.25-1-.54c-2.87-1.7-5.9-4.88-5.82-8.67l1,0c-.07,3.36,2.71,6.23,5.33,7.79a35.53,35.53,0,0,0,7.27,2.88l.22.07c1.71.53,4.15.92,6-.27a9.61,9.61,0,0,0,2.66-3.11c3.73-5.84,7.58-11.89,9.6-18.63a76.26,76.26,0,0,0,2.33-13.54l.78-7c0-.41.14-.92.24-1.48.27-1.47.6-3.3.18-4.25A.83.83,0,0,0,890.68,427.05Z" transform="translate(-688.6 -395.56)"/><path class="cls-12" d="M996,665.23l.07.07-.26.25.13.12,61.7-91.5-.31.05Z" transform="translate(-688.6 -395.56)"/><path class="cls-12" d="M951.46,615.59a67.59,67.59,0,0,0-12.86,10.19l.9.81a7.66,7.66,0,0,0,2.68,1.68c3,.86,6.62-1.79,9.27-3.73l.82-.6q1.5-1.08,3-2.19l5.13-3.82c.56-.42,1-.74,1-1s-.13-.61-.5-1.12q-1.44-1.95-2.86-3.95Z" transform="translate(-688.6 -395.56)"/><path class="cls-12" d="M780.71,543.15c0-7.87,6.69-25.72,19.09-43.29,11.62-16.45,26.24-12.58,27.49-12.21h.8c7-6.52,13.17-12.57,17.42-20.23,4.8-8.64,6.17-18.08,3.78-25.88-.2-.64-.42-1.27-.64-1.9a17.12,17.12,0,0,1-1.34-6.35,9,9,0,0,1,5.4-7.76,4.21,4.21,0,0,1,3.6-.1c1.55.83,1.92,2.75,2.06,4.12a34.19,34.19,0,0,1-.3,9.11,20,20,0,0,1,5.48-2.07l1.29-.36c1.74-.52,3.53-1,5.26-1.43,1-.26,2.06-.52,3.08-.8a47.46,47.46,0,0,0,9.81-3.61,14.08,14.08,0,0,0,1.54-1.13c2-1.53,4.64-3.63,6.39-3.18a1.85,1.85,0,0,1,1.27,1.13c.52,1.18.21,3.05-.08,4.61a4.15,4.15,0,0,0,3-3.82,10.75,10.75,0,0,0-1.79-5.76c-6.48-11.44-21.34-29.5-36-24.61-8.11,2.7-16,8.36-23.37,16.83-4.45,5.08-9.75,11.82-11.3,18.8a79.78,79.78,0,0,0-1.41,13.48c-.1,2.18-.21,4.42-.4,6.63a36.13,36.13,0,0,1-5.1,16.5c-4.53,7.71-12.6,18.1-25.29,23.81a91.73,91.73,0,0,1-9.9,3.59c-2.59.83-5.27,1.69-7.82,2.71a59.22,59.22,0,0,0-19,12.3c-8.36,8.1-10.92,22.14-6.08,33.38,1.49,3.48,4.16,5.91,7.15,6.5,2.16.43,4.33-.07,6.63-.6.75-.17,1.5-.35,2.25-.48,5.45-1,8.9.94,10.27,5.81.47,1.67,2.27,5.78,4,6.08a1.14,1.14,0,0,0,1-.38,41.25,41.25,0,0,1,2.68-3.6A148.61,148.61,0,0,1,780.71,543.15Z" transform="translate(-688.6 -395.56)"/><path class="cls-12" d="M997.53,652.33,996,651.6l-12.48-5.76-.22.68.28.28-.57.56-.31.95c-6.1,11.2-26.58,12.3-27.45,12.34h-1.09a21.63,21.63,0,0,1-3.3,4.21c6.66-.22,36.56-1.21,38.36-1.21a13,13,0,0,1,4.4.61l-2.54-2.55Z" transform="translate(-688.6 -395.56)"/><path class="cls-12" d="M997.87,670.06a5.06,5.06,0,0,1-.36,3.26,3.22,3.22,0,0,1-1.63,1.33h4.33c.17,0,17,0,26.82-4,2.9-1.16,4.46-2.42,4.51-3.64.09-2.13-4.23-4.29-6.55-5.45-3.5-1.75-11.82-3.53-13.55-3.89l-11.27,16.38Z" transform="translate(-688.6 -395.56)"/><path class="cls-12" d="M990.9,674.81a8.76,8.76,0,0,0,1.19-.14l1-.24c1.85-.44,3.07-.73,3.59-1.61.4-.69.42-1.82.07-3.57-.92-4.6-5.53-4.6-7.51-4.6s-37.33,1.18-39.47,1.25c-5.27,4.57-12.85,6.82-23.22,9.44,13.79,0,55.86.14,64.27-.52h.11Z" transform="translate(-688.6 -395.56)"/><path class="cls-12" d="M1058.57,574.52,996.8,666.17l3.45,6,65.31-95C1064.05,575.82,1060.61,573.28,1058.57,574.52Z" transform="translate(-688.6 -395.56)"/><path class="cls-12" d="M808.14,621.66c7.49-1.07,18.31-2,24.16-1a16.24,16.24,0,0,1,3.24,1c1.22-1.16,7.34-7.07,8.2-9.65a7.29,7.29,0,0,0,.41-1.7,38.73,38.73,0,0,1-4.51-7.57l-1-2a161.94,161.94,0,0,1-11.43-27.37c-.77-2.54-1.45-5.21-2.11-7.8-1.58-6.2-3.21-12.62-6.3-18.12l.87-.49c3.16,5.62,4.81,12.1,6.4,18.37.66,2.57,1.33,5.23,2.1,7.75a160.76,160.76,0,0,0,11.36,27.2l1,2a42.22,42.22,0,0,0,4,6.82.7.7,0,0,1,.36.17,1,1,0,0,1,.29.63c.2.24.41.48.62.7a43.26,43.26,0,0,0,7.63,5.95,98,98,0,0,0,10.37,5.83c.55-1.93,3.44-5.54,6.08-8.56,6-6.85,14.25-11.56,16.54-12.8l-4.84-4.84-.13.28c-3.07-1.45-15.61,13.34-22.8,23l-.8-.6c1.83-2.45,17.07-22.73,23-23.44l-8.91-8.91c-5-5-13.71-21.41-14.08-22.11s.45-2,2.35-4.52l.53-.71c1.38-2.11,2.55-3.85,3.67-5.48,2.88-4.17,5.53-7.7,8.13-10.79a90,90,0,0,1,10.87-11.19c.16-.35.31-.71.48-1.06a26.37,26.37,0,0,0,2.31-6.18c.86-4.57-.2-10-3-15.21a70.62,70.62,0,0,0-6.14-9.09,75.18,75.18,0,0,1-5.78-8.4,38,38,0,0,1-4.5-14.56v-1.05H867a38.21,38.21,0,0,1-3.61-1.36c-.32.43-.66.84-1,1.24a14,14,0,0,0-2.42,3.63,29,29,0,0,0-1.51,6c-1,6.26-1.9,12.64-2.54,19,0,.49-.07,1-.09,1.5s0,1.24-.13,1.85h0l1,2.94c.6.95,8,12.95,6,30.28a95.1,95.1,0,0,1-9.06,31.18l-.88-.48a94.08,94.08,0,0,0,9-30.81c1.95-17.62-5.84-29.55-5.92-29.67l-.06-.12-1-3,.07,0a40.28,40.28,0,0,1-3.87-3.29c-.83-.77-1.68-1.56-2.54-2.26-2.16-1.78-4.41-3.51-6.68-5.16s-4.61-3.26-7-4.77c-1.18-.76-2.38-1.51-3.58-2.23-.3-.18-.64-.36-1-.54a9.66,9.66,0,0,1-2.18-1.39l-.94,0c-.15-.05-14.81-4.67-26.44,11.81-11.83,16.77-18.91,34.88-18.91,42.71a147.94,147.94,0,0,0,1,15.94l0,.22-.15.17a35.53,35.53,0,0,0-2.38,3.14l.06,0a3.58,3.58,0,0,1-.45.54c-1.38,2.13-2.57,4.49-2.13,5.79,1.06,3.18-2.87,10.11-3,10.41-1.43,2.14-2.54,23.74-2.94,37.75,0,1.15,3.26,3.31,5.63,4.51C779.1,621.72,801.5,622.6,808.14,621.66Zm14.57-99.53c0,.19,1.06,19.94,6.9,27.72l6,8-.8.6-6-8c-6-8-7-27.45-7.1-28.27Z" transform="translate(-688.6 -395.56)"/><path class="cls-12" d="M957.72,646.08a6.22,6.22,0,0,0-2-5.44c-13.92-14.17-90.28-12.14-99.42-11-5.06.63-10.82-2.19-15.9-4.69-3.09-1.51-6-2.94-8.25-3.32-5.73-.95-16.43,0-23.85,1-7,1-30.11,0-31.09,0l-.2,0c-.37-.19-1.27-.65-2.28-1.27v1.82c0,2.32,3.67,26.46,16.86,39.65,8.32,8.32,22.8,9.14,34.44,9.8,6.19.35,11.54.66,14.43,2.1,8.18,4.1,65.23,4.82,84.65,0C945.62,669.53,954.81,666.41,957.72,646.08Z" transform="translate(-688.6 -395.56)"/><path class="cls-13" d="M954.72,659.65h.49s1-.06,2.63-.24l-1.26-4A30.87,30.87,0,0,1,954.72,659.65Z" transform="translate(-688.6 -395.56)"/><path class="cls-14" d="M841.3,493.47c-1.2-.77-2.4-1.52-3.62-2.25-.32-.19-.67-.38-1-.57a11.5,11.5,0,0,1-1.66-1c7-6.51,13.13-12.57,17.41-20.28,4.92-8.88,6.33-18.59,3.85-26.66-.2-.64-.42-1.29-.64-1.93a16.13,16.13,0,0,1-1.29-6,8,8,0,0,1,3-5.79c-.24-1.45-.7-2.32-1.46-2.73a3.44,3.44,0,0,0-2.75.14,8,8,0,0,0-4.78,6.88,16.13,16.13,0,0,0,1.29,6c.22.64.44,1.29.64,1.93,2.48,8.07,1.07,17.78-3.85,26.66-4.28,7.71-10.41,13.77-17.41,20.28a11.5,11.5,0,0,0,1.66,1c.37.19.72.38,1,.57,1.22.73,2.42,1.48,3.62,2.25,2.36,1.52,4.72,3.13,7,4.8s4.55,3.41,6.72,5.19c.89.73,1.75,1.53,2.59,2.3,1,.94,2.06,1.91,3.14,2.75,0-.3,0-.59,0-.9,0-.52,0-1.05.09-1.56l.12-1.1c-2.17-1.78-4.42-3.52-6.7-5.18S843.66,495,841.3,493.47Z" transform="translate(-688.6 -395.56)"/><path class="cls-14" d="M862.5,443.05l1.21-1.31c1.26-1.37,3.95-2.1,6.1-2.69l1.31-.37c1.73-.51,3.51-1,5.23-1.41l3.09-.81a48.56,48.56,0,0,0,10-3.68,15.65,15.65,0,0,0,1.68-1.23c.26-1.41.52-3.05.13-3.94a.83.83,0,0,0-.59-.56c-1.29-.32-3.95,1.76-5.53,3a16.59,16.59,0,0,1-1.69,1.23,48.56,48.56,0,0,1-10,3.68l-3.09.81c-1.72.44-3.5.9-5.23,1.41l-1.31.37-.45.12a36.17,36.17,0,0,1-.51,3.64Z" transform="translate(-688.6 -395.56)"/><path class="cls-4" d="M862.62,466.66l-1,0c-.08,3.72,2.83,6.83,5.65,8.56l2,.63.22.07a10.4,10.4,0,0,0,3,.51,24.65,24.65,0,0,1-4.45-2C865.33,472.89,862.55,470,862.62,466.66Z" transform="translate(-688.6 -395.56)"/><path class="cls-14" d="M876.59,616a56.92,56.92,0,0,1,11.06-9.43c-1.62-1.53-2.82-2.69-3.34-3.19a60.23,60.23,0,0,0-13.72,11.12c-5.12,5.85-5.82,7.82-5.91,8.33L876.27,628h0l2.61,0-8.2-3.65C870.77,623.8,871.47,621.83,876.59,616Z" transform="translate(-688.6 -395.56)"/><path class="cls-14" d="M961.24,662.15c.18,0,1.27-.07,2.91-.26l0,.09.48-.15h0c6.28-.79,19.37-3.45,24-12l.31-.95.34-.33-5.83-2.69-.22.68.28.28-.57.56-.31.95c-4.67,8.57-17.76,11.23-24,12h0l-.48.15,0-.09c-1.64.19-2.73.25-2.91.26h-1.09a21.63,21.63,0,0,1-3.3,4.21l7.57-.25a23.44,23.44,0,0,0,1.73-2.46Z" transform="translate(-688.6 -395.56)"/><path class="cls-14" d="M958.71,646.22a50.89,50.89,0,0,1-1.6,7.54l1.73,5.52c6.22-.85,18.64-3.49,22.93-11.37l.38-1.12-.23-.23a18.46,18.46,0,0,1-2.28-1.46c-4.45,7-12.48,8.24-18.43,9l-.1.11a50.89,50.89,0,0,0,1.6-7.54,7.23,7.23,0,0,0-2.29-6.28c-2.06-2.09-5.4-3.83-9.62-5.28l-2.17-4.79-.34-.52c2.76-.37,5.57-2.41,7.75-4l.81-.59c1-.73,2-1.47,3-2.21l2.84-2.12c-.6-1.09-1.06-2-1.34-2.48-.12.09-.24.19-.38.28l-5.12,3.82c-1,.74-2,1.48-3,2.21l-.81.59c-2.18,1.59-5,3.63-7.75,4l.34.52,2.17,4.79c4.22,1.45,7.56,3.19,9.62,5.28A7.23,7.23,0,0,1,958.71,646.22Z" transform="translate(-688.6 -395.56)"/><path class="cls-14" d="M1003.51,672.59l9.93-14.45-2-.43-11.27,16.38-2.3-4a5.06,5.06,0,0,1-.36,3.26,3.22,3.22,0,0,1-1.63,1.33h4.33c.17,0,17,0,26.82-4a17.27,17.27,0,0,0,2.31-1.12c-9.9,3.54-25.63,3.58-25.79,3.58Z" transform="translate(-688.6 -395.56)"/><path class="cls-4" d="M867.59,476.89c.28-.34.56-.68.84-1q-.51-.25-1-.54l-.17-.11c-2.82-1.73-5.73-4.84-5.65-8.56l1,0c-.07,3.36,2.71,6.23,5.33,7.79a24.65,24.65,0,0,0,4.45,2c1,.33,1.91.63,2.82.92l.22.07c1.71.53,4.15.92,6-.27a9.61,9.61,0,0,0,2.66-3.11c3.73-5.84,7.58-11.89,9.6-18.63a76.26,76.26,0,0,0,2.33-13.54l.78-7c0-.41.14-.92.24-1.48.27-1.47.6-3.3.18-4.25a.83.83,0,0,0-.59-.56c-1.29-.32-3.95,1.76-5.53,3h0a15.65,15.65,0,0,1-1.68,1.23,48.56,48.56,0,0,1-10,3.68l-3.09.81c-1.72.44-3.5.9-5.23,1.41l-1.31.37c-2.15.59-4.84,1.32-6.1,2.69l-1.21,1.31.35-1.74a36.17,36.17,0,0,0,.51-3.64,32.31,32.31,0,0,0,0-6.52c-.19-1.82-.68-2.88-1.54-3.34a3.44,3.44,0,0,0-2.75.14A7.59,7.59,0,0,0,857.3,429a8,8,0,0,0-3,5.79,16.13,16.13,0,0,0,1.29,6c.22.64.44,1.29.64,1.93,2.48,8.07,1.07,17.78-3.85,26.66-4.28,7.71-10.41,13.77-17.41,20.28a11.5,11.5,0,0,0,1.66,1c.37.19.72.38,1,.57,1.22.73,2.42,1.48,3.62,2.25,2.36,1.52,4.72,3.13,7,4.8s4.53,3.4,6.7,5.18h0c.89.73,1.75,1.53,2.59,2.3,1,.94,2.06,1.91,3.14,2.75,0-.3,0-.59,0-.9,0-.52,0-1.05.09-1.56.65-6.34,1.51-12.74,2.56-19a28.55,28.55,0,0,1,1.57-6.24A14.62,14.62,0,0,1,867.59,476.89Z" transform="translate(-688.6 -395.56)"/><path class="cls-4" d="M890.31,604.86c-.78.47-1.69,1-2.66,1.69A56.92,56.92,0,0,0,876.59,616c-5.12,5.85-5.82,7.82-5.91,8.33l8.2,3.65,3.39,1.51h0c11.5-.1,26.3.14,40.19,1.34a106.78,106.78,0,0,1-10.54-6.76C905.49,619.47,892.36,606.84,890.31,604.86Z" transform="translate(-688.6 -395.56)"/><path class="cls-4" d="M996.21,664.15l.86-.94,6.46-9.38-1.54-.73-12.48-5.76-.22.68.28.28-.23.23-.34.33-.31.95c-4.67,8.57-17.76,11.23-24,12h0l-.48.15,0-.09c-1.64.19-2.73.25-2.91.26h-1.09a23.44,23.44,0,0,1-1.73,2.46,21.76,21.76,0,0,1-1.57,1.75c6.66-.22,36.56-1.21,38.36-1.21C996.19,665.15,994.54,663.55,996.21,664.15Z" transform="translate(-688.6 -395.56)"/><path class="cls-4" d="M956.85,625.26l-.81.59c-2.18,1.59-5,3.63-7.75,4l.34.52,2.17,4.79c4.22,1.45,7.56,3.19,9.62,5.28a7.23,7.23,0,0,1,2.29,6.28,50.89,50.89,0,0,1-1.6,7.54l.1-.11c5.95-.81,14-2,18.43-9,.19-.31.39-.62.57-1v-.9s0,0,0,0v-.08h0a28.16,28.16,0,0,0-2.36-3.18c-3.63-4.54-10.94-18.14-12.48-21-.12.09-.24.19-.38.28l-2.28,1.7-2.84,2.12C958.85,623.79,957.86,624.53,956.85,625.26Z" transform="translate(-688.6 -395.56)"/><path class="cls-4" d="M1028.32,660.1c-3.49-1.75-11.82-3.53-13.55-3.89l-1.33,1.93-9.93,14.45,0,.56c.16,0,15.89,0,25.79-3.58l1-.38c2.9-1.17,4.47-2.42,4.52-3.64C1035,663.42,1030.64,661.26,1028.32,660.1Z" transform="translate(-688.6 -395.56)"/><path class="cls-13" d="M996,665.23l.07.07-.26.25.13.12,61.7-91.5-.31.05Z" transform="translate(-688.6 -395.56)"/><path class="cls-15" d="M834.81,558.45l.8-.6-6-8c-5.84-7.78-6.89-27.53-6.9-27.72l-1,0c0,.82,1.08,20.24,7.1,28.27Z" transform="translate(-688.6 -395.56)"/><path class="cls-15" d="M1066.86,577.09l-.29-.29c-.22-.22-5.33-5.27-8.63-3.07l-.17.25,0,.16-.16,0-61.7,91.5-.13-.12-.45.45-1.75-1.74a13,13,0,0,0-4.4-.61c-1.8,0-31.7,1-38.36,1.21a21.63,21.63,0,0,0,3.3-4.21h1.09c.18,0,1.27-.07,2.91-.26l0,.09.48-.15h0c6.28-.79,19.37-3.45,24-12l.31-.95.57-.56-.28-.28.22-.68L996,651.6l1.54.73.57-.83-15.18-7-.43,1.28,0,0a27,27,0,0,1-7.84-6.86c-3.65-4.56-11.37-19-12.51-21.11a1.51,1.51,0,0,0,.32-.69,2.56,2.56,0,0,0-.69-1.86A115,115,0,0,1,954,603.73c-4.57-8.14-8-16.92-11.11-25.22l-1-2.73c-1.43-3.83-2.91-7.79-4.47-11.65a163.65,163.65,0,0,0-12.82-24.88c-3-4.89-9.28-13.43-17.65-15.68a19.09,19.09,0,0,0-11.37.72,38.39,38.39,0,0,0-10.49,6,23.72,23.72,0,0,0,2-5.62c.9-4.8-.19-10.43-3.08-15.87a69.86,69.86,0,0,0-6.22-9.22,75.63,75.63,0,0,1-5.71-8.29,37.26,37.26,0,0,1-4.38-14.12v-.75l1.21.38.22.07c1.91.6,4.66,1,6.87-.38a10.34,10.34,0,0,0,3-3.41c3.77-5.9,7.66-12,9.72-18.88a77.25,77.25,0,0,0,2.36-13.72l.78-7c0-.17,0-.37.09-.58,2.4-.18,4.05-2.59,4.2-4.8a11.62,11.62,0,0,0-1.92-6.33c-6.63-11.7-21.91-30.14-37.15-25.06-8.28,2.76-16.3,8.52-23.81,17.12-4.53,5.18-9.92,12-11.52,19.24a79.3,79.3,0,0,0-1.44,13.66c-.1,2.16-.2,4.4-.4,6.58a34.64,34.64,0,0,1-5,16.08c-4.46,7.59-12.39,17.81-24.84,23.41a92.61,92.61,0,0,1-9.8,3.55c-2.6.84-5.3,1.7-7.88,2.74a60,60,0,0,0-19.3,12.51c-8.64,8.37-11.29,22.87-6.3,34.49,1.62,3.78,4.57,6.43,7.87,7.08a16.87,16.87,0,0,0,7.06-.61c.73-.17,1.47-.34,2.2-.47,4.92-.91,7.91.76,9.12,5.1,0,.06,1.94,6.3,4.76,6.79l.34,0c-1.09,1.91-1.88,3.94-1.42,5.33.76,2.28-1.88,7.7-2.94,9.56-2,3-3,34.67-3.09,38.27h0c0,1.16,1.47,2.48,3,3.53v2.47c0,2.37,3.73,26.94,17.15,40.35,8.59,8.59,23.28,9.43,35.09,10.1,6.08.35,11.33.65,14,2,4.33,2.16,22.1,3.41,40.88,3.41,15.36,0,31.38-.84,41.26-2.69h0c1,0,11.13.06,23.35.06,17.44,0,39.22-.1,45.36-.57h0l3.37-.17h6c.17,0,17.21,0,27.19-4,3.39-1.35,5.07-2.83,5.14-4.52.12-2.78-4.23-5-7.1-6.39-3.43-1.71-11-3.38-13.39-3.89l54.58-79.38ZM955.21,659.65h-.49a30.87,30.87,0,0,0,1.86-4.25l1.26,4C956.25,659.59,955.25,659.65,955.21,659.65Zm18.61-20.19a27.68,27.68,0,0,0,8.1,7.1l.23.23-.38,1.12c-4.29,7.88-16.71,10.52-22.93,11.37l-1.73-5.52a50.89,50.89,0,0,0,1.6-7.54,7.23,7.23,0,0,0-2.29-6.28c-2.06-2.09-5.4-3.83-9.62-5.28l-2.17-4.79-.34-.52c2.76-.37,5.57-2.41,7.75-4l.81-.59c1-.73,2-1.47,3-2.21l5.12-3.82c.14-.09.26-.19.38-.28C962.88,621.32,970.19,634.92,973.82,639.46Zm-12.9-23.69c.37.51.54.88.5,1.12s-.49.62-1,1l-5.13,3.82q-1.47,1.11-3,2.19l-.82.6c-2.65,1.94-6.27,4.59-9.27,3.73a7.66,7.66,0,0,1-2.68-1.68l-.9-.81a67.59,67.59,0,0,1,12.86-10.19l6.6-3.77Q959.49,613.81,960.92,615.77Zm-65-90.54a18.44,18.44,0,0,1,10.77-.7c8,2.17,14.15,10.48,17.07,15.25a163.12,163.12,0,0,1,12.75,24.73c1.54,3.84,3,7.8,4.45,11.62l1,2.73c3.13,8.34,6.57,17.16,11.18,25.36,1.33,2.36,2.81,4.6,4.34,6.78L951,614.72a68.22,68.22,0,0,0-13.11,10.39c-11.06-10.21-18-24.27-23.8-38-2.44-5.77-5-12.15-7.78-19.5q-1.9-5-3.74-10c-.37-1-.8-2-1.22-3a44.19,44.19,0,0,1-2-5.47l.38-.15-.26-.62a2,2,0,0,0-.58-.78l-1.06-.87L898,548A35.29,35.29,0,0,0,900.4,555c.43,1,.84,2,1.2,3,.75,2,1.52,4.06,2.28,6.08l-.13,0-.67,1.79-8.52-8-.69.73,8.83,8.25-2,5.2c-2.94,7.84-16.78,24.69-16.92,24.86l.77.64c.57-.7,14.09-17.16,17.08-25.14l2.66-7.08c.33.89.66,1.79,1,2.68,2.8,7.37,5.35,13.76,7.8,19.54,6.15,14.54,13.52,29.44,25.71,39.88a8.41,8.41,0,0,0,3,1.88,5.49,5.49,0,0,0,1.39.2l-.11.07.58.86,1.75,3.88c-7.31-2.3-17-3.81-27.26-4.76l-.68-.68-.13-.1a92.66,92.66,0,0,1-10.94-7c-6.19-4.42-18.72-16.42-21.29-18.91,1.35-.79,2.2-1.22,2.23-1.23l.62-.31L872.57,585.8c-4.88-4.88-13.82-21.7-13.89-21.81,0-.54,1.68-2.78,2.24-3.51.27-.35.48-.63.57-.77,1.38-2.11,2.55-3.84,3.67-5.47,2.85-4.13,5.49-7.64,8.06-10.71a91.89,91.89,0,0,1,10-10.39l.49.21c.15-.35.32-.69.48-1A39.34,39.34,0,0,1,895.9,525.23Zm-55.08,98.84c-1.48-.73-2.91-1.43-4.27-2,1.78-1.71,7.26-7.12,8.14-9.75.13-.4.23-.75.31-1.06l0,0a44.14,44.14,0,0,0,7.81,6.09c2.42,1.56,4.95,3,7.53,4.39l-5.84,7C850.15,628.64,845.22,626.23,840.82,624.07Zm20.47-1.81c.9.46,1.8.91,2.71,1.34h0l2.59,1.23-.14-.14,7.4,3.3c-9.51.12-16.33.47-17.73.64l-.26,0Zm3.39.55c.09-.51.79-2.48,5.91-8.33a60.23,60.23,0,0,1,13.72-11.12c2.05,2,15.18,14.61,21.61,19.2a106.78,106.78,0,0,0,10.54,6.76c-13.89-1.2-28.69-1.44-40.19-1.34h0Zm26.41-190.95c-.1.56-.2,1.07-.24,1.48l-.78,7a76.26,76.26,0,0,1-2.33,13.54c-2,6.74-5.87,12.79-9.6,18.63a9.61,9.61,0,0,1-2.66,3.11c-1.89,1.19-4.33.8-6,.27l-.22-.07A35.53,35.53,0,0,1,862,473c-2.62-1.56-5.4-4.43-5.33-7.79l-1,0c-.08,3.79,3,7,5.82,8.67q.48.29,1,.54c-.28.36-.56.7-.84,1a14.62,14.62,0,0,0-2.57,3.89,28.55,28.55,0,0,0-1.57,6.24c-1.05,6.29-1.91,12.69-2.56,19,0,.51-.07,1-.09,1.56,0,.31,0,.6,0,.9-1.08-.84-2.13-1.81-3.14-2.75-.84-.77-1.7-1.57-2.59-2.3-2.17-1.78-4.43-3.53-6.72-5.19s-4.65-3.28-7-4.8c-1.2-.77-2.4-1.52-3.62-2.25-.32-.19-.67-.38-1-.57a11.5,11.5,0,0,1-1.66-1c7-6.51,13.13-12.57,17.41-20.28,4.92-8.88,6.33-18.59,3.85-26.66-.2-.64-.42-1.29-.64-1.93a16.13,16.13,0,0,1-1.29-6,8,8,0,0,1,4.78-6.88,3.44,3.44,0,0,1,2.75-.14c.86.46,1.35,1.52,1.54,3.34a34.13,34.13,0,0,1-.53,10.16l-.35,1.74,1.21-1.31c1.26-1.37,3.95-2.1,6.1-2.69l1.31-.37c1.73-.51,3.51-1,5.23-1.41l3.09-.81a48.56,48.56,0,0,0,10-3.68,16.59,16.59,0,0,0,1.69-1.23c1.58-1.24,4.24-3.32,5.53-3a.83.83,0,0,1,.59.56C891.69,428.56,891.36,430.39,891.09,431.86ZM778,563c-1.69-.3-3.49-4.41-4-6.08-1.37-4.87-4.82-6.83-10.27-5.81-.75.13-1.5.31-2.25.48-2.3.53-4.47,1-6.63.6-3-.59-5.66-3-7.15-6.5-4.84-11.24-2.28-25.28,6.08-33.38a59.22,59.22,0,0,1,19-12.3c2.55-1,5.23-1.88,7.82-2.71a91.73,91.73,0,0,0,9.9-3.59c12.69-5.71,20.76-16.1,25.29-23.81a36.13,36.13,0,0,0,5.1-16.5c.19-2.21.3-4.45.4-6.63a79.78,79.78,0,0,1,1.41-13.48c1.55-7,6.85-13.72,11.3-18.8,7.4-8.47,15.26-14.13,23.37-16.83,14.63-4.89,29.49,13.17,36,24.61a10.75,10.75,0,0,1,1.79,5.76,4.15,4.15,0,0,1-3,3.82c.29-1.56.6-3.43.08-4.61a1.85,1.85,0,0,0-1.27-1.13c-1.75-.45-4.44,1.65-6.39,3.18a14.08,14.08,0,0,1-1.54,1.13,47.46,47.46,0,0,1-9.81,3.61c-1,.28-2,.54-3.08.8-1.73.45-3.52.91-5.26,1.43l-1.29.36a20,20,0,0,0-5.48,2.07,34.19,34.19,0,0,0,.3-9.11c-.14-1.37-.51-3.29-2.06-4.12a4.21,4.21,0,0,0-3.6.1,9,9,0,0,0-5.4,7.76,17.12,17.12,0,0,0,1.34,6.35c.22.63.44,1.26.64,1.9,2.39,7.8,1,17.24-3.78,25.88-4.25,7.66-10.4,13.71-17.42,20.23h-.8c-1.25-.37-15.87-4.24-27.49,12.21-12.4,17.57-19.09,35.42-19.09,43.29a148.61,148.61,0,0,0,1,15.84,41.25,41.25,0,0,0-2.68,3.6A1.14,1.14,0,0,1,778,563Zm-6.28,54.18c.4-14,1.51-35.61,2.94-37.75.17-.3,4.1-7.23,3-10.41-.44-1.3.75-3.66,2.13-5.79a3.58,3.58,0,0,0,.45-.54l-.06,0a35.53,35.53,0,0,1,2.38-3.14l.15-.17,0-.22a147.94,147.94,0,0,1-1-15.94c0-7.83,7.08-25.94,18.91-42.71,11.63-16.48,26.29-11.86,26.44-11.81l.94,0a9.66,9.66,0,0,0,2.18,1.39c.35.18.69.36,1,.54,1.2.72,2.4,1.47,3.58,2.23,2.36,1.51,4.7,3.11,7,4.77s4.52,3.38,6.68,5.16c.86.7,1.71,1.49,2.54,2.26a40.28,40.28,0,0,0,3.87,3.29l-.07,0,1,3,.06.12c.08.12,7.87,12.05,5.92,29.67a94.08,94.08,0,0,1-9,30.81l.88.48a95.1,95.1,0,0,0,9.06-31.18c1.93-17.33-5.44-29.33-6-30.28l-1-2.94h0c.08-.61.11-1.24.13-1.85s0-1,.09-1.5c.64-6.32,1.5-12.7,2.54-19a29,29,0,0,1,1.51-6,14,14,0,0,1,2.42-3.63c.33-.4.67-.81,1-1.24a38.21,38.21,0,0,0,3.61,1.36h-.25v1.05a38,38,0,0,0,4.5,14.56,75.18,75.18,0,0,0,5.78,8.4,70.62,70.62,0,0,1,6.14,9.09c2.78,5.24,3.84,10.64,3,15.21a26.37,26.37,0,0,1-2.31,6.18c-.17.35-.32.71-.48,1.06a90,90,0,0,0-10.87,11.19c-2.6,3.09-5.25,6.62-8.13,10.79-1.12,1.63-2.29,3.37-3.67,5.48l-.53.71c-1.9,2.49-2.74,3.81-2.35,4.52s9.1,17.13,14.08,22.11l8.91,8.91c-5.89.71-21.13,21-23,23.44l.8.6c7.19-9.65,19.73-24.44,22.8-23l.13-.28,4.84,4.84c-2.29,1.24-10.55,6-16.54,12.8-2.64,3-5.53,6.63-6.08,8.56-.77-.37-1.52-.76-2.28-1.15l-.37-.31L861,621c-2.63-1.38-5.19-2.87-7.65-4.45a43.26,43.26,0,0,1-7.63-5.95c-.21-.22-.42-.46-.62-.7a1,1,0,0,0-.29-.63.7.7,0,0,0-.36-.17,42.22,42.22,0,0,1-4-6.82l-1-2A160.76,160.76,0,0,1,828.15,573c-.77-2.52-1.44-5.18-2.1-7.75-1.59-6.27-3.24-12.75-6.4-18.37l-.87.49c3.09,5.5,4.72,11.92,6.3,18.12.66,2.59,1.34,5.26,2.11,7.8a161.94,161.94,0,0,0,11.43,27.37l1,2a38.73,38.73,0,0,0,4.51,7.57,7.29,7.29,0,0,1-.41,1.7c-.86,2.58-7,8.49-8.2,9.65a16.24,16.24,0,0,0-3.24-1c-5.85-1-16.67-.07-24.16,1-6.64.94-29,.06-30.8,0C775,620.46,771.72,618.3,771.71,617.15Zm68.73,57.55c-2.89-1.44-8.24-1.75-14.43-2.1-11.64-.66-26.12-1.48-34.44-9.8-13.19-13.19-16.86-37.33-16.86-39.65v-1.82c1,.62,1.91,1.08,2.28,1.27l.2,0c1,0,24.13,1,31.09,0,7.42-1.06,18.12-2,23.85-1,2.24.38,5.16,1.81,8.25,3.32,4.44,2.18,9.41,4.62,14,4.77l.38.32.27-.32c.43,0,.86,0,1.28-.08,2.46-.31,9.82-.68,19.52-.79l.06,0,0,0c26.27-.27,69.66,1.44,79.82,11.78a6.22,6.22,0,0,1,2,5.44,53.21,53.21,0,0,1-1.4,6.85h0l-.47.15.22.7c-4.12,13.54-13.39,16.48-31,20.88C905.67,679.52,848.62,678.8,840.44,674.7Zm152.62-.27-1,.24a8.76,8.76,0,0,1-1.19.14h-.11c-8.41.66-50.48.57-64.27.52,10.37-2.62,18-4.87,23.22-9.44,2.14-.07,37.55-1.25,39.47-1.25s6.59,0,7.51,4.6c.35,1.75.33,2.88-.07,3.57C996.13,673.7,994.91,674,993.06,674.43ZM1025,661.6c2.32,1.16,6.64,3.32,6.55,5.45,0,1.22-1.61,2.48-4.51,3.64-9.8,3.91-26.65,4-26.82,4h-4.33a3.22,3.22,0,0,0,1.63-1.33,5.06,5.06,0,0,0,.36-3.26l2.3,4,11.27-16.38C1013.17,658.07,1021.49,659.85,1025,661.6Zm-24.74,10.61-3.45-6,61.77-91.65c2-1.24,5.48,1.3,7,2.7Z" transform="translate(-688.6 -395.56)"/><line class="cls-16" x1="267.73" y1="257.37" x2="267.72" y2="257.37"/><line class="cls-16" x1="270.05" y1="264.77" x2="270.05" y2="264.77"/><line class="cls-16" x1="270.05" y1="264.77" x2="270.05" y2="264.77"/><path class="cls-17" d="M823,554.43" transform="translate(-688.6 -395.56)"/><path class="cls-17" d="M880.42,628.65" transform="translate(-688.6 -395.56)"/><path class="cls-17" d="M899.21,549.15" transform="translate(-688.6 -395.56)"/><path class="cls-17" d="M869.58,488.41" transform="translate(-688.6 -395.56)"/><path class="cls-9" d="M1057.21,574.15c-11,3-11,2-11,2l-58.84,84.18,5.84,3.82,2.15,1.85" transform="translate(-688.6 -395.56)"/><path class="cls-17" d="M938.21,627.15s17-11,20-11h3l-17,13h-2" transform="translate(-688.6 -395.56)"/><path class="cls-17" d="M895,613.4" transform="translate(-688.6 -395.56)"/><path class="cls-17" d="M829.21,581.15s2,20,7,28,7,3,7,3" transform="translate(-688.6 -395.56)"/><path class="cls-17" d="M857.21,485.15c-1.51,3.27-3.38,6.38-4.67,9.75s-1.33,6.59-1.33,10.25l3,2" transform="translate(-688.6 -395.56)"/><path class="cls-1" d="M885.66,409.65h195.05a14.63,14.63,0,0,1,8,3c4,3,3,8.54,3,8.54" transform="translate(-688.6 -395.56)"/><path class="cls-1" d="M765.71,550.83V661.58a13.57,13.57,0,0,0,4.93,10.66c2,1.61,10.7,3.79,14.07,3.41" transform="translate(-688.6 -395.56)"/><path class="cls-2" d="M670.71,531.65" transform="translate(-688.6 -395.56)"/></svg>