<svg id="Layer_1" data-name="Layer 1" xmlns="http://www.w3.org/2000/svg" viewBox="0 0 249.04 262.68"><defs><style>.cls-1{fill:#f2f2fb;}.cls-2,.cls-7,.cls-8{fill:none;}.cls-3{fill:#143068;}.cls-4{fill:#f7dce7;}.cls-13,.cls-5,.cls-6{fill:#3f3d56;}.cls-13,.cls-5,.cls-7{stroke:#3f3d56;}.cls-13,.cls-5{stroke-miterlimit:10;}.cls-5{stroke-width:0.5px;}.cls-7,.cls-8{stroke-linecap:round;stroke-linejoin:round;stroke-width:0;}.cls-8{stroke:#fff;}.cls-9{fill:#dbdaf2;}.cls-10{fill:#c0dcf3;}.cls-11{fill:#e6e6e6;}.cls-12{fill:#ff7bac;}.cls-13{stroke-width:0.25px;}</style></defs><title>b4</title><path class="cls-1" d="M1247.57,520.58l.16-.31,11.09.17v.14l0,.36,1.89-.17a1.1,1.1,0,0,0,.5-.19c1.85-1.1,3.74-7,4.41-9.26.31-.14.29-.27.25-.5s-.18-.49-.72-.4l-.32,0,0,.07c-.4.09-1.21.26-2.82.57a12.85,12.85,0,0,0-6,2.77l-.74-2.83c-1-3.83-7.28-7.16-7.55-7.3l-.53-.28-2.26,7.48c-1.91,6.29,1.41,9,2.3,9.64a1.08,1.08,0,0,0,.22.13Z" transform="translate(-1230.28 -409.35)"/><path class="cls-2" d="M1352.72,588.19c5.39-2.5,12.64-7.05,16.61-14.54a11.28,11.28,0,0,0,1.6-6.68,9.44,9.44,0,0,0-2.3-4.82,19.78,19.78,0,0,0-4.23-3.57,43,43,0,0,0-5.28-3A121.67,121.67,0,0,0,1347,550.8l-2.49-.89c-6.13-2.19-12.5-4.35-18.93-6.43-7.49-2.43-13.64-4.28-19.35-5.85l-.19,0a100.67,100.67,0,0,0-14.27-3.16c-6.48-.79-13.21-1.12-18.48,1.74a15.25,15.25,0,0,0-2.22,1.47c-4,3.19-5.14,8.17-6,13a98.82,98.82,0,0,0-1.27,18.71c0,2.68.12,5.48.28,8.32,0,.71,0,1.42.07,2.14a22.14,22.14,0,0,0,.48,5.09,9.15,9.15,0,0,0,3.41,4.88c3.29,2.53,7.54,3.51,11.65,4.45l.44.1a117.27,117.27,0,0,0,18.58,2.43c4.16.24,7,.23,7.06.23h.44c2.93,0,6-.17,9.76-.47a151,151,0,0,0,17.68-2.4A84.71,84.71,0,0,0,1352.72,588.19Z" transform="translate(-1230.28 -409.35)"/><path class="cls-2" d="M1351.33,636.4l-1.3.14c-2.14.22-5,2.68-5.46,3.12-1.86,5.3-7.51,5.79-9.37,6H1335a7,7,0,0,0,1.3,4.57,6.14,6.14,0,0,0,2.55,1.66,8.54,8.54,0,0,0,2.83.63,7.29,7.29,0,0,0,3.43-.81A18.49,18.49,0,0,0,1350,648l3.4-4a29.34,29.34,0,0,1-1.64-4A7.11,7.11,0,0,1,1351.33,636.4Z" transform="translate(-1230.28 -409.35)"/><path class="cls-2" d="M1380.13,632a5.68,5.68,0,0,0-3.94-.34,15.6,15.6,0,0,0-5,2.61,3.81,3.81,0,0,1-1.77,1.21c-.17.08-.33.14-.48.22-1,.48-1.76.84-2.5,1.16a22.4,22.4,0,0,1-5.36,1.65,11.37,11.37,0,0,1-8.8-1.92,6.24,6.24,0,0,0,.35,3.14,30,30,0,0,0,1.87,4.51,4.86,4.86,0,0,0,1.34,1.8,4.67,4.67,0,0,0,2.68.62,30.24,30.24,0,0,0,6.48-.83,45.05,45.05,0,0,0,8.33-2.49,20.83,20.83,0,0,0,7.06-4.79,5.3,5.3,0,0,0,1.75-3.51A3.67,3.67,0,0,0,1380.13,632Z" transform="translate(-1230.28 -409.35)"/><path class="cls-2" d="M1343.62,639.35c-2.41-7.13-.37-41.09,0-46.68-3,.91-6.26,1.72-9.8,2.43-2.16.43-4.4.8-6.68,1.14.4,4.09,3.33,34.27,4.12,39.22l.11.69c.83,5.22,1.45,8.47,3.57,8.47h.19C1338.07,644.36,1342.14,643.53,1343.62,639.35Z" transform="translate(-1230.28 -409.35)"/><path class="cls-2" d="M1353.15,589.1q-2.24,1-4.7,1.95c.42,4.21,3.88,39,4,42.3,0,1.12.06,1.72.07,2.06a10.14,10.14,0,0,0,8.46,2.08,21,21,0,0,0,5.12-1.58c.82-.36,1.64-.74,2.45-1.14l.52-.23a4.51,4.51,0,0,0,1.09-.59,18.54,18.54,0,0,1-2.26-6.11,46.66,46.66,0,0,1-.15-11c0-.77.1-1.53.14-2.28.24-4.45.64-8.93,1.18-13.34.37-3,.8-5.94,1.23-8.83l.31-2.15a42.61,42.61,0,0,0,.64-7.48,20.25,20.25,0,0,0-1.8-7.25C1365.21,582.41,1358.33,586.69,1353.15,589.1Z" transform="translate(-1230.28 -409.35)"/><path class="cls-2" d="M1344.62,592.36c-.23,3.71-2.34,38-.22,46.13,1.09-.92,3.5-2.74,5.53-2.94.84-.09,1.31-.15,1.58-.19,0-.44,0-1.07-.08-2-.1-3.16-3.45-37-4-42C1346.55,591.73,1345.6,592.05,1344.62,592.36Z" transform="translate(-1230.28 -409.35)"/><path class="cls-2" d="M1332.46,464.18c15-9.86,8.33-25.71,8.26-25.87l-.14-.26a4.73,4.73,0,0,0-1.82.2,5.43,5.43,0,0,1-1.14.19,1.43,1.43,0,0,1-.72-.18,1.17,1.17,0,0,0-.62-.11,1.84,1.84,0,0,1-1.83-1,3.09,3.09,0,0,0-.89-.82,6.44,6.44,0,0,1-1.29-1.17,25.15,25.15,0,0,1-8.47,20,47.48,47.48,0,0,1-4.45,3.38c-1.39.95-2.84,1.87-4.24,2.75l-1,.66-1.24.81a34.29,34.29,0,0,1-3.77,2.23c1.82.64,3.86,2.05,3.8,4.63-.09,3.56-4.61,12.09-5.58,13.87.63.53,3.15,2.17,11.59,3.24,9.1,1.15,11.18-2.49,11.52-3.3l-2-3.72C1323.62,470.24,1332.37,464.24,1332.46,464.18Z" transform="translate(-1230.28 -409.35)"/><path class="cls-2" d="M1338.74,427.51l-4-5c-5-6.31-20.16-5.52-26.77-3.72s-8.69,4.22-8.71,4.24l-1.77,1.83a7.26,7.26,0,0,1-.52.66l-.09.07-.66.44a8.37,8.37,0,0,1-.28,2.28,25.49,25.49,0,0,1-3.16,6.51l-.19.33a9.24,9.24,0,0,0-1.14,2.34,8.17,8.17,0,0,0-.06,3,34.4,34.4,0,0,0,13.07,22.92,4.44,4.44,0,0,0,2.45,1.12,4,4,0,0,0,1.59-.48,29.61,29.61,0,0,0,3.76-2.22c.41-.27.83-.55,1.25-.81l1-.66c1.4-.88,2.84-1.79,4.22-2.74a46.91,46.91,0,0,0,4.36-3.3,24.4,24.4,0,0,0,7.72-22.92l1-.19c0,.1,0,.2.05.3h0c.49,2.67,1.42,3.34,2.25,3.94a3.83,3.83,0,0,1,1.14,1.1c.38.59.58.6,1,.58a2.08,2.08,0,0,1,1.13.24c.2.12.65,0,1.12-.11a4.66,4.66,0,0,1,3,0,.76.76,0,0,0,.66,0,3.73,3.73,0,0,0,1.31-1.93l-.35-.49-3.23-5.86-.46-.57-.81-.89Z" transform="translate(-1230.28 -409.35)"/><polygon class="cls-2" points="13.46 111.85 13.29 112.15 24.56 112.15 24.55 112.02 13.46 111.85"/><path class="cls-2" d="M1430,430.45h-88.1l2.12,3.85.61.85-.07.23c-.06.22-.65,2.15-1.9,2.76a1.73,1.73,0,0,1-.83.18c1,2.7,5.53,17.3-8.78,26.7-.33.22-8.09,5.57-3.71,14.16l2,3.68c3.59.59,7,4.63,8.92,8a30.39,30.39,0,0,1,2.54,6.2H1430Zm-71.33,10.44,5.21,1.94v2.42h-5.21Zm0,10.08,5.21,1.95v2.42h-5.21Zm0,10.27,5.21,1.95v2.42h-5.21Zm5.72,14.65h-5.21v-4.37l5.21,2Zm43.32-.39h-32.83v-3.38h32.83Zm0-10.27h-32.83v-3.38h32.83Zm0-10.27h-32.83v-3.39h32.83Zm0-9.71h-32.83v-3.38h32.83Z" transform="translate(-1230.28 -409.35)"/><path class="cls-2" d="M1291.94,434.33a24.69,24.69,0,0,0,3-6.26c.69-2.54-.12-4.84-1.09-6.95a18.94,18.94,0,0,0-4.64-6.69,12,12,0,0,0-7.7-2.72,12.63,12.63,0,0,0-3.28.43,14.32,14.32,0,0,0-9.4,8.91,10.41,10.41,0,0,0-.39,5.84c.85,3.54,3.72,6.06,6,7.56a31,31,0,0,0,8.14,3.7,12.14,12.14,0,0,0,3.88.69,5.54,5.54,0,0,0,2-.42,3.67,3.67,0,0,0,.73-.46,3.8,3.8,0,0,1,1.17-.65l0,.14a1.05,1.05,0,0,1,0-.19,9.72,9.72,0,0,1,1.24-2.61Z" transform="translate(-1230.28 -409.35)"/><polygon class="cls-2" points="120.91 122.67 121.26 124.98 122.21 124.98 121.87 122.67 120.91 122.67"/><path class="cls-3" d="M1340.64,438.16l-.06-.11a3.31,3.31,0,0,0-.89,0,2.17,2.17,0,0,0,.76.09Z" transform="translate(-1230.28 -409.35)"/><path class="cls-4" d="M1318.87,486.66a22.32,22.32,0,0,0,5.29.11c-.37,0-.73-.06-1.13-.11-8.43-1.07-11-2.71-11.58-3.24,1-1.78,5.49-10.31,5.58-13.87.06-2.58-2-4-3.8-4.63a33.24,33.24,0,0,0,3.76-2.23l1.24-.81,1-.66c1.4-.88,2.85-1.8,4.25-2.75a48.84,48.84,0,0,0,4.45-3.38,25,25,0,0,0,8.4-16.93h-.09a1.84,1.84,0,0,1-1.83-1,3.09,3.09,0,0,0-.89-.82,6.44,6.44,0,0,1-1.29-1.17,25.15,25.15,0,0,1-8.47,20,47.48,47.48,0,0,1-4.45,3.38c-1.39.95-2.84,1.87-4.24,2.75l-1,.66-1.24.81a34.29,34.29,0,0,1-3.77,2.23c1.82.64,3.86,2.05,3.8,4.63-.09,3.56-4.61,12.09-5.58,13.87C1307.91,484,1310.43,485.59,1318.87,486.66Z" transform="translate(-1230.28 -409.35)"/><path class="cls-4" d="M1358.69,644.21a29.94,29.94,0,0,1-1.86-4.51,9.72,9.72,0,0,1-.33-1.29c-.36-.07-4-1.42-4.36-1.53.08.66,1,4.08,1.17,4.65s.71,1.73,1,2.34c.56,1.39.53.68,1.58,2.12h0a4.65,4.65,0,0,0,2.7.63,20,20,0,0,0,2.58-.16A3,3,0,0,1,1360,646,5,5,0,0,1,1358.69,644.21Z" transform="translate(-1230.28 -409.35)"/><path class="cls-3" d="M1352.31,636.56a3.5,3.5,0,0,0-.08.65,6.5,6.5,0,0,1,.61-.28C1352.66,636.81,1352.48,636.69,1352.31,636.56Z" transform="translate(-1230.28 -409.35)"/><path class="cls-4" d="M1365.28,638.48a22.4,22.4,0,0,0,5.36-1.65c.73-.32,1.5-.68,2.49-1.16l.48-.22a3.79,3.79,0,0,0,1.78-1.21,17.35,17.35,0,0,1,4.34-2.42,5.77,5.77,0,0,0-3.54-.19,15.6,15.6,0,0,0-5,2.61,3.81,3.81,0,0,1-1.77,1.21c-.17.08-.33.14-.48.22-1,.48-1.76.84-2.5,1.16a22.4,22.4,0,0,1-5.36,1.65h0A13,13,0,0,0,1365.28,638.48Z" transform="translate(-1230.28 -409.35)"/><path class="cls-4" d="M1340.42,650.19a7,7,0,0,1-1.31-4.57h.25c1.87-.16,7.51-.65,9.37-6a21,21,0,0,1,2.53-1.9,4.79,4.79,0,0,1,.07-1.36l-1.3.14c-2.14.22-5,2.68-5.46,3.12-1.86,5.3-7.51,5.79-9.37,6H1335a7,7,0,0,0,1.3,4.57,6.14,6.14,0,0,0,2.55,1.66,8.54,8.54,0,0,0,2.83.63,6.18,6.18,0,0,0,2.2-.34,7.91,7.91,0,0,1-.86-.29A6.14,6.14,0,0,1,1340.42,650.19Z" transform="translate(-1230.28 -409.35)"/><path class="cls-4" d="M1284.24,594.33l-.44-.1c-4.11-.94-8.36-1.92-11.65-4.45a9.26,9.26,0,0,1-3.41-4.88,22.71,22.71,0,0,1-.48-5.09c0-.72,0-1.43-.06-2.14-.16-2.84-.26-5.64-.28-8.32a97.18,97.18,0,0,1,1.27-18.71c.87-4.84,2-9.82,6-13a15.71,15.71,0,0,1,2.21-1.47,20.86,20.86,0,0,1,8.78-2.24c-4.65-.21-9.17.2-12.94,2.24a15.25,15.25,0,0,0-2.22,1.47c-4,3.19-5.14,8.17-6,13a98.82,98.82,0,0,0-1.27,18.71c0,2.68.12,5.48.28,8.32,0,.71,0,1.42.07,2.14a22.14,22.14,0,0,0,.48,5.09,9.15,9.15,0,0,0,3.41,4.88c3.29,2.53,7.54,3.51,11.65,4.45l.44.1a117.27,117.27,0,0,0,18.58,2.43c4.16.24,7,.23,7.06.23h.44l1.63,0c-1.24,0-3-.08-5-.2A117.24,117.24,0,0,1,1284.24,594.33Z" transform="translate(-1230.28 -409.35)"/><path class="cls-5" d="M1380.51,630.81a6.69,6.69,0,0,0-4.63-.41,15.52,15.52,0,0,0-5.07,2.59,17.63,17.63,0,0,1-2-5.6,45.56,45.56,0,0,1-.15-10.77c0-.77.1-1.54.14-2.3.25-4.41.64-8.88,1.18-13.26.36-2.94.8-5.92,1.22-8.81l.32-2.16a44.14,44.14,0,0,0,.64-7.64,22.2,22.2,0,0,0-2.17-8.31l.16-.29a12.14,12.14,0,0,0,1.7-7.28,10.41,10.41,0,0,0-2.52-5.33,20.65,20.65,0,0,0-4.44-3.76,46.34,46.34,0,0,0-5.4-3.07c-.78-.37-1.58-.72-2.38-1.06-1.93-4.21-5.61-14.55-5.91-16.76s-1-3.91-1.33-5.91c-.1-.64-.25-1.28-.35-1.9-.79-4.67-1.7-9.52-2.71-14.42-.88-4.31-1.67-7.87-2.49-11.21L1344,502c-.22-.9-.44-1.81-.68-2.73h-.7l-.4-2.53h.4a31,31,0,0,0-2.54-6.2c-1.89-3.34-5.33-7.38-8.93-8l-2-3.68c-4.38-8.6,3.39-13.95,3.72-14.17,14.3-9.4,9.77-24,8.78-26.7a1.75,1.75,0,0,0,.83-.17c1.24-.61,1.84-2.55,1.9-2.77l.07-.23-.61-.85-4-6.79-.75-.93-.14-.14-3.58-4.53c-5.37-6.75-20.77-6-27.82-4.06-5,1.36-7.55,3.09-8.59,4a17.11,17.11,0,0,0,1.09-4.74c.52-5.7-1.7-7.07-1.8-7.12l-.51.86s1.77,1.19,1.32,6.17a16,16,0,0,1-1.69,5.94,9.52,9.52,0,0,1-1.25,1.89l-.14.09a14.65,14.65,0,0,0-1.35-4.2,19.71,19.71,0,0,0-4.9-7,13.28,13.28,0,0,0-11.89-2.49,15.16,15.16,0,0,0-10.08,9.54,11.38,11.38,0,0,0-.41,6.4c.92,3.86,4,6.57,6.38,8.17a32.29,32.29,0,0,0,8.4,3.82,13.38,13.38,0,0,0,4.2.74,6.34,6.34,0,0,0,2.42-.51,5.06,5.06,0,0,0,.92-.57q.24-.18.48-.33a12.24,12.24,0,0,0,.09,2.19A35.43,35.43,0,0,0,1303.8,464a5.13,5.13,0,0,0,3,1.32h.05l.41,0s4.58.66,4.5,4-4.66,11.93-5.5,13.48c-2.68.16-22.76,2-25.45,22.76,0,0-2.35,24-2.28,25.79l.06,1.74s-.83.11-1.91.36a35.51,35.51,0,0,0-4,1.63,15.7,15.7,0,0,0-2.37,1.57c-4.23,3.4-5.46,8.58-6.37,13.61a99.1,99.1,0,0,0-1.28,18.89c0,2.7.12,5.51.28,8.37,0,.69,0,1.4.06,2.1a23.93,23.93,0,0,0,.51,5.32,10.23,10.23,0,0,0,3.77,5.43c3.46,2.66,7.8,3.66,12,4.62l-28.14,68.49.92.38,28.21-68.65a119,119,0,0,0,17.85,2.32l13.42,74.27,1-.17-13.38-74c3.6.19,6.11.2,6.45.2h.49c3,0,6.07-.18,9.82-.48,3.48-.27,6.86-.65,10.14-1.12.41,4.27,3.33,34.26,4.12,39.22l.11.69c.7,4.42,1.32,8.31,3.58,9.15v.11a8,8,0,0,0,1.55,5.28,7.29,7.29,0,0,0,2.94,1.94,9.93,9.93,0,0,0,3.15.7h.26a8.49,8.49,0,0,0,3.64-.91,19.57,19.57,0,0,0,5.19-3.85l3.15-3.71a5.27,5.27,0,0,0,1.47,1.81,5.56,5.56,0,0,0,3.26.81h.06a32.14,32.14,0,0,0,6.62-.85,46.15,46.15,0,0,0,8.52-2.56,21.59,21.59,0,0,0,7.4-5,6.17,6.17,0,0,0,2-4.2A4.61,4.61,0,0,0,1380.51,630.81Zm-9.36-48.33a43.5,43.5,0,0,1-.63,7.47l-.32,2.16c-.42,2.89-.86,5.88-1.22,8.83-.54,4.4-.94,8.89-1.18,13.33,0,.75-.09,1.52-.14,2.28a46.13,46.13,0,0,0,.15,11,18.58,18.58,0,0,0,2.25,6.12,4.61,4.61,0,0,1-1.08.58c-.18.08-.36.15-.53.24-.81.39-1.62.78-2.45,1.14a21.33,21.33,0,0,1-5.12,1.58,10.16,10.16,0,0,1-8.45-2.09c0-.33,0-.94-.07-2-.1-3.3-3.56-38.09-4-42.31,1.63-.61,3.2-1.26,4.69-1.95,5.19-2.41,12.07-6.68,16.29-13.61A20.35,20.35,0,0,1,1371.15,582.48Zm-19.71,52.61c-.27,0-.75.11-1.59.19-2,.21-4.43,2-5.53,2.94-2.12-8.16,0-42.42.23-46.13,1-.3,1.93-.63,2.86-1,.5,5,3.85,38.82,3.95,42C1351.39,634,1351.41,634.65,1351.44,635.09Zm-61-197.91,0-.13a3.43,3.43,0,0,0-1.17.65,3.9,3.9,0,0,1-.73.45,5.38,5.38,0,0,1-2,.43,12.83,12.83,0,0,1-3.89-.69,31,31,0,0,1-8.13-3.71c-2.26-1.49-5.13-4-6-7.56a10.33,10.33,0,0,1,.39-5.84,14.3,14.3,0,0,1,9.4-8.9,12.56,12.56,0,0,1,3.27-.44,12,12,0,0,1,7.71,2.72,19.1,19.1,0,0,1,4.64,6.7c1,2.1,1.78,4.4,1.09,6.94a25.38,25.38,0,0,1-3.05,6.26l-.19.32a10,10,0,0,0-1.25,2.61C1290.42,437.06,1290.4,437.12,1290.39,437.18ZM1307,464.29a4.24,4.24,0,0,1-2.81-1.23,35.94,35.94,0,0,1-12.45-19.85,12.37,12.37,0,0,1-.15-6.33c.8-2.67,3-4.74,3.82-7.42a21.47,21.47,0,0,1,1-3.76,7.47,7.47,0,0,1,1.87-2.17,27,27,0,0,1,13-5.8,42.32,42.32,0,0,1,14.33.28c3.57.62,7.35,1.74,9.57,4.6.72.93,1.29,1.86,2,2.92a4.82,4.82,0,0,0,1.17,1.22l1.48,1.95a19.77,19.77,0,0,1,1.27,2.3l1.71,3c.3.53.71,1.06.37,1.65a2.72,2.72,0,0,1-1.51,1.1,7.51,7.51,0,0,1-10-5.78l-.88.16a25.37,25.37,0,0,1-4.25,19.09c-2.8,3.77-6.73,6.51-10.68,9-2.3,1.48-4.62,2.9-7,4.28A4.36,4.36,0,0,1,1307,464.29Zm5.75,5c.06-2.57-2-4-3.8-4.63a31.82,31.82,0,0,0,3.76-2.23l1.24-.8,1-.66c1.4-.89,2.85-1.8,4.25-2.75a48.84,48.84,0,0,0,4.45-3.38,25.2,25.2,0,0,0,8.47-20,5.88,5.88,0,0,0,1.29,1.17,3.4,3.4,0,0,1,.89.83,1.85,1.85,0,0,0,1.83,1.05,1.09,1.09,0,0,1,.62.11,1.39,1.39,0,0,0,.72.17,4.69,4.69,0,0,0,1.13-.19,4.75,4.75,0,0,1,1.82-.2l.14.27c.07.16,6.77,16-8.25,25.87-.09.06-8.85,6.06-4.05,15.46l2,3.72c-.35.81-2.43,4.44-11.53,3.29-8.43-1.06-11-2.7-11.58-3.24C1308.17,481.37,1312.7,472.85,1312.79,469.28Zm-31,36.35c2.64-20.36,22.11-21.79,24.54-21.89.67.69,3.21,2.5,12.3,3.64a26.3,26.3,0,0,0,3.47.24c6.57,0,8.53-2.87,9-4,3.19.62,6.31,4.34,8.06,7.45,1.94,3.43,2.89,7.38,3.82,11.2l.27,1.12c.82,3.33,1.61,6.88,2.49,11.17,1,4.63,1.69,9.4,2.48,14.09a101.77,101.77,0,0,0,2.59,12.12,96.49,96.49,0,0,0,4.85,12c-2.82-1.16-5.7-2.19-8.52-3.18l-2.49-.88c-2.72-1-5.49-1.94-8.27-2.92-2.48-2.22-7.35-18.21-9-24.19l-1,.27c.22.81,5,18,8.32,23.39q-4.49-1.53-9-3c-7.51-2.43-13.68-4.29-19.4-5.86l-.19,0a101.41,101.41,0,0,0-14.41-3.19,48.44,48.44,0,0,0-12.36-.26S1279,527.21,1281.83,505.63Zm34,90.63c-3.72.29-6.82.44-9.75.47h-.44s-2.9,0-7.06-.23a117.24,117.24,0,0,1-18.59-2.43l-.44-.1c-4.11-1-8.36-1.92-11.65-4.45a9.29,9.29,0,0,1-3.41-4.89,23.28,23.28,0,0,1-.48-5.08c0-.72,0-1.44-.06-2.15-.16-2.84-.26-5.64-.28-8.32a97.31,97.31,0,0,1,1.27-18.71c.87-4.83,2-9.82,6-13a14.88,14.88,0,0,1,2.21-1.47c5.28-2.86,12-2.53,18.49-1.75a100.7,100.7,0,0,1,14.27,3.17l.18,0c5.71,1.56,11.86,3.42,19.36,5.84,6.43,2.08,12.79,4.25,18.93,6.44l2.48.88a121.67,121.67,0,0,1,12.16,4.78,44.5,44.5,0,0,1,5.29,3,19.22,19.22,0,0,1,4.23,3.57,9.31,9.31,0,0,1,2.29,4.81,11.19,11.19,0,0,1-1.59,6.68c-4,7.49-11.23,12-16.61,14.54a84.71,84.71,0,0,1-19.12,5.93A153.63,153.63,0,0,1,1315.84,596.26Zm15.44,39.63-.11-.7c-.79-5-3.73-35.12-4.12-39.21,2.28-.34,4.52-.72,6.68-1.15,3.53-.71,6.78-1.51,9.8-2.42-.36,5.58-2.4,39.54,0,46.67-1.47,4.19-5.55,5-8.5,5.27h-.19C1332.73,644.36,1332.1,641.11,1331.28,635.89Zm18.59,11.89a18.27,18.27,0,0,1-4.89,3.62,7.28,7.28,0,0,1-3.43.82,9,9,0,0,1-2.82-.63,6.35,6.35,0,0,1-2.55-1.66,7,7,0,0,1-1.31-4.58h.25c1.87-.16,7.51-.65,9.37-5.94.49-.44,3.33-2.91,5.47-3.12.53-.06,1-.1,1.29-.15a7.27,7.27,0,0,0,.39,3.61,31.75,31.75,0,0,0,1.63,4Zm30.48-9.53a20.9,20.9,0,0,1-7.07,4.8,44.61,44.61,0,0,1-8.33,2.49,30.79,30.79,0,0,1-6.47.83,4.72,4.72,0,0,1-2.68-.62,5,5,0,0,1-1.35-1.81,29.52,29.52,0,0,1-1.86-4.51,6.11,6.11,0,0,1-.36-3.14,11.44,11.44,0,0,0,8.81,1.93,22.47,22.47,0,0,0,5.36-1.66c.73-.31,1.5-.67,2.49-1.16l.48-.21a3.74,3.74,0,0,0,1.78-1.22,15.38,15.38,0,0,1,5-2.6,5.71,5.71,0,0,1,3.93.33,3.63,3.63,0,0,1,2,3A5.2,5.2,0,0,1,1380.35,638.25Z" transform="translate(-1230.28 -409.35)"/><polygon class="cls-6" points="108.27 17.94 109.08 18.83 110.65 20.53 110.65 20.88 111.49 20.88 199.6 20.88 199.6 87.46 112.36 87.46 111.95 87.46 112.36 90 113.06 90 202.83 90 202.83 17.94 109.65 17.94 108.38 17.94 108.27 17.94"/><polygon class="cls-6" points="48.27 121.68 48.27 121.68 48.47 118.86 31.61 118.86 31.49 119.33 17.15 119.33 17.05 118.86 0 118.86 0 123.49 48.35 123.68 48.27 121.68"/><path class="cls-6" d="M1402.92,528.37h-16.14c-1.6-3.91-4-10-4.68-11.84,4.71-.14,37.64,0,50.69.05h.5V496.42h-1V499l-88.81-.06,3.73,16.19.29,1.52,18.38,0c-1.45,5.41-3.29,11.08-4,11.56l-.4.23h-12.18l.84,4.31H1400v14.47h-.63v1h.63v18.41h-.63v1h.63v18.22h-.63v1h.63v0h1v0h76.33l.49.07.27-1.07H1401V567.56h76.61l-.39-1H1401V548.15h76.34v-.5l-.16-.5H1401V532.68h2v-3.31h74.38v77.86h1V529.37h1v-1Zm-51.08,3.14,1.34-1-2.41-1.16.35,2.31Z" transform="translate(-1230.28 -409.35)"/><rect class="cls-6" x="169.74" y="177.45" width="1" height="20.43"/><line class="cls-7" x1="246.64" y1="140.95" x2="246.64" y2="140.95"/><line class="cls-7" x1="170.43" y1="140.95" x2="170.43" y2="140.95"/><line class="cls-8" x1="246.64" y1="180.1" x2="172.05" y2="180.1"/><line class="cls-8" x1="172.05" y1="180.1" x2="171.05" y2="180.1"/><line class="cls-8" x1="170.43" y1="180.1" x2="171.05" y2="180.1"/><polygon class="cls-6" points="201.08 125.3 201.08 126.24 201.53 126.24 201.53 127.59 211.49 127.59 211.49 126.24 211.99 126.24 211.99 125.3 201.08 125.3"/><polygon class="cls-9" points="31.14 118.86 33.27 110.34 16.52 110.34 18.39 118.86 31.14 118.86"/><path class="cls-6" d="M1263.54,520.19l-2.13,8.52h-12.75l-1.87-8.52Z" transform="translate(-1230.28 -409.35)"/><rect class="cls-10" x="144.56" y="32.52" width="32.83" height="3.38"/><rect class="cls-10" x="144.56" y="42.22" width="32.83" height="3.38"/><rect class="cls-10" x="144.56" y="52.5" width="32.83" height="3.38"/><rect class="cls-10" x="144.56" y="62.77" width="32.83" height="3.38"/><polygon class="cls-10" points="133.57 33.48 128.35 31.54 128.35 35.91 133.57 35.91 133.57 33.48"/><polygon class="cls-10" points="133.57 43.57 128.35 41.62 128.35 45.99 133.57 45.99 133.57 43.57"/><polygon class="cls-10" points="133.57 53.84 128.35 51.89 128.35 56.26 133.57 56.26 133.57 53.84"/><polygon class="cls-10" points="128.87 66.54 134.08 66.54 134.08 64.12 128.87 62.17 128.87 66.54"/><polygon class="cls-6" points="200.53 127.24 177.82 127.24 177.82 136.12 241.93 136.12 241.93 127.24 212.49 127.24 212.49 128.59 200.53 128.59 200.53 127.24"/><path class="cls-11" d="M1441.77,536.94h-10v-1.35h-24.7v10.88h66.11V535.59h-31.44Zm1-.35h29.44v8.88H1408.1v-8.88h22.7v1.35h12Z" transform="translate(-1230.28 -409.35)"/><polygon class="cls-6" points="201.08 143.94 201.08 144.88 201.53 144.88 201.53 146.22 211.49 146.22 211.49 144.88 211.99 144.88 211.99 143.94 201.08 143.94"/><polygon class="cls-6" points="200.53 145.88 177.82 145.88 177.82 154.75 241.93 154.75 241.93 145.88 212.49 145.88 212.49 147.22 200.53 147.22 200.53 145.88"/><path class="cls-11" d="M1441.77,555.57h-10v-1.35h-24.7V565.1h66.11V554.22h-31.44Zm1-.35h29.44v8.88H1408.1v-8.88h22.7v1.35h12Z" transform="translate(-1230.28 -409.35)"/><polygon class="cls-6" points="201.08 162.98 201.08 163.92 201.53 163.92 201.53 165.27 211.49 165.27 211.49 163.92 211.99 163.92 211.99 162.98 201.08 162.98"/><polygon class="cls-6" points="200.53 164.92 177.82 164.92 177.82 173.8 241.93 173.8 241.93 164.92 212.49 164.92 212.49 166.27 200.53 166.27 200.53 164.92"/><path class="cls-11" d="M1441.77,574.62h-10v-1.35h-24.7v10.88h66.11V573.27h-31.44Zm1-.35h29.44v8.88H1408.1v-8.88h22.7v1.35h12Z" transform="translate(-1230.28 -409.35)"/><line class="cls-7" x1="170.43" y1="179.58" x2="170.43" y2="179.58"/><line class="cls-7" x1="247.77" y1="179.58" x2="247.77" y2="179.58"/><path class="cls-12" d="M1306.37,483.74a20.54,20.54,0,0,0,9.18,3.19,38.9,38.9,0,0,0,8.66.28c-1.19.83-2.57,2.31-4.08,2.23a59.82,59.82,0,0,1-8-.79,22.2,22.2,0,0,1-9.72-4.41l3.89-.93" transform="translate(-1230.28 -409.35)"/><polyline class="cls-12" points="96.81 114.6 104.53 135.91 103.25 135.91 96.1 118.13"/><path class="cls-12" d="M1352.43,635.14s4.59,3.73,9.12,2.25l4.53-1.48,1-.77s-10.12,1.79-12.4,0l-2.29-1.79Z" transform="translate(-1230.28 -409.35)"/><line class="cls-13" x1="113.25" y1="183.06" x2="112.23" y2="215.84"/><line class="cls-12" x1="24.91" y1="253.79" x2="21.81" y2="254.45"/><line class="cls-12" x1="39.41" y1="211.63" x2="35.38" y2="224.77"/><path class="cls-12" d="M1342.5,634.12l1.12,5.23s-2,3.18-4.22,4c-.54.21-1.34.52-1.92.69a6.12,6.12,0,0,1-2.44.27c-.84-.12,6.36-1.78,6.78-5.11S1342.5,634.12,1342.5,634.12Z" transform="translate(-1230.28 -409.35)"/></svg>