<svg width="67" height="48" viewBox="0 0 67 48" fill="none" xmlns="http://www.w3.org/2000/svg">
<g clip-path="url(#clip0)">
<path d="M66.3778 14.9803C66.1692 14.7259 65.9087 14.5253 65.616 14.3938C65.3233 14.2623 65.0062 14.2033 64.6888 14.2214C64.2517 14.2223 63.8173 14.2939 63.4006 14.4339V4.18881C63.456 3.09215 63.1301 2.01204 62.4846 1.15323C62.1869 0.784752 61.815 0.491853 61.3964 0.296144C60.9777 0.100434 60.5229 0.00691758 60.0656 0.0224899C59.2004 0.0200506 58.3452 0.219543 57.5608 0.606829C56.739 1.03038 56.0505 1.69724 55.5784 2.52683L36.363 33.1558V4.15087C36.4198 3.05277 36.0909 1.9713 35.4398 1.1153C35.1439 0.746556 34.7734 0.453365 34.3558 0.257583C33.9382 0.0618003 33.4844 -0.0315426 33.028 -0.0154686C32.1727 -0.0113213 31.3282 0.187988 30.5519 0.568894C29.7176 0.984586 29.018 1.65259 28.5408 2.48889L0.0361633 47.9542H9.33973L28.5552 15.7999V42.5281C28.5406 43.2521 28.6658 43.9715 28.923 44.6423C29.1802 45.3131 29.564 45.9211 30.0509 46.4288C30.5104 46.9168 31.0581 47.3014 31.6611 47.5596C32.2817 47.8257 32.9455 47.9598 33.6149 47.9542C34.4359 47.949 35.2444 47.7411 35.9766 47.3471C36.875 46.8106 37.6176 46.0232 38.1235 45.0704L55.6142 15.7847V25.4227L41.4012 47.9997H47.9853L55.5928 35.2807V47.9542H61.5399V47.9997H67.0218V17.1128C67.0536 16.3433 66.8252 15.587 66.3778 14.9803Z" fill="black"/>
</g>
<defs>
<clipPath id="clip0">
<rect width="67" height="48" fill="white"/>
</clipPath>
</defs>
</svg>
