<svg id="Layer_1" data-name="Layer 1" xmlns="http://www.w3.org/2000/svg" viewBox="0 0 338.97 224.78"><defs><style>.cls-1{fill:#ff7bac;}.cls-2{fill:#f7dce7;}.cls-3{fill:#fff;}.cls-10,.cls-4{fill:#3f3d56;}.cls-4,.cls-5{stroke:#3f3d56;}.cls-4,.cls-5,.cls-6,.cls-7,.cls-8{stroke-miterlimit:10;}.cls-4{stroke-width:0.25px;}.cls-5,.cls-7{fill:none;}.cls-6,.cls-9{fill:#f2f2fb;}.cls-6{stroke:#f2f2fb;}.cls-7,.cls-8{stroke:#510f38;}.cls-8{fill:#510f38;}</style></defs><title>m5</title><path class="cls-1" d="M738.18,508.3s1,14.2,10.2,16.17l6.48-2.45-3.94-3a4.88,4.88,0,0,1-4-.92c-1.74-1.47-4.05-6.89-4.7-11.3Z" transform="translate(-626.38 -429.14)"/><path class="cls-2" d="M740.62,517.48c1.69,3.86,6.71,4.45,6.71,4.45l1,2-3.06,1.86L739.94,524Z" transform="translate(-626.38 -429.14)"/><path class="cls-3" d="M770,528.35h0c8.91-.68,15.44-3.59,19.39-8.67a18.41,18.41,0,0,0,2.83-5.16c-11.71-4.36-15.69-11.34-13.3-23.32a41.92,41.92,0,0,1,2.47-8.05,28.27,28.27,0,0,1-6.92,6,22.91,22.91,0,0,1-5.31,2.28l-.67,3.62a26.53,26.53,0,0,1,4.17,1.59c.45.24.58.82,0,5.69l-.06.48a34.79,34.79,0,0,1-1.28,6.5,25.46,25.46,0,0,1-4.93,9.09,13,13,0,0,1-5.65,3.91,16.8,16.8,0,0,1,7.32,4A20.21,20.21,0,0,1,770,528.35Z" transform="translate(-626.38 -429.14)"/><path class="cls-3" d="M754.17,512.19a25.57,25.57,0,0,0-1-6.5,9.5,9.5,0,0,0-3.41-5.07,5.34,5.34,0,0,0-5.27-.58,2.55,2.55,0,0,0-.39.24c-1.14.84-1.67,2.49-1.59,4.9a21.3,21.3,0,0,0,1.7,7.62c1.07,2.49,2.44,4.15,4.07,5s4.21.55,5.28-1.33A7.89,7.89,0,0,0,754.17,512.19Z" transform="translate(-626.38 -429.14)"/><path class="cls-3" d="M789.37,457.21c-.68-4.82-2.66-7.88-5.9-9.08a13.89,13.89,0,0,0-4.85-.84,17.91,17.91,0,0,0-9.2,2.66c-3.57,2.19-8.18,6.63-9.92,15.36-3.13,15.8,5.25,25,6,25.32,1,.34,3.46.48,8.51-2.34,4.47-2.5,8.72-8.33,9.36-9.24a27.93,27.93,0,0,1,3.88-5.44.44.44,0,0,1,.45-.11,4.57,4.57,0,0,0,3-1.33,6.18,6.18,0,0,0,2.43-4.86,2.91,2.91,0,0,0-.88-2.39,2.63,2.63,0,0,0-2.23-.09.43.43,0,0,1-.46-.07.51.51,0,0,1-.16-.47A28.58,28.58,0,0,0,789.37,457.21Z" transform="translate(-626.38 -429.14)"/><path class="cls-3" d="M798.76,627a70.11,70.11,0,0,1-1.5-7.06c-.46-3.26.26-6.06,1-9,.25-.94.49-1.91.7-2.89l-6.92-1.55c-.2,1-.34,2.07-.47,3.11a25.3,25.3,0,0,1-1.31,6.18,21.21,21.21,0,0,1-2.74,4.5,26.66,26.66,0,0,0-2.21,3.39c-3,5.72-4.69,16-2.36,22.58a12.13,12.13,0,0,0,1.24,2.54,10.33,10.33,0,0,0,4.6,3.8c1.85.68,4.18.05,6.23-1.7a14.86,14.86,0,0,0,3.93-5.54s0,0,0-.08a.51.51,0,0,1,.22-.42,20.13,20.13,0,0,0,1.22-5.14C800.84,635.28,799.83,631.23,798.76,627Z" transform="translate(-626.38 -429.14)"/><path class="cls-3" d="M781.72,631.59a.45.45,0,0,1-.21-.2c-1.28-2.4-3.88-4.56-6.56-3.64a7.87,7.87,0,0,0-3.49,3c-.26.35-.5.7-.74,1a18.74,18.74,0,0,1-2.42,3,10.45,10.45,0,0,1-8.15,2.47,19.06,19.06,0,0,1-6-1.79c-.46-.22-.94-.5-1.44-.8-1.17-.7-2.38-1.41-3.5-1.29-2.22.23-3.74,3.38-4.74,5.47l-.15.3a.43.43,0,0,1-.57.23s-2.06-.87-3.43-.15a2.25,2.25,0,0,0-1.09,1.52,3.53,3.53,0,0,0,.21,2.66c.65,1.26,2.24,2.28,4.6,3l1.28.42c5.08,1.71,20.27,6.81,37.51,1.35a14.51,14.51,0,0,1-.68-1.6C780.52,642,780.74,636.44,781.72,631.59Z" transform="translate(-626.38 -429.14)"/><path class="cls-2" d="M744.25,512.8c1.07,2.49,2.44,4.15,4.07,5a4.6,4.6,0,0,0,2,.44,12.42,12.42,0,0,1-2.08-3.39,21.55,21.55,0,0,1-1.69-7.62c-.09-2.41.45-4.06,1.59-4.9.12-.09.25-.17.38-.25a4.39,4.39,0,0,1,2.41-.44,7.21,7.21,0,0,0-1.12-1,5.34,5.34,0,0,0-5.27-.58,2.55,2.55,0,0,0-.39.24c-1.14.84-1.67,2.49-1.59,4.9A21.3,21.3,0,0,0,744.25,512.8Z" transform="translate(-626.38 -429.14)"/><path class="cls-2" d="M765.55,490.63a4.94,4.94,0,0,0,2.24.1c-2.55-3.48-6.64-11.61-4.3-23.42,1.73-8.74,6.35-13.17,9.91-15.36a17.87,17.87,0,0,1,9.21-2.66,14.36,14.36,0,0,1,3.42.41,7.56,7.56,0,0,0-2.56-1.57,13.89,13.89,0,0,0-4.85-.84,17.91,17.91,0,0,0-9.2,2.66c-3.57,2.19-8.18,6.63-9.92,15.36C756.37,481.11,764.75,490.34,765.55,490.63Z" transform="translate(-626.38 -429.14)"/><path class="cls-2" d="M788.2,650.73a12,12,0,0,1-1.23-2.54c-2.33-6.6-.59-16.86,2.36-22.58a26,26,0,0,1,2.21-3.39,21,21,0,0,0,2.73-4.5,25.29,25.29,0,0,0,1.32-6.19c.13-1,.27-2.09.46-3.1l2.7.6c.08-.35.17-.7.24-1l-6.92-1.55c-.2,1-.34,2.07-.47,3.11a25.3,25.3,0,0,1-1.31,6.18,21.21,21.21,0,0,1-2.74,4.5,26.66,26.66,0,0,0-2.21,3.39c-3,5.72-4.69,16-2.36,22.58a12.13,12.13,0,0,0,1.24,2.54,10.33,10.33,0,0,0,4.6,3.8,4.34,4.34,0,0,0,1.2.25A11.81,11.81,0,0,1,788.2,650.73Z" transform="translate(-626.38 -429.14)"/><path class="cls-2" d="M743.39,645.42a3.59,3.59,0,0,1-.2-2.66,2.23,2.23,0,0,1,1.09-1.52c1.36-.72,3.4.14,3.42.15a.45.45,0,0,0,.58-.23l.15-.31c1-2.08,2.52-5.23,4.74-5.47a3,3,0,0,1,.93.08c-.46-.22-.93-.49-1.42-.78-1.17-.7-2.38-1.41-3.5-1.29-2.22.23-3.74,3.38-4.74,5.47l-.15.3a.43.43,0,0,1-.57.23s-2.06-.87-3.43-.15a2.25,2.25,0,0,0-1.09,1.52,3.53,3.53,0,0,0,.21,2.66c.65,1.26,2.24,2.28,4.6,3l.19.06A4,4,0,0,1,743.39,645.42Z" transform="translate(-626.38 -429.14)"/><path class="cls-2" d="M758.11,637.47a18.77,18.77,0,0,0,6,1.8,10.42,10.42,0,0,0,8.14-2.47,17.7,17.7,0,0,0,2.42-3c.25-.35.49-.71.74-1a8,8,0,0,1,3.49-3,2.24,2.24,0,0,1,1.42,0c-1.4-1.59-3.38-2.66-5.4-2a7.87,7.87,0,0,0-3.49,3c-.26.35-.5.7-.74,1a18.74,18.74,0,0,1-2.42,3,10.45,10.45,0,0,1-8.15,2.47,17.06,17.06,0,0,1-4.31-1.07c.28.15.55.31.82.48C757.17,637,757.64,637.26,758.11,637.47Z" transform="translate(-626.38 -429.14)"/><path class="cls-3" d="M775.18,518.64a1.5,1.5,0,0,0,0-3,1.5,1.5,0,0,0,0,3Z" transform="translate(-626.38 -429.14)"/><path class="cls-1" d="M745.74,550.2s-5.45,14.1-2.73,39.66,18.75,42.6,24.19,45.8l4.37-6.57S756.32,617,749.39,592.93,745.74,550.2,745.74,550.2Z" transform="translate(-626.38 -429.14)"/><polygon class="cls-1" points="170.86 115.86 160.4 150.84 162.67 158.49 171.52 117.5 170.86 115.86"/><path class="cls-1" d="M787.67,512.07s.14,10.83-13.87,16.28c0,0,10.9-.83,16.31-8s2.43-6.75,2.43-6.75Z" transform="translate(-626.38 -429.14)"/><path class="cls-4" d="M886,586a20.31,20.31,0,0,0-3.51-9.94c-3-4.09-8.1-6.35-15.46-6.9a53.11,53.11,0,0,0-8.46,0h0a15.17,15.17,0,0,1-11.25-5.54A9.59,9.59,0,0,1,845.5,556a31.54,31.54,0,0,1,1.63-5.36c.3-.79.61-1.6.88-2.42a35.89,35.89,0,0,0-.3-23.14,33.32,33.32,0,0,0-19.06-19.58,68.3,68.3,0,0,0-8.77-2.51c-4.61-1.11-9.39-2.25-13.49-4.87a15.75,15.75,0,0,1-5.78-6.22c-1.71-3.49-2-7.94-.91-13.59.35-1.76.79-3.54,1.22-5.26a63.36,63.36,0,0,0,1.74-8.67,20.07,20.07,0,0,0-3.12-13.56c-.34-.54-3.11-4.77-6-5.22,1.93-2.88,3.8-6.76,3-10.25a7.11,7.11,0,0,0-3.55-4.92c-6.3-3.45-18.35,1.58-21.9,3.2-8.48,3.89-20.11,11-27.32,22.91a41.31,41.31,0,0,0-5.67,24.36c.11,1.5.27,3,.43,4.46.71,6.56,1.38,12.76-2.23,18.65a37.5,37.5,0,0,1-7.12,8.41.36.36,0,0,0-.07.1,26.59,26.59,0,0,0-4.59,4.44c-3.41,4.2-6.18,12.35-7.43,21.8a97.25,97.25,0,0,0,1.94,34.81c-5.07,23.77-2.35,37.39.36,45.87,4,12.6,12.2,22.5,22.42,27.18a15,15,0,0,0,1.94.71l1.24.41a67,67,0,0,0,21.66,3.85,54.29,54.29,0,0,0,16.61-2.56,10.12,10.12,0,0,0,5.24,4.43,5.41,5.41,0,0,0,1.85.32,8.29,8.29,0,0,0,5.25-2.19,15.69,15.69,0,0,0,4.2-5.91,137.15,137.15,0,0,0,38.35-5.58c17.35-5.11,29.77-12.5,38-22.59C883.55,608.39,887.23,596.61,886,586ZM737.09,504.58c3.8-6.19,3.11-12.57,2.38-19.31-.16-1.45-.32-2.95-.43-4.43a40.31,40.31,0,0,1,5.52-23.73c7.08-11.68,18.54-18.7,26.91-22.54,2.46-1.12,15-6.57,21.13-3.23a6,6,0,0,1,3.06,4.27c.77,3.43-1.44,7.45-3.42,10.21a.52.52,0,0,0,0,.56.45.45,0,0,0,.47.24c2.72-.49,6,4.57,6.1,4.78a19.15,19.15,0,0,1,3,12.89,62.71,62.71,0,0,1-1.72,8.52c-.43,1.73-.88,3.52-1.23,5.31-1.14,5.89-.82,10.56,1,14.27a16.84,16.84,0,0,0,6.13,6.61c4.23,2.7,9.08,3.86,13.76,5a68.45,68.45,0,0,1,8.66,2.48,32.36,32.36,0,0,1,18.51,19,34.81,34.81,0,0,1,.29,22.43c-.27.8-.57,1.61-.86,2.39a31,31,0,0,0-1.69,5.55,10.77,10.77,0,0,0,2,8.47,15.33,15.33,0,0,0,8.23,5.34c-16.84,2.48-33.41,12.38-44.79,27.2,3.48-17.77,9.64-49.33,11.65-60.11,3.69-19.76-10.11-25.86-14.42-27.26-8.89-2.88-13.2-2.91-13.38-2.91a.46.46,0,0,0-.34.16.55.55,0,0,0-.12.39,18.82,18.82,0,0,1-.84,6.46c-11.18-4.16-15-10.8-12.71-22.17a37.1,37.1,0,0,1,7.94-16.9,5.73,5.73,0,0,0,3.5-1.54,7.2,7.2,0,0,0,2.79-5.69,3.83,3.83,0,0,0-1.29-3.19,3,3,0,0,0-2.37-.4,29.15,29.15,0,0,0-.11-6.6c-.73-5.17-3-8.59-6.52-9.91-4.49-1.67-10.16-.94-14.81,1.9-5.27,3.23-9,8.92-10.36,16-3.15,15.9,5.15,26,6.68,26.48a6,6,0,0,0,2.91.1l-.59,3.15a41.12,41.12,0,0,0-22.17.28.48.48,0,0,0-.33.33,14.92,14.92,0,0,0-.36,3.43,4.85,4.85,0,0,0-.62.27,4.19,4.19,0,0,0-.5.31h0c-1.42,1.05-2.09,3-2,5.77,0,.47,0,.94.1,1.41A33.38,33.38,0,0,0,733,510,37.94,37.94,0,0,0,737.09,504.58Zm62.56,102.53h0l-13.6-3,11.86-57.43c.57-2.74.5-4.4-.24-5.08a1.15,1.15,0,0,0-1.22-.21.51.51,0,0,0-.25.65.44.44,0,0,0,.6.27.29.29,0,0,1,.27.06c.12.1.63.78-.06,4.09l-8.16,39.52c-.11-.45-.21-.89-.32-1.33-1.3-5.53-2.53-10.75-4.19-16.22-1.1-3.66-2.05-7.45-3-11.12-1.66-6.62-3.38-13.46-6.08-19.83a37.76,37.76,0,0,0-4.55-8.16c8.83-.79,15.35-3.79,19.37-8.95a20.5,20.5,0,0,0,4.22-12.74A55.91,55.91,0,0,1,807,510.44c4.13,1.34,17.32,7.17,13.79,26.1-2.71,14.49-12.91,66.54-14,72.15ZM749.8,500.62a9.5,9.5,0,0,1,3.41,5.07,25.57,25.57,0,0,1,1,6.5,7.89,7.89,0,0,1-.57,4.23c-1.07,1.88-3.58,2.15-5.28,1.33s-3-2.46-4.07-5a21.3,21.3,0,0,1-1.7-7.62c-.08-2.41.45-4.06,1.59-4.9a2.55,2.55,0,0,1,.39-.24A5.34,5.34,0,0,1,749.8,500.62Zm4.58,16.32a8.63,8.63,0,0,0,.71-4.81,27.73,27.73,0,0,0-1-6.76,10.53,10.53,0,0,0-3.8-5.6,6.77,6.77,0,0,0-4.62-1.13,15.4,15.4,0,0,1,.25-2.64c14.21-4,24.87.84,26.2,1.49a29.49,29.49,0,0,1-.36,4.75l0,.48a33.26,33.26,0,0,1-1.25,6.3c-2.93,9.45-8.61,12.78-12.65,12.78h-.13a8.77,8.77,0,0,1-6.16-2.77A4.38,4.38,0,0,0,754.38,516.94Zm12,1.49a25.46,25.46,0,0,0,4.93-9.09,34.79,34.79,0,0,0,1.28-6.5l.06-.48c.57-4.87.44-5.45,0-5.69a26.53,26.53,0,0,0-4.17-1.59l.67-3.62a22.91,22.91,0,0,0,5.31-2.28,28.27,28.27,0,0,0,6.92-6,41.92,41.92,0,0,0-2.47,8.05c-2.39,12,1.59,19,13.3,23.32a18.41,18.41,0,0,1-2.83,5.16c-3.95,5.08-10.48,8-19.39,8.67h0a20.21,20.21,0,0,0-1.91-2,16.8,16.8,0,0,0-7.32-4A13,13,0,0,0,766.41,518.43Zm23.16-53.67a.43.43,0,0,0,.46.07,2.63,2.63,0,0,1,2.23.09,2.91,2.91,0,0,1,.88,2.39,6.18,6.18,0,0,1-2.43,4.86,4.57,4.57,0,0,1-3,1.33.44.44,0,0,0-.45.11,27.93,27.93,0,0,0-3.88,5.44c-.64.91-4.89,6.74-9.36,9.24-5,2.82-7.5,2.68-8.51,2.34-.8-.29-9.18-9.52-6-25.32,1.74-8.73,6.35-13.17,9.92-15.36a17.91,17.91,0,0,1,9.2-2.66,13.89,13.89,0,0,1,4.85.84c3.24,1.2,5.22,4.26,5.9,9.08a28.58,28.58,0,0,1,0,7.08A.51.51,0,0,0,789.57,464.76Zm-64.34,52.88c6-7.38,14.94-9.65,16.62-10a22.57,22.57,0,0,0,1.56,5.6c1.17,2.72,2.69,4.55,4.53,5.44a5.37,5.37,0,0,0,2.33.52h.07A10.83,10.83,0,0,0,754,522l-.43,0c-9.44,1.4-17.92,8.82-22.14,15.55-4.78,7.64-7.22,16.31-9.57,24.7-.91,3.22-1.68,6.28-2.34,9.2C714.59,548.58,718.53,525.91,725.23,517.64Zm-5,101.49c-2.67-8.36-5.35-21.82-.32-45.36a.5.5,0,0,0,0-.12c.75-3.47,1.65-7.16,2.76-11.09,2.34-8.31,4.75-16.92,9.46-24.43,4.1-6.54,12.33-13.76,21.5-15.12a16,16,0,0,1,13.79,4.1c2.68,2.47,4.89,5.88,7,10.75,2.67,6.29,4.38,13.09,6,19.67.92,3.68,1.87,7.49,3,11.17,1.64,5.44,2.87,10.64,4.17,16.15.25,1.07.5,2.15.76,3.24l-3.35,16.26a.51.51,0,0,0,.06.38.44.44,0,0,0,.29.21l5.77,1.29c-.21,1-.35,2.12-.48,3.17a24.82,24.82,0,0,1-1.25,5.92,20.2,20.2,0,0,1-2.61,4.28,26.59,26.59,0,0,0-2.29,3.52,32.2,32.2,0,0,0-2.54,7.23c-1.55-2.5-4.37-4.57-7.33-3.55a7.31,7.31,0,0,0-3.1,2.29c-5.21-3.79-8.61-9.78-11.9-15.57l-.21-.38c-14.79-26-18.2-54.19-9.12-75.27a.51.51,0,0,0-.22-.66.44.44,0,0,0-.61.24c-9.22,21.38-5.79,49.87,9.16,76.22l.21.37c3.32,5.85,6.76,11.89,12.08,15.81-.08.09-.15.19-.23.29l-.75,1.07A17.42,17.42,0,0,1,767.7,634a9.53,9.53,0,0,1-7.46,2.23,17.77,17.77,0,0,1-5.75-1.71,15,15,0,0,1-1.37-.76c-1.23-.73-2.63-1.56-4-1.41-2.68.29-4.33,3.65-5.43,5.92a5.13,5.13,0,0,0-3.77,0,3.24,3.24,0,0,0-1.58,2.14,4.65,4.65,0,0,0,.23,3.29C730.27,638.68,723.73,629.92,720.28,619.13Zm25,27.67-1.28-.42c-2.36-.68-4-1.7-4.6-3a3.53,3.53,0,0,1-.21-2.66,2.25,2.25,0,0,1,1.09-1.52c1.37-.72,3.4.14,3.43.15a.43.43,0,0,0,.57-.23l.15-.3c1-2.09,2.52-5.24,4.74-5.47,1.12-.12,2.33.59,3.5,1.29.5.3,1,.58,1.44.8a19.06,19.06,0,0,0,6,1.79,10.45,10.45,0,0,0,8.15-2.47,18.74,18.74,0,0,0,2.42-3c.24-.35.48-.7.74-1a7.87,7.87,0,0,1,3.49-3c2.68-.92,5.28,1.24,6.56,3.64a.45.45,0,0,0,.21.2c-1,4.85-1.2,10.43.4,15a14.51,14.51,0,0,0,.68,1.6C765.56,653.61,750.37,648.51,745.29,646.8Zm49.76,4c-2,1.75-4.38,2.38-6.23,1.7a10.33,10.33,0,0,1-4.6-3.8,12.13,12.13,0,0,1-1.24-2.54c-2.33-6.59-.59-16.86,2.36-22.58a26.66,26.66,0,0,1,2.21-3.39,21.21,21.21,0,0,0,2.74-4.5,25.3,25.3,0,0,0,1.31-6.18c.13-1,.27-2.1.47-3.11L799,608c-.21,1-.45,1.95-.7,2.89-.77,3-1.49,5.76-1,9a70.11,70.11,0,0,0,1.5,7.06c1.07,4.28,2.08,8.33,1.64,12.7a20.13,20.13,0,0,1-1.22,5.14.51.51,0,0,0-.22.42s0,0,0,.08A14.86,14.86,0,0,1,795.05,650.83Zm80.38-34c-8.06,9.94-20.33,17.23-37.5,22.28a136.09,136.09,0,0,1-37.72,5.55,21.41,21.41,0,0,0,1.11-4.94,28.76,28.76,0,0,0-.7-9,.49.49,0,0,0,.31.14.35.35,0,0,0,.14,0c10.5-3.45,17-8.72,19.81-16.11.78-2,1.37-4.12,2-6.17a68.07,68.07,0,0,1,2.09-6.49,27.9,27.9,0,0,1,10.19-13c6.29-4.14,18.11-5.9,23,1.76a.43.43,0,0,0,.64.13.53.53,0,0,0,.11-.7c-3-4.72-8-5.74-11.63-5.76a23.37,23.37,0,0,0-12.62,3.72,28.72,28.72,0,0,0-10.56,13.44,65.57,65.57,0,0,0-2.12,6.59c-.57,2-1.16,4.11-1.92,6.08-2.71,7.09-9,12.17-19.23,15.54a.47.47,0,0,0-.29.31c-.27-1.21-.56-2.4-.86-3.59a66.81,66.81,0,0,1-1.48-6.94c-.43-3,.27-5.74,1-8.6.25-.95.5-1.94.72-3l7.09,1.59h.1a.49.49,0,0,0,.45-.4c0-.15.82-4.21,2-10.38C823.45,579.9,846,568.6,867,570.18c7.09.54,11.93,2.68,14.81,6.54a19.53,19.53,0,0,1,3.31,9.44C886.28,596.46,882.68,607.94,875.43,616.87Z" transform="translate(-626.38 -429.14)"/><line class="cls-5" y1="163.79" x2="89.82" y2="163.79"/><line class="cls-5" x1="259.84" y1="163.79" x2="338.97" y2="163.79"/><path class="cls-6" d="M922.67,592.34c-2.64-1.19-11.24-2.51-11.25-5.93s-.08-13.83-.08-13.83l.52-.13a8.61,8.61,0,0,1,4.18-.23,13.61,13.61,0,0,1,2.16.92c2.37,1.1,5.14,1.66,7.57.71a13.53,13.53,0,0,0,3.31-2.1c.41-.33,2.29-2.14,2.79-1.3l-.32,17.91s-6.24,5.17-8.88,4" transform="translate(-626.38 -429.14)"/><path class="cls-7" d="M915.66,591.61c3.86,1.59,16.86,3.32,17.12-5s0-34.76,0-34.76l-4.38-7-.13-7.42" transform="translate(-626.38 -429.14)"/><path class="cls-7" d="M915.66,537.36v7.29L911,551.81v33s.77,5.17,4.64,6.76" transform="translate(-626.38 -429.14)"/><ellipse class="cls-8" cx="295.06" cy="108.48" rx="10.43" ry="2.39"/><path class="cls-9" d="M653.31,582l.21-.4,14.25.22V582l.05.46,2.43-.22a1.57,1.57,0,0,0,.65-.24c2.37-1.42,4.8-9,5.66-11.91.4-.17.37-.34.32-.64s-.23-.62-.92-.52l-.42.06,0,.09c-.52.12-1.55.33-3.62.73a16.56,16.56,0,0,0-7.7,3.56l-.94-3.63c-1.27-4.93-9.36-9.2-9.7-9.38l-.69-.36L650,569.6c-2.44,8.1,1.82,11.62,3,12.4l.27.17Z" transform="translate(-626.38 -429.14)"/><path class="cls-10" d="M673.84,581.5l-2.74,11H654.71l-2.4-11Z" transform="translate(-626.38 -429.14)"/></svg>