<svg id="Layer_1" data-name="Layer 1" xmlns="http://www.w3.org/2000/svg" viewBox="0 0 249.04 262.37"><defs><style>.cls-1{fill:#f2f2fb;}.cls-2,.cls-7,.cls-8{fill:none;}.cls-3{fill:#143068;}.cls-4{fill:#f7dce7;}.cls-5,.cls-6{fill:#3f3d56;}.cls-5,.cls-7{stroke:#3f3d56;}.cls-5{stroke-miterlimit:10;stroke-width:0.25px;}.cls-7,.cls-8{stroke-linecap:round;stroke-linejoin:round;stroke-width:0;}.cls-8{stroke:#fff;}.cls-9{fill:#dbdaf2;}.cls-10{fill:#c0dcf3;}.cls-11{fill:#e6e6e6;}.cls-12{fill:#ff7bac;}</style></defs><title>m3</title><path class="cls-1" d="M1017.31,519.89l.17-.31,11.09.17v.14l0,.36,1.9-.17a1.19,1.19,0,0,0,.5-.19c1.85-1.1,3.73-7,4.41-9.26.31-.14.29-.27.25-.5s-.18-.48-.73-.4l-.32,0,0,.07c-.4.09-1.2.26-2.81.57a12.85,12.85,0,0,0-6,2.77l-.73-2.83c-1-3.83-7.28-7.15-7.55-7.29l-.54-.28-2.26,7.47c-1.9,6.3,1.41,9,2.31,9.64l.21.14Z" transform="translate(-1000.02 -408.83)"/><path class="cls-2" d="M1122.47,587.5c5.38-2.5,12.63-7,16.61-14.54a11.19,11.19,0,0,0,1.59-6.68,9.34,9.34,0,0,0-2.29-4.82,19.78,19.78,0,0,0-4.23-3.57,45.86,45.86,0,0,0-5.29-3,121.67,121.67,0,0,0-12.16-4.78l-2.48-.88c-6.14-2.2-12.5-4.36-18.93-6.44-7.5-2.42-13.65-4.28-19.36-5.84l-.18-.05a99.33,99.33,0,0,0-14.27-3.17c-6.49-.79-13.21-1.11-18.49,1.75a14.14,14.14,0,0,0-2.21,1.47c-4,3.18-5.14,8.17-6,13a97.25,97.25,0,0,0-1.27,18.71c0,2.68.12,5.48.28,8.32,0,.71,0,1.43.07,2.14a22.7,22.7,0,0,0,.47,5.09,9.33,9.33,0,0,0,3.41,4.89c3.29,2.53,7.54,3.5,11.66,4.44l.43.1a116.08,116.08,0,0,0,18.59,2.43c4.16.24,7,.23,7.06.24h.44c2.93,0,6-.17,9.75-.47a151.51,151.51,0,0,0,17.69-2.4A84.71,84.71,0,0,0,1122.47,587.5Z" transform="translate(-1000.02 -408.83)"/><path class="cls-2" d="M1121.07,635.71c-.33,0-.76.09-1.29.15-2.14.21-5,2.68-5.47,3.11-1.86,5.3-7.5,5.79-9.37,5.95h-.25a7,7,0,0,0,1.31,4.58,6.23,6.23,0,0,0,2.55,1.65,8.72,8.72,0,0,0,2.82.64,7.4,7.4,0,0,0,3.43-.82,18.33,18.33,0,0,0,4.89-3.63l3.4-4a31,31,0,0,1-1.63-4A7.27,7.27,0,0,1,1121.07,635.71Z" transform="translate(-1000.02 -408.83)"/><path class="cls-2" d="M1149.87,631.28a5.71,5.71,0,0,0-3.93-.33,15.38,15.38,0,0,0-5,2.6,3.81,3.81,0,0,1-1.78,1.22l-.48.21c-1,.49-1.76.85-2.49,1.16a22,22,0,0,1-5.36,1.65,11.4,11.4,0,0,1-8.81-1.92,6.11,6.11,0,0,0,.36,3.14,29.52,29.52,0,0,0,1.86,4.51,5,5,0,0,0,1.35,1.8,4.75,4.75,0,0,0,2.68.63,30.78,30.78,0,0,0,6.47-.84,43.87,43.87,0,0,0,8.33-2.49,20.88,20.88,0,0,0,7.07-4.79,5.22,5.22,0,0,0,1.74-3.51A3.63,3.63,0,0,0,1149.87,631.28Z" transform="translate(-1000.02 -408.83)"/><path class="cls-2" d="M1113.37,638.66c-2.41-7.13-.38-41.09,0-46.68-3,.91-6.27,1.72-9.8,2.43-2.16.43-4.4.8-6.68,1.15.39,4.09,3.33,34.26,4.12,39.21l.11.7c.82,5.22,1.45,8.46,3.57,8.46h.19C1107.81,643.67,1111.89,642.84,1113.37,638.66Z" transform="translate(-1000.02 -408.83)"/><path class="cls-2" d="M1122.89,588.41c-1.49.69-3.06,1.34-4.69,2,.42,4.22,3.88,39,4,42.3,0,1.12.06,1.73.07,2.06a10.17,10.17,0,0,0,8.45,2.09,21,21,0,0,0,5.12-1.59c.83-.35,1.65-.74,2.45-1.14l.53-.23a5.1,5.1,0,0,0,1.09-.58,18.45,18.45,0,0,1-2.26-6.12,46.13,46.13,0,0,1-.15-11c0-.77.1-1.53.14-2.28.24-4.44.64-8.93,1.18-13.34.36-3,.8-5.93,1.22-8.82l.32-2.16a43.58,43.58,0,0,0,.63-7.47,20.29,20.29,0,0,0-1.79-7.26C1135,581.72,1128.08,586,1122.89,588.41Z" transform="translate(-1000.02 -408.83)"/><path class="cls-2" d="M1114.37,591.67c-.24,3.71-2.35,38-.23,46.13,1.1-.91,3.51-2.73,5.53-2.94.84-.08,1.32-.15,1.59-.19,0-.44,0-1.07-.08-2-.1-3.16-3.45-37-4-42C1116.3,591,1115.35,591.36,1114.37,591.67Z" transform="translate(-1000.02 -408.83)"/><path class="cls-2" d="M1102.21,463.5c15-9.87,8.32-25.72,8.25-25.88l-.14-.26a4.75,4.75,0,0,0-1.82.2,4.69,4.69,0,0,1-1.13.19,1.39,1.39,0,0,1-.72-.17,1,1,0,0,0-.62-.11,1.87,1.87,0,0,1-1.83-1.05,3.4,3.4,0,0,0-.89-.83,5.88,5.88,0,0,1-1.29-1.17,25.18,25.18,0,0,1-8.47,20,47.08,47.08,0,0,1-4.45,3.38c-1.4,1-2.84,1.87-4.25,2.76l-1,.65-1.24.81a33.24,33.24,0,0,1-3.76,2.23c1.81.64,3.86,2,3.8,4.63-.09,3.57-4.62,12.09-5.58,13.87.62.54,3.15,2.18,11.58,3.24,9.11,1.15,11.18-2.49,11.53-3.3l-2-3.71C1093.36,469.55,1102.12,463.56,1102.21,463.5Z" transform="translate(-1000.02 -408.83)"/><path class="cls-2" d="M1108.49,426.82l-4-5c-5-6.3-20.16-5.52-26.78-3.72s-8.68,4.22-8.7,4.24l-1.77,1.84a5.32,5.32,0,0,1-.53.65l-.08.07-.66.44a8,8,0,0,1-.29,2.28,26,26,0,0,1-3.15,6.52l-.2.32a9.29,9.29,0,0,0-1.13,2.35,8.16,8.16,0,0,0-.06,3,34.38,34.38,0,0,0,13.07,22.92,4.46,4.46,0,0,0,2.45,1.11,4,4,0,0,0,1.59-.48,29.61,29.61,0,0,0,3.76-2.22l1.25-.81,1-.66c1.39-.88,2.84-1.79,4.22-2.73a48.26,48.26,0,0,0,4.36-3.31,24.39,24.39,0,0,0,7.71-22.92l1-.19c0,.1,0,.21,0,.31h0c.49,2.67,1.42,3.35,2.24,3.94a4.12,4.12,0,0,1,1.15,1.1c.38.6.57.6,1,.59a2,2,0,0,1,1.13.24,2.08,2.08,0,0,0,1.12-.12,4.6,4.6,0,0,1,3,0,.8.8,0,0,0,.66,0,3.74,3.74,0,0,0,1.31-1.92l-.36-.5-3.23-5.86-.45-.57-.82-.89Z" transform="translate(-1000.02 -408.83)"/><polygon class="cls-2" points="13.46 111.68 13.29 111.98 24.56 111.98 24.55 111.85 13.46 111.68"/><path class="cls-2" d="M1199.71,429.76h-88.1l2.12,3.85.61.85-.07.23c-.06.22-.66,2.15-1.9,2.77a1.75,1.75,0,0,1-.83.17c1,2.7,5.52,17.3-8.78,26.7-.33.22-8.1,5.57-3.72,14.16l2,3.69c3.59.58,7,4.62,8.92,8a31,31,0,0,1,2.54,6.2h87.24Zm-71.33,10.44,5.21,1.95v2.42h-5.21Zm0,10.08,5.21,2v2.42h-5.21Zm0,10.28,5.21,1.94v2.43h-5.21Zm5.72,14.64h-5.21v-4.37l5.21,1.95Zm43.32-.38h-32.83v-3.39h32.83Zm0-10.28h-32.83v-3.38h32.83Zm0-10.27h-32.83v-3.38h32.83Zm0-9.7h-32.83v-3.39h32.83Z" transform="translate(-1000.02 -408.83)"/><path class="cls-2" d="M1061.69,433.64a25,25,0,0,0,3-6.26c.69-2.54-.12-4.84-1.09-6.95a19.07,19.07,0,0,0-4.64-6.69,12,12,0,0,0-7.7-2.72,12.17,12.17,0,0,0-3.28.44,14.28,14.28,0,0,0-9.4,8.9,10.33,10.33,0,0,0-.39,5.84c.84,3.54,3.71,6.07,6,7.56a31,31,0,0,0,8.13,3.7,12.55,12.55,0,0,0,3.89.7,5.38,5.38,0,0,0,2-.43,3.9,3.9,0,0,0,.73-.45,3.63,3.63,0,0,1,1.17-.66l0,.14c0-.06,0-.13,0-.19a10,10,0,0,1,1.25-2.61Z" transform="translate(-1000.02 -408.83)"/><polygon class="cls-2" points="120.91 122.5 121.26 124.81 122.21 124.81 121.87 122.5 120.91 122.5"/><path class="cls-3" d="M1110.38,437.47l-.06-.11a3.31,3.31,0,0,0-.89,0,2.52,2.52,0,0,0,.76.1Z" transform="translate(-1000.02 -408.83)"/><path class="cls-4" d="M1088.61,486a22.33,22.33,0,0,0,5.29.11c-.36,0-.73-.06-1.12-.11-8.43-1.06-11-2.7-11.59-3.24,1-1.78,5.49-10.3,5.58-13.87.07-2.58-2-4-3.8-4.63a33.38,33.38,0,0,0,3.77-2.23l1.24-.81,1-.65c1.4-.89,2.85-1.81,4.25-2.76a47.08,47.08,0,0,0,4.45-3.38,25,25,0,0,0,8.4-16.93H1106a1.87,1.87,0,0,1-1.83-1.05,3.4,3.4,0,0,0-.89-.83,5.88,5.88,0,0,1-1.29-1.17,25.18,25.18,0,0,1-8.47,20,47.08,47.08,0,0,1-4.45,3.38c-1.4,1-2.84,1.87-4.25,2.76l-1,.65-1.24.81a33.24,33.24,0,0,1-3.76,2.23c1.81.64,3.86,2,3.8,4.63-.09,3.57-4.62,12.09-5.58,13.87C1077.65,483.27,1080.18,484.91,1088.61,486Z" transform="translate(-1000.02 -408.83)"/><path class="cls-4" d="M1128.44,643.52a29.52,29.52,0,0,1-1.86-4.51,9.72,9.72,0,0,1-.33-1.29c-.36-.07-4-1.42-4.36-1.52.08.65,1,4.07,1.17,4.64s.71,1.73,1,2.34c.56,1.39.52.69,1.58,2.12h0a4.72,4.72,0,0,0,2.7.64,21.75,21.75,0,0,0,2.57-.17,3,3,0,0,1-1.08-.46A4.89,4.89,0,0,1,1128.44,643.52Z" transform="translate(-1000.02 -408.83)"/><path class="cls-3" d="M1122.05,635.87a3.5,3.5,0,0,0-.07.65l.61-.28C1122.41,636.12,1122.22,636,1122.05,635.87Z" transform="translate(-1000.02 -408.83)"/><path class="cls-4" d="M1135,637.79a22,22,0,0,0,5.37-1.65c.73-.31,1.5-.67,2.49-1.16l.48-.21a3.86,3.86,0,0,0,1.78-1.22,17.18,17.18,0,0,1,4.34-2.42,5.85,5.85,0,0,0-3.54-.18,15.38,15.38,0,0,0-5,2.6,3.81,3.81,0,0,1-1.78,1.22l-.48.21c-1,.49-1.76.85-2.49,1.16a22,22,0,0,1-5.36,1.65h0A13,13,0,0,0,1135,637.79Z" transform="translate(-1000.02 -408.83)"/><path class="cls-4" d="M1110.16,649.51a7.09,7.09,0,0,1-1.3-4.58h.25c1.87-.16,7.51-.65,9.37-5.95a21,21,0,0,1,2.52-1.89,5.23,5.23,0,0,1,.07-1.37c-.33,0-.76.09-1.29.15-2.14.21-5,2.68-5.47,3.11-1.86,5.3-7.5,5.79-9.37,5.95h-.25a7,7,0,0,0,1.31,4.58,6.23,6.23,0,0,0,2.55,1.65,8.72,8.72,0,0,0,2.82.64,6.76,6.76,0,0,0,2.21-.34c-.29-.09-.57-.18-.87-.3A6.3,6.3,0,0,1,1110.16,649.51Z" transform="translate(-1000.02 -408.83)"/><path class="cls-4" d="M1054,593.64l-.44-.1c-4.11-.94-8.36-1.91-11.65-4.44a9.21,9.21,0,0,1-3.41-4.89,22.14,22.14,0,0,1-.48-5.09c0-.71,0-1.43-.07-2.14-.15-2.84-.25-5.64-.28-8.32a98.88,98.88,0,0,1,1.27-18.71c.87-4.83,2.06-9.82,6-13a13.69,13.69,0,0,1,2.21-1.47,20.67,20.67,0,0,1,8.77-2.24c-4.64-.22-9.16.19-12.94,2.24a14.14,14.14,0,0,0-2.21,1.47c-4,3.18-5.14,8.17-6,13a97.25,97.25,0,0,0-1.27,18.71c0,2.68.12,5.48.28,8.32,0,.71,0,1.43.07,2.14a22.7,22.7,0,0,0,.47,5.09,9.33,9.33,0,0,0,3.41,4.89c3.29,2.53,7.54,3.5,11.66,4.44l.43.1a116.08,116.08,0,0,0,18.59,2.43c4.16.24,7,.23,7.06.24h.44l1.63,0c-1.24,0-3-.09-5-.21A116.12,116.12,0,0,1,1054,593.64Z" transform="translate(-1000.02 -408.83)"/><path class="cls-5" d="M1150.26,630.12a6.7,6.7,0,0,0-4.63-.41,15.52,15.52,0,0,0-5.07,2.59,17.44,17.44,0,0,1-2-5.59,45.66,45.66,0,0,1-.14-10.78c0-.77.1-1.54.14-2.29.24-4.42.64-8.89,1.18-13.27.36-2.94.8-5.92,1.22-8.8l.32-2.16a44.26,44.26,0,0,0,.64-7.65,22.39,22.39,0,0,0-2.17-8.31l.16-.29a12.11,12.11,0,0,0,1.7-7.28,10.41,10.41,0,0,0-2.52-5.33,20.2,20.2,0,0,0-4.45-3.75,43.51,43.51,0,0,0-5.4-3.08c-.78-.37-1.57-.72-2.37-1.06-1.93-4.2-5.62-14.55-5.91-16.76s-1-3.9-1.34-5.9c-.09-.65-.24-1.28-.35-1.91-.79-4.67-1.7-9.52-2.7-14.42-.89-4.3-1.68-7.87-2.5-11.2l-.27-1.12c-.22-.91-.44-1.82-.68-2.73h-.7l-.41-2.54h.4a30,30,0,0,0-2.53-6.19c-1.89-3.35-5.34-7.39-8.93-8l-2-3.68c-4.38-8.6,3.39-13.94,3.72-14.16,14.3-9.4,9.77-24,8.77-26.7a1.9,1.9,0,0,0,.84-.18c1.24-.61,1.83-2.55,1.9-2.77l.06-.23-.6-.85-4-6.78-.75-.94-.14-.14-3.58-4.53c-5.38-6.74-20.77-6-27.82-4.06-5,1.36-7.55,3.09-8.59,4a17.86,17.86,0,0,0,1.09-4.74c.52-5.7-1.7-7.06-1.8-7.12l-.51.86s1.77,1.19,1.31,6.17a16,16,0,0,1-1.68,5.94,9.66,9.66,0,0,1-1.25,1.89l-.14.09a14.75,14.75,0,0,0-1.35-4.2,19.84,19.84,0,0,0-4.9-7,13.25,13.25,0,0,0-11.89-2.48,15.13,15.13,0,0,0-10.08,9.53,11.39,11.39,0,0,0-.42,6.4c.92,3.86,4,6.57,6.39,8.17a31.81,31.81,0,0,0,8.4,3.82,13.28,13.28,0,0,0,4.2.74,6.52,6.52,0,0,0,2.41-.5,4.93,4.93,0,0,0,.92-.57c.17-.12.33-.24.48-.33a13.24,13.24,0,0,0,.1,2.19,35.48,35.48,0,0,0,13.46,23.6,5.18,5.18,0,0,0,3,1.31h0l.41,0s4.59.66,4.5,4-4.65,11.93-5.49,13.48c-2.69.16-22.77,2-25.45,22.77,0,0-2.35,24-2.29,25.78l.07,1.74s-.83.11-1.92.37a34.83,34.83,0,0,0-4,1.62,15.61,15.61,0,0,0-2.36,1.57c-4.23,3.4-5.47,8.59-6.37,13.61a99.12,99.12,0,0,0-1.29,18.9c0,2.69.13,5.5.29,8.36,0,.7,0,1.4.06,2.11a22.71,22.71,0,0,0,.51,5.31,10.23,10.23,0,0,0,3.77,5.43c3.45,2.66,7.8,3.66,12,4.62l-28.15,68.49.93.38L1050,594.46a117.57,117.57,0,0,0,17.84,2.32l13.42,74.28,1-.18-13.38-74c3.6.19,6.11.2,6.45.2h.49c3,0,6.07-.18,9.82-.47,3.48-.28,6.85-.66,10.13-1.13.42,4.27,3.34,34.26,4.13,39.22l.11.7c.69,4.41,1.31,8.31,3.58,9.14v.12a7.94,7.94,0,0,0,1.55,5.27,7.22,7.22,0,0,0,2.94,1.94,9.66,9.66,0,0,0,3.15.7h.25a8.53,8.53,0,0,0,3.65-.91,19.57,19.57,0,0,0,5.19-3.85l3.15-3.71a5.13,5.13,0,0,0,1.46,1.81,5.6,5.6,0,0,0,3.26.81h.07a32.23,32.23,0,0,0,6.62-.85,46,46,0,0,0,8.51-2.55,22,22,0,0,0,7.41-5,6.19,6.19,0,0,0,2-4.21A4.64,4.64,0,0,0,1150.26,630.12Zm-9.36-48.33a43.5,43.5,0,0,1-.63,7.47l-.32,2.16c-.42,2.89-.86,5.88-1.22,8.83-.55,4.4-1,8.89-1.19,13.33,0,.76-.09,1.52-.14,2.28a46.13,46.13,0,0,0,.16,11,18.35,18.35,0,0,0,2.25,6.12,4.49,4.49,0,0,1-1.09.58l-.52.24c-.81.39-1.62.78-2.45,1.14a21.47,21.47,0,0,1-5.12,1.58,10.12,10.12,0,0,1-8.45-2.09c0-.33,0-.93-.07-2.05-.11-3.3-3.57-38.09-4-42.31,1.64-.61,3.21-1.25,4.7-2,5.18-2.41,12.06-6.68,16.28-13.6A20,20,0,0,1,1140.9,581.79Zm-19.72,52.62c-.27,0-.74.1-1.58.19-2,.2-4.43,2-5.53,2.93-2.12-8.16,0-42.41.23-46.12,1-.31,1.92-.63,2.85-1,.5,5,3.86,38.82,4,42C1121.13,633.33,1121.15,634,1121.18,634.41Zm-61-197.92,0-.13a3.71,3.71,0,0,0-1.17.65,4.54,4.54,0,0,1-.72.46,5.58,5.58,0,0,1-2,.42,12.2,12.2,0,0,1-3.89-.69,30.79,30.79,0,0,1-8.14-3.71c-2.25-1.49-5.12-4-6-7.56a10.46,10.46,0,0,1,.39-5.83,14.34,14.34,0,0,1,9.4-8.91,12.64,12.64,0,0,1,3.28-.44,12.05,12.05,0,0,1,7.71,2.72,19.07,19.07,0,0,1,4.63,6.7c1,2.1,1.78,4.4,1.1,6.94a25.21,25.21,0,0,1-3.05,6.26l-.2.32a10.26,10.26,0,0,0-1.24,2.62C1060.16,436.37,1060.15,436.43,1060.13,436.49Zm16.66,27.12a4.31,4.31,0,0,1-2.81-1.23,36,36,0,0,1-12.46-19.86,12.44,12.44,0,0,1-.15-6.32c.8-2.68,3-4.75,3.83-7.42a21.58,21.58,0,0,1,1-3.77,7.43,7.43,0,0,1,1.87-2.16,26.86,26.86,0,0,1,13-5.81,42.32,42.32,0,0,1,14.33.28c3.57.63,7.34,1.74,9.57,4.6a34.7,34.7,0,0,1,2,2.93,4.74,4.74,0,0,0,1.16,1.21l1.49,2a19.61,19.61,0,0,1,1.27,2.3l1.71,3c.3.53.7,1.06.37,1.65a2.82,2.82,0,0,1-1.51,1.11,7.52,7.52,0,0,1-10-5.79l-.88.16a25.39,25.39,0,0,1-4.24,19.1c-2.8,3.76-6.73,6.5-10.68,9-2.3,1.48-4.63,2.9-7,4.28A4.56,4.56,0,0,1,1076.79,463.61Zm5.74,5c.07-2.58-2-4-3.8-4.63a32,32,0,0,0,3.77-2.24c.41-.27.82-.54,1.24-.8l1-.66c1.4-.89,2.85-1.8,4.25-2.75a48.84,48.84,0,0,0,4.45-3.38,25.18,25.18,0,0,0,8.46-20,6.22,6.22,0,0,0,1.29,1.18,3.09,3.09,0,0,1,.89.82,1.84,1.84,0,0,0,1.83,1.05,1.06,1.06,0,0,1,.62.11,1.44,1.44,0,0,0,.73.18,4.9,4.9,0,0,0,1.13-.2,4.75,4.75,0,0,1,1.82-.2l.14.27c.07.16,6.77,16-8.26,25.87-.09.06-8.84,6.06-4.05,15.46l2,3.72c-.34.81-2.42,4.44-11.52,3.29-8.43-1.06-11-2.7-11.59-3.23C1077.92,480.68,1082.44,472.16,1082.53,468.6Zm-31,36.34c2.64-20.36,22.11-21.79,24.54-21.89.66.69,3.21,2.5,12.29,3.65a28.11,28.11,0,0,0,3.47.23c6.58,0,8.53-2.87,9-4,3.18.62,6.3,4.34,8.06,7.45,1.93,3.43,2.89,7.38,3.82,11.2l.27,1.12c.82,3.33,1.61,6.88,2.49,11.17,1,4.63,1.69,9.4,2.48,14.09a99.79,99.79,0,0,0,2.58,12.12,96.55,96.55,0,0,0,4.86,12c-2.82-1.16-5.7-2.19-8.53-3.18l-2.48-.88c-2.72-1-5.49-1.94-8.28-2.92-2.47-2.22-7.34-18.21-9-24.18l-1,.27c.23.8,5,18,8.33,23.38q-4.49-1.53-9-3c-7.52-2.43-13.68-4.29-19.41-5.85l-.18-.06a101.55,101.55,0,0,0-14.42-3.19,48.38,48.38,0,0,0-12.35-.26C1049.17,532.16,1048.78,526.53,1051.58,504.94Zm34,90.63c-3.73.29-6.82.44-9.75.47h-.45s-2.89,0-7.06-.23a117.27,117.27,0,0,1-18.58-2.43l-.44-.1c-4.11-.94-8.36-1.92-11.65-4.45a9.18,9.18,0,0,1-3.41-4.89,22.05,22.05,0,0,1-.48-5.08c0-.72,0-1.44-.07-2.15-.15-2.84-.25-5.63-.28-8.31a98.82,98.82,0,0,1,1.27-18.71c.87-4.84,2.06-9.83,6-13a14.38,14.38,0,0,1,2.21-1.47c5.27-2.86,12-2.53,18.48-1.75a100.39,100.39,0,0,1,14.27,3.17l.19,0c5.71,1.56,11.86,3.42,19.36,5.84,6.42,2.08,12.79,4.25,18.92,6.44l2.49.88a119.37,119.37,0,0,1,12.16,4.79,43,43,0,0,1,5.28,3,19.3,19.3,0,0,1,4.24,3.57,9.47,9.47,0,0,1,2.29,4.81,11.18,11.18,0,0,1-1.59,6.68c-4,7.49-11.23,12-16.61,14.55a84.9,84.9,0,0,1-19.12,5.92A149.36,149.36,0,0,1,1085.59,595.57ZM1101,635.2l-.11-.7c-.78-5-3.72-35.12-4.12-39.21,2.28-.34,4.53-.71,6.68-1.15,3.54-.7,6.79-1.51,9.8-2.42-.35,5.59-2.39,39.55,0,46.67-1.48,4.19-5.55,5-8.51,5.27h-.18C1102.47,643.67,1101.85,640.42,1101,635.2Zm18.6,11.89a18.21,18.21,0,0,1-4.89,3.62,7.28,7.28,0,0,1-3.43.82,8.8,8.8,0,0,1-2.83-.63,6.42,6.42,0,0,1-2.55-1.66,7.08,7.08,0,0,1-1.3-4.57h.25c1.87-.16,7.51-.65,9.37-5.95.49-.44,3.33-2.9,5.46-3.12l1.3-.14a7.13,7.13,0,0,0,.38,3.6,29.86,29.86,0,0,0,1.64,4Zm30.48-9.53a20.75,20.75,0,0,1-7.07,4.8,44.83,44.83,0,0,1-8.33,2.49,30.14,30.14,0,0,1-6.47.83,4.64,4.64,0,0,1-2.68-.62,4.92,4.92,0,0,1-1.35-1.81,29.4,29.4,0,0,1-1.86-4.5,6.13,6.13,0,0,1-.36-3.14,11.45,11.45,0,0,0,8.8,1.92,22.47,22.47,0,0,0,5.37-1.65c.73-.32,1.5-.68,2.49-1.17l.48-.21a3.79,3.79,0,0,0,1.78-1.22,15.47,15.47,0,0,1,5-2.6,5.71,5.71,0,0,1,3.93.33,3.67,3.67,0,0,1,2,3A5.29,5.29,0,0,1,1150.1,637.56Z" transform="translate(-1000.02 -408.83)"/><polygon class="cls-6" points="108.27 17.77 109.08 18.66 110.65 20.36 110.65 20.71 111.49 20.71 199.6 20.71 199.6 87.29 112.36 87.29 111.95 87.29 112.36 89.83 113.06 89.83 202.83 89.83 202.83 17.77 109.65 17.77 108.38 17.77 108.27 17.77"/><polygon class="cls-6" points="48.27 121.51 48.27 121.51 48.47 118.69 31.61 118.69 31.49 119.16 17.15 119.16 17.05 118.69 0 118.69 0 123.32 48.35 123.51 48.27 121.51"/><path class="cls-6" d="M1172.67,527.69h-16.14c-1.6-3.92-4-10-4.68-11.84,4.7-.15,37.64,0,50.68,0h.51V495.73h-1v2.55l-88.81,0,3.73,16.19.29,1.51,18.38,0c-1.45,5.42-3.29,11.08-4,11.57l-.4.22h-12.18l.84,4.31h49.79v14.47h-.62v1h.62v18.4h-.62v1h.62v18.22h-.62v1h.62v0h1v0H1247l.5.07.27-1.07h-77.1V566.87h76.61l-.38-1H1170.7v-18.4h76.35V547l-.16-.5H1170.7V532h2v-3.31h74.38v77.85h1V528.69h1v-1Zm-51.08,3.13,1.34-1-2.41-1.15.34,2.31Z" transform="translate(-1000.02 -408.83)"/><rect class="cls-6" x="169.74" y="177.28" width="1" height="20.43"/><line class="cls-7" x1="246.64" y1="140.78" x2="246.64" y2="140.78"/><line class="cls-7" x1="170.43" y1="140.78" x2="170.43" y2="140.78"/><line class="cls-8" x1="246.64" y1="179.93" x2="172.05" y2="179.93"/><line class="cls-8" x1="172.05" y1="179.93" x2="171.05" y2="179.93"/><line class="cls-8" x1="170.43" y1="179.93" x2="171.05" y2="179.93"/><polygon class="cls-6" points="201.08 125.13 201.08 126.07 201.53 126.07 201.53 127.42 211.49 127.42 211.49 126.07 211.99 126.07 211.99 125.13 201.08 125.13"/><polygon class="cls-9" points="31.14 118.69 33.27 110.17 16.52 110.17 18.39 118.69 31.14 118.69"/><path class="cls-6" d="M1033.29,519.51l-2.13,8.52h-12.75l-1.87-8.52Z" transform="translate(-1000.02 -408.83)"/><rect class="cls-10" x="144.56" y="32.35" width="32.83" height="3.38"/><rect class="cls-10" x="144.56" y="42.05" width="32.83" height="3.38"/><rect class="cls-10" x="144.56" y="52.33" width="32.83" height="3.38"/><rect class="cls-10" x="144.56" y="62.6" width="32.83" height="3.38"/><polygon class="cls-10" points="133.57 33.31 128.35 31.37 128.35 35.73 133.57 35.73 133.57 33.31"/><polygon class="cls-10" points="133.57 43.4 128.35 41.45 128.35 45.82 133.57 45.82 133.57 43.4"/><polygon class="cls-10" points="133.57 53.67 128.35 51.72 128.35 56.09 133.57 56.09 133.57 53.67"/><polygon class="cls-10" points="128.87 66.37 134.08 66.37 134.08 63.95 128.87 62 128.87 66.37"/><polygon class="cls-6" points="200.53 127.07 177.82 127.07 177.82 135.95 241.93 135.95 241.93 127.07 212.49 127.07 212.49 128.42 200.53 128.42 200.53 127.07"/><path class="cls-11" d="M1211.52,536.25h-10V534.9h-24.7v10.88H1243V534.9h-31.43Zm1-.35H1242v8.88h-64.1V535.9h22.7v1.35h12Z" transform="translate(-1000.02 -408.83)"/><polygon class="cls-6" points="201.08 143.77 201.08 144.71 201.53 144.71 201.53 146.05 211.49 146.05 211.49 144.71 211.99 144.71 211.99 143.77 201.08 143.77"/><polygon class="cls-6" points="200.53 145.71 177.82 145.71 177.82 154.58 241.93 154.58 241.93 145.71 212.49 145.71 212.49 147.05 200.53 147.05 200.53 145.71"/><path class="cls-11" d="M1211.52,554.88h-10v-1.34h-24.7v10.88H1243V553.54h-31.43Zm1-.34H1242v8.88h-64.1v-8.88h22.7v1.34h12Z" transform="translate(-1000.02 -408.83)"/><polygon class="cls-6" points="201.08 162.81 201.08 163.75 201.53 163.75 201.53 165.1 211.49 165.1 211.49 163.75 211.99 163.75 211.99 162.81 201.08 162.81"/><polygon class="cls-6" points="200.53 164.75 177.82 164.75 177.82 173.63 241.93 173.63 241.93 164.75 212.49 164.75 212.49 166.1 200.53 166.1 200.53 164.75"/><path class="cls-11" d="M1211.52,573.93h-10v-1.35h-24.7v10.88H1243V572.58h-31.43Zm1-.35H1242v8.88h-64.1v-8.88h22.7v1.35h12Z" transform="translate(-1000.02 -408.83)"/><line class="cls-7" x1="170.43" y1="179.41" x2="170.43" y2="179.41"/><line class="cls-7" x1="247.77" y1="179.41" x2="247.77" y2="179.41"/><path class="cls-12" d="M1076.12,483.05a20.54,20.54,0,0,0,9.18,3.19,38,38,0,0,0,8.65.28c-1.18.84-2.56,2.31-4.07,2.23a60.13,60.13,0,0,1-8-.79,22.16,22.16,0,0,1-9.71-4.41l3.89-.92" transform="translate(-1000.02 -408.83)"/><polyline class="cls-12" points="96.81 114.43 104.53 135.74 103.25 135.74 96.1 117.96"/><path class="cls-12" d="M1122.18,634.45s4.58,3.73,9.11,2.25l4.53-1.48,1-.77s-10.12,1.79-12.41,0l-2.28-1.79Z" transform="translate(-1000.02 -408.83)"/><line class="cls-5" x1="113.25" y1="182.89" x2="112.23" y2="215.67"/><line class="cls-12" x1="24.91" y1="253.62" x2="21.81" y2="254.28"/><line class="cls-12" x1="39.41" y1="211.46" x2="35.38" y2="224.6"/><path class="cls-12" d="M1112.25,633.43l1.12,5.23s-2,3.18-4.23,4c-.53.21-1.34.52-1.91.69a6.17,6.17,0,0,1-2.45.27c-.83-.12,6.36-1.78,6.79-5.11S1112.25,633.43,1112.25,633.43Z" transform="translate(-1000.02 -408.83)"/></svg>