<svg id="Layer_1" data-name="Layer 1" xmlns="http://www.w3.org/2000/svg" viewBox="0 0 427.76 289.61"><defs><style>.cls-1,.cls-10,.cls-16,.cls-2,.cls-6,.cls-7,.cls-8,.cls-9{fill:none;}.cls-1,.cls-13,.cls-16,.cls-8{stroke:#3f3d56;}.cls-1,.cls-13,.cls-16,.cls-2,.cls-6,.cls-7,.cls-8,.cls-9{stroke-miterlimit:10;}.cls-1{stroke-width:0.75px;}.cls-2{stroke:#c3d7e6;}.cls-13,.cls-3{fill:#3f3d56;}.cls-4{fill:#fff;}.cls-5{fill:#f2f3f8;}.cls-14,.cls-6{stroke:#143068;}.cls-7{stroke:#f24c40;stroke-width:2px;}.cls-8{stroke-width:0.5px;}.cls-9{stroke:#ff7c79;}.cls-11,.cls-14{fill:#143068;}.cls-12{fill:#f7dce7;}.cls-13{stroke-width:0.25px;}.cls-14{stroke-linecap:round;stroke-linejoin:round;stroke-width:0;}.cls-15{fill:#ff7bac;}</style></defs><title>b3</title><path class="cls-1" d="M892.48,412.05h-57.9c-12,2-11,20-11,20v71.7" transform="translate(-746.47 -397.08)"/><path class="cls-2" d="M810.58,574.05" transform="translate(-746.47 -397.08)"/><path class="cls-3" d="M981.08,677.33l193-.78s2,7.87-9,9.44-404,0-404,0-8,.79-13-4.72c-2.91-3.2-1-3.94-1-3.94l158,.62" transform="translate(-746.47 -397.08)"/><path class="cls-4" d="M1006.48,666.8s37.6-1.25,39.6-1.25,7,0,8,5c.39,1.94.32,3.13-.14,3.92-.72,1.23-2.42,1.47-4.86,2.08-4,1-70.08.67-70.08.67" transform="translate(-746.47 -397.08)"/><path class="cls-3" d="M1036.58,519.05h71s6,5,0,5H1035a4.21,4.21,0,0,1-4.13-3.12c-.24-1,0-1.88,1.7-1.88Z" transform="translate(-746.47 -397.08)"/><path class="cls-5" d="M835.08,431.55" transform="translate(-746.47 -397.08)"/><line class="cls-5" x1="135.29" y1="274.47" x2="0.61" y2="274.19"/><line class="cls-5" x1="86.29" y1="189.47" x2="104.29" y2="205.47"/><path class="cls-6" d="M811.58,550.05" transform="translate(-746.47 -397.08)"/><path class="cls-6" d="M815.58,540.05" transform="translate(-746.47 -397.08)"/><path class="cls-7" d="M941.08,431.65" transform="translate(-746.47 -397.08)"/><path class="cls-2" d="M944,411.31" transform="translate(-746.47 -397.08)"/><path class="cls-1" d="M1148.08,418.05c2.78,6.48.84,214,.54,244.31a13.18,13.18,0,0,1-3.18,8.54,15.12,15.12,0,0,1-3.89,3.27,10.16,10.16,0,0,1-3,1.09l-6.2,1.29" transform="translate(-746.47 -397.08)"/><path class="cls-2" d="M946.08,410.05" transform="translate(-746.47 -397.08)"/><path class="cls-3" d="M1079.08,429.55h21s5,1,3,3a6.19,6.19,0,0,1-4,2h-16s-6,0-6-2A3.7,3.7,0,0,1,1079.08,429.55Z" transform="translate(-746.47 -397.08)"/><circle class="cls-3" cx="89.11" cy="27.97" r="4.5"/><circle class="cls-3" cx="103.11" cy="27.97" r="4.5"/><circle class="cls-3" cx="116.11" cy="27.97" r="4.5"/><circle class="cls-3" cx="383.11" cy="24.97" r="4.5"/><path class="cls-3" d="M1034.58,466.05h71s6,5,0,5h-75s-4-5,0-5Z" transform="translate(-746.47 -397.08)"/><path class="cls-3" d="M1052.58,491.05h47s3,3,0,3h-45s-3,0-4-1S1052.58,491.05,1052.58,491.05Z" transform="translate(-746.47 -397.08)"/><path class="cls-3" d="M1052.58,498.05h47s3,3,0,3h-45s-3,0-4-1S1052.58,498.05,1052.58,498.05Z" transform="translate(-746.47 -397.08)"/><path class="cls-8" d="M992.36,545.2c4.63,3.89,11.24,3.67,17,3.65,34.1-.1,68.13-.8,102.21-.8,4.56,0,8.22-4.67,9.36-8.64,2.18-7.61.64-17.65.64-25.65V448.05c0-3.08-3-5.4-5.36-6.73a9.78,9.78,0,0,0-4.87-1.27H995.89a9.62,9.62,0,0,0-8,4.06,7,7,0,0,0-1.3,3.94c0,26.31-.33,52.63-.33,78.94,0,6.46.8,13.73,6.08,18.18Z" transform="translate(-746.47 -397.08)"/><circle class="cls-3" cx="265.61" cy="71.47" r="10"/><path class="cls-9" d="M1114.58,615.05" transform="translate(-746.47 -397.08)"/><path class="cls-10" d="M940.54,534.74l-.49-.21a93.6,93.6,0,0,0-10,10.39c-2.57,3.08-5.21,6.58-8.07,10.72-1.11,1.62-2.28,3.36-3.66,5.46-.09.15-.3.42-.57.78-.56.73-2.26,3-2.24,3.51.07.1,9,16.92,13.88,21.8l15.49,15.49-.62.31s-.87.45-2.23,1.24c2.58,2.48,15.11,14.49,21.3,18.91a95,95,0,0,0,10.93,7l.13.09.69.68c17.09,1.59,32.49,4.69,38.16,10.46a7.27,7.27,0,0,1,2.3,6.29,39.89,39.89,0,0,1-4,13.43h.5c.18,0,20.77-1.12,26.56-11.74l.37-1.12-.23-.23a27.89,27.89,0,0,1-8.09-7.1c-3.63-4.54-11-18.14-12.48-21l-.38.29-5.12,3.81c-1,.75-2,1.49-3,2.21l-.82.59c-2.41,1.77-5.58,4.09-8.63,4.09a5.13,5.13,0,0,1-1.5-.21,8.39,8.39,0,0,1-3.06-1.88c-12.18-10.43-19.55-25.33-25.7-39.87-2.45-5.78-5-12.18-7.8-19.54-.34-.89-.67-1.79-1-2.69l-2.65,7.08c-3,8-16.51,24.45-17.08,25.14l-.78-.63c.14-.17,14-17,16.92-24.86l1.95-5.2-8.82-8.26.68-.73,8.52,8,.67-1.78.13,0c-.76-2-1.52-4-2.27-6.08-.36-1-.77-1.94-1.2-3a34.22,34.22,0,0,1-2.37-6.93l-.25-1.34,1.06.86a2.08,2.08,0,0,1,.58.79l.25.62-.37.15a43.19,43.19,0,0,0,2,5.47c.42,1,.85,2,1.21,3q1.86,5,3.74,10c2.8,7.35,5.35,13.73,7.79,19.5,5.82,13.76,12.74,27.82,23.79,38a69.71,69.71,0,0,1,13.11-10.39l6.51-3.72c-1.52-2.17-3-4.41-4.33-6.77-4.61-8.21-8-17-11.18-25.36l-1-2.74c-1.43-3.82-2.91-7.77-4.46-11.62a163,163,0,0,0-12.74-24.73c-2.93-4.76-9-13.07-17.07-15.24a18.28,18.28,0,0,0-10.77.7A39.31,39.31,0,0,0,941,533.71C940.85,534.05,940.69,534.4,940.54,534.74Z" transform="translate(-746.47 -397.08)"/><path class="cls-10" d="M893.42,623.45c1.36.59,2.79,1.29,4.27,2,4.95,2.43,10.56,5.19,15.33,4.59,3.13-.39,33.44-1.66,60.3.66A103.92,103.92,0,0,1,962.79,624c-6.43-4.59-19.56-17.21-21.61-19.19a59.81,59.81,0,0,0-13.72,11.12c-5.48,6.25-5.9,8.07-5.93,8.41l2,2L920.87,625a98.37,98.37,0,0,1-11.16-6.22,43.65,43.65,0,0,1-7.8-6.08l0-.06a9.17,9.17,0,0,1-.31,1.07C900.68,616.34,895.2,621.75,893.42,623.45Z" transform="translate(-746.47 -397.08)"/><path class="cls-10" d="M947.55,428.44c-1.29-.32-3.95,1.76-5.54,3a15.53,15.53,0,0,1-1.69,1.23,48.27,48.27,0,0,1-10,3.68l-3.09.81c-1.73.44-3.51.9-5.23,1.41l-1.31.37c-2.16.58-4.84,1.31-6.11,2.69l-1.2,1.31.35-1.75a34,34,0,0,0,.52-10.15c-.19-1.82-.68-2.88-1.53-3.34a3.43,3.43,0,0,0-2.75.14,8,8,0,0,0-4.78,6.88,16.16,16.16,0,0,0,1.28,6c.23.64.45,1.28.65,1.93,2.47,8.06,1.07,17.78-3.86,26.66-4.27,7.71-10.4,13.77-17.4,20.28a11.38,11.38,0,0,0,1.65,1c.37.19.73.38,1,.57,1.22.73,2.42,1.48,3.61,2.24,2.37,1.53,4.73,3.14,7,4.81s4.54,3.4,6.72,5.19c.88.72,1.75,1.53,2.58,2.3,1,.94,2.06,1.91,3.15,2.74,0-.29,0-.59,0-.89,0-.53,0-1.05.09-1.56.64-6.35,1.5-12.75,2.55-19a29.58,29.58,0,0,1,1.57-6.24,14.49,14.49,0,0,1,2.58-3.89l.84-1q-.51-.25-1-.54c-2.87-1.71-5.91-4.88-5.82-8.67l1,0c-.08,3.36,2.7,6.23,5.33,7.79a34.73,34.73,0,0,0,7.27,2.87l.21.07c1.72.54,4.16.93,6-.27a9.71,9.71,0,0,0,2.67-3.1c3.72-5.85,7.57-11.89,9.6-18.63a77.49,77.49,0,0,0,2.33-13.54l.77-7c0-.42.14-.93.24-1.48.27-1.47.61-3.3.19-4.25A.89.89,0,0,0,947.55,428.44Z" transform="translate(-746.47 -397.08)"/><path class="cls-10" d="M1052.86,666.62l.07.07-.25.26.12.12,61.71-91.5-.31,0Z" transform="translate(-746.47 -397.08)"/><path class="cls-10" d="M1008.33,617a68.07,68.07,0,0,0-12.86,10.19c.3.27.59.55.89.81a7.47,7.47,0,0,0,2.68,1.68c3,.86,6.63-1.79,9.27-3.72l.83-.6c1-.72,2-1.46,3-2.2l5.13-3.82c.56-.41,1-.73,1-1s-.13-.62-.51-1.13c-.95-1.29-1.91-2.61-2.86-3.95Z" transform="translate(-746.47 -397.08)"/><path class="cls-10" d="M837.58,544.55c0-7.88,6.69-25.72,19.09-43.29,11.61-16.45,26.24-12.58,27.48-12.21h.8c7-6.53,13.18-12.58,17.43-20.24,4.79-8.64,6.17-18.07,3.77-25.88-.19-.63-.41-1.26-.63-1.89a17.12,17.12,0,0,1-1.34-6.35,9,9,0,0,1,5.39-7.76,4.23,4.23,0,0,1,3.61-.1c1.54.82,1.91,2.74,2.06,4.12a35,35,0,0,1-.3,9.1,20.21,20.21,0,0,1,5.48-2.07c.46-.12.89-.24,1.28-.36,1.75-.52,3.54-1,5.27-1.42l3.08-.8a47.18,47.18,0,0,0,9.8-3.61,15,15,0,0,0,1.55-1.13c2-1.53,4.63-3.63,6.39-3.19a1.91,1.91,0,0,1,1.27,1.14c.51,1.18.2,3.05-.08,4.61a4.16,4.16,0,0,0,3-3.83c.14-2-.83-4.05-1.79-5.76-6.48-11.43-21.34-29.49-36-24.61-8.11,2.7-16,8.37-23.38,16.84-4.44,5.08-9.74,11.81-11.29,18.8a78.76,78.76,0,0,0-1.41,13.48c-.1,2.17-.21,4.42-.4,6.63a35.94,35.94,0,0,1-5.11,16.49c-4.53,7.72-12.59,18.11-25.28,23.82a92.67,92.67,0,0,1-9.91,3.59c-2.58.83-5.26,1.69-7.82,2.71a59.16,59.16,0,0,0-19,12.3c-8.35,8.1-10.91,22.13-6.08,33.38,1.5,3.48,4.17,5.91,7.15,6.5,2.17.43,4.34-.08,6.64-.6.75-.18,1.5-.35,2.24-.49,5.45-1,8.91.95,10.27,5.82.47,1.66,2.28,5.78,4,6.07a1.1,1.1,0,0,0,1-.37,41.25,41.25,0,0,1,2.68-3.6A148.83,148.83,0,0,1,837.58,544.55Z" transform="translate(-746.47 -397.08)"/><path class="cls-10" d="M1054.4,653.73l-1.54-.74-12.48-5.75-.23.67.28.28-.56.57-.32,1c-6.1,11.2-26.58,12.3-27.45,12.34H1011a22.21,22.21,0,0,1-3.29,4.21c6.66-.23,36.56-1.21,38.36-1.21a13,13,0,0,1,4.4.6l-2.55-2.54Z" transform="translate(-746.47 -397.08)"/><path class="cls-10" d="M1054.74,671.45a5.07,5.07,0,0,1-.37,3.27,3.26,3.26,0,0,1-1.62,1.33h4.33c.17,0,17,0,26.81-4,2.91-1.16,4.47-2.42,4.52-3.63.09-2.14-4.23-4.3-6.55-5.46-3.5-1.74-11.82-3.53-13.56-3.89L1057,675.49Z" transform="translate(-746.47 -397.08)"/><path class="cls-10" d="M1047.77,676.21a8.75,8.75,0,0,0,1.19-.15l1-.23c1.85-.44,3.07-.74,3.58-1.62.4-.68.43-1.82.08-3.57-.92-4.59-5.54-4.59-7.51-4.59s-37.33,1.17-39.47,1.24c-5.28,4.57-12.86,6.83-23.23,9.45,13.79,0,55.87.13,64.28-.52h.11Z" transform="translate(-746.47 -397.08)"/><path class="cls-10" d="M1115.44,575.91l-61.77,91.66,3.45,6,65.31-95C1120.92,577.22,1117.48,574.68,1115.44,575.91Z" transform="translate(-746.47 -397.08)"/><path class="cls-10" d="M865,623.05c7.49-1.07,18.31-2,24.15-1a16.8,16.8,0,0,1,3.25,1c1.22-1.16,7.34-7.07,8.2-9.64a7.29,7.29,0,0,0,.41-1.7,38.53,38.53,0,0,1-4.51-7.57c-.34-.69-.68-1.37-1-2a162.28,162.28,0,0,1-11.43-27.37c-.77-2.54-1.45-5.21-2.11-7.8-1.58-6.21-3.21-12.62-6.31-18.13l.88-.49c3.16,5.62,4.8,12.1,6.4,18.37.65,2.58,1.33,5.24,2.09,7.76a161.93,161.93,0,0,0,11.36,27.2c.35.67.69,1.35,1,2a41.22,41.22,0,0,0,4,6.83.67.67,0,0,1,.35.17.94.94,0,0,1,.29.63c.21.24.41.48.63.7a42.77,42.77,0,0,0,7.62,5.94,99,99,0,0,0,10.37,5.83c.55-1.92,3.45-5.54,6.08-8.55,6-6.85,14.26-11.57,16.55-12.8l-4.85-4.84-.12.27c-3.07-1.45-15.62,13.34-22.8,23l-.8-.6c1.83-2.46,17.06-22.73,23-23.44l-8.91-8.91c-5-5-13.72-21.41-14.09-22.11s.46-2,2.35-4.52c.25-.33.45-.58.54-.72,1.38-2.11,2.55-3.85,3.67-5.48,2.87-4.16,5.53-7.69,8.12-10.79a92.14,92.14,0,0,1,10.87-11.19c.17-.35.32-.7.49-1.05a26.5,26.5,0,0,0,2.3-6.18c.86-4.57-.2-10-3-15.21a68.88,68.88,0,0,0-6.13-9.09,76.24,76.24,0,0,1-5.78-8.41,38.06,38.06,0,0,1-4.51-14.55v-1.05h.25a37.2,37.2,0,0,1-3.61-1.36c-.33.43-.66.83-1,1.23a14,14,0,0,0-2.42,3.63,27.75,27.75,0,0,0-1.51,6c-1,6.27-1.9,12.65-2.55,19,0,.49-.06,1-.08,1.49s0,1.24-.13,1.85h0l1,2.94c.61.95,8,12.94,6.05,30.27a95.1,95.1,0,0,1-9.06,31.18l-.88-.47a93.94,93.94,0,0,0,8.94-30.82c2-17.61-5.84-29.55-5.92-29.67l0-.11-1-3,.07,0a37.79,37.79,0,0,1-3.87-3.29c-.83-.76-1.69-1.55-2.54-2.26-2.17-1.77-4.41-3.51-6.68-5.16s-4.62-3.25-7-4.76c-1.18-.77-2.38-1.51-3.58-2.24-.31-.18-.65-.35-1-.53a9.26,9.26,0,0,1-2.18-1.4l-1,0c-.14,0-14.8-4.66-26.43,11.82-11.84,16.76-18.91,34.88-18.91,42.71a147.4,147.4,0,0,0,1,15.93l0,.22-.14.17a38.82,38.82,0,0,0-2.38,3.14l.06,0a5.14,5.14,0,0,1-.45.54c-1.39,2.12-2.57,4.49-2.14,5.79,1.06,3.17-2.87,10.11-3,10.41-1.42,2.14-2.53,23.74-2.93,37.75,0,1.15,3.26,3.3,5.63,4.5C836,623.12,858.37,624,865,623.05Zm14.57-99.53c0,.2,1.06,19.94,6.9,27.73l6,8-.8.6-6-8c-6-8-7.06-27.46-7.1-28.28Z" transform="translate(-746.47 -397.08)"/><path class="cls-10" d="M1014.58,647.48a6.21,6.21,0,0,0-2-5.45c-13.93-14.17-90.28-12.13-99.43-11-5.06.64-10.82-2.19-15.89-4.68-3.09-1.51-6-3-8.25-3.32-5.74-1-16.43-.06-23.85,1-7,1-30.11.05-31.09,0l-.2-.06a25.3,25.3,0,0,1-2.28-1.26v1.82c0,2.32,3.67,26.46,16.85,39.64,8.32,8.32,22.81,9.15,34.45,9.81,6.19.35,11.53.66,14.42,2.1,8.19,4.09,65.24,4.82,84.66,0C1002.48,670.93,1011.68,667.81,1014.58,647.48Z" transform="translate(-746.47 -397.08)"/><path class="cls-11" d="M1011.58,661.05h.5s1-.06,2.62-.25l-1.26-4A28.63,28.63,0,0,1,1011.58,661.05Z" transform="translate(-746.47 -397.08)"/><path class="cls-12" d="M898.16,494.86c-1.19-.76-2.39-1.51-3.61-2.24-.32-.19-.68-.38-1-.57a11.38,11.38,0,0,1-1.65-1c7-6.51,13.13-12.57,17.4-20.28,4.93-8.88,6.33-18.6,3.86-26.66-.2-.65-.42-1.29-.65-1.93a16.16,16.16,0,0,1-1.28-6,8,8,0,0,1,3-5.79c-.23-1.45-.7-2.33-1.45-2.73a3.43,3.43,0,0,0-2.75.14,8,8,0,0,0-4.78,6.88,16.16,16.16,0,0,0,1.28,6c.23.64.45,1.28.65,1.93,2.47,8.06,1.07,17.78-3.86,26.66-4.27,7.71-10.4,13.77-17.4,20.28a11.38,11.38,0,0,0,1.65,1c.37.19.73.38,1,.57,1.22.73,2.42,1.48,3.61,2.24,2.37,1.53,4.73,3.14,7,4.81s4.54,3.4,6.72,5.19c.88.72,1.75,1.53,2.58,2.3,1,.94,2.06,1.91,3.15,2.74,0-.29,0-.59,0-.89,0-.53,0-1.05.09-1.56l.12-1.11c-2.17-1.78-4.42-3.52-6.7-5.17S900.53,496.39,898.16,494.86Z" transform="translate(-746.47 -397.08)"/><path class="cls-12" d="M919.37,444.45l1.2-1.31c1.27-1.38,3.95-2.11,6.11-2.69l1.31-.37c1.72-.51,3.5-1,5.23-1.41l3.09-.81a48.27,48.27,0,0,0,10-3.68A15.53,15.53,0,0,0,948,433c.26-1.41.52-3.05.13-3.94a.89.89,0,0,0-.59-.57c-1.29-.32-3.95,1.76-5.54,3a15.53,15.53,0,0,1-1.69,1.23,48.27,48.27,0,0,1-10,3.68l-3.09.81c-1.73.44-3.51.9-5.23,1.41l-1.31.37-.45.12c-.12,1.2-.27,2.41-.51,3.63Z" transform="translate(-746.47 -397.08)"/><path class="cls-4" d="M919.49,468.06l-1,0c-.08,3.71,2.83,6.83,5.65,8.56.66.22,1.31.42,2,.62l.21.07a10.83,10.83,0,0,0,3,.52,25.37,25.37,0,0,1-4.45-2C922.19,474.29,919.41,471.42,919.49,468.06Z" transform="translate(-746.47 -397.08)"/><path class="cls-12" d="M933.46,617.38A56.28,56.28,0,0,1,944.52,608c-1.62-1.53-2.83-2.7-3.34-3.19a59.81,59.81,0,0,0-13.72,11.12c-5.12,5.85-5.83,7.82-5.92,8.33l11.6,5.16h0l2.62,0-8.21-3.65C927.63,625.2,928.34,623.23,933.46,617.38Z" transform="translate(-746.47 -397.08)"/><path class="cls-12" d="M1018.1,663.55c.19,0,1.27-.07,2.91-.26l0,.08.48-.15h0c6.27-.79,19.36-3.44,24-12l.32-1,.33-.34-5.82-2.68-.23.67.28.28-.56.57-.32,1c-4.67,8.57-17.76,11.22-24,12h0l-.48.15,0-.08c-1.64.19-2.72.25-2.91.26H1011a22.21,22.21,0,0,1-3.29,4.21l7.57-.25a23.38,23.38,0,0,0,1.72-2.46Z" transform="translate(-746.47 -397.08)"/><path class="cls-12" d="M1015.58,647.62a53.89,53.89,0,0,1-1.6,7.54l1.73,5.51c6.21-.84,18.63-3.48,22.93-11.36l.37-1.12-.23-.23a20,20,0,0,1-2.28-1.47c-4.44,7-12.47,8.25-18.42,9.06l-.1.11a53.89,53.89,0,0,0,1.6-7.54,7.27,7.27,0,0,0-2.3-6.29c-2-2.09-5.39-3.83-9.62-5.27l-2.16-4.79-.35-.52c2.77-.38,5.57-2.41,7.75-4l.82-.59c1-.72,2-1.46,3-2.21l2.84-2.11c-.6-1.1-1.06-2-1.34-2.49l-.38.29-5.12,3.81c-1,.75-2,1.49-3,2.21l-.82.59c-2.18,1.6-5,3.63-7.75,4l.35.52,2.16,4.79c4.23,1.44,7.57,3.18,9.62,5.27A7.27,7.27,0,0,1,1015.58,647.62Z" transform="translate(-746.47 -397.08)"/><path class="cls-12" d="M1060.38,674l9.93-14.45-2-.44L1057,675.49l-2.3-4a5.07,5.07,0,0,1-.37,3.27,3.26,3.26,0,0,1-1.62,1.33h4.33c.17,0,17,0,26.81-4a16.17,16.17,0,0,0,2.31-1.11c-9.9,3.53-25.62,3.58-25.79,3.58Z" transform="translate(-746.47 -397.08)"/><path class="cls-4" d="M924.46,478.29l.84-1q-.51-.25-1-.54l-.17-.11c-2.82-1.73-5.73-4.85-5.65-8.56l1,0c-.08,3.36,2.7,6.23,5.33,7.79a25.37,25.37,0,0,0,4.45,2c1,.33,1.91.63,2.82.91l.21.07c1.72.54,4.16.93,6-.27a9.71,9.71,0,0,0,2.67-3.1c3.72-5.85,7.57-11.89,9.6-18.63a77.49,77.49,0,0,0,2.33-13.54l.77-7c0-.42.14-.93.24-1.48.27-1.47.61-3.3.19-4.25a.89.89,0,0,0-.59-.57c-1.29-.32-3.95,1.76-5.54,3h0a15.53,15.53,0,0,1-1.69,1.23,48.27,48.27,0,0,1-10,3.68l-3.09.81c-1.73.44-3.51.9-5.23,1.41l-1.31.37c-2.16.58-4.84,1.31-6.11,2.69l-1.2,1.31.35-1.75c.24-1.22.39-2.43.51-3.63a33,33,0,0,0,0-6.52c-.19-1.82-.68-2.88-1.53-3.34a3.43,3.43,0,0,0-2.75.14,7.52,7.52,0,0,0-1.8,1.09,8,8,0,0,0-3,5.79,16.16,16.16,0,0,0,1.28,6c.23.64.45,1.28.65,1.93,2.47,8.06,1.07,17.78-3.86,26.66-4.27,7.71-10.4,13.77-17.4,20.28a11.38,11.38,0,0,0,1.65,1c.37.19.73.38,1,.57,1.22.73,2.42,1.48,3.61,2.24,2.37,1.53,4.73,3.14,7,4.81s4.53,3.39,6.7,5.17l0,0c.88.72,1.75,1.53,2.58,2.3,1,.94,2.06,1.91,3.15,2.74,0-.29,0-.59,0-.89,0-.53,0-1.05.09-1.56.64-6.35,1.5-12.75,2.55-19a29.58,29.58,0,0,1,1.57-6.24A14.49,14.49,0,0,1,924.46,478.29Z" transform="translate(-746.47 -397.08)"/><path class="cls-4" d="M947.18,606.26c-.78.47-1.69,1-2.66,1.69a56.28,56.28,0,0,0-11.06,9.43c-5.12,5.85-5.83,7.82-5.92,8.33l8.21,3.65,3.39,1.51h0c11.5-.11,26.3.13,40.19,1.33a103.92,103.92,0,0,1-10.53-6.76C962.36,620.86,949.23,608.24,947.18,606.26Z" transform="translate(-746.47 -397.08)"/><path class="cls-4" d="M1053.08,665.55l.85-.94,6.47-9.38-1.54-.74-12.48-5.75-.23.67.28.28-.23.23-.33.34-.32,1c-4.67,8.57-17.76,11.22-24,12h0l-.48.15,0-.08c-1.64.19-2.72.25-2.91.26H1017a23.38,23.38,0,0,1-1.72,2.46c-.5.61-1,1.2-1.57,1.75,6.66-.23,36.56-1.21,38.36-1.21C1053.05,666.55,1051.4,665,1053.08,665.55Z" transform="translate(-746.47 -397.08)"/><path class="cls-4" d="M1013.72,626.65l-.82.59c-2.18,1.6-5,3.63-7.75,4l.35.52,2.16,4.79c4.23,1.44,7.57,3.18,9.62,5.27a7.27,7.27,0,0,1,2.3,6.29,53.89,53.89,0,0,1-1.6,7.54l.1-.11c5.95-.81,14-2,18.42-9.06.2-.31.4-.61.58-.94v-1l0,0a27.63,27.63,0,0,0-2.36-3.17c-3.63-4.54-11-18.14-12.48-21l-.38.29-2.28,1.7-2.84,2.11C1015.72,625.19,1014.72,625.93,1013.72,626.65Z" transform="translate(-746.47 -397.08)"/><path class="cls-4" d="M1085.19,661.49c-3.5-1.75-11.82-3.53-13.55-3.89l-1.33,1.94L1060.38,674l0,.56c.17,0,15.89,0,25.79-3.58.35-.13.7-.25,1-.39,2.9-1.16,4.46-2.42,4.51-3.64C1091.83,664.81,1087.51,662.65,1085.19,661.49Z" transform="translate(-746.47 -397.08)"/><path class="cls-11" d="M1052.86,666.62l.07.07-.25.26.12.12,61.71-91.5-.31,0Z" transform="translate(-746.47 -397.08)"/><path class="cls-13" d="M891.68,559.85l.8-.6-6-8c-5.84-7.79-6.89-27.53-6.9-27.73l-1,.05c0,.82,1.08,20.25,7.1,28.28Z" transform="translate(-746.47 -397.08)"/><path class="cls-13" d="M1123.73,578.49l-.3-.3c-.21-.21-5.32-5.26-8.63-3.06l-.16.25,0,.16-.15,0-61.71,91.5-.12-.12-.45.45-1.75-1.75a13,13,0,0,0-4.4-.6c-1.8,0-31.7,1-38.36,1.21a22.21,22.21,0,0,0,3.29-4.21h1.09c.19,0,1.27-.07,2.91-.26l0,.08.48-.15h0c6.27-.79,19.36-3.44,24-12l.32-1,.56-.57-.28-.28.23-.67,12.48,5.75,1.54.74.57-.83-15.19-7-.42,1.28-.06,0a27.09,27.09,0,0,1-7.83-6.87c-3.65-4.56-11.38-19-12.51-21.1a1.51,1.51,0,0,0,.32-.69,2.58,2.58,0,0,0-.69-1.87,112.06,112.06,0,0,1-7.71-11.44c-4.57-8.14-8-16.93-11.11-25.22l-1-2.74c-1.43-3.82-2.91-7.78-4.46-11.64a164.1,164.1,0,0,0-12.82-24.88c-3-4.89-9.29-13.43-17.66-15.68a19.09,19.09,0,0,0-11.37.71,38.37,38.37,0,0,0-10.48,6,23.8,23.8,0,0,0,2-5.63c.9-4.79-.2-10.43-3.08-15.86a71.18,71.18,0,0,0-6.22-9.22,74.39,74.39,0,0,1-5.71-8.3,37.09,37.09,0,0,1-4.38-14.11v-.75l1.21.38.21.07c1.92.6,4.67,1,6.88-.38a10.45,10.45,0,0,0,3-3.41c3.76-5.91,7.65-12,9.71-18.88a76.38,76.38,0,0,0,2.37-13.72l.78-7c0-.18,0-.38.08-.59,2.41-.17,4.05-2.58,4.21-4.8s-.89-4.49-1.92-6.32c-6.63-11.7-21.92-30.15-37.16-25.07-8.28,2.76-16.29,8.53-23.81,17.13-4.52,5.17-9.92,12-11.52,19.24a80.27,80.27,0,0,0-1.43,13.65c-.1,2.17-.21,4.4-.4,6.59a34.72,34.72,0,0,1-5,16.08c-4.46,7.59-12.38,17.81-24.83,23.41a95.74,95.74,0,0,1-9.8,3.55c-2.61.83-5.3,1.7-7.89,2.73A60,60,0,0,0,810,513c-8.65,8.38-11.3,22.88-6.3,34.49,1.62,3.78,4.56,6.43,7.87,7.09a16.84,16.84,0,0,0,7.05-.61c.74-.17,1.47-.34,2.21-.48,4.92-.9,7.9.76,9.12,5.11,0,.06,1.94,6.29,4.76,6.79a2,2,0,0,0,.34,0c-1.09,1.91-1.89,3.94-1.42,5.33.76,2.28-1.88,7.7-3,9.56-2,3-3,34.67-3.08,38.26l.5,0h-.5c0,1.16,1.47,2.47,3,3.53v2.47c0,2.36,3.73,26.94,17.15,40.35,8.59,8.59,23.28,9.43,35.09,10.1,6.08.34,11.33.64,14,2,4.33,2.17,22.1,3.42,40.88,3.42,15.36,0,31.37-.84,41.25-2.69h0c1,0,11.13,0,23.36,0,17.44,0,39.22-.1,45.36-.56h0l3.37-.16h6c.17,0,17.21,0,27.19-4,3.38-1.35,5.07-2.83,5.14-4.52.11-2.78-4.23-5-7.11-6.39-3.43-1.72-11-3.39-13.38-3.89l54.57-79.38Zm-111.65,82.56h-.5a28.63,28.63,0,0,0,1.86-4.25l1.26,4C1013.11,661,1012.12,661.05,1012.08,661.05Zm18.61-20.19a27.89,27.89,0,0,0,8.09,7.1l.23.23-.37,1.12c-4.3,7.88-16.72,10.52-22.93,11.36l-1.73-5.51a53.89,53.89,0,0,0,1.6-7.54,7.27,7.27,0,0,0-2.3-6.29c-2-2.09-5.39-3.83-9.62-5.27l-2.16-4.79-.35-.52c2.77-.38,5.57-2.41,7.75-4l.82-.59c1-.72,2-1.46,3-2.21l5.12-3.81.38-.29C1019.74,622.72,1027.06,636.32,1030.69,640.86Zm-12.91-23.7c.38.51.55.89.51,1.13s-.49.62-1,1l-5.13,3.82c-1,.74-2,1.48-3,2.2l-.83.6c-2.64,1.93-6.26,4.58-9.27,3.72a7.47,7.47,0,0,1-2.68-1.68c-.3-.26-.59-.54-.89-.81A68.07,68.07,0,0,1,1008.33,617l6.59-3.77C1015.87,614.55,1016.83,615.87,1017.78,617.16Zm-65-90.53a18.28,18.28,0,0,1,10.77-.7c8,2.17,14.14,10.48,17.07,15.24a163,163,0,0,1,12.74,24.73c1.55,3.85,3,7.8,4.46,11.62l1,2.74c3.13,8.33,6.57,17.15,11.18,25.36,1.33,2.36,2.81,4.6,4.33,6.77l-6.51,3.72a69.71,69.71,0,0,0-13.11,10.39c-11.05-10.2-18-24.26-23.79-38-2.44-5.77-5-12.15-7.79-19.5q-1.89-5-3.74-10c-.36-1-.79-2-1.21-3a43.19,43.19,0,0,1-2-5.47l.37-.15-.25-.62a2.08,2.08,0,0,0-.58-.79l-1.06-.86.25,1.34a34.22,34.22,0,0,0,2.37,6.93c.43,1,.84,2,1.2,3,.75,2,1.51,4,2.27,6.08l-.13,0-.67,1.78-8.52-8-.68.73,8.82,8.26-1.95,5.2c-2.93,7.83-16.78,24.69-16.92,24.86l.78.63c.57-.69,14.08-17.15,17.08-25.14l2.65-7.08c.34.9.67,1.8,1,2.69,2.8,7.36,5.35,13.76,7.8,19.54,6.15,14.54,13.52,29.44,25.7,39.87a8.39,8.39,0,0,0,3.06,1.88,5.49,5.49,0,0,0,1.39.2l-.11.07.57.86,1.75,3.88c-7.3-2.3-17-3.8-27.25-4.76l-.69-.68-.13-.09a95,95,0,0,1-10.93-7c-6.19-4.42-18.72-16.43-21.3-18.91,1.36-.79,2.21-1.22,2.23-1.24l.62-.31-15.49-15.49c-4.88-4.88-13.81-21.7-13.88-21.8,0-.54,1.68-2.78,2.24-3.51.27-.36.48-.63.57-.78,1.38-2.1,2.55-3.84,3.66-5.46,2.86-4.14,5.5-7.64,8.07-10.72a93.6,93.6,0,0,1,10-10.39l.49.21c.15-.34.31-.69.47-1A39.31,39.31,0,0,1,952.77,526.63Zm-55.08,98.83c-1.48-.72-2.91-1.42-4.27-2,1.78-1.7,7.26-7.11,8.13-9.74a9.17,9.17,0,0,0,.31-1.07l0,.06a43.65,43.65,0,0,0,7.8,6.08c2.42,1.57,4.95,3,7.54,4.4l-5.85,7C907,630,902.09,627.62,897.69,625.46Zm20.47-1.81c.89.46,1.8.91,2.71,1.35h0l2.6,1.24-.15-.15,7.41,3.3c-9.51.13-16.34.48-17.73.65l-.26,0Zm3.38.56c.09-.51.8-2.48,5.92-8.33a59.81,59.81,0,0,1,13.72-11.12c2.05,2,15.18,14.6,21.61,19.19a103.92,103.92,0,0,0,10.53,6.76c-13.89-1.2-28.69-1.44-40.19-1.33h0Zm26.41-191c-.1.55-.19,1.06-.24,1.48l-.77,7a77.49,77.49,0,0,1-2.33,13.54c-2,6.74-5.88,12.78-9.6,18.63a9.71,9.71,0,0,1-2.67,3.1c-1.88,1.2-4.32.81-6,.27l-.21-.07a34.73,34.73,0,0,1-7.27-2.87c-2.63-1.56-5.41-4.43-5.33-7.79l-1,0c-.09,3.79,3,7,5.82,8.67q.48.29,1,.54l-.84,1a14.49,14.49,0,0,0-2.58,3.89,29.58,29.58,0,0,0-1.57,6.24c-1,6.28-1.91,12.68-2.55,19,0,.51-.07,1-.09,1.56,0,.3,0,.6,0,.89-1.09-.83-2.13-1.8-3.15-2.74-.83-.77-1.7-1.58-2.58-2.3-2.18-1.79-4.44-3.53-6.72-5.19s-4.65-3.28-7-4.81c-1.19-.76-2.39-1.51-3.61-2.24-.32-.19-.68-.38-1-.57a11.38,11.38,0,0,1-1.65-1c7-6.51,13.13-12.57,17.4-20.28,4.93-8.88,6.33-18.6,3.86-26.66-.2-.65-.42-1.29-.65-1.93a16.16,16.16,0,0,1-1.28-6,8,8,0,0,1,4.78-6.88,3.43,3.43,0,0,1,2.75-.14c.85.46,1.34,1.52,1.53,3.34a34,34,0,0,1-.52,10.15l-.35,1.75,1.2-1.31c1.27-1.38,3.95-2.11,6.11-2.69l1.31-.37c1.72-.51,3.5-1,5.23-1.41l3.09-.81a48.27,48.27,0,0,0,10-3.68,15.53,15.53,0,0,0,1.69-1.23c1.59-1.25,4.25-3.33,5.54-3a.89.89,0,0,1,.59.57C948.56,430,948.22,431.79,948,433.26ZM834.86,564.36c-1.69-.29-3.5-4.41-4-6.07-1.36-4.87-4.82-6.83-10.27-5.82-.74.14-1.49.31-2.24.49-2.3.52-4.47,1-6.64.6-3-.59-5.65-3-7.15-6.5-4.83-11.25-2.27-25.28,6.08-33.38a59.16,59.16,0,0,1,19-12.3c2.56-1,5.24-1.88,7.82-2.71a92.67,92.67,0,0,0,9.91-3.59c12.69-5.71,20.75-16.1,25.28-23.82a35.94,35.94,0,0,0,5.11-16.49c.19-2.21.3-4.46.4-6.63a78.76,78.76,0,0,1,1.41-13.48c1.55-7,6.85-13.72,11.29-18.8,7.41-8.47,15.27-14.14,23.38-16.84,14.63-4.88,29.49,13.18,36,24.61,1,1.71,1.93,3.73,1.79,5.76a4.16,4.16,0,0,1-3,3.83c.28-1.56.59-3.43.08-4.61a1.91,1.91,0,0,0-1.27-1.14c-1.76-.44-4.44,1.66-6.39,3.19a15,15,0,0,1-1.55,1.13,47.18,47.18,0,0,1-9.8,3.61l-3.08.8c-1.73.44-3.52.9-5.27,1.42-.39.12-.82.24-1.28.36a20.21,20.21,0,0,0-5.48,2.07,35,35,0,0,0,.3-9.1c-.15-1.38-.52-3.3-2.06-4.12a4.23,4.23,0,0,0-3.61.1,9,9,0,0,0-5.39,7.76,17.12,17.12,0,0,0,1.34,6.35c.22.63.44,1.26.63,1.89,2.4,7.81,1,17.24-3.77,25.88-4.25,7.66-10.41,13.71-17.43,20.24h-.8c-1.24-.37-15.87-4.24-27.48,12.21-12.4,17.57-19.09,35.41-19.09,43.29a148.83,148.83,0,0,0,1,15.84,41.25,41.25,0,0,0-2.68,3.6A1.1,1.1,0,0,1,834.86,564.36Zm-6.28,54.19c.4-14,1.51-35.61,2.93-37.75.17-.3,4.1-7.24,3-10.41-.43-1.3.75-3.67,2.14-5.79a5.14,5.14,0,0,0,.45-.54l-.06,0a38.82,38.82,0,0,1,2.38-3.14l.14-.17,0-.22a147.4,147.4,0,0,1-1-15.93c0-7.83,7.07-25.95,18.91-42.71C869.12,485.36,883.78,490,883.92,490l1,0a9.26,9.26,0,0,0,2.18,1.4c.34.18.68.35,1,.53,1.2.73,2.4,1.47,3.58,2.24,2.35,1.51,4.7,3.11,7,4.76s4.51,3.39,6.68,5.16c.85.71,1.71,1.5,2.54,2.26a37.79,37.79,0,0,0,3.87,3.29l-.07,0,1,3,0,.11c.08.12,7.88,12.06,5.92,29.67a93.94,93.94,0,0,1-8.94,30.82l.88.47a95.1,95.1,0,0,0,9.06-31.18c1.92-17.33-5.44-29.32-6.05-30.27l-1-2.94h0c.08-.61.1-1.24.13-1.85s0-1,.08-1.49c.65-6.32,1.5-12.7,2.55-19a27.75,27.75,0,0,1,1.51-6,14,14,0,0,1,2.42-3.63c.33-.4.66-.8,1-1.23a37.2,37.2,0,0,0,3.61,1.36h-.25v1.05a38.06,38.06,0,0,0,4.51,14.55,76.24,76.24,0,0,0,5.78,8.41,68.88,68.88,0,0,1,6.13,9.09c2.78,5.23,3.84,10.64,3,15.21a26.5,26.5,0,0,1-2.3,6.18c-.17.35-.32.7-.49,1.05a92.14,92.14,0,0,0-10.87,11.19c-2.59,3.1-5.25,6.63-8.12,10.79-1.12,1.63-2.29,3.37-3.67,5.48-.09.14-.29.39-.54.72-1.89,2.49-2.73,3.8-2.35,4.52s9.1,17.13,14.09,22.11l8.91,8.91c-5.9.71-21.13,21-23,23.44l.8.6c7.18-9.66,19.73-24.45,22.8-23l.12-.27,4.85,4.84c-2.29,1.23-10.56,6-16.55,12.8-2.63,3-5.53,6.63-6.08,8.55-.76-.37-1.52-.75-2.27-1.14l-.37-.32-.08.09c-2.63-1.38-5.19-2.87-7.65-4.46a42.77,42.77,0,0,1-7.62-5.94c-.22-.22-.42-.46-.63-.7a.94.94,0,0,0-.29-.63.67.67,0,0,0-.35-.17,41.22,41.22,0,0,1-4-6.83c-.34-.69-.68-1.37-1-2A161.93,161.93,0,0,1,885,574.43c-.76-2.52-1.44-5.18-2.09-7.76-1.6-6.27-3.24-12.75-6.4-18.37l-.88.49c3.1,5.51,4.73,11.92,6.31,18.13.66,2.59,1.34,5.26,2.11,7.8a162.28,162.28,0,0,0,11.43,27.37c.34.66.68,1.34,1,2a38.53,38.53,0,0,0,4.51,7.57,7.29,7.29,0,0,1-.41,1.7c-.86,2.57-7,8.48-8.2,9.64a16.8,16.8,0,0,0-3.25-1c-5.84-1-16.66-.07-24.15,1-6.64,1-29,.07-30.8,0C831.84,621.85,828.58,619.7,828.58,618.55ZM897.3,676.1c-2.89-1.44-8.23-1.75-14.42-2.1-11.64-.66-26.13-1.49-34.45-9.81-13.18-13.18-16.85-37.32-16.85-39.64v-1.82a25.3,25.3,0,0,0,2.28,1.26l.2.06c1,0,24.13,1,31.09,0,7.42-1.06,18.11-2,23.85-1,2.24.37,5.16,1.81,8.25,3.32,4.44,2.18,9.4,4.62,14,4.77l.39.32.27-.33a8.93,8.93,0,0,0,1.27-.08c2.47-.31,9.83-.68,19.53-.78l.06,0v0c26.28-.28,69.67,1.43,79.83,11.77a6.21,6.21,0,0,1,2,5.45,53.29,53.29,0,0,1-1.39,6.85h0l-.48.15.22.7c-4.11,13.55-13.38,16.48-31,20.88C962.54,680.92,905.49,680.19,897.3,676.1Zm152.63-.27-1,.23a8.75,8.75,0,0,1-1.19.15h-.11c-8.41.65-50.49.56-64.28.52,10.37-2.62,18-4.88,23.23-9.45,2.14-.07,37.55-1.24,39.47-1.24s6.59,0,7.51,4.59c.35,1.75.32,2.89-.08,3.57C1053,675.09,1051.78,675.39,1049.93,675.83ZM1081.86,663c2.32,1.16,6.64,3.32,6.55,5.46-.05,1.21-1.61,2.47-4.52,3.63-9.79,3.92-26.64,4-26.81,4h-4.33a3.26,3.26,0,0,0,1.62-1.33,5.07,5.07,0,0,0,.37-3.27l2.3,4,11.26-16.39C1070,659.46,1078.36,661.25,1081.86,663Zm-24.74,10.62-3.45-6,61.77-91.66c2-1.23,5.48,1.31,7,2.7Z" transform="translate(-746.47 -397.08)"/><line class="cls-14" x1="266.73" y1="257.25" x2="266.72" y2="257.25"/><line class="cls-14" x1="269.05" y1="264.64" x2="269.05" y2="264.64"/><line class="cls-14" x1="269.05" y1="264.64" x2="269.05" y2="264.64"/><path class="cls-15" d="M879.82,555.83" transform="translate(-746.47 -397.08)"/><path class="cls-15" d="M937.29,630.05" transform="translate(-746.47 -397.08)"/><path class="cls-15" d="M956.08,550.55" transform="translate(-746.47 -397.08)"/><path class="cls-15" d="M926.45,489.81" transform="translate(-746.47 -397.08)"/><path class="cls-3" d="M1114.08,575.55c-11,3-11,2-11,2l-58.85,84.17,5.85,3.83,2.15,1.85" transform="translate(-746.47 -397.08)"/><path class="cls-15" d="M995.08,628.55s17-11,20-11h3l-17,13h-2" transform="translate(-746.47 -397.08)"/><path class="cls-15" d="M951.9,614.8" transform="translate(-746.47 -397.08)"/><path class="cls-15" d="M886.08,582.55s2,20,7,28,7,3,7,3" transform="translate(-746.47 -397.08)"/><path class="cls-15" d="M914.08,486.55c-1.51,3.27-3.38,6.38-4.67,9.75s-1.33,6.59-1.33,10.25l3,2" transform="translate(-746.47 -397.08)"/><path class="cls-1" d="M942.53,411.05h195a14.63,14.63,0,0,1,8,3c4,3,3,8.53,3,8.53" transform="translate(-746.47 -397.08)"/><path class="cls-16" d="M822.57,552.23V663a13.6,13.6,0,0,0,4.94,10.67c2,1.61,10.7,3.78,14.07,3.41" transform="translate(-746.47 -397.08)"/></svg>