<svg id="Layer_1" data-name="Layer 1" xmlns="http://www.w3.org/2000/svg" viewBox="0 0 1142.46 320.55"><defs><style>.cls-1,.cls-20{fill:#fff;}.cls-2{fill:#867f77;stroke:#867f77;}.cls-10,.cls-11,.cls-12,.cls-13,.cls-14,.cls-15,.cls-16,.cls-17,.cls-19,.cls-2,.cls-20,.cls-24,.cls-3,.cls-30,.cls-31,.cls-32,.cls-33,.cls-34,.cls-35,.cls-6,.cls-7,.cls-8,.cls-9{stroke-miterlimit:10;}.cls-10,.cls-11,.cls-12,.cls-13,.cls-14,.cls-15,.cls-16,.cls-17,.cls-19,.cls-2,.cls-20,.cls-25,.cls-26,.cls-3,.cls-30,.cls-32,.cls-33,.cls-35,.cls-6,.cls-7,.cls-8,.cls-9{stroke-width:0.25px;}.cls-3{fill:#9a9a9a;stroke:#9a9a9a;}.cls-4{fill:#a8a8a8;}.cls-14,.cls-24,.cls-33,.cls-5{fill:#3f3d56;}.cls-27,.cls-30,.cls-6{fill:#c0dcf3;}.cls-19,.cls-30,.cls-6{stroke:#143068;}.cls-6{opacity:0.1;}.cls-19,.cls-21,.cls-25,.cls-26,.cls-31,.cls-32,.cls-34,.cls-7{fill:none;}.cls-10,.cls-11,.cls-12,.cls-13,.cls-14,.cls-15,.cls-16,.cls-17,.cls-20,.cls-24,.cls-25,.cls-31,.cls-35,.cls-7,.cls-8,.cls-9{stroke:#3f3d56;}.cls-8{fill:#6da0ab;}.cls-9{fill:#e8c842;}.cls-10,.cls-28{fill:#8fd182;}.cls-11,.cls-29{fill:#ca8a65;}.cls-12{fill:#d1eff2;}.cls-13{fill:#f4a671;}.cls-15{fill:#f4a0a0;}.cls-16{fill:#70595e;}.cls-17{fill:#4ab19a;}.cls-18{fill:#ff7bac;}.cls-22{fill:#143068;}.cls-23{fill:#f7dce7;}.cls-25,.cls-26{stroke-linecap:round;stroke-linejoin:round;}.cls-26,.cls-32,.cls-33,.cls-34{stroke:#fff;}.cls-35{fill:#f6f9f8;}</style></defs><title>mobi_2</title><polygon class="cls-1" points="3 204 20 204 20 0 435 0 435 203 1070.79 203 1070.79 283 0 284 0 203 3 204"/><path class="cls-1" d="M1864,576.61" transform="translate(-388 -370)"/><polygon class="cls-2" points="355 276.78 1051.94 276.19 1051.95 283.46 355.18 284.06 355 276.78"/><rect class="cls-3" x="355" y="214.38" width="696.62" height="13.35"/><path class="cls-4" d="M743,646.6V597.73h697V646.6Z" transform="translate(-388 -370)"/><polyline class="cls-5" points="188.74 202.21 188.09 191.4 160.04 191.35 121.2 192.16 85.06 202.34 84.1 202.92"/><polyline class="cls-6" points="244.23 186.36 416.59 187.55 416.59 16.52 307.12 16.52 166.44 16.52 166.44 187.28 188.07 187.28"/><polygon class="cls-7" points="1142.46 202.61 1142.46 202.61 1035.84 202.61 987.46 202.61 435.26 202.61 435.26 0.36 39.65 0.36 19.67 0.36 19.5 204.77 19.5 0.5 435.5 0.5 435.5 202.5 1142.46 202.61"/><polyline class="cls-8" points="631.5 129.59 630.48 129.54 627.16 129.7 627.16 183.9 661.16 183.9 661.16 129.59 633.1 129.59 631.5 129.59 631.5 114.99 593.17 114.99 593.17 202.61 632.41 202.61"/><polyline class="cls-8" points="702.92 202.61 702.92 108.83 661.16 108.83 651.58 108.83 651.58 129.59"/><polyline class="cls-9" points="752.21 202.61 752.21 126.85 743.88 126.85 743.88 202.61 752.21 202.61"/><polyline class="cls-9" points="537.95 202.61 537.95 131.64 526.77 131.64 526.77 202.61"/><polygon class="cls-10" points="484.32 157.88 473.37 196.9 496.19 196.9 484.32 157.88"/><polygon class="cls-10" points="464.13 160.26 453.18 199.28 476 199.28 464.13 160.26"/><polyline class="cls-11" points="537.95 202.61 537.95 114.99 577.19 114.99 577.19 202.61"/><line class="cls-7" x1="632.41" y1="183.9" x2="632.41" y2="202.61"/><path class="cls-7" d="M1049.16,572.61" transform="translate(-388 -370)"/><path class="cls-7" d="M1049.16,553.9" transform="translate(-388 -370)"/><path class="cls-7" d="M1049.16,499.59" transform="translate(-388 -370)"/><polyline class="cls-11" points="712.5 202.61 712.5 108.83 743.31 108.83 743.31 202.61"/><polyline class="cls-12" points="641.65 202.61 641.65 184.35 649.18 184.35 649.18 202.04 641.65 202.04"/><polyline class="cls-12" points="649.64 202.04 649.64 184.35 656.2 184.35 656.2 202.04"/><polyline class="cls-13" points="880.9 202.61 880.39 202.61 879.99 202.61 752.21 202.61 752.21 162.22 881.59 162.22 881.59 202.61 884.84 202.61 884.84 94.28 881.59 94.28 881.59 160.22 881.59 162.22"/><polyline class="cls-13" points="979.99 162.22 979.99 158.8 979.99 94.28 983.41 94.28 983.41 202.61 979.99 202.61 979.99 162.22 885.52 162.22"/><rect class="cls-14" x="836.06" y="158.68" width="45.07" height="3.08"/><rect class="cls-14" x="885.52" y="158.68" width="93.95" height="3.08"/><rect class="cls-14" x="983.84" y="158.68" width="38.16" height="4.68"/><path class="cls-7" d="M1269.59,464.28" transform="translate(-388 -370)"/><path class="cls-7" d="M1231.94,499.59" transform="translate(-388 -370)"/><path class="cls-7" d="M1272.84,464.28s47.06,65.31,95.15,0" transform="translate(-388 -370)"/><path class="cls-7" d="M1415.62,499.59" transform="translate(-388 -370)"/><path class="cls-7" d="M1371.41,464.28" transform="translate(-388 -370)"/><path class="cls-7" d="M1419.16,503" transform="translate(-388 -370)"/><path class="cls-7" d="M1371.41,464.28" transform="translate(-388 -370)"/><path class="cls-7" d="M1371.41,464.28s26.7,35.19,38.59,35.31" transform="translate(-388 -370)"/><path class="cls-7" d="M1269.59,464.28s-30.47,37.59-37.65,35.31" transform="translate(-388 -370)"/><line class="cls-7" x1="854.17" y1="123.91" x2="854.17" y2="158.68"/><line class="cls-7" x1="862.76" y1="114.99" x2="862.76" y2="158.8"/><line class="cls-7" x1="871.4" y1="106.24" x2="871.4" y2="158.68"/><line class="cls-7" x1="902.86" y1="111.93" x2="902.86" y2="158.68"/><line class="cls-7" x1="919.91" y1="120.95" x2="919.91" y2="158.68"/><line class="cls-7" x1="941.29" y1="122.63" x2="941.29" y2="158.8"/><line class="cls-7" x1="960.99" y1="113.83" x2="960.99" y2="158.68"/><line class="cls-7" x1="994.08" y1="107.26" x2="994.08" y2="158.68"/><line class="cls-7" x1="1002.92" y1="116.75" x2="1002.92" y2="158.68"/><line class="cls-7" x1="1010.82" y1="123.91" x2="1010.82" y2="158.68"/><line class="cls-7" x1="484.32" y1="187.55" x2="484.32" y2="202.61"/><polyline class="cls-7" points="480.67 191.2 484.44 194.96 488.2 191.2"/><polyline class="cls-15" points="490.26 177.39 499.38 154 510.34 193.25 500.3 193.41 495.15 193.5"/><polyline class="cls-7" points="500.3 183.9 500.3 193.41 500.3 202.61"/><polyline class="cls-7" points="503.04 186.86 500.3 189.49 498.36 187.55"/><polyline class="cls-7" points="497.56 182.87 500.3 186.86 503.04 182.87"/><line class="cls-7" x1="537.95" y1="129.59" x2="563.27" y2="129.59"/><line class="cls-7" x1="537.95" y1="140.71" x2="563.27" y2="140.71"/><line class="cls-7" x1="537.95" y1="151.95" x2="563.27" y2="151.95"/><line class="cls-7" x1="537.95" y1="162.22" x2="563.27" y2="162.22"/><line class="cls-7" x1="537.95" y1="173.75" x2="563.27" y2="173.75"/><line class="cls-7" x1="537.95" y1="184.87" x2="563.27" y2="184.87"/><line class="cls-7" x1="537.95" y1="194.96" x2="563.27" y2="194.96"/><line class="cls-7" x1="627.17" y1="139.82" x2="661.16" y2="139.82"/><line class="cls-7" x1="627.17" y1="149.9" x2="661.16" y2="149.9"/><line class="cls-7" x1="627.17" y1="160.22" x2="661.16" y2="160.22"/><line class="cls-7" x1="627.17" y1="169.41" x2="661.16" y2="169.41"/><line class="cls-7" x1="593.17" y1="129.59" x2="621.8" y2="129.59"/><line class="cls-7" x1="593.17" y1="141.3" x2="621.8" y2="141.3"/><line class="cls-7" x1="593.17" y1="154" x2="621.8" y2="154"/><line class="cls-7" x1="593.17" y1="167.12" x2="621.8" y2="167.12"/><line class="cls-7" x1="593.17" y1="178.99" x2="621.8" y2="178.99"/><line class="cls-7" x1="593.17" y1="191.2" x2="621.8" y2="191.2"/><line class="cls-7" x1="651.58" y1="120.95" x2="702.92" y2="120.95"/><line class="cls-7" x1="661.16" y1="135.31" x2="702.92" y2="135.31"/><line class="cls-7" x1="661.16" y1="151.95" x2="702.92" y2="151.95"/><polyline class="cls-7" points="661.16 167.13 678.16 167.13 702.92 167.13"/><line class="cls-7" x1="659.45" y1="183.9" x2="702.92" y2="183.9"/><line class="cls-7" x1="726.2" y1="122.06" x2="743.31" y2="122.06"/><line class="cls-7" x1="726.2" y1="129.69" x2="743.31" y2="129.69"/><line class="cls-7" x1="726.2" y1="136.89" x2="743.31" y2="136.89"/><line class="cls-7" x1="726.2" y1="145.11" x2="743.31" y2="145.11"/><line class="cls-7" x1="726.2" y1="154" x2="743.31" y2="154"/><line class="cls-7" x1="726.2" y1="162.22" x2="743.31" y2="162.22"/><line class="cls-7" x1="726.2" y1="170.89" x2="743.31" y2="170.89"/><line class="cls-7" x1="726.2" y1="178.99" x2="743.31" y2="178.99"/><line class="cls-7" x1="726.2" y1="188.23" x2="743.31" y2="188.23"/><line class="cls-7" x1="726.2" y1="195.99" x2="743.31" y2="195.99"/><polyline class="cls-7" points="702.92 202.61 656.94 202.61 656.94 184.35"/><polyline class="cls-8" points="651.58 129.59 661.16 129.59 661.16 183.9 656.94 183.9 656.94 202.04 702.92 202.04"/><polyline class="cls-7" points="661.16 167.13 678.16 167.13 680.05 167.13"/><line class="cls-7" x1="661.16" y1="151.95" x2="668.24" y2="151.95"/><line class="cls-7" x1="690.54" y1="183.9" x2="661.56" y2="183.9"/><line class="cls-7" x1="658.31" y1="139.82" x2="661.16" y2="139.82"/><rect class="cls-12" x="632.84" y="184.35" width="8.13" height="17.68"/><line class="cls-16" x1="650.04" y1="202.04" x2="655.86" y2="202.04"/><polyline class="cls-17" points="884.84 202.15 884.84 162.9 979.48 162.9 979.48 202.15"/><polyline class="cls-17" points="881.13 202.15 881.13 162.9 752.21 162.9 752.21 202.15"/><polyline class="cls-17" points="1021.85 162.9 983.41 162.9 1022.83 162.9 1022.83 202.15 983.41 202.15 983.41 162.9"/><path class="cls-18" d="M597.91,530.36a17.47,17.47,0,0,0,7.79,2.71,33,33,0,0,0,7.35.24c-1,.71-2.17,2-3.46,1.89a50.32,50.32,0,0,1-6.82-.67,18.85,18.85,0,0,1-8.25-3.74l3.3-.79" transform="translate(-388 -370)"/><polyline class="cls-18" points="227.49 194.5 234.05 212.59 232.96 212.59 226.89 197.5"/><path class="cls-18" d="M637,658.9s3.9,3.16,7.74,1.91l3.85-1.26.88-.65s-8.59,1.52-10.53,0L637,657.38Z" transform="translate(-388 -370)"/><line class="cls-14" x1="241.45" y1="252.62" x2="240.58" y2="280.45"/><path class="cls-18" d="M566.76,646.87" transform="translate(-388 -370)"/><path class="cls-18" d="M628,662.38c.36-2.83.57-4.35.57-4.35l.95,4.44s-1.73,2.7-3.58,3.43c-.46.18-1.14.45-1.63.59a5.25,5.25,0,0,1-2.07.23" transform="translate(-388 -370)"/><path class="cls-7" d="M407.67,707.72" transform="translate(-388 -370)"/><path class="cls-1" d="M407.67,636.53" transform="translate(-388 -370)"/><line class="cls-19" x1="173.29" y1="191.95" x2="187.02" y2="191.95"/><polyline class="cls-14" points="247.31 202.34 245.63 192.29 259.13 192.29 312.53 192.58 320.65 192.43"/><line class="cls-7" x1="275.83" y1="192.42" x2="320.65" y2="192.42"/><path class="cls-20" d="M551,655.88" transform="translate(-388 -370)"/><path class="cls-14" d="M475.58,606.37" transform="translate(-388 -370)"/><path class="cls-14" d="M485.27,582.59" transform="translate(-388 -370)"/><rect class="cls-3" x="5" y="215.7" width="78.84" height="13.35"/><path class="cls-3" d="M561.29,584.2" transform="translate(-388 -370)"/><path class="cls-3" d="M525.65,584.2" transform="translate(-388 -370)"/><path class="cls-3" d="M677.36,582.77" transform="translate(-388 -370)"/><path class="cls-3" d="M638.33,582.77" transform="translate(-388 -370)"/><path class="cls-3" d="M561.12,598.59" transform="translate(-388 -370)"/><path class="cls-3" d="M525.91,598.59" transform="translate(-388 -370)"/><path class="cls-3" d="M678.53,596.71" transform="translate(-388 -370)"/><path class="cls-3" d="M650.71,596.71" transform="translate(-388 -370)"/><polyline class="cls-2" points="5 284.93 84.92 284.93 84.92 277.06 5 277.06"/><rect class="cls-4" x="5" y="227.52" width="79.92" height="49.35"/><path class="cls-20" d="M678.26,635.2" transform="translate(-388 -370)"/><path class="cls-7" d="M743.38,650.45" transform="translate(-388 -370)"/><path class="cls-7" d="M677.84,652.45" transform="translate(-388 -370)"/><path class="cls-20" d="M547.33,653.31" transform="translate(-388 -370)"/><rect class="cls-6" x="42.34" y="16.52" width="102.96" height="173.1"/><path class="cls-21" d="M637.26,619c4.57-2.12,10.73-6,14.1-12.35a9.49,9.49,0,0,0,1.35-5.67,8,8,0,0,0-1.94-4.09,16.81,16.81,0,0,0-3.6-3,37.24,37.24,0,0,0-4.48-2.55,104.68,104.68,0,0,0-10.32-4.06l-2.12-.75c-5.2-1.86-10.61-3.7-16.06-5.46-6.37-2.06-11.59-3.63-16.44-5l-.16,0a84.41,84.41,0,0,0-12.11-2.69c-5.5-.67-11.21-.95-15.69,1.48a12,12,0,0,0-1.88,1.25c-3.36,2.7-4.37,6.93-5.11,11A83.66,83.66,0,0,0,561.73,603c0,2.28.1,4.65.24,7.07,0,.6,0,1.21,0,1.82a18.76,18.76,0,0,0,.41,4.31,7.81,7.81,0,0,0,2.89,4.15c2.8,2.15,6.4,3,9.89,3.78l.38.08a99.12,99.12,0,0,0,15.77,2.07c3.54.2,6,.19,6,.19h.37c2.49,0,5.12-.15,8.28-.4a126.14,126.14,0,0,0,15-2A72.07,72.07,0,0,0,637.26,619Z" transform="translate(-388 -370)"/><path class="cls-21" d="M636.08,660l-1.11.12c-1.81.18-4.22,2.28-4.63,2.65-1.58,4.5-6.37,4.91-8,5h-.21a6,6,0,0,0,1.11,3.88,5.37,5.37,0,0,0,2.16,1.41,7.61,7.61,0,0,0,2.4.53,6.21,6.21,0,0,0,2.91-.69,15.69,15.69,0,0,0,4.16-3.08l2.88-3.4A25.26,25.26,0,0,1,636.4,663,6,6,0,0,1,636.08,660Z" transform="translate(-388 -370)"/><path class="cls-21" d="M660.53,656.2a4.93,4.93,0,0,0-3.34-.28,13.23,13.23,0,0,0-4.22,2.21,3.23,3.23,0,0,1-1.51,1l-.41.19c-.84.41-1.49.71-2.12,1a18.47,18.47,0,0,1-4.55,1.4,9.63,9.63,0,0,1-7.47-1.63,5.18,5.18,0,0,0,.3,2.67,25.51,25.51,0,0,0,1.58,3.83,4.21,4.21,0,0,0,1.15,1.53,4,4,0,0,0,2.27.53,26.53,26.53,0,0,0,5.5-.71,38.14,38.14,0,0,0,7.07-2.12,17.72,17.72,0,0,0,6-4.06,4.48,4.48,0,0,0,1.48-3A3.13,3.13,0,0,0,660.53,656.2Z" transform="translate(-388 -370)"/><path class="cls-21" d="M629.53,662.47c-2-6.05-.31-34.88,0-39.63-2.57.78-5.32,1.46-8.32,2.06-1.83.37-3.74.69-5.67,1,.33,3.47,2.83,29.09,3.49,33.29l.1.59c.7,4.43,1.23,7.19,3,7.19h.16C624.82,666.73,628.28,666,629.53,662.47Z" transform="translate(-388 -370)"/><path class="cls-21" d="M637.62,619.81q-1.9.88-4,1.65c.36,3.58,3.3,33.12,3.39,35.92,0,1,0,1.46.06,1.74a8.6,8.6,0,0,0,7.17,1.78,17.91,17.91,0,0,0,4.35-1.35c.7-.3,1.39-.63,2.08-1l.44-.2a3.89,3.89,0,0,0,.93-.49,15.56,15.56,0,0,1-1.92-5.19,39.58,39.58,0,0,1-.13-9.36c0-.65.09-1.29.12-1.93.21-3.77.54-7.58,1-11.32.3-2.51.67-5.05,1-7.5l.27-1.83a35.82,35.82,0,0,0,.54-6.34,17.28,17.28,0,0,0-1.52-6.16C647.86,614.13,642,617.76,637.62,619.81Z" transform="translate(-388 -370)"/><path class="cls-21" d="M630.39,622.58c-.21,3.15-2,32.23-.2,39.16.93-.78,3-2.32,4.7-2.49.71-.08,1.11-.13,1.34-.17,0-.37,0-.91-.06-1.67-.09-2.69-2.94-31.38-3.36-35.65C632,622,631.22,622.32,630.39,622.58Z" transform="translate(-388 -370)"/><path class="cls-21" d="M620.06,513.76c12.75-8.38,7.07-21.83,7-22l-.12-.23a4.16,4.16,0,0,0-1.55.17,3.73,3.73,0,0,1-1,.17,1.2,1.2,0,0,1-.61-.15,1,1,0,0,0-.53-.1,1.55,1.55,0,0,1-1.55-.89,2.72,2.72,0,0,0-.76-.7,5.36,5.36,0,0,1-1.09-1,21.35,21.35,0,0,1-7.19,17,40.24,40.24,0,0,1-3.78,2.87c-1.18.81-2.41,1.59-3.6,2.34l-.89.56-1.05.68a28.1,28.1,0,0,1-3.2,1.9c1.54.54,3.28,1.74,3.23,3.93-.08,3-3.92,10.26-4.74,11.77.53.46,2.68,1.85,9.84,2.75,7.73,1,9.49-2.11,9.78-2.8l-1.68-3.15C612.55,518.91,620,513.81,620.06,513.76Z" transform="translate(-388 -370)"/><path class="cls-21" d="M625.39,482.63,622,478.4c-4.26-5.35-17.11-4.69-22.73-3.16s-7.37,3.58-7.39,3.6l-1.5,1.56c-.26.35-.44.54-.45.56l-.07.06-.56.37a6.94,6.94,0,0,1-.24,1.93,21.77,21.77,0,0,1-2.68,5.53l-.17.28a7.8,7.8,0,0,0-1,2,7,7,0,0,0,0,2.55,29.19,29.19,0,0,0,11.09,19.45,3.77,3.77,0,0,0,2.09,1,3.57,3.57,0,0,0,1.35-.4,27.53,27.53,0,0,0,3.19-1.89l1.06-.69.88-.56c1.19-.75,2.41-1.52,3.58-2.32a37.34,37.34,0,0,0,3.7-2.81,20.69,20.69,0,0,0,6.56-19.46l.83-.15c0,.08,0,.17,0,.25h0c.42,2.27,1.21,2.84,1.91,3.34a3.29,3.29,0,0,1,1,.93c.33.51.49.51.83.51a1.7,1.7,0,0,1,1,.2,1.82,1.82,0,0,0,1-.1,3.88,3.88,0,0,1,2.55,0,.65.65,0,0,0,.56,0,3.12,3.12,0,0,0,1.11-1.63l-.3-.42-2.74-5-.39-.49-.69-.75Z" transform="translate(-388 -370)"/><polygon class="cls-21" points="156.73 192.16 156.59 192.43 166.16 192.43 166.15 192.31 156.73 192.16"/><path class="cls-21" d="M702.84,485.12H628l1.8,3.27.52.72-.06.2a4.2,4.2,0,0,1-1.61,2.34,1.38,1.38,0,0,1-.71.15c.84,2.29,4.69,14.69-7.45,22.67-.28.19-6.88,4.73-3.16,12l1.67,3.13c3.05.5,6,3.93,7.58,6.77a26.42,26.42,0,0,1,2.15,5.26h74.07ZM642.28,494l4.42,1.66v2.05h-4.42Zm0,8.56,4.42,1.66v2.05h-4.42Zm0,8.73,4.42,1.65V515h-4.42Zm4.85,12.43h-4.42V520l4.42,1.65Zm36.78-.33H656V520.5h27.87Zm0-8.72H656v-2.87h27.87Zm0-8.72H656v-2.87h27.87Zm0-8.24H656v-2.87h27.87Z" transform="translate(-388 -370)"/><path class="cls-21" d="M585.66,488.41a21.24,21.24,0,0,0,2.59-5.31,8.47,8.47,0,0,0-.93-5.9,16,16,0,0,0-3.93-5.68,10.24,10.24,0,0,0-6.55-2.31,10.57,10.57,0,0,0-2.78.37,12.17,12.17,0,0,0-8,7.56,8.84,8.84,0,0,0-.33,5c.72,3,3.15,5.15,5.07,6.42a26.36,26.36,0,0,0,6.9,3.14,10.62,10.62,0,0,0,3.3.59,4.82,4.82,0,0,0,1.74-.36,3,3,0,0,0,.61-.39,3.13,3.13,0,0,1,1-.55l0,.11c0-.05,0-.1,0-.16a8.25,8.25,0,0,1,1.06-2.21Z" transform="translate(-388 -370)"/><polygon class="cls-21" points="247.96 201.35 248.25 203.31 249.06 203.31 248.77 201.35 247.96 201.35"/><path class="cls-22" d="M627,491.67l0-.1a3.21,3.21,0,0,0-.76,0,1.82,1.82,0,0,0,.65.08Z" transform="translate(-388 -370)"/><path class="cls-23" d="M608.52,532.84a19.27,19.27,0,0,0,4.49.1l-1-.1c-7.16-.9-9.31-2.29-9.84-2.75.82-1.51,4.66-8.75,4.73-11.77.06-2.19-1.68-3.39-3.22-3.93a29,29,0,0,0,3.2-1.9l1.05-.68.88-.56c1.19-.75,2.42-1.53,3.61-2.34a40.24,40.24,0,0,0,3.78-2.87,21.19,21.19,0,0,0,7.13-14.37h-.08a1.55,1.55,0,0,1-1.55-.89,2.72,2.72,0,0,0-.76-.7,5.36,5.36,0,0,1-1.09-1,21.35,21.35,0,0,1-7.19,17,40.24,40.24,0,0,1-3.78,2.87c-1.18.81-2.41,1.59-3.6,2.34l-.89.56-1.05.68a28.1,28.1,0,0,1-3.2,1.9c1.54.54,3.28,1.74,3.23,3.93-.08,3-3.92,10.26-4.74,11.77C599.21,530.55,601.36,531.94,608.52,532.84Z" transform="translate(-388 -370)"/><path class="cls-23" d="M642.33,666.6a24.51,24.51,0,0,1-1.58-3.83,8.84,8.84,0,0,1-.28-1.1c-.31-.06-3.41-1.2-3.7-1.29.07.55.84,3.46,1,3.94s.61,1.47.81,2c.48,1.18.45.58,1.35,1.8h0a3.92,3.92,0,0,0,2.29.55,19.8,19.8,0,0,0,2.19-.14,2.83,2.83,0,0,1-.93-.39A4.3,4.3,0,0,1,642.33,666.6Z" transform="translate(-388 -370)"/><path class="cls-22" d="M636.91,660.1a2.57,2.57,0,0,0-.06.55c.17-.09.34-.16.51-.23C637.21,660.31,637.05,660.22,636.91,660.1Z" transform="translate(-388 -370)"/><path class="cls-23" d="M647.92,661.73a18.47,18.47,0,0,0,4.55-1.4c.62-.27,1.28-.57,2.12-1l.41-.19a3.2,3.2,0,0,0,1.5-1,14.74,14.74,0,0,1,3.69-2,5,5,0,0,0-3-.16,13.23,13.23,0,0,0-4.22,2.21,3.23,3.23,0,0,1-1.51,1l-.41.19c-.84.41-1.49.71-2.12,1a18.47,18.47,0,0,1-4.55,1.4h0A11.13,11.13,0,0,0,647.92,661.73Z" transform="translate(-388 -370)"/><path class="cls-23" d="M626.81,671.68a6,6,0,0,1-1.1-3.88h.21c1.58-.14,6.37-.55,8-5a18.55,18.55,0,0,1,2.15-1.62,3.71,3.71,0,0,1,.06-1.15l-1.11.12c-1.81.18-4.22,2.28-4.63,2.65-1.58,4.5-6.37,4.91-8,5h-.21a6,6,0,0,0,1.11,3.88,5.37,5.37,0,0,0,2.16,1.41,7.61,7.61,0,0,0,2.4.53,5.47,5.47,0,0,0,1.87-.29l-.73-.24A5.41,5.41,0,0,1,626.81,671.68Z" transform="translate(-388 -370)"/><path class="cls-23" d="M579.12,624.25l-.37-.08c-3.49-.8-7.1-1.63-9.89-3.78a7.88,7.88,0,0,1-2.9-4.15,18.75,18.75,0,0,1-.4-4.31c0-.61,0-1.22-.06-1.82-.13-2.42-.21-4.79-.24-7.07a83.56,83.56,0,0,1,1.08-15.88c.74-4.11,1.74-8.34,5.11-11a12,12,0,0,1,1.88-1.25,17.51,17.51,0,0,1,7.44-1.9c-3.94-.19-7.78.16-11,1.9a12,12,0,0,0-1.88,1.25c-3.36,2.7-4.37,6.93-5.11,11A83.66,83.66,0,0,0,561.73,603c0,2.28.1,4.65.24,7.07,0,.6,0,1.21,0,1.82a18.76,18.76,0,0,0,.41,4.31,7.81,7.81,0,0,0,2.89,4.15c2.8,2.15,6.4,3,9.89,3.78l.38.08a99.12,99.12,0,0,0,15.77,2.07c3.54.2,6,.19,6,.19h.37l1.38,0c-1,0-2.5-.08-4.21-.17A99.23,99.23,0,0,1,579.12,624.25Z" transform="translate(-388 -370)"/><path class="cls-24" d="M660.85,655.22a5.72,5.72,0,0,0-3.93-.35,13.09,13.09,0,0,0-4.3,2.2,14.86,14.86,0,0,1-1.71-4.75,38.3,38.3,0,0,1-.12-9.15c0-.65.08-1.3.11-1.94.21-3.75.55-7.54,1-11.27.31-2.49.68-5,1-7.47l.27-1.83a37.23,37.23,0,0,0,.55-6.5,18.86,18.86,0,0,0-1.85-7,2,2,0,0,0,.14-.25,10.25,10.25,0,0,0,1.44-6.17,8.77,8.77,0,0,0-2.14-4.53,17.08,17.08,0,0,0-3.77-3.19,37.7,37.7,0,0,0-4.59-2.61c-.66-.32-1.33-.61-2-.9-1.64-3.57-4.77-12.35-5-14.23s-.87-3.31-1.13-5c-.09-.55-.21-1.09-.3-1.62-.67-4-1.44-8.08-2.3-12.24-.75-3.66-1.42-6.68-2.12-9.51l-.23-1c-.18-.76-.37-1.54-.57-2.31h-.6l-.34-2.15h.34a25.65,25.65,0,0,0-2.16-5.26c-1.6-2.85-4.52-6.28-7.57-6.77l-1.67-3.13c-3.72-7.3,2.88-11.84,3.15-12,12.15-8,8.3-20.37,7.46-22.66a1.55,1.55,0,0,0,.7-.15,4.19,4.19,0,0,0,1.62-2.35l0-.2-.51-.72-3.37-5.76-.64-.79-.11-.12c-1-1.28-2-2.57-3-3.85-4.57-5.72-17.64-5.07-23.62-3.45a19,19,0,0,0-7.3,3.38,14.72,14.72,0,0,0,.93-4c.44-4.84-1.45-6-1.53-6l-.43.73s1.5,1,1.11,5.23a13.71,13.71,0,0,1-1.42,5.05,8,8,0,0,1-1.07,1.6l-.11.08a12.76,12.76,0,0,0-1.15-3.57,16.92,16.92,0,0,0-4.16-6,11.25,11.25,0,0,0-10.09-2.1,12.82,12.82,0,0,0-8.56,8.1,9.59,9.59,0,0,0-.36,5.43c.78,3.27,3.38,5.58,5.43,6.93a27.1,27.1,0,0,0,7.12,3.25,11.49,11.49,0,0,0,3.57.62,5.48,5.48,0,0,0,2-.43,3.4,3.4,0,0,0,.78-.48l.41-.28a10.41,10.41,0,0,0,.08,1.86,30.08,30.08,0,0,0,11.43,20,4.31,4.31,0,0,0,2.57,1.12h0l.35,0s3.89.56,3.82,3.4-4,10.13-4.67,11.45c-2.28.13-19.32,1.71-21.6,19.32,0,0-2,20.41-1.94,21.89l.05,1.48s-.7.09-1.62.31a30,30,0,0,0-3.41,1.38,13.45,13.45,0,0,0-2,1.33c-3.59,2.89-4.64,7.29-5.4,11.55a83.67,83.67,0,0,0-1.09,16.05c0,2.28.1,4.67.24,7.1,0,.59,0,1.19.05,1.79a19.65,19.65,0,0,0,.43,4.51,8.7,8.7,0,0,0,3.2,4.61c2.93,2.25,6.62,3.1,10.19,3.92L551,682.91l.78.32L575.77,625a102.58,102.58,0,0,0,15.15,2L602.31,690l.84-.15L591.79,627c3.05.16,5.19.17,5.48.17h.41c2.51-.3,5.16-.23,8.34-.4,3-.15,5.82-.55,8.6-1,.35,3.62,2.83,29.09,3.5,33.3l.1.59c.59,3.75,1.11,7.05,3,7.76v.1a6.76,6.76,0,0,0,1.31,4.48,6.26,6.26,0,0,0,2.5,1.64,8.45,8.45,0,0,0,2.67.6H628a7.16,7.16,0,0,0,3.09-.78,16.14,16.14,0,0,0,4.41-3.27l2.67-3.15a4.39,4.39,0,0,0,1.25,1.54,4.68,4.68,0,0,0,2.77.69h.05a27.6,27.6,0,0,0,5.62-.72,39.35,39.35,0,0,0,7.23-2.17,18.57,18.57,0,0,0,6.29-4.27,5.23,5.23,0,0,0,1.7-3.57A3.93,3.93,0,0,0,660.85,655.22Zm-24.68,3.64c-.23,0-.63.09-1.34.16-1.72.17-3.77,1.72-4.7,2.49-1.8-6.93,0-36,.19-39.16q1.24-.39,2.43-.81c.42,4.26,3.27,33,3.35,35.64C636.13,658,636.14,658.48,636.17,658.86ZM603.36,518.09c0-2.19-1.69-3.39-3.23-3.93a27.52,27.52,0,0,0,3.2-1.9l1-.68.88-.56c1.19-.75,2.42-1.53,3.61-2.33a42,42,0,0,0,3.78-2.87,21.42,21.42,0,0,0,7.19-17,4.93,4.93,0,0,0,1.09,1,2.54,2.54,0,0,1,.75.7,1.61,1.61,0,0,0,1.56.89.9.9,0,0,1,.52.09,1.24,1.24,0,0,0,.62.15,4.28,4.28,0,0,0,1-.16,4,4,0,0,1,1.55-.17l.12.22c0,.14,5.74,13.59-7,22-.08.05-7.51,5.14-3.44,13.12l1.68,3.16c-.29.69-2.06,3.77-9.78,2.8-7.16-.91-9.31-2.3-9.84-2.75C599.44,528.35,603.28,521.12,603.36,518.09Zm10.76,62.76c5.46,1.77,10.87,3.61,16.07,5.47l2.11.75a101.5,101.5,0,0,1,10.33,4.06,37.43,37.43,0,0,1,4.48,2.55,16.53,16.53,0,0,1,3.6,3,8,8,0,0,1,1.94,4.09,9.51,9.51,0,0,1-1.35,5.67c-3.38,6.36-9.53,10.22-14.1,12.34a72.05,72.05,0,0,1-16.23,5,130.39,130.39,0,0,1-15,2c-3.16.25-5.79.37-8.28.4h-.37s-2.46,0-6-.2A100.27,100.27,0,0,1,575.52,624l-.37-.09c-3.49-.8-7.1-1.62-9.89-3.77a7.92,7.92,0,0,1-2.9-4.15,18.89,18.89,0,0,1-.4-4.32c0-.61,0-1.22-.06-1.82-.13-2.41-.21-4.79-.24-7.06a83.68,83.68,0,0,1,1.08-15.89c.74-4.1,1.74-8.34,5.11-11a12.79,12.79,0,0,1,1.88-1.25c4.47-2.42,10.18-2.14,15.69-1.48,4.08.49,24.76,6.62,28.7,7.69m20.72,88.78a15.67,15.67,0,0,1-4.15,3.07,6.13,6.13,0,0,1-2.91.7,7.31,7.31,0,0,1-2.4-.54,5.41,5.41,0,0,1-2.17-1.41,6,6,0,0,1-1.1-3.88h.21c1.58-.13,6.37-.55,7.95-5,.42-.37,2.83-2.46,4.64-2.64l1.1-.13a6.14,6.14,0,0,0,.33,3.06,25.26,25.26,0,0,0,1.39,3.42Zm25.88-8.09a17.68,17.68,0,0,1-6,4.07,37.61,37.61,0,0,1-7.07,2.11,25.07,25.07,0,0,1-5.49.71,3.94,3.94,0,0,1-2.28-.53,4.21,4.21,0,0,1-1.14-1.53,25.09,25.09,0,0,1-1.58-3.83,5.14,5.14,0,0,1-.3-2.66,9.71,9.71,0,0,0,7.47,1.63,18.91,18.91,0,0,0,4.55-1.4c.62-.27,1.28-.58,2.12-1l.41-.18a3.2,3.2,0,0,0,1.5-1,13,13,0,0,1,4.22-2.21,4.81,4.81,0,0,1,3.34.28,3.09,3.09,0,0,1,1.73,2.58A4.45,4.45,0,0,1,660.72,661.54Z" transform="translate(-388 -370)"/><path class="cls-5" d="M636.51,570.92l1.14-.83-2-1,.3,2Z" transform="translate(-388 -370)"/><line class="cls-25" x1="354.69" y1="216.87" x2="354.69" y2="216.87"/><line class="cls-25" x1="289.99" y1="216.87" x2="289.99" y2="216.87"/><line class="cls-26" x1="354.69" y1="250.11" x2="291.37" y2="250.11"/><line class="cls-26" x1="291.37" y1="250.11" x2="290.53" y2="250.11"/><line class="cls-26" x1="289.99" y1="250.11" x2="290.53" y2="250.11"/><path class="cls-5" d="M512.38,616.11" transform="translate(-388 -370)"/><path class="cls-5" d="M512.8,639.76" transform="translate(-388 -370)"/><rect class="cls-27" x="268.04" y="124.82" width="27.87" height="2.87"/><rect class="cls-27" x="268.04" y="141.78" width="27.87" height="2.87"/><polygon class="cls-27" points="258.7 125.64 254.28 123.98 254.28 127.69 258.7 127.69 258.7 125.64"/><polygon class="cls-27" points="258.7 134.2 254.28 132.54 254.28 136.25 258.7 136.25 258.7 134.2"/><polygon class="cls-27" points="258.7 142.92 254.28 141.27 254.28 144.98 258.7 144.98 258.7 142.92"/><polygon class="cls-27" points="254.71 153.7 259.13 153.7 259.13 151.64 254.71 149.99 254.71 153.7"/><polygon class="cls-5" points="316.01 213.41 316.01 214.21 316.4 214.21 316.4 215.35 324.86 215.35 324.86 214.21 325.28 214.21 325.28 213.41 316.01 213.41"/><polygon class="cls-5" points="315.55 215.2 296.27 215.2 296.27 222.74 350.7 222.74 350.7 215.2 325.71 215.2 325.71 216.34 315.55 216.34 315.55 215.2"/><polygon class="cls-5" points="315.55 250.18 296.27 250.18 296.27 257.72 350.7 257.72 350.7 250.18 325.71 250.18 325.71 251.32 315.55 251.32 315.55 250.18"/><polygon class="cls-5" points="315.1 231.83 295.82 231.83 295.82 239.36 350.25 239.36 350.25 231.83 325.26 231.83 325.26 232.97 315.1 232.97 315.1 231.83"/><polyline class="cls-5" points="316.01 248.69 316.01 249.49 316.4 249.49 316.4 250.63 324.86 250.63 324.86 249.49 325.28 249.49 325.28 248.69"/><polyline class="cls-5" points="316.01 229.86 316.01 230.66 316.4 230.66 316.4 231.8 324.86 231.8 324.86 230.66 325.28 230.66 325.28 229.86"/><line class="cls-25" x1="289.99" y1="249.66" x2="289.99" y2="249.66"/><line class="cls-25" x1="355.66" y1="249.66" x2="355.66" y2="249.66"/><polygon class="cls-5" points="237.22 112.44 237.92 113.19 239.25 114.64 239.25 114.93 239.96 114.93 314.76 114.93 314.76 171.46 240.69 171.46 240.35 171.46 240.7 173.61 241.29 173.61 317.5 173.61 317.5 112.44 238.4 112.44 237.31 112.44 237.22 112.44"/><rect class="cls-27" x="268.04" y="150.5" width="27.87" height="2.87"/><rect class="cls-27" x="268.04" y="133.06" width="27.87" height="2.87"/><path class="cls-28" d="M549.48,561.86l.14-.26,9.42.14v.12l0,.3,1.61-.14a1,1,0,0,0,.43-.16c1.57-.94,3.17-5.92,3.74-7.87.26-.11.25-.22.21-.42s-.15-.41-.61-.34l-.27,0,0,.06-2.39.48a10.79,10.79,0,0,0-5.08,2.35l-.62-2.4c-.85-3.25-6.19-6.08-6.41-6.2l-.46-.23-1.92,6.34c-1.61,5.35,1.2,7.67,2,8.19l.18.11Z" transform="translate(-388 -370)"/><path class="cls-5" d="M476.75,570.16" transform="translate(-388 -370)"/><path class="cls-5" d="M505.05,562.74" transform="translate(-388 -370)"/><polygon class="cls-29" points="158.99 191.35 162.54 198.73 171.74 198.73 175.11 191.05 158.79 191.05 158.99 191.35"/><polyline class="cls-5" points="171.84 198.52 174.51 192.43 174.96 191.4 187.04 191.4 186.19 198.52"/><path class="cls-5" d="M634.53,568.6" transform="translate(-388 -370)"/><path class="cls-20" d="M635.1,569.37" transform="translate(-388 -370)"/><polyline class="cls-5" points="246.83 199.11 245.63 192.58 259.73 192.58 257.38 199.11"/><line class="cls-5" x1="275.04" y1="192.1" x2="321.87" y2="192.1"/><path class="cls-5" d="M678,572.33" transform="translate(-388 -370)"/><path class="cls-14" d="M549.38,585.75" transform="translate(-388 -370)"/><path class="cls-14" d="M470.87,585.75" transform="translate(-388 -370)"/><path class="cls-14" d="M549.14,600.83" transform="translate(-388 -370)"/><path class="cls-14" d="M470.64,600.83" transform="translate(-388 -370)"/><path class="cls-14" d="M549.14,617.86" transform="translate(-388 -370)"/><path class="cls-14" d="M470.64,617.86" transform="translate(-388 -370)"/><path class="cls-14" d="M742.69,606.37" transform="translate(-388 -370)"/><path class="cls-14" d="M676.29,606.37" transform="translate(-388 -370)"/><path class="cls-14" d="M743,641.53" transform="translate(-388 -370)"/><path class="cls-14" d="M676.29,641.53" transform="translate(-388 -370)"/><polyline class="cls-24" points="241.34 172.54 315.94 172.54 317 172.54 317 185.46 244.03 185.46"/><polyline class="cls-14" points="268.5 185.8 265.61 191.93 277.36 191.93 274.09 185.8"/><path class="cls-30" d="M549.14,595.07" transform="translate(-388 -370)"/><path class="cls-30" d="M549.5,614.47" transform="translate(-388 -370)"/><path class="cls-14" d="M650.91,652.32" transform="translate(-388 -370)"/><polyline class="cls-1" points="291.51 209.23 291.51 235.6 350.25 235.6 350.25 202.34 291.51 202.34"/><polygon class="cls-1" points="291.51 240.14 291.51 279.53 350.25 279.53 350.25 240.25 291.51 240.14"/><rect class="cls-14" x="302.43" y="211.59" width="35.54" height="11.14"/><polyline class="cls-24" points="167.15 278.04 169.42 278.04 169.42 271.17 169.6 259.03 170.02 244.62 171.84 211.2 97.27 211.2 97.27 278.71 169.31 278.71 169.42 278.04"/><rect class="cls-14" x="303.11" y="254.26" width="35.54" height="11.14"/><path class="cls-14" d="M549.14,595.07" transform="translate(-388 -370)"/><path class="cls-14" d="M471.84,595.07" transform="translate(-388 -370)"/><path class="cls-14" d="M549.14,614.47" transform="translate(-388 -370)"/><path class="cls-14" d="M471.84,614.47" transform="translate(-388 -370)"/><path class="cls-14" d="M549.09,634.38" transform="translate(-388 -370)"/><path class="cls-14" d="M470.87,634.38" transform="translate(-388 -370)"/><path class="cls-7" d="M472.1,579.54" transform="translate(-388 -370)"/><polyline class="cls-31" points="174.29 284.75 161.75 284.75 84.92 284.75 84.92 204.58 162.38 204.2 181.64 204.2"/><path class="cls-7" d="M471.05,653.31" transform="translate(-388 -370)"/><path class="cls-5" d="M473.06,573.55" transform="translate(-388 -370)"/><polygon class="cls-14" points="291.38 206.31 350.7 206.31 350.7 283.31 291.51 283.31 291.38 206.31"/><path class="cls-14" d="M635.6,652.45" transform="translate(-388 -370)"/><path class="cls-14" d="M596.55,653" transform="translate(-388 -370)"/><path class="cls-14" d="M617.38,653" transform="translate(-388 -370)"/><polyline class="cls-14" points="321.62 192.43 355 199.37 355 202.93 247.6 202.93 247.6 201.07"/><line class="cls-31" x1="263.12" y1="283.31" x2="289.37" y2="283.31"/><path class="cls-21" d="M637.77,581.2" transform="translate(-388 -370)"/><path class="cls-14" d="M561.72,587.19" transform="translate(-388 -370)"/><polygon class="cls-14" points="173.91 216.78 172.25 216.78 173.08 218.11 173.91 216.78"/><line class="cls-14" x1="188.74" y1="255.15" x2="187.77" y2="255.15"/><path class="cls-14" d="M569.42,640.41" transform="translate(-388 -370)"/><polygon class="cls-14" points="252.58 211.59 277.36 211.59 277.36 278.82 262.71 278.82 262.71 242.38 265.49 229.24 264.98 225.48 265.33 228.19 263.52 223.16 256.4 217.04 252.98 214.99 252 212.07 251.85 211.59 252.58 211.59"/><polygon class="cls-24" points="170.1 279.21 180.15 279.21 180.15 259.56 180.15 258.18 177.86 257.2 176.38 255.5 173.66 251.36 172.79 245.04 172.79 241.35 172.66 227.21 173.66 216.79 171.76 217.54 169.31 270.45 170.1 279.21"/><polyline class="cls-14" points="247.88 279.21 238.67 279.21 238.67 259.94 240.01 254.27 245.63 251.46"/><path class="cls-5" d="M617.2,647l.18,2.62H568.15V621.76L577,625.4c-.07-.29,17.1,5.35,21.51,2.75" transform="translate(-388 -370)"/><polyline class="cls-5" points="195.85 256.29 206.4 256.78 210.55 256.98 222.87 256.29 226.62 255.78"/><polyline class="cls-5" points="210.55 256.98 227.31 255.15 228.9 269.76 210.01 257.42"/><polyline class="cls-32" points="187.22 254.17 180.96 271.52 164.03 312.73"/><line class="cls-32" x1="203.79" y1="256.97" x2="215.15" y2="319.82"/><polyline class="cls-31" points="174 284.75 209.68 284.75 229.38 284.75"/><line class="cls-33" x1="145.31" y1="216.78" x2="145.31" y2="271.53"/><path class="cls-33" d="M601.31,640.27" transform="translate(-388 -370)"/><path class="cls-33" d="M613,625.15" transform="translate(-388 -370)"/><line class="cls-34" x1="290.53" y1="278.04" x2="351.61" y2="278.04"/><path class="cls-32" d="M678.53,575.52" transform="translate(-388 -370)"/><path class="cls-32" d="M678.53,575.52" transform="translate(-388 -370)"/><polyline class="cls-32" points="290.53 205.52 290.53 278.85 290.53 262.46 290.53 204.27"/><line class="cls-32" x1="348.29" y1="278.04" x2="352.51" y2="278.04"/><polyline class="cls-32" points="290.53 279.06 290.53 284 290.53 278.04"/><polyline class="cls-32" points="290.53 284 290.99 284 291.38 284"/><path class="cls-32" d="M678.53,653.87v.54" transform="translate(-388 -370)"/><path class="cls-7" d="M741.58,569" transform="translate(-388 -370)"/><path class="cls-14" d="M529.6,585.35l7.18.4s8.08,58.88.9,58.34l-7.18-.54-.9-59.17" transform="translate(-388 -370)"/><line class="cls-14" x1="170.23" y1="278.82" x2="177.12" y2="278.82"/><polygon class="cls-14" points="170.23 278.54 176.73 278.04 176.73 278.71 170.23 278.54"/><polygon class="cls-24" points="173.9 247.86 181.04 253.45 180.33 258.6 172.76 253.23 173.9 247.86"/><polygon class="cls-5" points="180.15 278.85 178.56 278.85 178.98 278.12 180.33 278.12 180.15 278.85"/><path class="cls-5" d="M567.18,649.65" transform="translate(-388 -370)"/><polygon class="cls-24" points="188.74 255.73 202.92 256.92 202.92 259.19 188.74 255.73"/><polyline class="cls-14" points="204.44 257.46 204.75 259.03 209.88 259.4 228.18 278.85 231.01 278.79 230.47 266.53 217.08 259.19 212.77 257.46 206.11 257.46"/><polygon class="cls-5" points="248.17 211.59 254.5 211.59 263.93 218.11 265.33 228.19 247.88 215.75 248.17 211.59"/><polyline class="cls-14" points="172.25 210.19 175.68 210.19 173.49 217.45 173.12 218.49 171.13 218.11 171.13 210.37"/><polyline class="cls-5" points="250.25 211.33 251.64 211.33 251.85 211.85 250.49 212.03 250.06 211.44 249.97 211.38"/><polyline class="cls-7" points="464.15 194.96 464.15 199.28 464.15 202.61"/><polyline class="cls-7" points="460.61 194.96 464.15 197.98 467.11 194.75"/><line class="cls-14" x1="346.93" y1="197.97" x2="355" y2="200"/><polyline class="cls-5" points="178.8 278.14 178.49 278.85 178.8 278.85"/><line class="cls-14" x1="355.03" y1="284.41" x2="355" y2="200"/><line class="cls-31" x1="241.46" y1="284.14" x2="247.88" y2="284.14"/><polyline class="cls-31" points="247.1 206.31 288.29 206.31 288.29 283.87"/><path class="cls-35" d="M966.58,449h24.51s7.47-8-1.53-10.73c-3.32-1,.68-9.53-6.81-8.85a9.63,9.63,0,0,0-8.75,7.49s-8.61-2.59-10.31,2.28S966.58,449,966.58,449Z" transform="translate(-388 -370)"/><path class="cls-35" d="M1139.32,464.28h24.51s7.46-8-1.54-10.73c-3.32-1,.69-9.53-6.8-8.85a9.65,9.65,0,0,0-8.76,7.49s-8.61-2.59-10.31,2.28S1139.32,464.28,1139.32,464.28Z" transform="translate(-388 -370)"/><line class="cls-7" x1="19.5" y1="204.27" x2="5" y2="204.27"/><path class="cls-7" d="M407.5,574" transform="translate(-388 -370)"/></svg>