<svg width="353" height="224" viewBox="0 0 353 224" fill="none" xmlns="http://www.w3.org/2000/svg">
<g clip-path="url(#clip0)">
<path d="M262.874 9.15882C263.022 9.27652 263.178 9.38535 263.339 9.48475C265.859 11.1144 268.445 12.6626 270.998 14.2516C275.077 16.7939 278.103 9.01216 277.271 6.03799C276.851 4.73688 276.094 3.57004 275.077 2.65638C273.874 1.36197 272.23 0.562862 270.468 0.415562C268.813 0.452848 267.237 1.12381 266.063 2.28971C264.97 3.29197 260.998 7.58618 262.874 9.15882Z" fill="#30A6EB" stroke="#30A6EB" stroke-miterlimit="10"/>
<path d="M236.152 32.7648C236.152 33.2944 238.012 35.1115 238.37 35.5434C239.31 36.7077 240.338 37.7974 241.446 38.8028C243.645 40.8548 246.256 42.4158 249.105 43.3822C253.806 44.7632 258.847 44.4074 263.306 42.3799C266.031 41.173 268.545 39.539 270.754 37.5398C271.845 36.564 272.877 35.5246 273.845 34.4271C274.563 33.6122 275.876 32.5203 276.08 31.3796C275.069 37.1323 275.109 43.0236 273.38 48.6461C271.341 55.3033 266.642 60.7791 259.978 62.425C256.94 63.1795 253.765 63.189 250.723 62.4526C247.68 61.7163 244.861 60.2559 242.506 58.196C241.519 57.301 240.643 56.2916 239.896 55.1892C237.889 52.2069 237.334 48.752 236.894 45.2237C236.324 41.0962 236.076 36.9307 236.152 32.7648Z" fill="#26ADE7" stroke="#26ADE7" stroke-miterlimit="10"/>
<path d="M77.0587 100.503C77.0587 100.503 60.7448 101.774 57.482 107.478C54.2192 113.182 55.0349 118.071 57.482 119.7C59.9291 121.33 77.0587 118.885 62.3762 101.774C47.6937 84.6621 39.2757 135.696 18.3287 111.552C18.3287 111.552 10.9874 97.6995 11.8031 88.7363C12.6188 79.773 0.383377 75.6988 0.383377 75.6988" stroke="#F6EAEC" stroke-width="3" stroke-miterlimit="10"/>
<path d="M70.5331 5.62241H206.754C206.964 5.62328 207.172 5.66663 207.365 5.74988C207.558 5.83313 207.732 5.95456 207.877 6.10682C208.022 6.25909 208.134 6.43904 208.208 6.63587C208.281 6.8327 208.314 7.04231 208.304 7.2521L205.172 83.1954C205.155 83.5946 204.984 83.9718 204.695 84.2482C204.406 84.5246 204.022 84.6787 203.622 84.6784H74.4485C74.052 84.6788 73.6706 84.5267 73.3835 84.2535C73.0964 83.9804 72.9257 83.6073 72.9068 83.2117L68.9833 7.26839C68.9722 7.05832 69.0041 6.84821 69.077 6.65086C69.1499 6.45352 69.2623 6.27311 69.4074 6.1206C69.5524 5.96809 69.727 5.84671 69.9206 5.76386C70.1141 5.68101 70.3226 5.63841 70.5331 5.6387V5.62241Z" fill="#262926" stroke="#262926" stroke-miterlimit="10"/>
<path d="M181.875 157.998H201.044C201.477 157.998 201.892 157.826 202.198 157.52C202.504 157.215 202.676 156.8 202.676 156.368V82.2175C202.676 81.7853 202.504 81.3708 202.198 81.0652C201.892 80.7595 201.477 80.5878 201.044 80.5878H176.573C176.141 80.5878 175.726 80.7595 175.42 81.0652C175.114 81.3708 174.942 81.7853 174.942 82.2175V83.0324C174.942 83.4646 174.77 83.8791 174.464 84.1847C174.158 84.4904 173.743 84.6621 173.311 84.6621H103.161C102.728 84.6621 102.313 84.4904 102.007 84.1847C101.701 83.8791 101.53 83.4646 101.53 83.0324C101.53 82.6002 101.358 82.1856 101.052 81.88C100.746 81.5744 100.331 81.4027 99.8981 81.4027H77.0587C76.626 81.4027 76.2111 81.5744 75.9051 81.88C75.5992 82.1856 75.4273 82.6002 75.4273 83.0324V156.368C75.4273 156.8 75.5992 157.215 75.9051 157.52C76.2111 157.826 76.626 157.998 77.0587 157.998H181.875Z" fill="#D8D8D8" stroke="#D8D8D8" stroke-miterlimit="10"/>
<path d="M120.821 135.068H152.51C152.854 135.068 153.184 135.205 153.428 135.448C153.671 135.691 153.807 136.02 153.807 136.364V150.086C153.807 150.254 153.774 150.42 153.71 150.575C153.646 150.73 153.551 150.871 153.432 150.99C153.313 151.109 153.172 151.203 153.017 151.268C152.861 151.332 152.695 151.365 152.527 151.365H120.503C120.201 151.365 119.912 151.246 119.698 151.034C119.484 150.822 119.363 150.533 119.361 150.232V136.527C119.361 136.14 119.514 135.769 119.788 135.495C120.062 135.222 120.433 135.068 120.821 135.068Z" fill="#CCCCCC" stroke="#CCCCCC" stroke-miterlimit="10"/>
<path d="M77.8744 76.5137L73.7959 10.5115H203.491L200.229 76.5137H77.8744Z" fill="#FEFEFE" stroke="#FEFEFE" stroke-miterlimit="10"/>
<path d="M255.696 46.3645C266.958 46.3645 276.088 37.2441 276.088 25.9935C276.088 14.7428 266.958 5.62241 255.696 5.62241C244.433 5.62241 235.303 14.7428 235.303 25.9935C235.303 37.2441 244.433 46.3645 255.696 46.3645Z" fill="#F9F4F0" stroke="#F9F4F0" stroke-miterlimit="10"/>
<path d="M256.511 39.8458C264.62 39.8458 271.194 33.2791 271.194 25.1786C271.194 17.0782 264.62 10.5115 256.511 10.5115C248.403 10.5115 241.829 17.0782 241.829 25.1786C241.829 33.2791 248.403 39.8458 256.511 39.8458Z" fill="#3A1E08" stroke="#3A1E08" stroke-miterlimit="10"/>
<path d="M256.511 10.5115C254.264 10.5123 252.047 11.0339 250.035 12.0352C250.035 12.3367 249.986 12.6463 249.986 12.956C249.986 16.846 251.533 20.5766 254.286 23.3272C257.04 26.0779 260.774 27.6231 264.668 27.6231C266.916 27.6223 269.133 27.1007 271.145 26.0994C271.145 25.7979 271.194 25.4882 271.194 25.1786C271.194 21.2886 269.647 17.558 266.894 14.8074C264.14 12.0567 260.406 10.5115 256.511 10.5115Z" fill="#533A26" stroke="#533A26" stroke-miterlimit="10"/>
<path d="M84.8078 92.4031H189.217V130.701H85.6235L84.8078 92.4031Z" fill="#BDBDBD" stroke="#BDBDBD" stroke-miterlimit="10"/>
<path d="M86.5778 95.255H93.658C93.7987 95.255 93.9335 95.3108 94.033 95.4101C94.1324 95.5095 94.1883 95.6442 94.1883 95.7847V98.7426C94.1883 98.8982 94.1264 99.0474 94.0162 99.1574C93.9061 99.2674 93.7567 99.3292 93.601 99.3292H86.5778C86.4329 99.3292 86.2939 99.2717 86.1914 99.1693C86.0889 99.067 86.0313 98.9281 86.0313 98.7833V95.8009C86.0313 95.6562 86.0889 95.5173 86.1914 95.4149C86.2939 95.3125 86.4329 95.255 86.5778 95.255Z" fill="#282828"/>
<path d="M97.9975 95.255H105.078C105.218 95.255 105.353 95.3108 105.453 95.4101C105.552 95.5095 105.608 95.6442 105.608 95.7847V98.7426C105.608 98.8196 105.593 98.8959 105.563 98.9671C105.534 99.0382 105.491 99.1029 105.436 99.1574C105.381 99.2119 105.317 99.2551 105.245 99.2846C105.174 99.3141 105.098 99.3292 105.021 99.3292H97.9975C97.8526 99.3292 97.7136 99.2717 97.6111 99.1693C97.5086 99.067 97.451 98.9281 97.451 98.7833V95.8009C97.451 95.7292 97.4652 95.6582 97.4927 95.592C97.5201 95.5258 97.5603 95.4656 97.6111 95.4149C97.6618 95.3642 97.7221 95.324 97.7884 95.2966C97.8547 95.2692 97.9258 95.255 97.9975 95.255Z" fill="#282828"/>
<path d="M110.233 95.255H117.313C117.454 95.255 117.589 95.3108 117.688 95.4101C117.788 95.5095 117.843 95.6442 117.843 95.7847V98.7426C117.843 98.8982 117.782 99.0474 117.671 99.1574C117.561 99.2674 117.412 99.3292 117.256 99.3292H110.233C110.088 99.3292 109.949 99.2717 109.847 99.1693C109.744 99.067 109.686 98.9281 109.686 98.7833V95.8009C109.686 95.6562 109.744 95.5173 109.847 95.4149C109.949 95.3125 110.088 95.255 110.233 95.255Z" fill="#282828"/>
<path d="M121.653 95.255H128.733C128.874 95.255 129.008 95.3108 129.108 95.4101C129.207 95.5095 129.263 95.6442 129.263 95.7847V98.7426C129.263 98.8982 129.201 99.0474 129.091 99.1574C128.981 99.2674 128.832 99.3292 128.676 99.3292H121.653C121.508 99.3292 121.369 99.2717 121.266 99.1693C121.164 99.067 121.106 98.9281 121.106 98.7833V95.8009C121.106 95.6562 121.164 95.5173 121.266 95.4149C121.369 95.3125 121.508 95.255 121.653 95.255Z" fill="#282828"/>
<path d="M133.072 95.255H140.153C140.293 95.255 140.428 95.3108 140.528 95.4101C140.627 95.5095 140.683 95.6442 140.683 95.7847V98.7426C140.683 98.8982 140.621 99.0474 140.511 99.1574C140.401 99.2674 140.251 99.3292 140.096 99.3292H133.072C132.927 99.3292 132.788 99.2717 132.686 99.1693C132.583 99.067 132.526 98.9281 132.526 98.7833V95.8009C132.526 95.7292 132.54 95.6582 132.568 95.592C132.595 95.5258 132.635 95.4656 132.686 95.4149C132.737 95.3642 132.797 95.324 132.863 95.2966C132.93 95.2692 133.001 95.255 133.072 95.255Z" fill="#282828"/>
<path d="M144.492 95.255H151.572C151.713 95.255 151.848 95.3108 151.947 95.4101C152.047 95.5095 152.103 95.6442 152.103 95.7847V98.7426C152.103 98.8982 152.041 99.0474 151.931 99.1574C151.82 99.2674 151.671 99.3292 151.515 99.3292H144.492C144.347 99.3292 144.208 99.2717 144.106 99.1693C144.003 99.067 143.946 98.9281 143.946 98.7833V95.8009C143.946 95.6562 144.003 95.5173 144.106 95.4149C144.208 95.3125 144.347 95.255 144.492 95.255Z" fill="#282828"/>
<path d="M156.728 95.255H163.808C163.948 95.255 164.083 95.3108 164.183 95.4101C164.282 95.5095 164.338 95.6442 164.338 95.7847V98.7426C164.338 98.8196 164.323 98.8959 164.293 98.9671C164.264 99.0382 164.221 99.1029 164.166 99.1574C164.111 99.2119 164.047 99.2551 163.975 99.2846C163.904 99.3141 163.828 99.3292 163.751 99.3292H156.728C156.583 99.3292 156.444 99.2717 156.341 99.1693C156.239 99.067 156.181 98.9281 156.181 98.7833V95.8009C156.181 95.6562 156.239 95.5173 156.341 95.4149C156.444 95.3125 156.583 95.255 156.728 95.255Z" fill="#282828"/>
<path d="M168.147 95.255H175.228C175.368 95.255 175.503 95.3108 175.602 95.4101C175.702 95.5095 175.758 95.6442 175.758 95.7847V98.7426C175.758 98.8982 175.696 99.0474 175.586 99.1574C175.476 99.2674 175.326 99.3292 175.17 99.3292H168.147C168.002 99.3292 167.863 99.2717 167.761 99.1693C167.658 99.067 167.601 98.9281 167.601 98.7833V95.8009C167.601 95.6562 167.658 95.5173 167.761 95.4149C167.863 95.3125 168.002 95.255 168.147 95.255Z" fill="#282828"/>
<path d="M178.751 95.255H185.832C185.972 95.255 186.107 95.3108 186.207 95.4101C186.306 95.5095 186.362 95.6442 186.362 95.7847V98.7426C186.362 98.8196 186.347 98.8959 186.317 98.9671C186.288 99.0382 186.244 99.1029 186.19 99.1574C186.135 99.2119 186.07 99.2551 185.999 99.2846C185.928 99.3141 185.852 99.3292 185.775 99.3292H178.751C178.606 99.3292 178.467 99.2717 178.365 99.1693C178.262 99.067 178.205 98.9281 178.205 98.7833V95.8009C178.205 95.7292 178.219 95.6582 178.246 95.592C178.274 95.5258 178.314 95.4656 178.365 95.4149C178.416 95.3642 178.476 95.324 178.542 95.2966C178.608 95.2692 178.68 95.255 178.751 95.255Z" fill="#282828"/>
<path d="M95.7462 102.181V105.701C95.7483 105.852 95.8091 105.996 95.9158 106.102C96.0224 106.209 96.1664 106.27 96.3172 106.272H101.75C101.824 106.272 101.897 106.257 101.965 106.229C102.033 106.201 102.095 106.159 102.148 106.107C102.2 106.055 102.241 105.993 102.27 105.925C102.298 105.856 102.313 105.783 102.313 105.709V102.092C102.314 102.037 102.304 101.983 102.284 101.933C102.264 101.883 102.234 101.837 102.196 101.798C102.158 101.759 102.113 101.729 102.063 101.708C102.013 101.687 101.959 101.676 101.905 101.676H96.2275C96.0976 101.682 95.9752 101.738 95.8856 101.832C95.796 101.926 95.746 102.051 95.7462 102.181Z" fill="#282828"/>
<path d="M98.9845 109.604V113.067C98.9856 113.142 99.0014 113.216 99.0311 113.285C99.0608 113.354 99.1038 113.416 99.1575 113.468C99.2113 113.521 99.2749 113.562 99.3445 113.589C99.4142 113.617 99.4887 113.631 99.5637 113.63H105.037C105.186 113.63 105.328 113.572 105.435 113.468C105.542 113.365 105.604 113.224 105.608 113.076V109.515C105.608 109.46 105.597 109.407 105.576 109.357C105.555 109.307 105.524 109.262 105.486 109.224C105.447 109.186 105.401 109.156 105.351 109.136C105.3 109.116 105.246 109.106 105.192 109.107H99.4821C99.4168 109.107 99.3521 109.12 99.2917 109.145C99.2313 109.17 99.1765 109.207 99.1303 109.253C99.0841 109.299 99.0474 109.354 99.0224 109.414C98.9974 109.474 98.9845 109.539 98.9845 109.604Z" fill="#282828"/>
<path d="M103.879 116.938V120.401C103.88 120.476 103.896 120.55 103.925 120.619C103.955 120.687 103.998 120.75 104.052 120.802C104.106 120.854 104.169 120.895 104.239 120.923C104.308 120.951 104.383 120.964 104.458 120.963H109.931C110.08 120.963 110.223 120.905 110.329 120.802C110.436 120.699 110.498 120.558 110.502 120.409V116.848C110.502 116.794 110.491 116.74 110.47 116.69C110.449 116.641 110.419 116.595 110.38 116.557C110.341 116.519 110.295 116.489 110.245 116.47C110.194 116.45 110.14 116.44 110.086 116.441H104.376C104.311 116.441 104.246 116.454 104.186 116.479C104.126 116.504 104.071 116.54 104.024 116.586C103.978 116.633 103.942 116.687 103.917 116.748C103.892 116.808 103.879 116.873 103.879 116.938Z" fill="#282828"/>
<path d="M99.0498 124.117V128.109C99.0498 128.196 99.0669 128.281 99.1002 128.361C99.1335 128.44 99.1823 128.513 99.2438 128.573C99.3052 128.634 99.3781 128.682 99.4583 128.714C99.5384 128.746 99.6241 128.762 99.7105 128.761H106.016C106.187 128.761 106.352 128.694 106.474 128.573C106.597 128.453 106.666 128.289 106.668 128.118V124.043C106.666 123.919 106.615 123.801 106.527 123.714C106.438 123.628 106.319 123.579 106.195 123.579H99.6208C99.4748 123.579 99.3343 123.634 99.2281 123.734C99.122 123.834 99.0582 123.971 99.0498 124.117Z" fill="#282828"/>
<path d="M109.654 124.117V128.109C109.654 128.196 109.671 128.281 109.704 128.361C109.738 128.44 109.786 128.513 109.848 128.573C109.909 128.634 109.982 128.682 110.062 128.714C110.142 128.746 110.228 128.762 110.315 128.761H116.62C116.792 128.761 116.956 128.694 117.078 128.573C117.201 128.453 117.27 128.289 117.272 128.118V124.043C117.27 123.919 117.22 123.801 117.131 123.714C117.043 123.628 116.923 123.579 116.799 123.579H110.225C110.079 123.579 109.938 123.634 109.832 123.734C109.726 123.834 109.662 123.971 109.654 124.117Z" fill="#282828"/>
<path d="M112.851 116.938V120.401C112.852 120.476 112.868 120.55 112.898 120.619C112.928 120.687 112.971 120.75 113.024 120.802C113.078 120.854 113.142 120.895 113.211 120.923C113.281 120.951 113.356 120.964 113.431 120.963H118.904C119.052 120.963 119.195 120.905 119.302 120.802C119.409 120.699 119.471 120.558 119.475 120.409V116.848C119.475 116.794 119.464 116.74 119.443 116.69C119.422 116.641 119.391 116.595 119.352 116.557C119.314 116.519 119.268 116.489 119.217 116.47C119.167 116.45 119.113 116.44 119.059 116.441H113.349C113.217 116.441 113.09 116.493 112.997 116.586C112.904 116.68 112.851 116.806 112.851 116.938Z" fill="#282828"/>
<path d="M121.824 116.938V120.401C121.825 120.476 121.841 120.55 121.871 120.619C121.9 120.687 121.943 120.75 121.997 120.802C122.051 120.854 122.114 120.895 122.184 120.923C122.254 120.951 122.328 120.964 122.403 120.963H127.876C128.025 120.963 128.168 120.905 128.275 120.802C128.381 120.699 128.443 120.558 128.447 120.409V116.848C128.447 116.794 128.437 116.74 128.416 116.69C128.395 116.641 128.364 116.595 128.325 116.557C128.286 116.519 128.24 116.489 128.19 116.47C128.14 116.45 128.086 116.44 128.031 116.441H122.322C122.19 116.441 122.063 116.493 121.97 116.586C121.876 116.68 121.824 116.806 121.824 116.938Z" fill="#282828"/>
<path d="M130.797 116.938V120.401C130.798 120.476 130.813 120.55 130.843 120.619C130.873 120.687 130.916 120.75 130.97 120.802C131.023 120.854 131.087 120.895 131.157 120.923C131.226 120.951 131.301 120.964 131.376 120.963H136.849C136.998 120.963 137.141 120.905 137.247 120.802C137.354 120.699 137.416 120.558 137.42 120.409V116.848C137.42 116.794 137.409 116.74 137.388 116.69C137.367 116.641 137.336 116.595 137.298 116.557C137.259 116.519 137.213 116.489 137.163 116.47C137.112 116.45 137.058 116.44 137.004 116.441H131.294C131.162 116.441 131.036 116.493 130.942 116.586C130.849 116.68 130.797 116.806 130.797 116.938Z" fill="#282828"/>
<path d="M139.769 116.938V120.401C139.77 120.476 139.786 120.55 139.816 120.619C139.846 120.687 139.889 120.75 139.942 120.802C139.996 120.854 140.06 120.895 140.129 120.923C140.199 120.951 140.273 120.964 140.348 120.963H145.822C145.97 120.963 146.113 120.905 146.22 120.802C146.326 120.699 146.388 120.558 146.393 120.409V116.848C146.393 116.794 146.382 116.74 146.361 116.69C146.34 116.641 146.309 116.595 146.27 116.557C146.232 116.519 146.186 116.489 146.135 116.47C146.085 116.45 146.031 116.44 145.977 116.441H140.267C140.135 116.441 140.008 116.493 139.915 116.586C139.822 116.68 139.769 116.806 139.769 116.938Z" fill="#282828"/>
<path d="M148.742 116.938V120.401C148.743 120.476 148.759 120.55 148.788 120.619C148.818 120.687 148.861 120.75 148.915 120.802C148.969 120.854 149.032 120.895 149.102 120.923C149.172 120.951 149.246 120.964 149.321 120.963H154.794C154.943 120.963 155.086 120.905 155.192 120.802C155.299 120.699 155.361 120.558 155.365 120.409V116.848C155.365 116.794 155.355 116.74 155.334 116.69C155.313 116.641 155.282 116.595 155.243 116.557C155.204 116.519 155.158 116.489 155.108 116.47C155.057 116.45 155.004 116.44 154.949 116.441H149.239C149.174 116.441 149.109 116.454 149.049 116.479C148.989 116.504 148.934 116.54 148.888 116.586C148.841 116.633 148.805 116.687 148.78 116.748C148.755 116.808 148.742 116.873 148.742 116.938Z" fill="#282828"/>
<path d="M157.715 116.938V120.401C157.716 120.476 157.731 120.55 157.761 120.619C157.791 120.687 157.834 120.75 157.888 120.802C157.941 120.854 158.005 120.895 158.075 120.923C158.144 120.951 158.219 120.964 158.294 120.963H163.767C163.916 120.963 164.058 120.905 164.165 120.802C164.272 120.699 164.334 120.558 164.338 120.409V116.848C164.338 116.794 164.327 116.74 164.306 116.69C164.285 116.641 164.254 116.595 164.216 116.557C164.177 116.519 164.131 116.489 164.081 116.47C164.03 116.45 163.976 116.44 163.922 116.441H158.212C158.147 116.441 158.082 116.454 158.022 116.479C157.961 116.504 157.906 116.54 157.86 116.586C157.814 116.633 157.777 116.687 157.752 116.748C157.727 116.808 157.715 116.873 157.715 116.938Z" fill="#282828"/>
<path d="M166.687 116.938V120.401C166.688 120.476 166.704 120.55 166.734 120.619C166.763 120.687 166.806 120.75 166.86 120.802C166.914 120.854 166.978 120.895 167.047 120.923C167.117 120.951 167.191 120.964 167.266 120.963H172.74C172.888 120.963 173.031 120.905 173.138 120.802C173.244 120.699 173.306 120.558 173.311 120.409V116.848C173.311 116.794 173.3 116.74 173.279 116.69C173.258 116.641 173.227 116.595 173.188 116.557C173.15 116.519 173.104 116.489 173.053 116.47C173.003 116.45 172.949 116.44 172.895 116.441H167.185C167.119 116.441 167.055 116.454 166.994 116.479C166.934 116.504 166.879 116.54 166.833 116.586C166.787 116.633 166.75 116.687 166.725 116.748C166.7 116.808 166.687 116.873 166.687 116.938Z" fill="#282828"/>
<path d="M175.839 116.938V120.401C175.839 120.711 176.206 120.963 176.655 120.963H184.535C184.983 120.963 185.35 120.711 185.35 120.409V116.848C185.35 116.62 185.081 116.441 184.755 116.441H176.565C176.166 116.441 175.839 116.661 175.839 116.938Z" fill="#282828"/>
<path d="M107.957 109.604V113.067C107.958 113.142 107.974 113.216 108.004 113.285C108.033 113.354 108.076 113.416 108.13 113.468C108.184 113.521 108.247 113.562 108.317 113.589C108.387 113.617 108.461 113.631 108.536 113.63H114.01C114.158 113.63 114.301 113.572 114.408 113.468C114.514 113.365 114.576 113.224 114.581 113.076V109.515C114.581 109.46 114.57 109.407 114.549 109.357C114.528 109.307 114.497 109.262 114.458 109.224C114.42 109.186 114.374 109.156 114.323 109.136C114.273 109.116 114.219 109.106 114.165 109.107H108.455C108.389 109.107 108.325 109.12 108.264 109.145C108.204 109.17 108.149 109.207 108.103 109.253C108.057 109.299 108.02 109.354 107.995 109.414C107.97 109.474 107.957 109.539 107.957 109.604Z" fill="#282828"/>
<path d="M116.93 109.604V113.067C116.931 113.142 116.947 113.216 116.976 113.285C117.006 113.354 117.049 113.416 117.103 113.468C117.157 113.521 117.22 113.562 117.29 113.589C117.36 113.617 117.434 113.631 117.509 113.63H122.982C123.131 113.63 123.274 113.572 123.38 113.468C123.487 113.365 123.549 113.224 123.553 113.076V109.515C123.553 109.46 123.542 109.407 123.521 109.357C123.5 109.307 123.47 109.262 123.431 109.224C123.392 109.186 123.346 109.156 123.296 109.136C123.245 109.116 123.191 109.106 123.137 109.107H117.427C117.362 109.107 117.297 109.12 117.237 109.145C117.177 109.17 117.122 109.207 117.076 109.253C117.029 109.299 116.993 109.354 116.968 109.414C116.943 109.474 116.93 109.539 116.93 109.604Z" fill="#282828"/>
<path d="M125.902 109.604V113.067C125.904 113.142 125.919 113.216 125.949 113.285C125.979 113.354 126.022 113.416 126.075 113.468C126.129 113.521 126.193 113.562 126.262 113.589C126.332 113.617 126.407 113.631 126.482 113.63H131.955C132.104 113.63 132.246 113.572 132.353 113.468C132.46 113.365 132.522 113.224 132.526 113.076V109.515C132.526 109.46 132.515 109.407 132.494 109.357C132.473 109.307 132.442 109.262 132.404 109.224C132.365 109.186 132.319 109.156 132.268 109.136C132.218 109.116 132.164 109.106 132.11 109.107H126.4C126.268 109.107 126.142 109.16 126.048 109.253C125.955 109.346 125.902 109.472 125.902 109.604Z" fill="#282828"/>
<path d="M134.875 109.604V113.067C134.876 113.142 134.892 113.216 134.922 113.285C134.951 113.354 134.994 113.416 135.048 113.468C135.102 113.521 135.165 113.562 135.235 113.589C135.305 113.617 135.379 113.631 135.454 113.63H140.928C141.076 113.63 141.219 113.572 141.326 113.468C141.432 113.365 141.494 113.224 141.499 113.076V109.515C141.499 109.46 141.488 109.407 141.467 109.357C141.446 109.307 141.415 109.262 141.376 109.224C141.337 109.186 141.292 109.156 141.241 109.136C141.191 109.116 141.137 109.106 141.083 109.107H135.373C135.241 109.107 135.114 109.16 135.021 109.253C134.928 109.346 134.875 109.472 134.875 109.604Z" fill="#282828"/>
<path d="M143.848 109.604V113.067C143.849 113.142 143.865 113.216 143.894 113.285C143.924 113.354 143.967 113.416 144.021 113.468C144.075 113.521 144.138 113.562 144.208 113.589C144.277 113.617 144.352 113.631 144.427 113.63H149.9C150.049 113.63 150.192 113.572 150.298 113.468C150.405 113.365 150.467 113.224 150.471 113.076V109.515C150.471 109.46 150.46 109.407 150.439 109.357C150.418 109.307 150.388 109.262 150.349 109.224C150.31 109.186 150.264 109.156 150.214 109.136C150.163 109.116 150.109 109.106 150.055 109.107H144.345C144.213 109.107 144.087 109.16 143.993 109.253C143.9 109.346 143.848 109.472 143.848 109.604Z" fill="#282828"/>
<path d="M152.82 109.604V113.067C152.821 113.142 152.837 113.216 152.867 113.285C152.897 113.354 152.94 113.416 152.993 113.468C153.047 113.521 153.111 113.562 153.18 113.589C153.25 113.617 153.325 113.631 153.4 113.63H158.873C159.021 113.63 159.164 113.572 159.271 113.468C159.378 113.365 159.44 113.224 159.444 113.076V109.515C159.444 109.46 159.433 109.407 159.412 109.357C159.391 109.307 159.36 109.262 159.321 109.224C159.283 109.186 159.237 109.156 159.186 109.136C159.136 109.116 159.082 109.106 159.028 109.107H153.318C153.253 109.107 153.188 109.12 153.128 109.145C153.067 109.17 153.012 109.207 152.966 109.253C152.92 109.299 152.883 109.354 152.858 109.414C152.833 109.474 152.82 109.539 152.82 109.604Z" fill="#282828"/>
<path d="M161.793 109.604V113.067C161.794 113.142 161.81 113.216 161.84 113.285C161.869 113.354 161.912 113.416 161.966 113.468C162.02 113.521 162.083 113.562 162.153 113.589C162.223 113.617 162.297 113.631 162.372 113.63H167.845C167.994 113.63 168.137 113.572 168.244 113.468C168.35 113.365 168.412 113.224 168.416 113.076V109.515C168.416 109.46 168.406 109.407 168.385 109.357C168.364 109.307 168.333 109.262 168.294 109.224C168.255 109.186 168.209 109.156 168.159 109.136C168.109 109.116 168.055 109.106 168 109.107H162.291C162.225 109.107 162.161 109.12 162.1 109.145C162.04 109.17 161.985 109.207 161.939 109.253C161.893 109.299 161.856 109.354 161.831 109.414C161.806 109.474 161.793 109.539 161.793 109.604Z" fill="#282828"/>
<path d="M170.766 109.604V113.067C170.767 113.142 170.783 113.216 170.812 113.285C170.842 113.354 170.885 113.416 170.939 113.468C170.992 113.521 171.056 113.562 171.126 113.589C171.195 113.617 171.27 113.631 171.345 113.63H176.818C176.967 113.63 177.11 113.572 177.216 113.468C177.323 113.365 177.385 113.224 177.389 113.076V109.515C177.389 109.46 177.378 109.407 177.357 109.357C177.336 109.307 177.306 109.262 177.267 109.224C177.228 109.186 177.182 109.156 177.132 109.136C177.081 109.116 177.027 109.106 176.973 109.107H171.263C171.198 109.107 171.133 109.12 171.073 109.145C171.012 109.17 170.958 109.207 170.911 109.253C170.865 109.299 170.829 109.354 170.804 109.414C170.779 109.474 170.766 109.539 170.766 109.604Z" fill="#282828"/>
<path d="M179.738 109.604V113.067C179.739 113.142 179.755 113.216 179.785 113.285C179.815 113.354 179.858 113.416 179.911 113.468C179.965 113.521 180.029 113.562 180.098 113.589C180.168 113.617 180.242 113.631 180.317 113.63H185.791C185.939 113.63 186.082 113.572 186.189 113.468C186.296 113.365 186.358 113.224 186.362 113.076V109.515C186.362 109.46 186.351 109.407 186.33 109.357C186.309 109.307 186.278 109.262 186.239 109.224C186.201 109.186 186.155 109.156 186.104 109.136C186.054 109.116 186 109.106 185.946 109.107H180.236C180.171 109.107 180.106 109.12 180.045 109.145C179.985 109.17 179.93 109.207 179.884 109.253C179.838 109.299 179.801 109.354 179.776 109.414C179.751 109.474 179.738 109.539 179.738 109.604Z" fill="#282828"/>
<path d="M104.719 102.181V105.701C104.721 105.852 104.782 105.996 104.888 106.102C104.995 106.209 105.139 106.27 105.29 106.272H110.722C110.872 106.272 111.015 106.212 111.12 106.107C111.226 106.002 111.285 105.859 111.285 105.709V102.092C111.286 102.037 111.277 101.983 111.257 101.933C111.237 101.883 111.207 101.837 111.169 101.798C111.131 101.759 111.085 101.729 111.035 101.708C110.985 101.687 110.932 101.676 110.877 101.676H105.2C105.07 101.682 104.948 101.738 104.858 101.832C104.769 101.926 104.719 102.051 104.719 102.181Z" fill="#282828"/>
<path d="M113.691 102.181V105.701C113.694 105.852 113.754 105.996 113.861 106.102C113.968 106.209 114.112 106.27 114.262 106.272H119.695C119.769 106.272 119.842 106.257 119.91 106.229C119.979 106.201 120.041 106.159 120.093 106.107C120.145 106.055 120.187 105.993 120.215 105.925C120.243 105.856 120.258 105.783 120.258 105.709V102.092C120.259 102.037 120.249 101.983 120.229 101.933C120.209 101.883 120.179 101.837 120.141 101.798C120.103 101.759 120.058 101.729 120.008 101.708C119.958 101.687 119.904 101.676 119.85 101.676H114.173C114.043 101.682 113.921 101.738 113.831 101.832C113.741 101.926 113.691 102.051 113.691 102.181Z" fill="#282828"/>
<path d="M122.664 102.181V105.701C122.666 105.852 122.727 105.996 122.834 106.102C122.94 106.209 123.084 106.27 123.235 106.272H128.668C128.817 106.272 128.96 106.212 129.066 106.107C129.171 106.002 129.231 105.859 129.231 105.709V102.092C129.232 102.037 129.222 101.983 129.202 101.933C129.182 101.883 129.152 101.837 129.114 101.798C129.076 101.759 129.031 101.729 128.981 101.708C128.931 101.687 128.877 101.676 128.823 101.676H123.145C123.016 101.682 122.893 101.738 122.804 101.832C122.714 101.926 122.664 102.051 122.664 102.181Z" fill="#282828"/>
<path d="M131.637 102.181V105.701C131.639 105.852 131.7 105.996 131.806 106.102C131.913 106.209 132.057 106.27 132.208 106.272H137.64C137.714 106.272 137.787 106.257 137.856 106.229C137.924 106.201 137.986 106.159 138.038 106.107C138.091 106.055 138.132 105.993 138.16 105.925C138.189 105.856 138.203 105.783 138.203 105.709V102.092C138.204 102.037 138.194 101.983 138.174 101.933C138.154 101.883 138.125 101.837 138.087 101.798C138.049 101.759 138.003 101.729 137.953 101.708C137.903 101.687 137.85 101.676 137.795 101.676H132.118C131.988 101.682 131.866 101.738 131.776 101.832C131.687 101.926 131.637 102.051 131.637 102.181Z" fill="#282828"/>
<path d="M140.609 102.181V105.701C140.612 105.852 140.672 105.996 140.779 106.102C140.886 106.209 141.03 106.27 141.18 106.272H146.613C146.762 106.272 146.905 106.212 147.011 106.107C147.116 106.002 147.176 105.859 147.176 105.709V102.092C147.177 102.037 147.167 101.983 147.147 101.933C147.127 101.883 147.097 101.837 147.059 101.798C147.021 101.759 146.976 101.729 146.926 101.708C146.876 101.687 146.822 101.676 146.768 101.676H141.091C140.961 101.682 140.838 101.738 140.749 101.832C140.659 101.926 140.609 102.051 140.609 102.181Z" fill="#282828"/>
<path d="M149.582 102.181V105.701C149.584 105.852 149.645 105.996 149.752 106.102C149.858 106.209 150.002 106.27 150.153 106.272H155.586C155.66 106.272 155.733 106.257 155.801 106.229C155.869 106.201 155.931 106.159 155.984 106.107C156.036 106.055 156.077 105.993 156.106 105.925C156.134 105.856 156.148 105.783 156.148 105.709V102.092C156.15 102.037 156.14 101.983 156.12 101.933C156.1 101.883 156.07 101.837 156.032 101.798C155.994 101.759 155.949 101.729 155.899 101.708C155.849 101.687 155.795 101.676 155.741 101.676H150.063C149.933 101.682 149.811 101.738 149.721 101.832C149.632 101.926 149.582 102.051 149.582 102.181Z" fill="#282828"/>
<path d="M158.555 102.181V105.701C158.557 105.852 158.618 105.996 158.724 106.102C158.831 106.209 158.975 106.27 159.126 106.272H164.558C164.708 106.272 164.851 106.212 164.956 106.107C165.062 106.002 165.121 105.859 165.121 105.709V102.092C165.122 102.037 165.112 101.983 165.092 101.933C165.072 101.883 165.043 101.837 165.005 101.798C164.967 101.759 164.921 101.729 164.871 101.708C164.821 101.687 164.767 101.676 164.713 101.676H159.036C158.906 101.682 158.784 101.738 158.694 101.832C158.604 101.926 158.555 102.051 158.555 102.181Z" fill="#282828"/>
<path d="M167.527 102.181V105.701C167.529 105.852 167.59 105.996 167.697 106.102C167.804 106.209 167.948 106.27 168.098 106.272H173.531C173.605 106.272 173.678 106.257 173.746 106.229C173.815 106.201 173.877 106.159 173.929 106.107C173.981 106.055 174.023 105.993 174.051 105.925C174.079 105.856 174.094 105.783 174.094 105.709V102.092C174.095 102.037 174.085 101.983 174.065 101.933C174.045 101.883 174.015 101.837 173.977 101.798C173.939 101.759 173.894 101.729 173.844 101.708C173.794 101.687 173.74 101.676 173.686 101.676H168.009C167.879 101.682 167.756 101.738 167.667 101.832C167.577 101.926 167.527 102.051 167.527 102.181Z" fill="#282828"/>
<path d="M176.655 102.255V105.677C176.655 105.986 177.03 106.231 177.471 106.231H185.342C185.799 106.231 186.158 105.986 186.158 105.685V102.181C186.158 101.961 185.897 101.782 185.562 101.782H177.405C176.981 101.766 176.655 101.977 176.655 102.255Z" fill="#282828"/>
<path d="M86.7736 102.181V105.701C86.7757 105.852 86.8365 105.996 86.9431 106.102C87.0498 106.209 87.1938 106.27 87.3446 106.272H92.7771C92.9264 106.272 93.0695 106.212 93.1751 106.107C93.2806 106.002 93.3399 105.859 93.3399 105.709V102.092C93.341 102.037 93.3313 101.983 93.3113 101.933C93.2913 101.883 93.2614 101.837 93.2234 101.798C93.1854 101.759 93.1401 101.729 93.0901 101.708C93.04 101.687 92.9864 101.676 92.9321 101.676H87.2548C87.125 101.682 87.0026 101.738 86.913 101.832C86.8234 101.926 86.7734 102.051 86.7736 102.181Z" fill="#282828"/>
<path d="M86.8225 109.262V112.856C86.8287 112.938 86.8512 113.019 86.8886 113.092C86.926 113.166 86.9777 113.232 87.0406 113.286C87.1035 113.339 87.1764 113.38 87.2552 113.406C87.334 113.431 87.417 113.441 87.4996 113.434H95.8686C96.0478 113.448 96.2252 113.39 96.3625 113.275C96.4998 113.159 96.5861 112.994 96.6027 112.815V109.515C96.5882 109.353 96.5108 109.204 96.3873 109.099C96.2638 108.994 96.1039 108.941 95.942 108.953H87.2549C87.157 108.94 87.0581 108.965 86.978 109.023C86.8978 109.08 86.8423 109.166 86.8225 109.262Z" fill="#282828"/>
<path d="M86.8715 116.742V120.637C86.8838 120.751 86.9404 120.854 87.0291 120.926C87.1177 120.998 87.2311 121.032 87.3446 121.02H100.812C100.977 121.036 101.142 120.988 101.271 120.884C101.401 120.781 101.485 120.631 101.505 120.466V116.718C101.489 116.574 101.416 116.443 101.303 116.353C101.19 116.263 101.045 116.221 100.901 116.237H87.5077C87.3569 116.223 87.2065 116.268 87.088 116.362C86.9694 116.456 86.8919 116.592 86.8715 116.742Z" fill="#282828"/>
<path d="M87.573 124.361V128.085C87.573 128.262 87.6435 128.432 87.7689 128.557C87.8943 128.683 88.0645 128.753 88.2419 128.753H95.787C95.9045 128.753 96.0208 128.73 96.1292 128.685C96.2376 128.64 96.3359 128.573 96.4186 128.49C96.5013 128.407 96.5666 128.308 96.6108 128.199C96.655 128.09 96.6772 127.974 96.6761 127.857V124.312C96.6761 124.111 96.5962 123.919 96.4539 123.776C96.3117 123.634 96.1187 123.554 95.9175 123.554H88.3805C88.167 123.557 87.9628 123.642 87.8119 123.793C87.6609 123.944 87.5751 124.148 87.573 124.361Z" fill="#282828"/>
<path d="M120.935 123.546H155.577C155.654 123.543 155.729 123.555 155.801 123.581C155.873 123.607 155.938 123.647 155.994 123.698C156.05 123.75 156.096 123.812 156.128 123.881C156.16 123.95 156.178 124.024 156.181 124.1V128.37C156.179 128.424 156.166 128.476 156.144 128.525C156.121 128.574 156.09 128.617 156.05 128.654C156.011 128.69 155.965 128.718 155.914 128.737C155.864 128.755 155.81 128.763 155.757 128.761H120.959C120.79 128.768 120.624 128.708 120.499 128.593C120.374 128.479 120.299 128.319 120.29 128.15V124.133C120.294 124.052 120.313 123.972 120.347 123.899C120.381 123.825 120.43 123.759 120.49 123.705C120.55 123.65 120.62 123.608 120.696 123.581C120.773 123.554 120.854 123.542 120.935 123.546Z" fill="#282828"/>
<path d="M158.628 125.665V128.386C158.628 128.46 158.657 128.53 158.709 128.582C158.761 128.634 158.832 128.664 158.905 128.664H166.467C166.551 128.661 166.63 128.627 166.69 128.568C166.749 128.509 166.783 128.429 166.785 128.346V125.722C166.783 125.638 166.749 125.559 166.69 125.5C166.63 125.44 166.551 125.406 166.467 125.404H158.889C158.82 125.404 158.754 125.432 158.705 125.481C158.656 125.529 158.628 125.596 158.628 125.665Z" fill="#282828"/>
<path d="M177.389 125.665V128.386C177.389 128.46 177.418 128.53 177.47 128.582C177.522 128.634 177.593 128.664 177.666 128.664H185.228C185.312 128.661 185.391 128.627 185.451 128.568C185.51 128.509 185.544 128.429 185.546 128.346V125.722C185.544 125.638 185.51 125.559 185.451 125.5C185.391 125.44 185.312 125.406 185.228 125.404H177.65C177.581 125.404 177.515 125.432 177.466 125.481C177.417 125.529 177.389 125.596 177.389 125.665Z" fill="#282828"/>
<path d="M169.232 126.814V128.851C169.232 128.957 169.297 129.046 169.379 129.046H176.035C176.108 129.046 176.166 128.965 176.166 128.859V126.822C176.166 126.716 176.1 126.626 176.027 126.626H169.363C169.289 126.626 169.232 126.708 169.232 126.814Z" fill="#282828"/>
<path d="M169.232 123.579V125.608C169.232 125.714 169.297 125.803 169.379 125.803H176.035C176.108 125.803 176.166 125.722 176.166 125.616V123.587C176.166 123.481 176.1 123.392 176.027 123.392H169.363C169.289 123.367 169.232 123.473 169.232 123.579Z" fill="#282828"/>
<path d="M260.247 86.3977L306.823 105.718L276.945 162.781L233.003 143.469L260.247 86.3977Z" fill="#8BC0F0" stroke="#8BC0F0" stroke-miterlimit="10"/>
<path d="M305.404 105.188L352.429 124.695L322.256 182.313L277.891 162.814L305.404 105.188Z" fill="#8BC0F0" stroke="#8BC0F0" stroke-miterlimit="10"/>
<path d="M237.751 142.516L262.221 89.5511L304.637 106.663L279.351 159.628L237.751 142.516Z" fill="white" stroke="#EFEFEF" stroke-miterlimit="10"/>
<path d="M305.453 107.478L348.685 125.404L320.951 178.369L280.167 160.442L305.453 107.478Z" fill="white" stroke="#EFEFEF" stroke-miterlimit="10"/>
<path d="M300.176 115.121L297.688 120.336" stroke="#BBBBBB" stroke-miterlimit="10"/>
<path d="M287.842 140.951L285.354 146.166" stroke="#BBBBBB" stroke-miterlimit="10"/>
<path d="M304.637 114.811L308.716 116.441L311.979 118.071L315.241 119.7L318.504 120.515L321.767 122.145L324.214 122.96L327.477 124.589L330.74 126.219L333.187 127.849L335.634 128.664L339.712 130.293" fill="#F8F8F8"/>
<path d="M304.637 114.811L308.716 116.441L311.979 118.071L315.241 119.7L318.504 120.515L321.767 122.145L324.214 122.96L327.477 124.589L330.74 126.219L333.187 127.849L335.634 128.664L339.712 130.293" stroke="#F8F8F8" stroke-miterlimit="10"/>
<path d="M262.221 96.8847L266.3 98.5144L269.563 100.144L272.825 101.774L276.088 102.589L279.351 104.218L281.798 105.033L285.061 106.663L288.324 108.292L290.771 109.922L293.218 110.737L297.296 112.367" fill="#F8F8F8"/>
<path d="M262.221 96.8847L266.3 98.5144L269.563 100.144L272.825 101.774L276.088 102.589L279.351 104.218L281.798 105.033L285.061 106.663L288.324 108.292L290.771 109.922L293.218 110.737L297.296 112.367" stroke="#F8F8F8" stroke-miterlimit="10"/>
<path d="M260.59 100.144L264.668 101.774L267.931 103.403L271.194 105.033L274.457 105.848L277.72 107.478L280.167 108.292L283.429 109.922L286.692 111.552L289.139 113.182L291.586 113.996L295.665 115.626" fill="#F8F8F8"/>
<path d="M260.59 100.144L264.668 101.774L267.931 103.403L271.194 105.033L274.457 105.848L277.72 107.478L280.167 108.292L283.429 109.922L286.692 111.552L289.139 113.182L291.586 113.996L295.665 115.626" stroke="#F8F8F8" stroke-miterlimit="10"/>
<path d="M258.143 103.403L262.221 105.033L265.484 106.663L268.747 108.292L272.01 109.107L275.272 110.737L277.72 111.552L280.982 113.182L284.245 114.811L286.692 116.441L289.139 117.256L293.218 118.885" fill="#F8F8F8"/>
<path d="M258.143 103.403L262.221 105.033L265.484 106.663L268.747 108.292L272.01 109.107L275.272 110.737L277.72 111.552L280.982 113.182L284.245 114.811L286.692 116.441L289.139 117.256L293.218 118.885" stroke="#F8F8F8" stroke-miterlimit="10"/>
<path d="M256.511 108.292L260.59 109.922L263.853 111.552L267.116 113.182L270.378 113.996L273.641 115.626L276.088 116.441L279.351 118.071L282.614 119.7L285.061 121.33L287.508 122.145L291.586 123.774" fill="#F8F8F8"/>
<path d="M256.511 108.292L260.59 109.922L263.853 111.552L267.116 113.182L270.378 113.996L273.641 115.626L276.088 116.441L279.351 118.071L282.614 119.7L285.061 121.33L287.508 122.145L291.586 123.774" stroke="#F8F8F8" stroke-miterlimit="10"/>
<path d="M254.064 112.367L258.143 113.996L261.406 115.626L264.668 117.256L267.931 118.071L271.194 119.7L273.641 120.515L276.904 122.145L280.167 123.774L282.614 125.404L285.061 126.219L289.139 127.849" fill="#F8F8F8"/>
<path d="M254.064 112.367L258.143 113.996L261.406 115.626L264.668 117.256L267.931 118.071L271.194 119.7L273.641 120.515L276.904 122.145L280.167 123.774L282.614 125.404L285.061 126.219L289.139 127.849" stroke="#F8F8F8" stroke-miterlimit="10"/>
<path d="M253.249 116.441L257.327 118.071L260.59 119.7L263.853 121.33L267.116 122.145L270.378 123.774L272.825 124.589L276.088 126.219L279.351 127.849L281.798 129.478L284.245 130.293L288.324 131.923" fill="#F8F8F8"/>
<path d="M253.249 116.441L257.327 118.071L260.59 119.7L263.853 121.33L267.116 122.145L270.378 123.774L272.825 124.589L276.088 126.219L279.351 127.849L281.798 129.478L284.245 130.293L288.324 131.923" stroke="#F8F8F8" stroke-miterlimit="10"/>
<path d="M249.986 120.515L254.064 122.145L257.327 123.774L260.59 125.404L263.853 126.219L267.116 127.849L269.563 128.664L272.825 130.293L276.088 131.923L278.535 133.553L280.982 134.367L285.061 135.997" fill="#F8F8F8"/>
<path d="M249.986 120.515L254.064 122.145L257.327 123.774L260.59 125.404L263.853 126.219L267.116 127.849L269.563 128.664L272.825 130.293L276.088 131.923L278.535 133.553L280.982 134.367L285.061 135.997" stroke="#F8F8F8" stroke-miterlimit="10"/>
<path d="M248.355 124.589L252.433 126.219L255.696 127.849L258.959 129.478L262.221 130.293L265.484 131.923L267.931 132.738L271.194 134.367L274.457 135.997L276.904 137.627L279.351 138.442L283.429 140.071" fill="#F8F8F8"/>
<path d="M248.355 124.589L252.433 126.219L255.696 127.849L258.959 129.478L262.221 130.293L265.484 131.923L267.931 132.738L271.194 134.367L274.457 135.997L276.904 137.627L279.351 138.442L283.429 140.071" stroke="#F8F8F8" stroke-miterlimit="10"/>
<path d="M245.907 130.293L249.986 131.923L253.249 133.553L256.511 135.182L259.774 135.997L263.037 137.627L265.484 138.442L268.747 140.071L272.01 141.701L274.457 143.331L276.904 144.145L280.982 145.775" fill="#F8F8F8"/>
<path d="M245.907 130.293L249.986 131.923L253.249 133.553L256.511 135.182L259.774 135.997L263.037 137.627L265.484 138.442L268.747 140.071L272.01 141.701L274.457 143.331L276.904 144.145L280.982 145.775" stroke="#F8F8F8" stroke-miterlimit="10"/>
<path d="M244.276 135.182L248.355 136.812L251.617 138.442L254.88 140.071L258.143 140.886L261.406 142.516L263.853 143.331L267.116 144.96L270.378 146.59L272.825 148.22L275.272 149.035L279.351 150.664" fill="#F8F8F8"/>
<path d="M244.276 135.182L248.355 136.812L251.617 138.442L254.88 140.071L258.143 140.886L261.406 142.516L263.853 143.331L267.116 144.96L270.378 146.59L272.825 148.22L275.272 149.035L279.351 150.664" stroke="#F8F8F8" stroke-miterlimit="10"/>
<path d="M241.829 138.442L245.907 140.071L249.17 141.701L252.433 143.331L255.696 144.145L258.959 145.775L261.406 146.59L264.668 148.22L267.931 149.849L270.378 151.479L272.825 152.294L276.904 153.924" fill="#F8F8F8"/>
<path d="M241.829 138.442L245.907 140.071L249.17 141.701L252.433 143.331L255.696 144.145L258.959 145.775L261.406 146.59L264.668 148.22L267.931 149.849L270.378 151.479L272.825 152.294L276.904 153.924" stroke="#F8F8F8" stroke-miterlimit="10"/>
<path d="M303.006 118.071L307.085 119.7L310.347 121.33L313.61 122.96L316.873 123.774L320.136 125.404L322.583 126.219L325.846 127.849L329.108 129.478L331.555 131.108L334.002 131.923L338.081 133.553" fill="#F8F8F8"/>
<path d="M303.006 118.071L307.085 119.7L310.347 121.33L313.61 122.96L316.873 123.774L320.136 125.404L322.583 126.219L325.846 127.849L329.108 129.478L331.555 131.108L334.002 131.923L338.081 133.553" stroke="#F8F8F8" stroke-miterlimit="10"/>
<path d="M300.559 122.145L304.637 123.774L307.9 125.404L311.163 127.034L314.426 127.849L317.689 129.478L320.136 130.293L323.398 131.923L326.661 133.553L329.108 135.182L331.555 135.997L335.634 137.627" fill="#F8F8F8"/>
<path d="M300.559 122.145L304.637 123.774L307.9 125.404L311.163 127.034L314.426 127.849L317.689 129.478L320.136 130.293L323.398 131.923L326.661 133.553L329.108 135.182L331.555 135.997L335.634 137.627" stroke="#F8F8F8" stroke-miterlimit="10"/>
<path d="M298.928 126.219L303.006 127.849L306.269 129.478L309.532 131.108L312.794 131.923L316.057 133.553L318.504 134.367L321.767 135.997L325.03 137.627L327.477 139.256L329.924 140.071L334.002 141.701" fill="#F8F8F8"/>
<path d="M298.928 126.219L303.006 127.849L306.269 129.478L309.532 131.108L312.794 131.923L316.057 133.553L318.504 134.367L321.767 135.997L325.03 137.627L327.477 139.256L329.924 140.071L334.002 141.701" stroke="#F8F8F8" stroke-miterlimit="10"/>
<path d="M297.296 130.293L301.375 131.923L304.637 133.553L307.9 135.182L311.163 135.997L314.426 137.627L316.873 138.442L320.136 140.071L323.398 141.701L325.846 143.331L328.293 144.145L332.371 145.775" fill="#F8F8F8"/>
<path d="M297.296 130.293L301.375 131.923L304.637 133.553L307.9 135.182L311.163 135.997L314.426 137.627L316.873 138.442L320.136 140.071L323.398 141.701L325.846 143.331L328.293 144.145L332.371 145.775" stroke="#F8F8F8" stroke-miterlimit="10"/>
<path d="M294.849 133.553L298.928 135.182L302.19 136.812L305.453 138.442L308.716 139.256L311.979 140.886L314.426 141.701L317.689 143.331L320.951 144.96L323.398 146.59L325.846 147.405L329.924 149.035" fill="#F8F8F8"/>
<path d="M294.849 133.553L298.928 135.182L302.19 136.812L305.453 138.442L308.716 139.256L311.979 140.886L314.426 141.701L317.689 143.331L320.951 144.96L323.398 146.59L325.846 147.405L329.924 149.035" stroke="#F8F8F8" stroke-miterlimit="10"/>
<path d="M293.218 136.812L297.296 138.442L300.559 140.071L303.822 141.701L307.085 142.516L310.347 144.146L312.794 144.96L316.057 146.59L319.32 148.22L321.767 149.849L324.214 150.664L328.293 152.294" fill="#F8F8F8"/>
<path d="M293.218 136.812L297.296 138.442L300.559 140.071L303.822 141.701L307.085 142.516L310.347 144.146L312.794 144.96L316.057 146.59L319.32 148.22L321.767 149.849L324.214 150.664L328.293 152.294" stroke="#F8F8F8" stroke-miterlimit="10"/>
<path d="M291.586 140.886L295.665 142.516L298.928 144.146L302.19 145.775L305.453 146.59L308.716 148.22L311.163 149.035L314.426 150.664L317.689 152.294L320.136 153.924L322.583 154.738L326.661 156.368" fill="#F8F8F8"/>
<path d="M291.586 140.886L295.665 142.516L298.928 144.146L302.19 145.775L305.453 146.59L308.716 148.22L311.163 149.035L314.426 150.664L317.689 152.294L320.136 153.924L322.583 154.738L326.661 156.368" stroke="#F8F8F8" stroke-miterlimit="10"/>
<path d="M289.139 144.96L293.218 146.59L296.481 148.22L299.743 149.849L303.006 150.664L306.269 152.294L308.716 153.109L311.979 154.738L315.241 156.368L317.689 157.998L320.136 158.813L324.214 160.442" fill="#F8F8F8"/>
<path d="M289.139 144.96L293.218 146.59L296.481 148.22L299.743 149.849L303.006 150.664L306.269 152.294L308.716 153.109L311.979 154.738L315.241 156.368L317.689 157.998L320.136 158.813L324.214 160.442" stroke="#F8F8F8" stroke-miterlimit="10"/>
<path d="M287.508 149.035L291.586 150.664L294.849 152.294L298.112 153.924L301.375 154.738L304.637 156.368L307.085 157.183L310.347 158.813L313.61 160.442L316.057 162.072L318.504 162.887L322.583 164.517" fill="#F8F8F8"/>
<path d="M287.508 149.035L291.586 150.664L294.849 152.294L298.112 153.924L301.375 154.738L304.637 156.368L307.085 157.183L310.347 158.813L313.61 160.442L316.057 162.072L318.504 162.887L322.583 164.517" stroke="#F8F8F8" stroke-miterlimit="10"/>
<path d="M285.061 152.294L289.139 153.924L292.402 155.553L295.665 157.183L298.928 157.998L302.19 159.627L304.637 160.442L307.9 162.072L311.163 163.702L313.61 165.331L316.057 166.146L320.136 167.776" fill="#F8F8F8"/>
<path d="M285.061 152.294L289.139 153.924L292.402 155.553L295.665 157.183L298.928 157.998L302.19 159.627L304.637 160.442L307.9 162.072L311.163 163.702L313.61 165.331L316.057 166.146L320.136 167.776" stroke="#F8F8F8" stroke-miterlimit="10"/>
<path d="M282.614 156.368L286.692 157.998L289.955 159.628L293.218 161.257L296.481 162.072L299.743 163.702L302.19 164.517L305.453 166.146L308.716 167.776L311.163 169.406L313.61 170.22L317.689 171.85" fill="#F8F8F8"/>
<path d="M282.614 156.368L286.692 157.998L289.955 159.628L293.218 161.257L296.481 162.072L299.743 163.702L302.19 164.517L305.453 166.146L308.716 167.776L311.163 169.406L313.61 170.22L317.689 171.85" stroke="#F8F8F8" stroke-miterlimit="10"/>
<path d="M255.288 40.2532C255.288 39.9598 255.288 39.5769 255.288 39.0472C255.288 36.5049 254.415 34.5656 254.064 34.5656C253.151 34.5656 248.762 32.0396 248.762 30.084C248.762 28.7069 247.286 27.9654 245.728 27.1913C245.286 27.0074 244.913 26.6903 244.66 26.2842C244.407 25.8781 244.287 25.4033 244.317 24.926C244.249 24.2311 244.107 23.5454 243.893 22.8808C243.493 21.7074 243.077 21.4711 242.938 21.4222C242.893 21.4027 242.845 21.3926 242.796 21.3926C242.747 21.3926 242.698 21.4027 242.653 21.4222L242.335 21.0148C241.528 23.138 241.243 25.4235 241.503 27.6796C241.763 29.9357 242.561 32.0967 243.83 33.9811C245.098 35.8655 246.801 37.4185 248.795 38.5099C250.789 39.6012 253.015 40.199 255.288 40.2532Z" fill="#B88C4E"/>
<path d="M256.251 85.0695L270.117 83.2605C270.617 83.1977 271.122 83.3331 271.523 83.6378C271.924 83.9425 272.19 84.3922 272.263 84.8902L276.602 117.427C276.683 118.029 276.528 118.639 276.169 119.129C275.81 119.62 275.276 119.953 274.677 120.059L260.565 122.503C260.252 122.558 259.932 122.548 259.622 122.476C259.313 122.403 259.022 122.269 258.766 122.081C258.51 121.893 258.294 121.655 258.133 121.382C257.971 121.108 257.866 120.805 257.825 120.491L253.657 88.4755C253.603 88.0817 253.627 87.6811 253.728 87.2966C253.829 86.9122 254.005 86.5515 254.246 86.2351C254.487 85.9187 254.788 85.6529 255.132 85.4529C255.476 85.2529 255.856 85.1226 256.251 85.0695Z" fill="#D8D8D8" stroke="#D8D8D8" stroke-miterlimit="10"/>
<path d="M255.639 87.1392L269.889 85.3873L273.608 111.65L259.358 113.98L255.639 87.1392Z" fill="#484848" stroke="#484848" stroke-miterlimit="10"/>
<path d="M267.116 118.885C268.017 118.885 268.747 118.156 268.747 117.256C268.747 116.356 268.017 115.626 267.116 115.626C266.215 115.626 265.484 116.356 265.484 117.256C265.484 118.156 266.215 118.885 267.116 118.885Z" fill="#BFBFBF" stroke="#BFBFBF" stroke-miterlimit="10"/>
<path d="M167.135 96.6808C167.098 96.6444 167.054 96.6167 167.005 96.5995L167.054 96.7296L167.135 96.6808Z" fill="#EFBF9B"/>
<path d="M170.048 93.2179C169.894 93.3514 169.78 93.5246 169.718 93.7187C169.656 93.9128 169.649 94.1201 169.697 94.3179C169.697 94.375 170.513 97.5773 170.513 97.5773V97.6751C170.519 97.7247 170.537 97.7721 170.565 97.8133C170.594 97.8544 170.632 97.8881 170.676 97.9114C170.847 98.0092 171.435 98.1477 173.017 97.3899C172.575 96.2326 172.046 95.1104 171.435 94.0328C171.222 93.6873 170.945 93.3858 170.619 93.1446C170.525 93.0979 170.419 93.0778 170.314 93.0864C170.209 93.095 170.109 93.132 170.023 93.1935L170.048 93.2179Z" fill="#FD719D" stroke="#FD719D" stroke-miterlimit="10"/>
<path d="M167.062 96.7315L167.147 96.681L167.062 96.7315Z" fill="#EFBF9B"/>
<path d="M182.691 108.928C183.213 108.7 183.507 106.483 183.507 105.033C183.507 104.846 183.303 104.675 183.107 104.577C182.94 104.48 182.753 104.423 182.56 104.412C182.368 104.401 182.175 104.435 181.998 104.512C181.934 104.556 181.891 104.623 181.875 104.699V105.033C181.875 105.294 181.875 105.595 181.875 105.921C181.802 106.94 181.712 108.211 182.3 108.741C182.34 108.814 182.536 108.977 182.691 108.928Z" fill="#FD719D" stroke="#FD719D" stroke-miterlimit="10"/>
<path d="M145.12 117.142C145.958 117.254 146.81 117.181 147.616 116.93V113.996C147.642 113.704 147.61 113.41 147.522 113.13C147.434 112.851 147.291 112.591 147.102 112.367C146.982 112.265 146.841 112.191 146.688 112.15C146.536 112.109 146.377 112.102 146.221 112.13C145.3 112.22 145.3 112.399 145.275 113.239C145.275 113.361 145.275 113.483 145.275 113.622C145.226 114.485 145.169 115.357 145.112 116.229C145.112 116.579 145.055 116.938 145.039 117.288H145.169C145.172 117.262 145.169 117.235 145.161 117.21C145.152 117.184 145.138 117.161 145.12 117.142Z" fill="#FD719D" stroke="#FD719D" stroke-miterlimit="10"/>
<path d="M162.299 93.5439L163.726 96.3876C164.32 96.2143 164.823 95.8169 165.129 95.2795C165.19 95.0328 165.192 94.7754 165.135 94.5278C165.079 94.2803 164.965 94.0494 164.803 93.8535C163.987 92.2646 163.033 90.8467 162.69 90.7734C162.382 90.8015 162.092 90.9352 161.871 91.152C161.649 91.3688 161.509 91.6553 161.475 91.9631C161.782 92.366 162.024 92.8141 162.193 93.2913C162.223 93.3774 162.259 93.4618 162.299 93.5439Z" fill="#FD719D" stroke="#FD719D" stroke-miterlimit="10"/>
<path d="M181.1 120.336C182.128 118.282 182.83 113.002 183.205 109.531C183.136 109.588 183.059 109.634 182.977 109.67C182.759 109.757 182.518 109.773 182.291 109.714C182.063 109.655 181.861 109.526 181.712 109.344C180.831 108.529 180.937 107.062 181.019 105.864V105.75C180.572 106.652 180.267 107.616 180.114 108.61C180.065 108.814 180.032 108.993 179.999 109.115C179.46 111.33 178.779 113.507 177.96 115.634C177.552 116.685 177.104 117.745 176.622 118.788C176.011 120.116 175.554 120.271 175.325 120.271H175.219C174.73 120.189 174.665 119.578 174.648 119.382C174.444 116.709 174.405 114.026 174.534 111.348C174.534 110.436 174.591 109.523 174.599 108.61C174.723 105.083 174.255 101.561 173.213 98.1884C172.532 98.5549 171.782 98.7743 171.01 98.8322C170.724 98.8365 170.442 98.7633 170.195 98.6203C170.049 98.5336 169.926 98.4154 169.832 98.2743C169.739 98.1332 169.679 97.973 169.656 97.8055C169.567 97.4469 168.841 94.595 168.841 94.5461C168.783 94.2775 168.783 93.9998 168.841 93.7313C168.226 94.4952 167.819 95.4044 167.658 96.3713L167.609 96.5425C167.564 96.8145 167.439 97.067 167.25 97.2676C169.25 102.339 170.336 107.724 170.456 113.173H169.64C169.48 107.17 168.176 101.252 165.798 95.7358C165.285 96.495 164.51 97.0377 163.62 97.2595L163.302 97.341L161.573 93.8942C161.573 93.829 161.499 93.7231 161.442 93.5927C161.303 93.2114 161.12 92.8477 160.896 92.509C160.896 92.509 160.896 92.509 160.896 92.5579C160.708 93.1574 160.708 93.8 160.896 94.3994C161.377 95.8601 161.963 97.2843 162.649 98.661C163.799 100.76 164.561 103.048 164.901 105.416C164.977 107.495 164.701 109.573 164.085 111.56C164.02 111.829 163.946 112.196 163.865 112.611C163.481 114.632 162.959 117.386 161.295 117.679L161.157 116.865C161.088 116.876 161.027 116.914 160.985 116.971C161.393 116.156 159.917 108.944 159.542 107.69C158.937 105.577 158.117 103.532 157.095 101.586C155.382 103.77 153.693 102.963 153.62 102.931L153.506 102.874L153.359 102.613C152.738 101.59 152.245 100.496 151.89 99.3537C151.638 100.087 152.045 101.326 152.372 102.116L152.723 102.98C155.219 109.01 158.628 117.264 156.303 123.611C155.817 125.052 154.799 126.253 153.457 126.969C153.146 127.139 152.799 127.234 152.445 127.246H152.364C152 127.202 151.654 127.066 151.359 126.851C151.063 126.635 150.828 126.348 150.675 126.015C150.222 125.046 150.015 123.979 150.072 122.911C150.072 122.397 150.072 121.884 150.072 121.379C150.105 120.336 150.086 119.291 150.014 118.25C149.827 116.286 149.305 114.836 148.481 113.996V117.541L148.171 117.614C147.154 117.917 146.088 118.022 145.031 117.924C144.81 121.574 144.818 125.258 146.548 128.688C147.899 131.036 149.598 133.165 151.589 135.003C152.054 135.476 152.519 135.948 152.967 136.429C158.196 141.97 160.145 149.466 162.307 156.523C164.942 165.168 167.34 173.586 168.147 182.663C168.144 182.682 168.144 182.701 168.147 182.72C169.469 186.957 176.679 186.118 179.763 185.279C187.585 183.144 187.634 181.726 187.634 181.71L181.109 165.454C174.534 149.141 179.469 123.603 181.1 120.336Z" fill="#EFBF9B"/>
<path d="M154.003 102.238C154.329 102.336 155.406 102.483 156.564 100.82C156.336 100.446 156.091 100.079 155.83 99.7203C155.112 98.7425 153.196 97.1536 152.641 97.3817C152.502 97.4306 152.38 97.7729 152.478 98.5633C152.755 99.8717 153.272 101.118 154.003 102.238Z" fill="#FD719D" stroke="#FD719D" stroke-miterlimit="10"/>
<path d="M100.502 107.005C101.138 105.791 101.742 104.561 102.304 103.289C102.434 103.061 102.501 102.802 102.5 102.54C102.483 102.459 102.449 102.383 102.399 102.317C102.35 102.251 102.287 102.196 102.215 102.157C102.081 102.084 101.933 102.041 101.781 102.03C101.629 102.019 101.477 102.04 101.334 102.092C100.773 102.4 100.327 102.88 100.061 103.46C99.5164 104.393 99.0209 105.353 98.5767 106.337H98.6909L100.502 107.005Z" fill="#FD719D" stroke="#FD719D" stroke-width="2" stroke-miterlimit="10"/>
<path d="M118.374 108.007C119.189 107.192 120.592 104.919 119.923 103.583C119.874 103.485 119.842 103.477 119.817 103.477C119.222 103.436 117.672 105.212 116.555 106.891L116.424 107.013L116.359 107.054L117.843 108.529L118.374 108.007Z" fill="#FD719D" stroke="#FD719D" stroke-width="2" stroke-miterlimit="10"/>
<path d="M109.279 100.886C109.279 100.568 109.213 100.193 108.985 100.071C108.602 99.8752 107.786 100.274 107.468 100.486C106.799 101.521 106.22 102.612 105.738 103.746C106.163 103.884 106.807 104.137 107.827 104.561L109.279 100.886Z" fill="#FD719D" stroke="#FD719D" stroke-width="2" stroke-miterlimit="10"/>
<path d="M91.3333 112.367C91.3333 111.552 90.8439 110.737 90.4523 110.737C90.0608 110.737 89.8977 111.047 89.6774 111.698C89.2773 112.837 89.0118 114.018 88.8862 115.219H90.64C91.0505 114.321 91.2858 113.353 91.3333 112.367Z" fill="#FD719D" stroke="#FD719D" stroke-width="2" stroke-miterlimit="10"/>
<path d="M120.299 120.874C120.116 120.893 119.941 120.96 119.793 121.069L119.124 125.143L121.93 125.844C122.241 124.66 122.155 123.406 121.685 122.275C121.367 121.591 120.87 120.841 120.299 120.874Z" fill="#FD719D" stroke="#FD719D" stroke-width="2" stroke-miterlimit="10"/>
<path d="M122.419 121.876C121.8 120.621 121.082 120.002 120.25 120.059C119.876 120.094 119.522 120.239 119.23 120.474H119.075V120.654C117.86 121.729 116.954 124.011 116.563 125.152C116.481 125.396 116.383 125.714 116.261 126.089C115.511 128.427 113.814 133.748 111.758 133.993V132.738C111.622 127.587 112.849 122.491 115.315 117.965C115.568 117.476 116.13 116.653 116.807 115.699C119.255 112.171 122.925 106.883 120.886 104.813C120.974 104.259 120.891 103.69 120.649 103.183C120.579 103.024 120.465 102.886 120.321 102.787C120.177 102.688 120.008 102.63 119.834 102.621H119.785C118.496 102.621 116.522 105.351 115.894 106.321L115.739 106.418L115.649 106.337L115.078 106.907C111.432 110.167 106.236 120.523 104.768 123.538C104.376 122.161 104.123 118.763 107.549 112.497C112.003 104.349 110.486 101.358 109.996 100.739C110.02 100.456 109.967 100.171 109.842 99.9158C109.717 99.6604 109.525 99.4436 109.287 99.2885C108.381 98.8078 107.076 99.6389 106.84 99.7937C106.603 99.9485 106.146 100.657 104.686 103.713C104.034 105.058 103.52 106.158 103.112 106.972C103.327 105.493 103.441 104.002 103.455 102.507H103.194C103.198 102.456 103.198 102.404 103.194 102.352C103.163 102.147 103.085 101.952 102.966 101.783C102.847 101.613 102.691 101.473 102.508 101.375C102.264 101.231 101.99 101.145 101.707 101.124C101.424 101.102 101.14 101.146 100.877 101.252C100.158 101.63 99.5845 102.234 99.2456 102.972C96.3417 107.926 94.9713 113.703 93.6418 119.268C93.2992 120.719 92.9484 122.21 92.5732 123.677V123.53C92.6221 122.666 92.7037 121.794 92.7934 120.866C93.1034 117.606 93.4296 114.2 91.9777 111.259L91.8635 111.316C91.7822 110.961 91.609 110.635 91.3613 110.369C91.1135 110.103 90.8001 109.907 90.4524 109.8C90.0364 109.735 89.2696 109.8 88.7802 111.307C88.3114 112.652 88.0368 114.057 87.9645 115.479C87.4896 118.445 87.2171 121.44 87.1488 124.443C87.1488 126.512 87.9645 130.888 88.7802 135.516C89.5959 139.908 90.4116 144.439 90.4116 146.443C90.4116 150.404 78.323 185.882 78.1762 186.24L78.1272 186.371L78.1762 186.501C78.2414 186.705 79.9381 191.634 85.0199 192.474C85.6076 192.57 86.2025 192.616 86.7981 192.612C91.5046 192.612 97.0432 190.111 97.3042 189.989L97.5245 189.891V189.638C98.0186 179.022 100.265 168.559 104.172 158.674C106.04 153.997 109.417 150.232 112.68 146.59C113.7 145.449 114.76 144.268 115.755 143.078C118.561 139.721 119.834 135.663 120.788 131.768C120.959 131.075 121.229 130.285 121.522 129.446C122.55 127.034 123.545 124.182 122.419 121.876ZM116.424 107.013L116.555 106.891C117.672 105.212 119.222 103.436 119.817 103.477C119.817 103.477 119.874 103.477 119.923 103.583C120.592 104.919 119.222 107.16 118.374 108.007L117.843 108.529L116.359 107.07L116.424 107.013ZM107.451 100.494C107.77 100.283 108.585 99.8833 108.969 100.079C109.197 100.201 109.254 100.576 109.262 100.894L107.81 104.512C106.791 104.104 106.179 103.852 105.722 103.697C106.212 102.579 106.796 101.505 107.468 100.486L107.451 100.494ZM100.045 103.469C100.311 102.888 100.757 102.408 101.317 102.1C101.461 102.048 101.613 102.027 101.765 102.038C101.917 102.049 102.065 102.092 102.198 102.165C102.271 102.204 102.334 102.259 102.383 102.325C102.432 102.391 102.467 102.467 102.484 102.548C102.485 102.811 102.418 103.069 102.288 103.298C101.725 104.552 101.122 105.799 100.485 107.013L98.6746 106.386H98.5604C99.0084 105.385 99.5094 104.408 100.061 103.461L100.045 103.469ZM89.7019 111.682C89.9222 111.03 90.1995 110.672 90.4769 110.721C90.7542 110.77 91.3578 111.536 91.3578 112.35C91.318 113.335 91.091 114.303 90.6889 115.202H88.8862C89.0197 114.001 89.2934 112.82 89.7019 111.682ZM120.927 129.299C120.634 130.084 120.38 130.884 120.168 131.695C119.238 135.484 118.007 139.444 115.274 142.671C114.287 143.852 113.235 145.026 112.215 146.158C108.903 149.858 105.477 153.679 103.561 158.487C99.6476 168.389 97.388 178.866 96.8719 189.5C95.6239 190.029 89.5307 192.523 85.2809 191.822C81.0311 191.121 79.4161 187.259 79.1224 186.509C80.0686 183.731 91.3578 150.599 91.3578 146.582C91.3578 144.512 90.5421 140.137 89.7264 135.508C88.9107 131.116 88.095 126.586 88.095 124.581C88.1545 121.715 88.4079 118.857 88.8536 116.025H91.2028L91.317 115.797C91.6499 115.097 91.8937 114.358 92.043 113.597C92.5895 115.887 92.353 118.421 92.1164 120.931C92.0348 121.827 91.9451 122.748 91.9043 123.628C91.7776 124.377 91.9409 125.146 92.3611 125.779L92.8587 126.382L93.0708 125.624C93.6173 123.66 94.1067 121.599 94.5798 119.603C95.4504 115.33 96.6782 111.138 98.2504 107.07L98.4217 107.135C100.869 108.007 100.869 107.999 101.081 107.649C101.644 106.581 102.174 105.489 102.712 104.389C102.645 105.938 102.401 107.475 101.986 108.969C101.758 109.653 101.334 110.786 100.844 112.098C99.2129 116.465 97.8834 120.173 97.8834 121.322V122.952H98.6991V121.322C98.6991 120.222 100.453 115.504 101.611 112.359L102.264 110.607C102.476 110.607 102.606 110.338 102.737 110.077C103.128 109.262 104.368 106.565 105.38 104.52L105.469 104.569L105.518 104.463C106.016 104.642 107.027 105.033 107.965 105.392L108.349 105.547L109.784 101.953C110.127 103.183 110.225 106.149 106.946 112.155C101.986 121.24 104.425 124.679 104.499 124.818L104.906 125.355L105.192 124.744C105.265 124.606 111.718 111.071 115.739 107.535L117.876 109.67L118.977 108.561C119.693 107.803 120.247 106.907 120.609 105.929C121.123 107.975 117.917 112.595 116.098 115.219C115.388 116.237 114.834 117.036 114.548 117.557C112.042 122.218 110.788 127.448 110.91 132.738V134.718L111.253 134.767C114.14 135.239 116.008 129.429 117.003 126.309L117.305 125.388C117.678 124.281 118.17 123.218 118.773 122.218L118.194 125.706L121.751 126.594C121.514 127.507 121.204 128.419 120.902 129.299H120.927ZM121.954 125.803L119.148 125.103L119.817 121.028C119.966 120.92 120.14 120.852 120.323 120.833C120.894 120.833 121.392 121.55 121.71 122.194C122.183 123.342 122.26 124.615 121.93 125.812L121.954 125.803Z" fill="#EFBF9B"/>
<path d="M188.319 182.166C191.68 191.944 194.462 200.215 196.737 207.19L202.268 222.778C202.268 222.778 188.189 181.767 188.319 182.166Z" fill="#EFBF9B"/>
<path d="M196.737 207.19L181.875 165.177C175.423 149.059 180.244 123.913 181.875 120.694C183.507 117.476 184.323 106.785 184.323 106.337H184.257C184.323 105.644 184.323 105.098 184.323 105.041C184.308 104.788 184.225 104.544 184.081 104.336C183.937 104.127 183.738 103.963 183.507 103.86C183.21 103.691 182.874 103.603 182.532 103.603C182.19 103.603 181.854 103.691 181.557 103.86C181.419 103.957 181.304 104.085 181.222 104.233C181.14 104.381 181.093 104.546 181.084 104.715C180.024 105.139 179.608 107.16 179.355 108.455C179.355 108.651 179.282 108.814 179.249 108.928C178.718 111.113 178.045 113.26 177.234 115.357C176.834 116.392 176.418 117.435 175.921 118.462C175.803 118.727 175.661 118.981 175.497 119.219C175.298 116.611 175.263 113.993 175.391 111.381C175.391 110.46 175.448 109.539 175.456 108.627C175.538 102.752 174.575 98.2373 172.405 94.0735C172.339 93.9245 172.263 93.7802 172.177 93.6416C172.136 93.5765 172.103 93.5031 172.071 93.4379C171.812 93.0489 171.483 92.7117 171.1 92.4438C170.904 92.3456 170.687 92.2944 170.468 92.2944C170.248 92.2944 170.032 92.3456 169.836 92.4438C167.854 92.6231 167.299 94.7335 166.924 96.1595V96.2165C166.614 95.4017 166.296 94.652 165.978 93.8861L165.847 93.935C165.779 93.772 165.694 93.6164 165.594 93.4705C164.942 92.1668 163.71 89.983 162.78 89.983C162.292 90.0082 161.826 90.1972 161.459 90.5196C161.092 90.8421 160.845 91.2789 160.757 91.7594C160.551 91.823 160.372 91.9552 160.251 92.1342C159.754 92.8594 160.039 94.318 160.145 94.6683C160.625 96.1728 161.225 97.6361 161.94 99.044C162.959 101.212 163.922 103.257 164.11 105.563C164.17 107.553 163.894 109.539 163.294 111.438C163.22 111.715 163.147 112.098 163.066 112.546C162.853 113.67 162.495 115.545 161.85 116.449C161.85 113.801 160.341 107.608 160.317 107.543C159.526 104.618 158.258 101.843 156.564 99.3292C156.263 98.9218 153.807 96.1595 152.413 96.7136C151.907 96.9091 151.687 97.4795 151.727 98.3432C151.018 98.824 150.545 99.9322 151.605 102.515L151.964 103.379C154.411 109.287 157.747 117.37 155.529 123.424C155.113 124.667 154.237 125.705 153.081 126.325C152.871 126.447 152.632 126.512 152.388 126.512C152.164 126.472 151.953 126.376 151.775 126.234C151.597 126.092 151.457 125.907 151.368 125.697C150.984 124.844 150.813 123.91 150.871 122.976C150.871 122.471 150.871 121.966 150.871 121.46C150.906 120.39 150.884 119.318 150.806 118.25C150.561 115.561 149.721 113.768 148.359 112.921C148.258 112.48 148.032 112.078 147.706 111.764C147.5 111.587 147.259 111.456 146.999 111.381C146.739 111.305 146.465 111.285 146.197 111.324C144.566 111.495 144.566 112.375 144.517 113.222C144.517 113.344 144.517 113.459 144.517 113.589C144.517 114.453 144.411 115.316 144.353 116.18C144.044 120.507 143.734 124.98 145.838 129.128C147.102 131.638 149.101 133.675 151.026 135.647C151.483 136.119 151.939 136.584 152.388 137.056C157.112 142.086 160.806 147.991 163.261 154.437C165.823 161.143 166.402 168.012 167.397 175.044C169.681 191.26 169.599 207.752 171.198 224.041H202.105C200.685 219.461 198.948 213.929 196.737 207.19ZM181.875 105.921C181.875 105.595 181.875 105.294 181.875 105.033V104.699C181.891 104.623 181.934 104.556 181.998 104.512C182.175 104.435 182.368 104.401 182.56 104.412C182.753 104.423 182.94 104.48 183.107 104.577C183.303 104.675 183.507 104.846 183.507 105.033C183.507 106.467 183.172 108.7 182.691 108.928C182.577 108.977 182.381 108.814 182.3 108.741C181.672 108.211 181.761 106.94 181.875 105.921ZM169.983 93.2179C170.068 93.1565 170.169 93.1194 170.274 93.1108C170.378 93.1022 170.484 93.1223 170.578 93.169C170.904 93.4102 171.181 93.7118 171.394 94.0572C171.986 95.1418 172.496 96.2694 172.919 97.4306C171.337 98.1884 170.749 98.0499 170.578 97.9521C170.534 97.9288 170.496 97.8952 170.467 97.854C170.439 97.8129 170.421 97.7655 170.415 97.7159V97.6181C170.415 97.6181 169.599 94.4157 169.599 94.3587C169.546 94.1519 169.554 93.9342 169.622 93.7318C169.69 93.5294 169.815 93.351 169.983 93.2179ZM167.136 96.6565L167.054 96.7055L167.005 96.5751C167.057 96.5993 167.102 96.6356 167.136 96.681V96.6565ZM162.698 90.7734C163.041 90.8467 164.02 92.2646 164.811 93.8535C164.973 94.0494 165.087 94.2803 165.143 94.5279C165.2 94.7754 165.198 95.0328 165.137 95.2795C164.832 95.8169 164.328 96.2144 163.734 96.3877L162.299 93.5439C162.259 93.4618 162.223 93.3774 162.193 93.2913C162.024 92.8141 161.782 92.366 161.475 91.9631C161.51 91.654 161.651 91.3665 161.874 91.1496C162.097 90.9326 162.388 90.7997 162.698 90.7734ZM152.657 97.4062C153.212 97.1781 155.104 98.767 155.847 99.7448C156.108 100.103 156.352 100.47 156.581 100.845C155.422 102.474 154.346 102.36 154.019 102.263C153.297 101.148 152.786 99.9109 152.51 98.6122C152.396 97.7973 152.51 97.4551 152.657 97.4062ZM145.104 116.196C145.161 115.325 145.218 114.453 145.267 113.589C145.267 113.45 145.267 113.328 145.267 113.206C145.267 112.391 145.267 112.187 146.213 112.098C146.368 112.07 146.528 112.076 146.68 112.117C146.833 112.158 146.974 112.232 147.094 112.334C147.283 112.559 147.426 112.818 147.514 113.098C147.602 113.377 147.634 113.672 147.608 113.964V116.897C146.802 117.149 145.95 117.221 145.112 117.109C145.141 117.14 145.158 117.181 145.161 117.223H145.022C145.047 116.905 145.071 116.547 145.104 116.196Z" fill="#EFBF9B"/>
<path d="M103.569 158.487C105.486 153.679 108.912 149.858 112.223 146.158C113.243 145.026 114.295 143.852 115.282 142.671C117.99 139.411 119.222 135.484 120.176 131.695C120.389 130.884 120.642 130.084 120.935 129.299C121.237 128.419 121.555 127.506 121.751 126.594L118.194 125.706L118.773 122.218C118.17 123.218 117.678 124.281 117.305 125.388L117.003 126.309C116.008 129.429 114.14 135.272 111.253 134.767L110.91 134.718V132.738C110.793 127.453 112.05 122.229 114.556 117.574C114.842 117.052 115.372 116.254 116.106 115.235C117.925 112.611 121.131 107.991 120.617 105.946C120.256 106.924 119.701 107.819 118.985 108.578L117.884 109.686L115.747 107.551C111.718 111.087 105.274 124.622 105.2 124.76L104.915 125.372L104.507 124.834C104.401 124.695 101.962 121.257 106.954 112.171C110.217 106.166 110.135 103.208 109.792 101.969L108.357 105.563L107.974 105.408C107.06 105.049 106.048 104.658 105.526 104.479L105.477 104.585L105.388 104.536C104.409 106.581 103.136 109.246 102.745 110.093C102.614 110.354 102.484 110.598 102.272 110.623L101.619 112.375C100.461 115.504 98.7072 120.222 98.7072 121.338V122.968H97.8915V121.338C97.8915 120.189 99.2374 116.449 100.852 112.114C101.342 110.802 101.766 109.67 101.994 108.985C102.409 107.491 102.653 105.955 102.72 104.406C102.207 105.514 101.676 106.606 101.089 107.665C100.901 108.015 100.901 108.024 98.4299 107.152L98.2586 107.087C96.6918 111.138 95.4667 115.314 94.5961 119.57C94.123 121.566 93.6336 123.644 93.0871 125.592L92.875 126.349L92.3774 125.746C91.9572 125.113 91.7938 124.344 91.9206 123.595C91.9614 122.715 92.0511 121.794 92.1327 120.898C92.3692 118.454 92.6058 115.895 92.0593 113.564C91.9101 114.325 91.6662 115.064 91.3333 115.765L91.2191 115.993H88.8699C88.4242 118.824 88.1708 121.683 88.1113 124.549C88.1113 126.553 88.927 131.067 89.7427 135.476C90.5584 140.104 91.3741 144.48 91.3741 146.549C91.3741 150.151 67.719 209.944 62.2864 223.959H95.2242C96.6435 205.12 100.306 166.603 103.569 158.487Z" fill="#EFBF9B"/>
</g>
<defs>
<clipPath id="clip0">
<rect width="353" height="224" fill="white"/>
</clipPath>
</defs>
</svg>
