<svg id="Layer_1" data-name="Layer 1" xmlns="http://www.w3.org/2000/svg" viewBox="0 0 432.76 268.5"><defs><style>.cls-1,.cls-23,.cls-25{fill:none;}.cls-1{stroke:#f6eaec;stroke-width:3px;}.cls-1,.cls-10,.cls-11,.cls-12,.cls-13,.cls-14,.cls-15,.cls-16,.cls-18,.cls-19,.cls-2,.cls-21,.cls-22,.cls-25,.cls-3,.cls-4,.cls-5,.cls-6,.cls-8,.cls-9{stroke-miterlimit:10;}.cls-2{fill:#262926;stroke:#262926;}.cls-3{fill:#d8d8d8;stroke:#d8d8d8;}.cls-4{fill:#ccc;stroke:#ccc;}.cls-5{fill:#fefefe;stroke:#fefefe;}.cls-6{fill:#bdbdbd;stroke:#bdbdbd;}.cls-7{fill:#282828;}.cls-8{fill:#8bc0f0;stroke:#8bc0f0;}.cls-9{fill:#fff;stroke:#efefef;}.cls-10{fill:#bbb;stroke:#bbb;}.cls-11{fill:#f8f8f8;stroke:#f8f8f8;}.cls-12{fill:#30a6eb;stroke:#30a6eb;}.cls-13{fill:#26ade7;stroke:#26ade7;}.cls-14{fill:#f9f4f0;stroke:#f9f4f0;}.cls-15{fill:#3a1e08;stroke:#3a1e08;}.cls-16{fill:#533a26;stroke:#533a26;}.cls-17{fill:#b88c4e;}.cls-18{fill:#484848;stroke:#484848;}.cls-19{fill:#bfbfbf;stroke:#bfbfbf;}.cls-20{fill:#efbf9b;}.cls-21,.cls-22,.cls-24{fill:#fd719d;}.cls-21,.cls-22{stroke:#fd719d;}.cls-22{stroke-width:2px;}.cls-25{stroke:#a33f2e;}</style></defs><title>resume-mob-6</title><path class="cls-1" d="M838.5,522.94s-20,1.56-24,8.56-3,13,0,15,24-1,6-22-28.32,41.63-54,12c0,0-9-17-8-28s-14-16-14-16" transform="translate(-744.03 -406)"/><path class="cls-2" d="M830.5,406.5h167a1.91,1.91,0,0,1,1.9,2l-3.84,93.2a1.9,1.9,0,0,1-1.9,1.82H835.3a1.89,1.89,0,0,1-1.89-1.8l-4.81-93.2a1.9,1.9,0,0,1,1.9-2Z" transform="translate(-744.03 -406)"/><path class="cls-3" d="M967,593.5H990.5a2,2,0,0,0,2-2v-91a2,2,0,0,0-2-2h-30a2,2,0,0,0-2,2v1a2,2,0,0,1-2,2h-86a2,2,0,0,1-2-2h0a2,2,0,0,0-2-2h-28a2,2,0,0,0-2,2v90a2,2,0,0,0,2,2H967Z" transform="translate(-744.03 -406)"/><path class="cls-4" d="M892.15,565.36H931a1.59,1.59,0,0,1,1.59,1.59v16.84a1.57,1.57,0,0,1-1.57,1.57H891.76a1.4,1.4,0,0,1-1.4-1.39V567.15A1.79,1.79,0,0,1,892.15,565.36Z" transform="translate(-744.03 -406)"/><polygon class="cls-5" points="95.47 87.5 90.47 6.5 249.47 6.5 245.47 87.5 95.47 87.5"/><polygon class="cls-6" points="103.97 107 231.97 107 231.97 154 104.97 154 103.97 107"/><path class="cls-7" d="M850.17,516.5h8.68a.65.65,0,0,1,.65.65v3.63a.72.72,0,0,1-.72.72h-8.61a.67.67,0,0,1-.67-.67v-3.66A.67.67,0,0,1,850.17,516.5Z" transform="translate(-744.03 -406)"/><path class="cls-7" d="M864.17,516.5h8.68a.65.65,0,0,1,.65.65v3.63a.72.72,0,0,1-.72.72h-8.61a.67.67,0,0,1-.67-.67v-3.66A.67.67,0,0,1,864.17,516.5Z" transform="translate(-744.03 -406)"/><path class="cls-7" d="M879.17,516.5h8.68a.65.65,0,0,1,.65.65v3.63a.72.72,0,0,1-.72.72h-8.61a.67.67,0,0,1-.67-.67v-3.66A.67.67,0,0,1,879.17,516.5Z" transform="translate(-744.03 -406)"/><path class="cls-7" d="M893.17,516.5h8.68a.65.65,0,0,1,.65.65v3.63a.72.72,0,0,1-.72.72h-8.61a.67.67,0,0,1-.67-.67v-3.66A.67.67,0,0,1,893.17,516.5Z" transform="translate(-744.03 -406)"/><path class="cls-7" d="M907.17,516.5h8.68a.65.65,0,0,1,.65.65v3.63a.72.72,0,0,1-.72.72h-8.61a.67.67,0,0,1-.67-.67v-3.66A.67.67,0,0,1,907.17,516.5Z" transform="translate(-744.03 -406)"/><path class="cls-7" d="M921.17,516.5h8.68a.65.65,0,0,1,.65.65v3.63a.72.72,0,0,1-.72.72h-8.61a.67.67,0,0,1-.67-.67v-3.66A.67.67,0,0,1,921.17,516.5Z" transform="translate(-744.03 -406)"/><path class="cls-7" d="M936.17,516.5h8.68a.65.65,0,0,1,.65.65v3.63a.72.72,0,0,1-.72.72h-8.61a.67.67,0,0,1-.67-.67v-3.66A.67.67,0,0,1,936.17,516.5Z" transform="translate(-744.03 -406)"/><path class="cls-7" d="M950.17,516.5h8.68a.65.65,0,0,1,.65.65v3.63a.72.72,0,0,1-.72.72h-8.61a.67.67,0,0,1-.67-.67v-3.66A.67.67,0,0,1,950.17,516.5Z" transform="translate(-744.03 -406)"/><path class="cls-7" d="M963.17,516.5h8.68a.65.65,0,0,1,.65.65v3.63a.72.72,0,0,1-.72.72h-8.61a.67.67,0,0,1-.67-.67v-3.66A.67.67,0,0,1,963.17,516.5Z" transform="translate(-744.03 -406)"/><path class="cls-7" d="M861.41,525v4.32a.71.71,0,0,0,.7.7h6.66a.69.69,0,0,0,.69-.69v-4.44a.5.5,0,0,0-.5-.51H862A.62.62,0,0,0,861.41,525Z" transform="translate(-744.03 -406)"/><path class="cls-7" d="M865.38,534.11v4.25a.7.7,0,0,0,.71.69h6.71a.7.7,0,0,0,.7-.68V534a.5.5,0,0,0-.51-.5h-7A.61.61,0,0,0,865.38,534.11Z" transform="translate(-744.03 -406)"/><path class="cls-7" d="M871.38,543.11v4.25a.7.7,0,0,0,.71.69h6.71a.7.7,0,0,0,.7-.68V543a.5.5,0,0,0-.51-.5h-7A.61.61,0,0,0,871.38,543.11Z" transform="translate(-744.03 -406)"/><path class="cls-7" d="M865.46,551.92v4.9a.8.8,0,0,0,.81.8H874a.8.8,0,0,0,.8-.79v-5a.58.58,0,0,0-.58-.57h-8.06A.7.7,0,0,0,865.46,551.92Z" transform="translate(-744.03 -406)"/><path class="cls-7" d="M878.46,551.92v4.9a.8.8,0,0,0,.81.8H887a.8.8,0,0,0,.8-.79v-5a.58.58,0,0,0-.58-.57h-8.06A.7.7,0,0,0,878.46,551.92Z" transform="translate(-744.03 -406)"/><path class="cls-7" d="M882.38,543.11v4.25a.7.7,0,0,0,.71.69h6.71a.7.7,0,0,0,.7-.68V543a.5.5,0,0,0-.51-.5h-7A.61.61,0,0,0,882.38,543.11Z" transform="translate(-744.03 -406)"/><path class="cls-7" d="M893.38,543.11v4.25a.7.7,0,0,0,.71.69h6.71a.7.7,0,0,0,.7-.68V543a.5.5,0,0,0-.51-.5h-7A.61.61,0,0,0,893.38,543.11Z" transform="translate(-744.03 -406)"/><path class="cls-7" d="M904.38,543.11v4.25a.7.7,0,0,0,.71.69h6.71a.7.7,0,0,0,.7-.68V543a.5.5,0,0,0-.51-.5h-7A.61.61,0,0,0,904.38,543.11Z" transform="translate(-744.03 -406)"/><path class="cls-7" d="M915.38,543.11v4.25a.7.7,0,0,0,.71.69h6.71a.7.7,0,0,0,.7-.68V543a.5.5,0,0,0-.51-.5h-7A.61.61,0,0,0,915.38,543.11Z" transform="translate(-744.03 -406)"/><path class="cls-7" d="M926.38,543.11v4.25a.7.7,0,0,0,.71.69h6.71a.7.7,0,0,0,.7-.68V543a.5.5,0,0,0-.51-.5h-7A.61.61,0,0,0,926.38,543.11Z" transform="translate(-744.03 -406)"/><path class="cls-7" d="M937.38,543.11v4.25a.7.7,0,0,0,.71.69h6.71a.7.7,0,0,0,.7-.68V543a.5.5,0,0,0-.51-.5h-7A.61.61,0,0,0,937.38,543.11Z" transform="translate(-744.03 -406)"/><path class="cls-7" d="M948.38,543.11v4.25a.7.7,0,0,0,.71.69h6.71a.7.7,0,0,0,.7-.68V543a.5.5,0,0,0-.51-.5h-7A.61.61,0,0,0,948.38,543.11Z" transform="translate(-744.03 -406)"/><path class="cls-7" d="M959.6,543.11v4.25c0,.38.45.69,1,.69h9.66c.55,0,1-.31,1-.68V543c0-.28-.33-.5-.73-.5H960.49C960,542.5,959.6,542.77,959.6,543.11Z" transform="translate(-744.03 -406)"/><path class="cls-7" d="M876.38,534.11v4.25a.7.7,0,0,0,.71.69h6.71a.7.7,0,0,0,.7-.68V534a.5.5,0,0,0-.51-.5h-7A.61.61,0,0,0,876.38,534.11Z" transform="translate(-744.03 -406)"/><path class="cls-7" d="M887.38,534.11v4.25a.7.7,0,0,0,.71.69h6.71a.7.7,0,0,0,.7-.68V534a.5.5,0,0,0-.51-.5h-7A.61.61,0,0,0,887.38,534.11Z" transform="translate(-744.03 -406)"/><path class="cls-7" d="M898.38,534.11v4.25a.7.7,0,0,0,.71.69h6.71a.7.7,0,0,0,.7-.68V534a.5.5,0,0,0-.51-.5h-7A.61.61,0,0,0,898.38,534.11Z" transform="translate(-744.03 -406)"/><path class="cls-7" d="M909.38,534.11v4.25a.7.7,0,0,0,.71.69h6.71a.7.7,0,0,0,.7-.68V534a.5.5,0,0,0-.51-.5h-7A.61.61,0,0,0,909.38,534.11Z" transform="translate(-744.03 -406)"/><path class="cls-7" d="M920.38,534.11v4.25a.7.7,0,0,0,.71.69h6.71a.7.7,0,0,0,.7-.68V534a.5.5,0,0,0-.51-.5h-7A.61.61,0,0,0,920.38,534.11Z" transform="translate(-744.03 -406)"/><path class="cls-7" d="M931.38,534.11v4.25a.7.7,0,0,0,.71.69h6.71a.7.7,0,0,0,.7-.68V534a.5.5,0,0,0-.51-.5h-7A.61.61,0,0,0,931.38,534.11Z" transform="translate(-744.03 -406)"/><path class="cls-7" d="M942.38,534.11v4.25a.7.7,0,0,0,.71.69h6.71a.7.7,0,0,0,.7-.68V534a.5.5,0,0,0-.51-.5h-7A.61.61,0,0,0,942.38,534.11Z" transform="translate(-744.03 -406)"/><path class="cls-7" d="M953.38,534.11v4.25a.7.7,0,0,0,.71.69h6.71a.7.7,0,0,0,.7-.68V534a.5.5,0,0,0-.51-.5h-7A.61.61,0,0,0,953.38,534.11Z" transform="translate(-744.03 -406)"/><path class="cls-7" d="M964.38,534.11v4.25a.7.7,0,0,0,.71.69h6.71a.7.7,0,0,0,.7-.68V534a.5.5,0,0,0-.51-.5h-7A.61.61,0,0,0,964.38,534.11Z" transform="translate(-744.03 -406)"/><path class="cls-7" d="M872.41,525v4.32a.71.71,0,0,0,.7.7h6.66a.69.69,0,0,0,.69-.69v-4.44a.5.5,0,0,0-.5-.51H873A.62.62,0,0,0,872.41,525Z" transform="translate(-744.03 -406)"/><path class="cls-7" d="M883.41,525v4.32a.71.71,0,0,0,.7.7h6.66a.69.69,0,0,0,.69-.69v-4.44a.5.5,0,0,0-.5-.51H884A.62.62,0,0,0,883.41,525Z" transform="translate(-744.03 -406)"/><path class="cls-7" d="M894.41,525v4.32a.71.71,0,0,0,.7.7h6.66a.69.69,0,0,0,.69-.69v-4.44a.5.5,0,0,0-.5-.51H895A.62.62,0,0,0,894.41,525Z" transform="translate(-744.03 -406)"/><path class="cls-7" d="M905.41,525v4.32a.71.71,0,0,0,.7.7h6.66a.69.69,0,0,0,.69-.69v-4.44a.5.5,0,0,0-.5-.51H906A.62.62,0,0,0,905.41,525Z" transform="translate(-744.03 -406)"/><path class="cls-7" d="M916.41,525v4.32a.71.71,0,0,0,.7.7h6.66a.69.69,0,0,0,.69-.69v-4.44a.5.5,0,0,0-.5-.51H917A.62.62,0,0,0,916.41,525Z" transform="translate(-744.03 -406)"/><path class="cls-7" d="M927.41,525v4.32a.71.71,0,0,0,.7.7h6.66a.69.69,0,0,0,.69-.69v-4.44a.5.5,0,0,0-.5-.51H928A.62.62,0,0,0,927.41,525Z" transform="translate(-744.03 -406)"/><path class="cls-7" d="M938.41,525v4.32a.71.71,0,0,0,.7.7h6.66a.69.69,0,0,0,.69-.69v-4.44a.5.5,0,0,0-.5-.51H939A.62.62,0,0,0,938.41,525Z" transform="translate(-744.03 -406)"/><path class="cls-7" d="M949.41,525v4.32a.71.71,0,0,0,.7.7h6.66a.69.69,0,0,0,.69-.69v-4.44a.5.5,0,0,0-.5-.51H950A.62.62,0,0,0,949.41,525Z" transform="translate(-744.03 -406)"/><path class="cls-7" d="M960.6,525.09v4.2c0,.38.46.68,1,.68h9.65c.56,0,1-.3,1-.67V525c0-.27-.32-.49-.73-.49h-10C961,524.49,960.6,524.75,960.6,525.09Z" transform="translate(-744.03 -406)"/><path class="cls-7" d="M850.41,525v4.32a.71.71,0,0,0,.7.7h6.66a.69.69,0,0,0,.69-.69v-4.44a.5.5,0,0,0-.5-.51H851A.62.62,0,0,0,850.41,525Z" transform="translate(-744.03 -406)"/><path class="cls-7" d="M850.47,533.69v4.41a.77.77,0,0,0,.83.71h10.26a.84.84,0,0,0,.9-.76V534a.76.76,0,0,0-.81-.69H851A.48.48,0,0,0,850.47,533.69Z" transform="translate(-744.03 -406)"/><path class="cls-7" d="M850.53,542.87v4.78a.53.53,0,0,0,.58.47h16.51a.78.78,0,0,0,.85-.68v-4.6a.67.67,0,0,0-.74-.59H851.31A.72.72,0,0,0,850.53,542.87Z" transform="translate(-744.03 -406)"/><path class="cls-7" d="M851.39,552.22v4.57a.82.82,0,0,0,.82.82h9.25a1.09,1.09,0,0,0,1.09-1.1v-4.35a.93.93,0,0,0-.93-.93h-9.24A1,1,0,0,0,851.39,552.22Z" transform="translate(-744.03 -406)"/><path class="cls-7" d="M892.29,551.22h42.47a.71.71,0,0,1,.74.68v5.24a.5.5,0,0,1-.52.48H892.32a.79.79,0,0,1-.82-.75v-4.93A.75.75,0,0,1,892.29,551.22Z" transform="translate(-744.03 -406)"/><path class="cls-7" d="M938.5,553.82v3.34a.34.34,0,0,0,.34.34h9.27a.4.4,0,0,0,.39-.39v-3.22a.4.4,0,0,0-.39-.39h-9.29A.32.32,0,0,0,938.5,553.82Z" transform="translate(-744.03 -406)"/><path class="cls-7" d="M961.5,553.82v3.34a.34.34,0,0,0,.34.34h9.27a.4.4,0,0,0,.39-.39v-3.22a.4.4,0,0,0-.39-.39h-9.29A.32.32,0,0,0,961.5,553.82Z" transform="translate(-744.03 -406)"/><path class="cls-7" d="M951.5,555.23v2.5c0,.13.08.24.18.24h8.16c.09,0,.16-.1.16-.23v-2.5c0-.13-.08-.24-.17-.24h-8.17C951.57,555,951.5,555.1,951.5,555.23Z" transform="translate(-744.03 -406)"/><path class="cls-7" d="M951.5,551.26v2.49c0,.13.08.24.18.24h8.16c.09,0,.16-.1.16-.23v-2.49c0-.13-.08-.24-.17-.24h-8.17C951.57,551,951.5,551.13,951.5,551.26Z" transform="translate(-744.03 -406)"/><polygon class="cls-8" points="319.05 99.64 376.15 123.34 339.52 193.38 285.65 169.67 319.05 99.64"/><polygon class="cls-8" points="374.41 122.7 432.06 146.63 395.07 217.34 340.68 193.41 374.41 122.7"/><polygon class="cls-9" points="291.47 168.5 321.47 103.5 373.47 124.5 342.47 189.5 291.47 168.5"/><polygon class="cls-9" points="374.47 125.5 427.47 147.5 393.47 212.5 343.47 190.5 374.47 125.5"/><line class="cls-10" x1="368" y1="134.88" x2="364.95" y2="141.28"/><line class="cls-10" x1="352.88" y1="166.58" x2="349.83" y2="172.98"/><polyline class="cls-11" points="373.47 134.5 378.47 136.5 382.47 138.5 386.47 140.5 390.47 141.5 394.47 143.5 397.47 144.5 401.47 146.5 405.47 148.5 408.47 150.5 411.47 151.5 416.47 153.5"/><polyline class="cls-11" points="321.47 112.5 326.47 114.5 330.47 116.5 334.47 118.5 338.47 119.5 342.47 121.5 345.47 122.5 349.47 124.5 353.47 126.5 356.47 128.5 359.47 129.5 364.47 131.5"/><polyline class="cls-11" points="319.47 116.5 324.47 118.5 328.47 120.5 332.47 122.5 336.47 123.5 340.47 125.5 343.47 126.5 347.47 128.5 351.47 130.5 354.47 132.5 357.47 133.5 362.47 135.5"/><polyline class="cls-11" points="316.47 120.5 321.47 122.5 325.47 124.5 329.47 126.5 333.47 127.5 337.47 129.5 340.47 130.5 344.47 132.5 348.47 134.5 351.47 136.5 354.47 137.5 359.47 139.5"/><polyline class="cls-11" points="314.47 126.5 319.47 128.5 323.47 130.5 327.47 132.5 331.47 133.5 335.47 135.5 338.47 136.5 342.47 138.5 346.47 140.5 349.47 142.5 352.47 143.5 357.47 145.5"/><polyline class="cls-11" points="311.47 131.5 316.47 133.5 320.47 135.5 324.47 137.5 328.47 138.5 332.47 140.5 335.47 141.5 339.47 143.5 343.47 145.5 346.47 147.5 349.47 148.5 354.47 150.5"/><polyline class="cls-11" points="310.47 136.5 315.47 138.5 319.47 140.5 323.47 142.5 327.47 143.5 331.47 145.5 334.47 146.5 338.47 148.5 342.47 150.5 345.47 152.5 348.47 153.5 353.47 155.5"/><polyline class="cls-11" points="306.47 141.5 311.47 143.5 315.47 145.5 319.47 147.5 323.47 148.5 327.47 150.5 330.47 151.5 334.47 153.5 338.47 155.5 341.47 157.5 344.47 158.5 349.47 160.5"/><polyline class="cls-11" points="304.47 146.5 309.47 148.5 313.47 150.5 317.47 152.5 321.47 153.5 325.47 155.5 328.47 156.5 332.47 158.5 336.47 160.5 339.47 162.5 342.47 163.5 347.47 165.5"/><polyline class="cls-11" points="301.47 153.5 306.47 155.5 310.47 157.5 314.47 159.5 318.47 160.5 322.47 162.5 325.47 163.5 329.47 165.5 333.47 167.5 336.47 169.5 339.47 170.5 344.47 172.5"/><polyline class="cls-11" points="299.47 159.5 304.47 161.5 308.47 163.5 312.47 165.5 316.47 166.5 320.47 168.5 323.47 169.5 327.47 171.5 331.47 173.5 334.47 175.5 337.47 176.5 342.47 178.5"/><polyline class="cls-11" points="296.47 163.5 301.47 165.5 305.47 167.5 309.47 169.5 313.47 170.5 317.47 172.5 320.47 173.5 324.47 175.5 328.47 177.5 331.47 179.5 334.47 180.5 339.47 182.5"/><polyline class="cls-11" points="371.47 138.5 376.47 140.5 380.47 142.5 384.47 144.5 388.47 145.5 392.47 147.5 395.47 148.5 399.47 150.5 403.47 152.5 406.47 154.5 409.47 155.5 414.47 157.5"/><polyline class="cls-11" points="368.47 143.5 373.47 145.5 377.47 147.5 381.47 149.5 385.47 150.5 389.47 152.5 392.47 153.5 396.47 155.5 400.47 157.5 403.47 159.5 406.47 160.5 411.47 162.5"/><polyline class="cls-11" points="366.47 148.5 371.47 150.5 375.47 152.5 379.47 154.5 383.47 155.5 387.47 157.5 390.47 158.5 394.47 160.5 398.47 162.5 401.47 164.5 404.47 165.5 409.47 167.5"/><polyline class="cls-11" points="364.47 153.5 369.47 155.5 373.47 157.5 377.47 159.5 381.47 160.5 385.47 162.5 388.47 163.5 392.47 165.5 396.47 167.5 399.47 169.5 402.47 170.5 407.47 172.5"/><polyline class="cls-11" points="361.47 157.5 366.47 159.5 370.47 161.5 374.47 163.5 378.47 164.5 382.47 166.5 385.47 167.5 389.47 169.5 393.47 171.5 396.47 173.5 399.47 174.5 404.47 176.5"/><polyline class="cls-11" points="359.47 161.5 364.47 163.5 368.47 165.5 372.47 167.5 376.47 168.5 380.47 170.5 383.47 171.5 387.47 173.5 391.47 175.5 394.47 177.5 397.47 178.5 402.47 180.5"/><polyline class="cls-11" points="357.47 166.5 362.47 168.5 366.47 170.5 370.47 172.5 374.47 173.5 378.47 175.5 381.47 176.5 385.47 178.5 389.47 180.5 392.47 182.5 395.47 183.5 400.47 185.5"/><polyline class="cls-11" points="354.47 171.5 359.47 173.5 363.47 175.5 367.47 177.5 371.47 178.5 375.47 180.5 378.47 181.5 382.47 183.5 386.47 185.5 389.47 187.5 392.47 188.5 397.47 190.5"/><polyline class="cls-11" points="352.47 176.5 357.47 178.5 361.47 180.5 365.47 182.5 369.47 183.5 373.47 185.5 376.47 186.5 380.47 188.5 384.47 190.5 387.47 192.5 390.47 193.5 395.47 195.5"/><polyline class="cls-11" points="349.47 180.5 354.47 182.5 358.47 184.5 362.47 186.5 366.47 187.5 370.47 189.5 373.47 190.5 377.47 192.5 381.47 194.5 384.47 196.5 387.47 197.5 392.47 199.5"/><polyline class="cls-11" points="346.47 185.5 351.47 187.5 355.47 189.5 359.47 191.5 363.47 192.5 367.47 194.5 370.47 195.5 374.47 197.5 378.47 199.5 381.47 201.5 384.47 202.5 389.47 204.5"/><path class="cls-12" d="M1047.61,448.82a4.2,4.2,0,0,0,.39.27c2.09,1.35,4.23,2.64,6.35,4,3.38,2.1,5.89-4.35,5.2-6.82a6.37,6.37,0,0,0-1.82-2.81,5.87,5.87,0,0,0-3.82-1.86,5.4,5.4,0,0,0-3.65,1.55C1049.35,444,1046.05,447.51,1047.61,448.82Z" transform="translate(-744.03 -406)"/><path class="cls-13" d="M1025.45,468.41c0,.45,1.55,1.95,1.84,2.31a25,25,0,0,0,2.55,2.69,17.5,17.5,0,0,0,6.35,3.8,16.88,16.88,0,0,0,11.78-.82,23.58,23.58,0,0,0,6.17-4,31.41,31.41,0,0,0,2.57-2.59c.6-.68,1.69-1.58,1.85-2.53-.83,4.78-.8,9.67-2.23,14.34-1.7,5.52-5.59,10.07-11.12,11.44a16.07,16.07,0,0,1-14.48-3.52,13.25,13.25,0,0,1-2.17-2.49c-1.67-2.48-2.12-5.35-2.49-8.28A68.55,68.55,0,0,1,1025.45,468.41Z" transform="translate(-744.03 -406)"/><circle class="cls-14" cx="297.64" cy="56.79" r="16.91"/><circle class="cls-15" cx="298.31" cy="56.12" r="12.18"/><path class="cls-16" d="M1042.34,449.94a12.17,12.17,0,0,0-5.38,1.26c0,.26,0,.51,0,.77a12.14,12.14,0,0,0,17.54,10.91c0-.25,0-.5,0-.76A12.17,12.17,0,0,0,1042.34,449.94Z" transform="translate(-744.03 -406)"/><path class="cls-17" d="M1041.33,474.61c0-.24,0-.56,0-1,0-2.11-.72-3.72-1-3.72-.76,0-4.4-2.1-4.4-3.72,0-1.15-1.22-1.76-2.52-2.41a1.9,1.9,0,0,1-1.17-1.87,7.63,7.63,0,0,0-.35-1.7c-.32-1-.66-1.18-.79-1.21a.3.3,0,0,0-.23,0l-.27-.34a11.78,11.78,0,0,0,10.75,15.94Z" transform="translate(-744.03 -406)"/><path class="cls-3" d="M1058.18,504l17-2.22a2.36,2.36,0,0,1,2.63,2l5.32,39.93a2.89,2.89,0,0,1-2.36,3.23l-17.3,3a2.89,2.89,0,0,1-3.36-2.47L1055,508.18A3.71,3.71,0,0,1,1058.18,504Z" transform="translate(-744.03 -406)"/><polygon class="cls-18" points="313.4 100.54 330.87 98.39 335.43 130.62 317.96 133.49 313.4 100.54"/><circle class="cls-19" cx="327.47" cy="137.5" r="2"/><path class="cls-20" d="M948.93,518.25a.43.43,0,0,0-.16-.1l.06.16Z" transform="translate(-744.03 -406)"/><path class="cls-21" d="M952.5,514h0l0,0a1.36,1.36,0,0,0-.43,1.35c0,.07,1,4,1,4v.12a.38.38,0,0,0,.2.29c.21.12.93.29,2.87-.64A30.16,30.16,0,0,0,954.2,515a3.89,3.89,0,0,0-1-1.09.71.71,0,0,0-.73.06Z" transform="translate(-744.03 -406)"/><polygon class="cls-20" points="204.81 112.31 204.91 112.25 204.91 112.25 204.81 112.31 204.81 112.31"/><path class="cls-21" d="M968,533.28c.64-.28,1-3,1-4.78,0-.23-.25-.44-.49-.56a1.51,1.51,0,0,0-1.36-.08.37.37,0,0,0-.15.23v.41c0,.32,0,.69,0,1.09-.09,1.25-.2,2.81.52,3.46C967.57,533.14,967.81,533.34,968,533.28Z" transform="translate(-744.03 -406)"/><path class="cls-21" d="M921.94,543.36a7.1,7.1,0,0,0,3.06-.26v-3.6a2.73,2.73,0,0,0-.63-2,1.31,1.31,0,0,0-1.08-.29c-1.13.11-1.13.33-1.16,1.36,0,.15,0,.3,0,.47-.06,1.06-.13,2.13-.2,3.2,0,.43-.07.87-.09,1.3H922A.23.23,0,0,0,921.94,543.36Z" transform="translate(-744.03 -406)"/><path class="cls-21" d="M943,514.4l1.75,3.49a2.92,2.92,0,0,0,1.72-1.36,2,2,0,0,0-.4-1.75c-1-1.95-2.17-3.69-2.59-3.78a1.65,1.65,0,0,0-1.49,1.46,6,6,0,0,1,.88,1.63A2.92,2.92,0,0,0,943,514.4Z" transform="translate(-744.03 -406)"/><path class="cls-20" d="M966.05,547.28c1.26-2.52,2.12-9,2.58-13.26a1.17,1.17,0,0,1-.28.17,1.35,1.35,0,0,1-1.55-.4c-1.08-1-.95-2.8-.85-4.27v-.14a12.05,12.05,0,0,0-1.11,3.51c-.06.25-.1.47-.14.62a65.21,65.21,0,0,1-2.5,8c-.5,1.29-1.05,2.59-1.64,3.87-.75,1.63-1.31,1.82-1.59,1.82h-.13c-.6-.1-.68-.85-.7-1.09a79.3,79.3,0,0,1-.14-9.86c0-1.12.07-2.24.08-3.36a38.76,38.76,0,0,0-1.7-12.79,6.76,6.76,0,0,1-2.7.79,1.94,1.94,0,0,1-1-.26,1.38,1.38,0,0,1-.66-1c-.11-.44-1-3.94-1-4a2.39,2.39,0,0,1,0-1,7,7,0,0,0-1.45,3.24l-.06.21a1.7,1.7,0,0,1-.44.89A56.64,56.64,0,0,1,953,538.49l-1,0a58,58,0,0,0-4.71-21.4,4.55,4.55,0,0,1-2.67,1.87l-.39.1-2.12-4.23c0-.08-.09-.21-.16-.37a6.38,6.38,0,0,0-.67-1.33s0,0,0,.06a3.78,3.78,0,0,0,0,2.26,39.4,39.4,0,0,0,2.15,5.23,24.51,24.51,0,0,1,2.76,8.29,22.68,22.68,0,0,1-1,7.54c-.08.33-.17.78-.27,1.29-.47,2.48-1.11,5.86-3.15,6.22l-.17-1a.33.33,0,0,0-.21.13c.5-1-1.31-9.85-1.77-11.39a39.44,39.44,0,0,0-3-7.49c-2.1,2.68-4.17,1.69-4.26,1.65l-.14-.07-.18-.32a18,18,0,0,1-1.8-4c-.31.9.19,2.42.59,3.39l.43,1.06c3.06,7.4,7.24,17.53,4.39,25.32a7.32,7.32,0,0,1-3.49,4.12,2.77,2.77,0,0,1-1.24.34h-.1a2.62,2.62,0,0,1-2.07-1.51,8,8,0,0,1-.74-3.81c0-.63,0-1.26,0-1.88a37.85,37.85,0,0,0-.07-3.84c-.23-2.41-.87-4.19-1.88-5.22v4.35l-.38.09a10.18,10.18,0,0,1-3.85.38c-.27,4.48-.26,9,1.86,13.21a32.85,32.85,0,0,0,6.18,7.75c.57.58,1.14,1.16,1.69,1.75,6.41,6.8,8.8,16,11.45,24.66,3.23,10.61,6.17,20.94,7.16,32.08a.19.19,0,0,0,0,.07c1.62,5.2,10.46,4.17,14.24,3.14,9.59-2.62,9.65-4.36,9.65-4.38l-8-19.95C958,582.63,964.05,551.29,966.05,547.28Z" transform="translate(-744.03 -406)"/><path class="cls-21" d="M932.83,525.07l0,0c.4.12,1.72.3,3.14-1.74q-.42-.69-.9-1.35c-.88-1.2-3.23-3.15-3.91-2.87-.17.06-.32.48-.2,1.45A13.32,13.32,0,0,0,932.83,525.07Z" transform="translate(-744.03 -406)"/><line class="cls-20" x1="204.81" y1="112.31" x2="204.91" y2="112.25"/><line class="cls-20" x1="204.81" y1="112.31" x2="204.47" y2="112.5"/><path class="cls-22" d="M856,537.5c0-1-.6-2-1.08-2s-.68.38-.95,1.18A19,19,0,0,0,853,541h2.15A9.53,9.53,0,0,0,856,537.5Z" transform="translate(-744.03 -406)"/><path class="cls-22" d="M891.51,547.94a1.27,1.27,0,0,0-.62.24l-.82,5,3.44.86a6.87,6.87,0,0,0-.3-4.38C892.82,548.82,892.21,547.9,891.51,547.94Z" transform="translate(-744.03 -406)"/><path class="cls-20" d="M974.9,623.16c4.12,12,7.53,22.15,10.32,30.71L992,673S974.74,622.67,974.9,623.16Z" transform="translate(-744.03 -406)"/><path class="cls-20" d="M985.22,653.87,967,602.31c-7.91-19.78-2-50.64,0-54.59s3-17.07,3-17.62h-.08c.08-.85.08-1.52.08-1.59a1.69,1.69,0,0,0-1-1.45,2.42,2.42,0,0,0-2.39,0,1.37,1.37,0,0,0-.58,1.05c-1.3.52-1.81,3-2.12,4.59,0,.24-.09.44-.13.58a63.3,63.3,0,0,1-2.47,7.89c-.49,1.27-1,2.55-1.61,3.81a5.71,5.71,0,0,1-.52.93,77.27,77.27,0,0,1-.13-9.62c0-1.13.07-2.26.08-3.38.1-7.21-1.08-12.75-3.74-17.86a4.35,4.35,0,0,0-.28-.53c-.05-.08-.09-.17-.13-.25h0a4.59,4.59,0,0,0-1.19-1.22,1.73,1.73,0,0,0-1.55,0c-2.43.22-3.11,2.81-3.57,4.56l0,.07c-.38-1-.77-1.92-1.16-2.86l-.16.06a3.2,3.2,0,0,0-.31-.57c-.8-1.6-2.31-4.28-3.45-4.28a2.66,2.66,0,0,0-2.48,2.18,1.16,1.16,0,0,0-.62.46c-.61.89-.26,2.68-.13,3.11a36,36,0,0,0,2.2,5.37c1.25,2.66,2.43,5.17,2.66,8a21.78,21.78,0,0,1-1,7.21c-.09.34-.18.81-.28,1.36-.26,1.38-.7,3.68-1.49,4.79,0-3.25-1.85-10.85-1.88-10.93a33.88,33.88,0,0,0-4.6-10.08c-.37-.5-3.38-3.89-5.09-3.21-.62.24-.89.94-.84,2-.87.59-1.45,1.95-.15,5.12l.44,1.06c3,7.25,7.09,17.17,4.37,24.6a6.31,6.31,0,0,1-3,3.56,1.7,1.7,0,0,1-.85.23,1.68,1.68,0,0,1-1.25-1,7.08,7.08,0,0,1-.61-3.34c0-.62,0-1.24,0-1.86a37.17,37.17,0,0,0-.08-3.94c-.3-3.3-1.33-5.5-3-6.54a2.85,2.85,0,0,0-.8-1.42,2.33,2.33,0,0,0-1.85-.54c-2,.21-2,1.29-2.06,2.33,0,.15,0,.29,0,.45,0,1.06-.13,2.12-.2,3.18-.38,5.31-.76,10.8,1.82,15.89,1.55,3.08,4,5.58,6.36,8,.56.58,1.12,1.15,1.67,1.73a64.92,64.92,0,0,1,13.33,21.33c3.14,8.23,3.85,16.66,5.07,25.29,2.8,19.9,2.7,40.14,4.66,60.13h37.89C990.06,668.93,987.93,662.14,985.22,653.87ZM967,529.59c0-.4,0-.77,0-1.09v-.41a.37.37,0,0,1,.15-.23,1.51,1.51,0,0,1,1.36.08c.24.12.49.33.49.56,0,1.76-.41,4.5-1,4.78-.14.06-.38-.14-.48-.23C966.75,532.4,966.86,530.84,967,529.59ZM952.42,514l0,0h0v0a.71.71,0,0,1,.73-.06,3.89,3.89,0,0,1,1,1.09,30.16,30.16,0,0,1,1.87,4.14c-1.94.93-2.66.76-2.87.64a.38.38,0,0,1-.2-.29v-.12s-1-3.93-1-4A1.36,1.36,0,0,1,952.42,514Zm-3.49,4.22h0l-.1.06h0l-.06-.16A.43.43,0,0,1,948.93,518.25ZM943.49,511c.42.09,1.62,1.83,2.59,3.78a2,2,0,0,1,.4,1.75,2.92,2.92,0,0,1-1.72,1.36L943,514.4a2.92,2.92,0,0,1-.13-.31,6,6,0,0,0-.88-1.63A1.65,1.65,0,0,1,943.49,511Zm-12.31,8.14c.68-.28,3,1.67,3.91,2.87q.48.66.9,1.35c-1.42,2-2.74,1.86-3.14,1.74l0,0a13.32,13.32,0,0,1-1.85-4.48C930.86,519.62,931,519.2,931.18,519.14Zm-9.26,23.06c.07-1.07.14-2.14.2-3.2,0-.17,0-.32,0-.47,0-1,0-1.25,1.16-1.36a1.31,1.31,0,0,1,1.08.29,2.73,2.73,0,0,1,.63,2v3.6a7.1,7.1,0,0,1-3.06.26.23.23,0,0,1,.06.14h-.17C921.85,543.07,921.88,542.63,921.92,542.2Z" transform="translate(-744.03 -406)"/><path class="cls-23" d="M891.51,547.94a1.27,1.27,0,0,0-.62.24l-.82,5,3.44.86a6.87,6.87,0,0,0-.3-4.38C892.82,548.82,892.21,547.9,891.51,547.94Z" transform="translate(-744.03 -406)"/><path class="cls-23" d="M856,537.5c0-1-.6-2-1.08-2s-.68.38-.95,1.18A19,19,0,0,0,853,541h2.15A9.53,9.53,0,0,0,856,537.5Z" transform="translate(-744.03 -406)"/><path class="cls-24" d="M866.73,524.8a4,4,0,0,1,.48-.44A3.39,3.39,0,0,0,866.73,524.8Z" transform="translate(-744.03 -406)"/><path class="cls-24" d="M865.84,526.06a8.52,8.52,0,0,1,.83-1.2A7.51,7.51,0,0,0,865.84,526.06Z" transform="translate(-744.03 -406)"/><path class="cls-24" d="M864.71,528.15c.35-.7.72-1.39,1.12-2.06C865.44,526.74,865.07,527.44,864.71,528.15Z" transform="translate(-744.03 -406)"/><path class="cls-24" d="M870.69,525.5a.86.86,0,0,0,0-.16.86.86,0,0,1,0,.16Z" transform="translate(-744.03 -406)"/><path class="cls-24" d="M864,529.69l-.45,1h0c.26-.61.53-1.21.82-1.8Z" transform="translate(-744.03 -406)"/><path class="cls-24" d="M870.3,524.5l.11.12Z" transform="translate(-744.03 -406)"/><path class="cls-24" d="M870.07,524.28l.09.06Z" transform="translate(-744.03 -406)"/><path class="cls-24" d="M867.3,524.29a2.81,2.81,0,0,1,.59-.33A3.34,3.34,0,0,0,867.3,524.29Z" transform="translate(-744.03 -406)"/><path class="cls-24" d="M867.89,524a2.42,2.42,0,0,1,.48-.13A2.42,2.42,0,0,0,867.89,524Z" transform="translate(-744.03 -406)"/><path class="cls-24" d="M869.84,524.11h0Z" transform="translate(-744.03 -406)"/><path class="cls-24" d="M870.49,524.77c0,.06.07.11.1.18S870.52,524.83,870.49,524.77Z" transform="translate(-744.03 -406)"/><path class="cls-24" d="M870.68,525.3a1.21,1.21,0,0,0,0-.18,1.21,1.21,0,0,1,0,.18Z" transform="translate(-744.03 -406)"/><path class="cls-24" d="M867.24,530.92c.78-1.49,1.52-3,2.21-4.56a1.85,1.85,0,0,0,.24-.92.7.7,0,0,0-.35-.47,1.32,1.32,0,0,0-1.08-.08,3.65,3.65,0,0,0-1.56,1.68,37.92,37.92,0,0,0-1.82,3.53l.14,0Z" transform="translate(-744.03 -406)"/><path class="cls-24" d="M891.63,525.87a.47.47,0,0,1,.1.1A.47.47,0,0,0,891.63,525.87Z" transform="translate(-744.03 -406)"/><path class="cls-24" d="M889.72,526.07l0,0Z" transform="translate(-744.03 -406)"/><path class="cls-24" d="M888,527.68l.07-.09Z" transform="translate(-744.03 -406)"/><path class="cls-24" d="M887.67,528.08l.11-.13Z" transform="translate(-744.03 -406)"/><path class="cls-24" d="M892.26,527.54a.28.28,0,0,0,0,.09A.28.28,0,0,1,892.26,527.54Z" transform="translate(-744.03 -406)"/><path class="cls-24" d="M887,528.88l.17-.22Z" transform="translate(-744.03 -406)"/><path class="cls-24" d="M887.35,528.48l.13-.17Z" transform="translate(-744.03 -406)"/><path class="cls-24" d="M889.39,526.32l0,0Z" transform="translate(-744.03 -406)"/><path class="cls-24" d="M889.05,526.61l0,0Z" transform="translate(-744.03 -406)"/><path class="cls-24" d="M886.76,529.26,887,529Z" transform="translate(-744.03 -406)"/><path class="cls-24" d="M888.7,526.94l0,0Z" transform="translate(-744.03 -406)"/><path class="cls-24" d="M888.35,527.3l0-.06Z" transform="translate(-744.03 -406)"/><path class="cls-24" d="M886.15,530.13c.14-.21.34-.5.57-.82-.22.3-.41.58-.57.82l-.19.12h0Z" transform="translate(-744.03 -406)"/><polygon class="cls-24" points="141.12 124.85 141.36 124.61 141.07 124.8 141.15 124.88 141.15 124.88 141.12 124.85"/><path class="cls-24" d="M890.67,525.62h0Z" transform="translate(-744.03 -406)"/><path class="cls-24" d="M891,525.59h0a.7.7,0,0,1,.25,0Z" transform="translate(-744.03 -406)"/><path class="cls-24" d="M891.35,525.69l.14.07Z" transform="translate(-744.03 -406)"/><path class="cls-24" d="M892,526.28a2.35,2.35,0,0,1,.17.44A2.35,2.35,0,0,0,892,526.28Z" transform="translate(-744.03 -406)"/><path class="cls-24" d="M890.05,525.86l.06,0Z" transform="translate(-744.03 -406)"/><path class="cls-24" d="M890.37,525.71l.08,0Z" transform="translate(-744.03 -406)"/><path class="cls-24" d="M892.18,527a1.6,1.6,0,0,1,.05.21A1.6,1.6,0,0,0,892.18,527Z" transform="translate(-744.03 -406)"/><path class="cls-24" d="M889.15,532.15c1-1,2.72-3.79,1.9-5.43-.06-.12-.1-.13-.13-.13-.73-.05-2.63,2.13-4,4.19l-.16.15-.08.05,1.82,1.81Z" transform="translate(-744.03 -406)"/><path class="cls-24" d="M873.7,524.55a1.74,1.74,0,0,1,.1-.19A1.14,1.14,0,0,0,873.7,524.55Z" transform="translate(-744.03 -406)"/><path class="cls-24" d="M875,522.27a11.77,11.77,0,0,0-1,1.74,9.41,9.41,0,0,1,1.14-1.83Z" transform="translate(-744.03 -406)"/><path class="cls-24" d="M872.77,526.41v0l-.5,1h0l.25-.51C872.6,526.77,872.68,526.59,872.77,526.41Z" transform="translate(-744.03 -406)"/><path class="cls-24" d="M873.27,525.4l0-.09Z" transform="translate(-744.03 -406)"/><path class="cls-24" d="M877.67,521.38a4,4,0,0,0-2.45.7l-.05,0A3.93,3.93,0,0,1,877.67,521.38Z" transform="translate(-744.03 -406)"/><path class="cls-24" d="M878.11,521.53a1.13,1.13,0,0,0-.24-.08,1.13,1.13,0,0,1,.24.08Z" transform="translate(-744.03 -406)"/><path class="cls-24" d="M879,523.32a2.23,2.23,0,0,0-.52-1.51,2.27,2.27,0,0,1,.51,1.5Z" transform="translate(-744.03 -406)"/><path class="cls-24" d="M876.22,527.85l1.78-4.44c0-.39-.08-.85-.36-1-.47-.24-1.47.25-1.86.51a26.4,26.4,0,0,0-2.12,4C874.18,527,875,527.35,876.22,527.85Z" transform="translate(-744.03 -406)"/><path class="cls-20" d="M894.11,549.17c-.76-1.54-1.64-2.3-2.66-2.23a2.34,2.34,0,0,0-1.25.51l-.19,0,0,.22c-1.49,1.32-2.6,4.12-3.08,5.52-.1.3-.22.69-.37,1.15-.92,2.87-3,9.4-5.52,9.7V562.5a35.94,35.94,0,0,1,4.36-18.13c.31-.6,1-1.61,1.83-2.78,3-4.33,7.5-10.82,5-13.36a4,4,0,0,0,0-.6.28.28,0,0,1,0-.09l0-.36a1.6,1.6,0,0,0-.05-.21,1.83,1.83,0,0,0-.06-.25,2.35,2.35,0,0,0-.17-.44,1.44,1.44,0,0,0-.22-.31.47.47,0,0,0-.1-.1l-.14-.11-.14-.07-.11,0a.7.7,0,0,0-.25,0h-.07l-.13,0h-.12l-.22.07-.08,0-.26.12-.06,0-.29.18,0,0-.31.23,0,0a3.82,3.82,0,0,0-.32.27l0,0c-.11.09-.21.19-.32.3l0,0-.3.3,0,.06-.27.29-.07.09-.23.27-.11.13-.19.23-.13.17-.14.18-.17.22L887,529l-.19.27,0,0c-.23.32-.43.61-.57.82l-.19.12h0l-.11-.1-.46.46-.24.24,0,0h0c-4.47,4-10.84,16.71-12.64,20.41-.48-1.69-.79-5.86,3.41-13.55,5.44-10,3.61-13.64,3-14.42h0a2.27,2.27,0,0,0-.51-1.5,1.45,1.45,0,0,0-.36-.28h0a1.13,1.13,0,0,0-.24-.08,1.59,1.59,0,0,0-.2-.07,3.93,3.93,0,0,0-2.5.75l0,0,0,0A9.41,9.41,0,0,0,874,524l-.18.35a1.74,1.74,0,0,0-.1.19l-.39.76,0,.09c-.16.31-.32.64-.5,1-.09.18-.17.36-.26.55l-.25.51c-.67,1.41-1.23,2.57-1.68,3.51a40.61,40.61,0,0,0,.42-5.48h-.32a.86.86,0,0,0,0-.16v0h0a1.21,1.21,0,0,0,0-.18.85.85,0,0,0,0-.17c0-.07-.07-.12-.1-.18l-.08-.15-.11-.12-.14-.16-.09-.06-.23-.17h0a2.3,2.3,0,0,0-1.45-.27,2.42,2.42,0,0,0-.48.13,2.81,2.81,0,0,0-.59.33l-.09.07a4,4,0,0,0-.48.44l-.06.06a8.52,8.52,0,0,0-.83,1.2h0v0c-.4.67-.77,1.36-1.12,2.06l-.35.74c-.29.59-.56,1.19-.82,1.8A96.55,96.55,0,0,0,859,546.11c-.42,1.78-.85,3.61-1.31,5.41v-.18c.06-1.06.16-2.13.27-3.27.38-4,.78-8.18-1-11.79l-.14.07a2.54,2.54,0,0,0-1.73-1.86c-.51-.08-1.45,0-2.05,1.85a18.41,18.41,0,0,0-1,5.12,81.33,81.33,0,0,0-1,11c0,2.54,1,7.91,2,13.59,1,5.39,2,10.95,2,13.41,0,1.7-1.8,8.1-4.16,15.73-8.64,23.66-25.6,66.63-30.5,79.27h40.38c1.43-18.46,4.59-52.22,7.82-70.21q1.47-5,3.38-9.82c2.29-5.74,6.43-10.36,10.43-14.83,1.25-1.4,2.55-2.85,3.77-4.31,3.44-4.12,5-9.1,6.17-13.88.21-.85.54-1.82.9-2.85C894.27,555.5,895.49,552,894.11,549.17Zm-7.35-18.24.16-.15c1.37-2.06,3.27-4.24,4-4.19,0,0,.07,0,.13.13.82,1.64-.86,4.39-1.9,5.43l-.65.64L886.68,531Zm-9.12-8.52c.28.15.35.61.36,1l-1.78,4.44c-1.25-.5-2-.81-2.56-1a26.4,26.4,0,0,1,2.12-4C876.17,522.66,877.17,522.17,877.64,522.41Zm-10.94,4.16a3.65,3.65,0,0,1,1.56-1.68,1.32,1.32,0,0,1,1.08.08.7.7,0,0,1,.35.47,1.85,1.85,0,0,1-.24.92c-.69,1.54-1.43,3.07-2.21,4.56l-2.22-.77-.14,0A37.92,37.92,0,0,1,866.7,526.57ZM854,536.66c.27-.8.61-1.24.95-1.18s1.08,1,1.08,2a9.53,9.53,0,0,1-.82,3.5H853A19,19,0,0,1,854,536.66ZM893.51,554l-3.44-.86.82-5a1.27,1.27,0,0,1,.62-.24c.7,0,1.31.88,1.7,1.67A6.87,6.87,0,0,1,893.51,554Z" transform="translate(-744.03 -406)"/><path class="cls-25" d="M943.5,470.5" transform="translate(-744.03 -406)"/></svg>