<svg width="360" height="225" viewBox="0 0 360 225" fill="none" xmlns="http://www.w3.org/2000/svg">
<g clip-path="url(#clip0)">
<path d="M75.4599 97.9944C75.4599 97.9944 58.6377 99.3017 55.2732 105.168C51.9088 111.034 52.7499 116.061 55.2732 117.737C57.7966 119.413 75.4599 116.899 60.3199 99.3017C45.1799 81.7039 36.4996 134.187 14.8998 109.358C14.8998 109.358 7.32979 95.1117 8.17091 85.8939C9.01202 76.676 -3.60468 72.486 -3.60468 72.486" stroke="#F6EAEC" stroke-width="3" stroke-miterlimit="10"/>
<path d="M68.731 0.418991H209.197C209.414 0.419882 209.628 0.464467 209.827 0.55008C210.026 0.635694 210.206 0.760573 210.355 0.917161C210.504 1.07375 210.62 1.25882 210.696 1.46123C210.771 1.66365 210.805 1.87922 210.795 2.09497L207.565 80.1955C207.548 80.6061 207.372 80.994 207.074 81.2783C206.776 81.5625 206.379 81.721 205.967 81.7207H72.7684C72.3595 81.7211 71.9662 81.5647 71.6702 81.2838C71.3742 81.0029 71.1981 80.6191 71.1786 80.2123L67.1329 2.11172C67.1215 1.89569 67.1544 1.67961 67.2296 1.47666C67.3047 1.27371 67.4206 1.08817 67.5702 0.931328C67.7197 0.774489 67.8998 0.649656 68.0994 0.564453C68.299 0.479249 68.5139 0.435442 68.731 0.435742V0.418991Z" fill="#262926" stroke="#262926" stroke-miterlimit="10"/>
<path d="M183.543 157.123H203.309C203.755 157.123 204.183 156.946 204.499 156.632C204.814 156.318 204.991 155.891 204.991 155.447V79.1899C204.991 78.7454 204.814 78.3191 204.499 78.0048C204.183 77.6905 203.755 77.5139 203.309 77.5139H178.076C177.63 77.5139 177.202 77.6905 176.886 78.0048C176.571 78.3191 176.393 78.7454 176.393 79.1899V80.0279C176.393 80.4724 176.216 80.8987 175.901 81.213C175.585 81.5273 175.157 81.7039 174.711 81.7039H102.376C101.929 81.7039 101.502 81.5273 101.186 81.213C100.871 80.8987 100.693 80.4724 100.693 80.0279C100.693 79.5834 100.516 79.1571 100.201 78.8428C99.8851 78.5285 99.4572 78.3519 99.0111 78.3519H75.4599C75.0138 78.3519 74.5859 78.5285 74.2704 78.8428C73.955 79.1571 73.7777 79.5834 73.7777 80.0279V155.447C73.7777 155.891 73.955 156.318 74.2704 156.632C74.5859 156.946 75.0138 157.123 75.4599 157.123H183.543Z" fill="#D8D8D8" stroke="#D8D8D8" stroke-miterlimit="10"/>
<path d="M120.586 133.542H153.263C153.618 133.542 153.958 133.682 154.209 133.932C154.459 134.182 154.6 134.521 154.6 134.874V148.986C154.6 149.159 154.566 149.33 154.5 149.49C154.433 149.649 154.336 149.794 154.213 149.916C154.091 150.038 153.945 150.135 153.785 150.202C153.625 150.268 153.453 150.302 153.28 150.302H120.258C119.947 150.302 119.648 150.179 119.428 149.961C119.207 149.743 119.082 149.447 119.08 149.137V135.042C119.08 134.644 119.239 134.263 119.521 133.981C119.803 133.7 120.186 133.542 120.586 133.542Z" fill="#CCCCCC" stroke="#CCCCCC" stroke-miterlimit="10"/>
<path d="M76.301 73.324L72.0955 5.44693H205.832L202.468 73.324H76.301Z" fill="#FEFEFE" stroke="#FEFEFE" stroke-miterlimit="10"/>
<path d="M83.4505 89.6648H191.113V129.05H84.2916L83.4505 89.6648Z" fill="#BDBDBD" stroke="#BDBDBD" stroke-miterlimit="10"/>
<path d="M85.2757 92.5978H92.5766C92.7216 92.5978 92.8606 92.6551 92.9632 92.7573C93.0657 92.8594 93.1233 92.998 93.1233 93.1425V96.1844C93.1233 96.3444 93.0595 96.4978 92.9459 96.611C92.8324 96.7241 92.6783 96.7877 92.5177 96.7877H85.2757C85.1262 96.7877 84.9829 96.7286 84.8772 96.6233C84.7715 96.518 84.7122 96.3752 84.7122 96.2263V93.1592C84.7122 93.0855 84.7268 93.0125 84.7551 92.9443C84.7834 92.8762 84.8249 92.8143 84.8772 92.7622C84.9295 92.7101 84.9917 92.6687 85.06 92.6405C85.1284 92.6123 85.2017 92.5978 85.2757 92.5978V92.5978Z" fill="#282828"/>
<path d="M97.0513 92.5978H104.352C104.497 92.5978 104.636 92.6551 104.739 92.7573C104.841 92.8594 104.899 92.998 104.899 93.1425V96.1844C104.899 96.2636 104.883 96.3421 104.853 96.4153C104.822 96.4885 104.778 96.555 104.722 96.611C104.665 96.667 104.599 96.7115 104.525 96.7418C104.452 96.7721 104.373 96.7877 104.293 96.7877H97.0513C96.9018 96.7877 96.7585 96.7286 96.6528 96.6233C96.5471 96.518 96.4878 96.3752 96.4878 96.2263V93.1592C96.4878 93.0855 96.5024 93.0125 96.5307 92.9443C96.559 92.8762 96.6005 92.8143 96.6528 92.7622C96.7051 92.7101 96.7672 92.6687 96.8356 92.6405C96.904 92.6123 96.9773 92.5978 97.0513 92.5978V92.5978Z" fill="#282828"/>
<path d="M109.668 92.5978H116.969C117.114 92.5978 117.253 92.6551 117.355 92.7573C117.458 92.8594 117.516 92.998 117.516 93.1425V96.1844C117.516 96.3444 117.452 96.4978 117.338 96.611C117.225 96.7241 117.071 96.7877 116.91 96.7877H109.668C109.519 96.7877 109.375 96.7286 109.269 96.6233C109.164 96.518 109.104 96.3752 109.104 96.2263V93.1592C109.104 93.0855 109.119 93.0125 109.147 92.9443C109.176 92.8762 109.217 92.8143 109.269 92.7622C109.322 92.7101 109.384 92.6687 109.452 92.6405C109.521 92.6123 109.594 92.5978 109.668 92.5978V92.5978Z" fill="#282828"/>
<path d="M121.444 92.5978H128.744C128.889 92.5978 129.028 92.6551 129.131 92.7573C129.234 92.8594 129.291 92.998 129.291 93.1425V96.1844C129.291 96.3444 129.227 96.4978 129.114 96.611C129 96.7241 128.846 96.7877 128.686 96.7877H121.444C121.294 96.7877 121.151 96.7286 121.045 96.6233C120.939 96.518 120.88 96.3752 120.88 96.2263V93.1592C120.88 93.0855 120.895 93.0125 120.923 92.9443C120.951 92.8762 120.993 92.8143 121.045 92.7622C121.097 92.7101 121.16 92.6687 121.228 92.6405C121.296 92.6123 121.37 92.5978 121.444 92.5978V92.5978Z" fill="#282828"/>
<path d="M133.219 92.5978H140.52C140.665 92.5978 140.804 92.6551 140.907 92.7573C141.009 92.8594 141.067 92.998 141.067 93.1425V96.1844C141.067 96.3444 141.003 96.4978 140.889 96.611C140.776 96.7241 140.622 96.7877 140.461 96.7877H133.219C133.07 96.7877 132.926 96.7286 132.821 96.6233C132.715 96.518 132.656 96.3752 132.656 96.2263V93.1592C132.656 93.0855 132.67 93.0125 132.699 92.9443C132.727 92.8762 132.768 92.8143 132.821 92.7622C132.873 92.7101 132.935 92.6687 133.003 92.6405C133.072 92.6123 133.145 92.5978 133.219 92.5978V92.5978Z" fill="#282828"/>
<path d="M144.995 92.5978H152.296C152.441 92.5978 152.58 92.6551 152.682 92.7573C152.785 92.8594 152.842 92.998 152.842 93.1425V96.1844C152.842 96.3444 152.779 96.4978 152.665 96.611C152.551 96.7241 152.397 96.7877 152.237 96.7877H144.995C144.845 96.7877 144.702 96.7286 144.596 96.6233C144.491 96.518 144.431 96.3752 144.431 96.2263V93.1592C144.431 93.0855 144.446 93.0125 144.474 92.9443C144.502 92.8762 144.544 92.8143 144.596 92.7622C144.649 92.7101 144.711 92.6687 144.779 92.6405C144.847 92.6123 144.921 92.5978 144.995 92.5978V92.5978Z" fill="#282828"/>
<path d="M157.611 92.5978H164.912C165.057 92.5978 165.196 92.6551 165.299 92.7573C165.401 92.8594 165.459 92.998 165.459 93.1425V96.1844C165.459 96.2636 165.443 96.3421 165.413 96.4153C165.382 96.4885 165.338 96.555 165.282 96.611C165.225 96.667 165.159 96.7115 165.085 96.7418C165.012 96.7721 164.933 96.7877 164.853 96.7877H157.611C157.462 96.7877 157.319 96.7286 157.213 96.6233C157.107 96.518 157.048 96.3752 157.048 96.2263V93.1592C157.048 93.0855 157.062 93.0125 157.091 92.9443C157.119 92.8762 157.161 92.8143 157.213 92.7622C157.265 92.7101 157.327 92.6687 157.396 92.6405C157.464 92.6123 157.537 92.5978 157.611 92.5978V92.5978Z" fill="#282828"/>
<path d="M169.387 92.5978H176.688C176.833 92.5978 176.972 92.6551 177.074 92.7573C177.177 92.8594 177.235 92.998 177.235 93.1425V96.1844C177.235 96.3444 177.171 96.4978 177.057 96.611C176.944 96.7241 176.79 96.7877 176.629 96.7877H169.387C169.238 96.7877 169.094 96.7286 168.989 96.6233C168.883 96.518 168.823 96.3752 168.823 96.2263V93.1592C168.823 93.0855 168.838 93.0125 168.866 92.9443C168.895 92.8762 168.936 92.8143 168.989 92.7622C169.041 92.7101 169.103 92.6687 169.171 92.6405C169.24 92.6123 169.313 92.5978 169.387 92.5978V92.5978Z" fill="#282828"/>
<path d="M180.321 92.5978H187.622C187.767 92.5978 187.906 92.6551 188.009 92.7573C188.111 92.8594 188.169 92.998 188.169 93.1425V96.1844C188.169 96.2636 188.153 96.3421 188.123 96.4153C188.093 96.4885 188.048 96.555 187.992 96.611C187.935 96.667 187.869 96.7115 187.795 96.7418C187.722 96.7721 187.643 96.7877 187.563 96.7877H180.321C180.172 96.7877 180.029 96.7286 179.923 96.6233C179.817 96.518 179.758 96.3752 179.758 96.2263V93.1592C179.758 93.0855 179.773 93.0125 179.801 92.9443C179.829 92.8762 179.871 92.8143 179.923 92.7622C179.975 92.7101 180.037 92.6687 180.106 92.6405C180.174 92.6123 180.247 92.5978 180.321 92.5978V92.5978Z" fill="#282828"/>
<path d="M94.7298 99.7207V103.341C94.732 103.496 94.7947 103.644 94.9047 103.753C95.0146 103.863 95.1631 103.925 95.3186 103.927H100.92C100.997 103.927 101.072 103.912 101.143 103.883C101.213 103.854 101.277 103.812 101.331 103.758C101.385 103.704 101.427 103.641 101.457 103.57C101.486 103.5 101.501 103.425 101.501 103.349V99.6285C101.502 99.5728 101.492 99.5174 101.471 99.4656C101.451 99.4138 101.42 99.3666 101.381 99.3268C101.341 99.287 101.295 99.2554 101.243 99.2338C101.192 99.2122 101.136 99.2011 101.08 99.2011H95.2261C95.0922 99.2076 94.9659 99.2652 94.8735 99.3619C94.7811 99.4586 94.7296 99.5871 94.7298 99.7207V99.7207Z" fill="#282828"/>
<path d="M98.069 107.355V110.916C98.0701 110.993 98.0864 111.069 98.117 111.14C98.1476 111.211 98.192 111.275 98.2474 111.329C98.3029 111.382 98.3684 111.425 98.4403 111.453C98.5121 111.481 98.5889 111.496 98.6662 111.494H104.31C104.463 111.494 104.611 111.435 104.721 111.329C104.831 111.222 104.895 111.077 104.899 110.925V107.263C104.899 107.207 104.888 107.152 104.866 107.1C104.844 107.049 104.813 107.002 104.773 106.963C104.733 106.924 104.685 106.894 104.633 106.873C104.581 106.852 104.526 106.842 104.47 106.844H98.5821C98.5147 106.844 98.448 106.857 98.3858 106.882C98.3235 106.908 98.2669 106.946 98.2193 106.993C98.1717 107.041 98.1339 107.097 98.1081 107.159C98.0823 107.221 98.069 107.288 98.069 107.355Z" fill="#282828"/>
<path d="M103.116 114.897V118.458C103.117 118.535 103.133 118.611 103.164 118.682C103.194 118.753 103.239 118.817 103.294 118.87C103.35 118.924 103.415 118.966 103.487 118.995C103.559 119.023 103.636 119.037 103.713 119.036H109.357C109.51 119.036 109.657 118.977 109.767 118.87C109.877 118.764 109.941 118.619 109.946 118.466V114.804C109.946 114.749 109.934 114.694 109.913 114.642C109.891 114.591 109.859 114.544 109.819 114.505C109.779 114.466 109.732 114.435 109.68 114.415C109.628 114.394 109.573 114.384 109.517 114.385H103.629C103.561 114.385 103.495 114.399 103.432 114.424C103.37 114.45 103.314 114.488 103.266 114.535C103.218 114.583 103.181 114.639 103.155 114.701C103.129 114.763 103.116 114.829 103.116 114.897Z" fill="#282828"/>
<path d="M98.1364 122.279V126.385C98.1363 126.474 98.154 126.562 98.1884 126.644C98.2227 126.726 98.273 126.8 98.3364 126.862C98.3997 126.925 98.4749 126.974 98.5575 127.007C98.6401 127.04 98.7286 127.057 98.8177 127.056H105.319C105.496 127.056 105.666 126.986 105.792 126.862C105.918 126.739 105.99 126.57 105.992 126.394V122.204C105.99 122.076 105.938 121.955 105.847 121.866C105.755 121.776 105.632 121.726 105.504 121.726H98.7251C98.5746 121.726 98.4297 121.783 98.3202 121.886C98.2107 121.989 98.145 122.13 98.1364 122.279Z" fill="#282828"/>
<path d="M109.071 122.279V126.385C109.071 126.474 109.088 126.562 109.123 126.644C109.157 126.726 109.207 126.8 109.271 126.862C109.334 126.925 109.409 126.974 109.492 127.007C109.575 127.04 109.663 127.057 109.752 127.056H116.254C116.431 127.056 116.601 126.986 116.727 126.862C116.853 126.739 116.925 126.57 116.927 126.394V122.204C116.925 122.076 116.872 121.955 116.781 121.866C116.69 121.776 116.567 121.726 116.439 121.726H109.66C109.509 121.726 109.364 121.783 109.255 121.886C109.145 121.989 109.079 122.13 109.071 122.279Z" fill="#282828"/>
<path d="M112.368 114.897V118.458C112.369 118.535 112.385 118.611 112.416 118.682C112.447 118.753 112.491 118.817 112.546 118.87C112.602 118.924 112.667 118.966 112.739 118.995C112.811 119.023 112.888 119.037 112.965 119.036H118.609C118.762 119.036 118.91 118.977 119.02 118.87C119.129 118.764 119.193 118.619 119.198 118.466V114.804C119.198 114.749 119.187 114.694 119.165 114.642C119.143 114.591 119.112 114.544 119.072 114.505C119.032 114.466 118.984 114.435 118.932 114.415C118.88 114.394 118.825 114.384 118.769 114.385H112.881C112.745 114.385 112.614 114.439 112.518 114.535C112.422 114.631 112.368 114.761 112.368 114.897V114.897Z" fill="#282828"/>
<path d="M121.62 114.897V118.458C121.621 118.535 121.638 118.611 121.668 118.682C121.699 118.753 121.743 118.817 121.799 118.87C121.854 118.924 121.92 118.966 121.991 118.995C122.063 119.023 122.14 119.037 122.217 119.036H127.861C128.015 119.036 128.162 118.977 128.272 118.87C128.382 118.764 128.446 118.619 128.45 118.466V114.804C128.45 114.749 128.439 114.694 128.417 114.642C128.396 114.591 128.364 114.544 128.324 114.505C128.284 114.466 128.237 114.435 128.185 114.415C128.133 114.394 128.077 114.384 128.021 114.385H122.133C121.997 114.385 121.867 114.439 121.77 114.535C121.674 114.631 121.62 114.761 121.62 114.897V114.897Z" fill="#282828"/>
<path d="M130.872 114.897V118.458C130.874 118.535 130.89 118.611 130.92 118.682C130.951 118.753 130.995 118.817 131.051 118.87C131.106 118.924 131.172 118.966 131.244 118.995C131.316 119.023 131.392 119.037 131.47 119.036H137.113C137.267 119.036 137.414 118.977 137.524 118.87C137.634 118.764 137.698 118.619 137.702 118.466V114.804C137.702 114.749 137.691 114.694 137.669 114.642C137.648 114.591 137.616 114.544 137.576 114.505C137.536 114.466 137.489 114.435 137.437 114.415C137.385 114.394 137.329 114.384 137.273 114.385H131.386C131.249 114.385 131.119 114.439 131.023 114.535C130.926 114.631 130.872 114.761 130.872 114.897V114.897Z" fill="#282828"/>
<path d="M140.125 114.897V118.458C140.126 118.535 140.142 118.611 140.173 118.682C140.203 118.753 140.248 118.817 140.303 118.87C140.359 118.924 140.424 118.966 140.496 118.995C140.568 119.023 140.645 119.037 140.722 119.036H146.366C146.519 119.036 146.666 118.977 146.776 118.87C146.886 118.764 146.95 118.619 146.955 118.466V114.804C146.955 114.749 146.943 114.694 146.922 114.642C146.9 114.591 146.868 114.544 146.828 114.505C146.788 114.466 146.741 114.435 146.689 114.415C146.637 114.394 146.581 114.384 146.526 114.385H140.638C140.502 114.385 140.371 114.439 140.275 114.535C140.179 114.631 140.125 114.761 140.125 114.897V114.897Z" fill="#282828"/>
<path d="M149.377 114.897V118.458C149.378 118.535 149.394 118.611 149.425 118.682C149.456 118.753 149.5 118.817 149.555 118.87C149.611 118.924 149.676 118.966 149.748 118.995C149.82 119.023 149.897 119.037 149.974 119.036H155.618C155.771 119.036 155.919 118.977 156.028 118.87C156.138 118.764 156.202 118.619 156.207 118.466V114.804C156.207 114.749 156.196 114.694 156.174 114.642C156.152 114.591 156.121 114.544 156.081 114.505C156.041 114.466 155.993 114.435 155.941 114.415C155.889 114.394 155.834 114.384 155.778 114.385H149.89C149.823 114.385 149.756 114.399 149.694 114.424C149.631 114.45 149.575 114.488 149.527 114.535C149.48 114.583 149.442 114.639 149.416 114.701C149.39 114.763 149.377 114.829 149.377 114.897Z" fill="#282828"/>
<path d="M158.629 114.897V118.458C158.63 118.535 158.647 118.611 158.677 118.682C158.708 118.753 158.752 118.817 158.808 118.87C158.863 118.924 158.929 118.966 159 118.995C159.072 119.023 159.149 119.037 159.226 119.036H164.87C165.024 119.036 165.171 118.977 165.281 118.87C165.391 118.764 165.455 118.619 165.459 118.466V114.804C165.459 114.749 165.448 114.694 165.426 114.642C165.405 114.591 165.373 114.544 165.333 114.505C165.293 114.466 165.246 114.435 165.194 114.415C165.142 114.394 165.086 114.384 165.03 114.385H159.142C159.075 114.385 159.008 114.399 158.946 114.424C158.884 114.45 158.827 114.488 158.779 114.535C158.732 114.583 158.694 114.639 158.668 114.701C158.642 114.763 158.629 114.829 158.629 114.897Z" fill="#282828"/>
<path d="M167.881 114.897V118.458C167.883 118.535 167.899 118.611 167.929 118.682C167.96 118.753 168.004 118.817 168.06 118.87C168.115 118.924 168.181 118.966 168.253 118.995C168.325 119.023 168.401 119.037 168.479 119.036H174.122C174.276 119.036 174.423 118.977 174.533 118.87C174.643 118.764 174.707 118.619 174.711 118.466V114.804C174.711 114.749 174.7 114.694 174.678 114.642C174.657 114.591 174.625 114.544 174.585 114.505C174.545 114.466 174.498 114.435 174.446 114.415C174.394 114.394 174.338 114.384 174.282 114.385H168.394C168.327 114.385 168.26 114.399 168.198 114.424C168.136 114.45 168.079 114.488 168.032 114.535C167.984 114.583 167.946 114.639 167.92 114.701C167.895 114.763 167.881 114.829 167.881 114.897Z" fill="#282828"/>
<path d="M177.319 114.897V118.458C177.319 118.777 177.697 119.036 178.16 119.036H186.285C186.748 119.036 187.126 118.777 187.126 118.466V114.804C187.126 114.57 186.849 114.385 186.512 114.385H178.067C177.655 114.385 177.319 114.612 177.319 114.897Z" fill="#282828"/>
<path d="M107.321 107.355V110.916C107.322 110.993 107.339 111.069 107.369 111.14C107.4 111.211 107.444 111.275 107.5 111.329C107.555 111.382 107.621 111.425 107.693 111.453C107.764 111.481 107.841 111.496 107.918 111.494H113.562C113.716 111.494 113.863 111.435 113.973 111.329C114.083 111.222 114.147 111.077 114.151 110.925V107.263C114.151 107.207 114.14 107.152 114.118 107.1C114.097 107.049 114.065 107.002 114.025 106.963C113.985 106.924 113.938 106.894 113.886 106.873C113.834 106.852 113.778 106.842 113.722 106.844H107.834C107.767 106.844 107.7 106.857 107.638 106.882C107.576 106.908 107.519 106.946 107.472 106.993C107.424 107.041 107.386 107.097 107.36 107.159C107.335 107.221 107.321 107.288 107.321 107.355Z" fill="#282828"/>
<path d="M116.574 107.355V110.916C116.575 110.993 116.591 111.069 116.622 111.14C116.652 111.211 116.696 111.275 116.752 111.329C116.807 111.382 116.873 111.425 116.945 111.453C117.017 111.481 117.093 111.496 117.171 111.494H122.815C122.968 111.494 123.115 111.435 123.225 111.329C123.335 111.222 123.399 111.077 123.403 110.925V107.263C123.403 107.207 123.392 107.152 123.371 107.1C123.349 107.049 123.317 107.002 123.277 106.963C123.237 106.924 123.19 106.894 123.138 106.873C123.086 106.852 123.03 106.842 122.974 106.844H117.087C117.019 106.844 116.953 106.857 116.89 106.882C116.828 106.908 116.771 106.946 116.724 106.993C116.676 107.041 116.638 107.097 116.613 107.159C116.587 107.221 116.574 107.288 116.574 107.355Z" fill="#282828"/>
<path d="M125.826 107.355V110.916C125.827 110.993 125.843 111.069 125.874 111.14C125.904 111.211 125.949 111.275 126.004 111.329C126.06 111.382 126.125 111.425 126.197 111.453C126.269 111.481 126.346 111.496 126.423 111.494H132.067C132.22 111.494 132.367 111.435 132.477 111.329C132.587 111.222 132.651 111.077 132.656 110.925V107.263C132.656 107.207 132.644 107.152 132.623 107.1C132.601 107.049 132.569 107.002 132.529 106.963C132.49 106.924 132.442 106.894 132.39 106.873C132.338 106.852 132.283 106.842 132.227 106.844H126.339C126.203 106.844 126.072 106.897 125.976 106.993C125.88 107.089 125.826 107.219 125.826 107.355V107.355Z" fill="#282828"/>
<path d="M135.078 107.355V110.916C135.079 110.993 135.095 111.069 135.126 111.14C135.157 111.211 135.201 111.275 135.256 111.329C135.312 111.382 135.377 111.425 135.449 111.453C135.521 111.481 135.598 111.496 135.675 111.494H141.319C141.472 111.494 141.62 111.435 141.73 111.329C141.84 111.222 141.903 111.077 141.908 110.925V107.263C141.908 107.207 141.897 107.152 141.875 107.1C141.853 107.049 141.822 107.002 141.782 106.963C141.742 106.924 141.694 106.894 141.642 106.873C141.59 106.852 141.535 106.842 141.479 106.844H135.591C135.455 106.844 135.325 106.897 135.228 106.993C135.132 107.089 135.078 107.219 135.078 107.355V107.355Z" fill="#282828"/>
<path d="M144.33 107.355V110.916C144.331 110.993 144.348 111.069 144.378 111.14C144.409 111.211 144.453 111.275 144.509 111.329C144.564 111.382 144.63 111.425 144.701 111.453C144.773 111.481 144.85 111.496 144.927 111.494H150.571C150.725 111.494 150.872 111.435 150.982 111.329C151.092 111.222 151.156 111.077 151.16 110.925V107.263C151.16 107.207 151.149 107.152 151.127 107.1C151.106 107.049 151.074 107.002 151.034 106.963C150.994 106.924 150.947 106.894 150.895 106.873C150.843 106.852 150.787 106.842 150.731 106.844H144.843C144.707 106.844 144.577 106.897 144.481 106.993C144.384 107.089 144.33 107.219 144.33 107.355V107.355Z" fill="#282828"/>
<path d="M153.582 107.355V110.916C153.584 110.993 153.6 111.069 153.63 111.14C153.661 111.211 153.705 111.275 153.761 111.329C153.816 111.382 153.882 111.425 153.954 111.453C154.026 111.481 154.102 111.496 154.18 111.494H159.824C159.977 111.494 160.124 111.435 160.234 111.329C160.344 111.222 160.408 111.077 160.412 110.925V107.263C160.412 107.207 160.401 107.152 160.38 107.1C160.358 107.049 160.326 107.002 160.286 106.963C160.246 106.924 160.199 106.894 160.147 106.873C160.095 106.852 160.039 106.842 159.983 106.844H154.096C154.028 106.844 153.961 106.857 153.899 106.882C153.837 106.908 153.78 106.946 153.733 106.993C153.685 107.041 153.647 107.097 153.622 107.159C153.596 107.221 153.582 107.288 153.582 107.355V107.355Z" fill="#282828"/>
<path d="M162.835 107.355V110.916C162.836 110.993 162.852 111.069 162.883 111.14C162.913 111.211 162.958 111.275 163.013 111.329C163.069 111.382 163.134 111.425 163.206 111.453C163.278 111.481 163.355 111.496 163.432 111.494H169.076C169.229 111.494 169.376 111.435 169.486 111.329C169.596 111.222 169.66 111.077 169.665 110.925V107.263C169.665 107.207 169.653 107.152 169.632 107.1C169.61 107.049 169.578 107.002 169.538 106.963C169.498 106.924 169.451 106.894 169.399 106.873C169.347 106.852 169.292 106.842 169.236 106.844H163.348C163.28 106.844 163.214 106.857 163.151 106.882C163.089 106.908 163.033 106.946 162.985 106.993C162.937 107.041 162.9 107.097 162.874 107.159C162.848 107.221 162.835 107.288 162.835 107.355Z" fill="#282828"/>
<path d="M172.087 107.355V110.916C172.088 110.993 172.104 111.069 172.135 111.14C172.166 111.211 172.21 111.275 172.265 111.329C172.321 111.382 172.386 111.425 172.458 111.453C172.53 111.481 172.607 111.496 172.684 111.494H178.328C178.481 111.494 178.629 111.435 178.739 111.329C178.848 111.222 178.912 111.077 178.917 110.925V107.263C178.917 107.207 178.906 107.152 178.884 107.1C178.862 107.049 178.831 107.002 178.791 106.963C178.751 106.924 178.703 106.894 178.651 106.873C178.599 106.852 178.544 106.842 178.488 106.844H172.6C172.533 106.844 172.466 106.857 172.404 106.882C172.341 106.908 172.285 106.946 172.237 106.993C172.19 107.041 172.152 107.097 172.126 107.159C172.1 107.221 172.087 107.288 172.087 107.355Z" fill="#282828"/>
<path d="M181.339 107.355V110.916C181.34 110.993 181.357 111.069 181.387 111.14C181.418 111.211 181.462 111.275 181.518 111.329C181.573 111.382 181.639 111.425 181.71 111.453C181.782 111.481 181.859 111.496 181.936 111.494H187.58C187.734 111.494 187.881 111.435 187.991 111.329C188.101 111.222 188.165 111.077 188.169 110.925V107.263C188.169 107.207 188.158 107.152 188.136 107.1C188.115 107.049 188.083 107.002 188.043 106.963C188.003 106.924 187.956 106.894 187.904 106.873C187.852 106.852 187.796 106.842 187.74 106.844H181.852C181.785 106.844 181.718 106.857 181.656 106.882C181.594 106.908 181.537 106.946 181.489 106.993C181.442 107.041 181.404 107.097 181.378 107.159C181.353 107.221 181.339 107.288 181.339 107.355Z" fill="#282828"/>
<path d="M103.982 99.7207V103.341C103.984 103.496 104.047 103.644 104.157 103.753C104.267 103.863 104.415 103.925 104.571 103.927H110.173C110.327 103.927 110.474 103.866 110.583 103.758C110.692 103.65 110.753 103.503 110.753 103.349V99.6285C110.754 99.5728 110.744 99.5174 110.723 99.4656C110.703 99.4138 110.672 99.3666 110.633 99.3268C110.594 99.287 110.547 99.2554 110.495 99.2338C110.444 99.2122 110.388 99.2011 110.332 99.2011H104.478C104.344 99.2076 104.218 99.2652 104.126 99.3619C104.033 99.4586 103.982 99.5871 103.982 99.7207V99.7207Z" fill="#282828"/>
<path d="M113.234 99.7207V103.341C113.236 103.496 113.299 103.644 113.409 103.753C113.519 103.863 113.668 103.925 113.823 103.927H119.425C119.501 103.927 119.577 103.912 119.647 103.883C119.717 103.854 119.781 103.812 119.835 103.758C119.889 103.704 119.932 103.641 119.961 103.57C119.99 103.5 120.005 103.425 120.005 103.349V99.6285C120.006 99.5728 119.996 99.5174 119.976 99.4656C119.955 99.4138 119.924 99.3666 119.885 99.3268C119.846 99.287 119.799 99.2554 119.748 99.2338C119.696 99.2122 119.641 99.2011 119.585 99.2011H113.731C113.597 99.2076 113.47 99.2652 113.378 99.3619C113.286 99.4586 113.234 99.5871 113.234 99.7207V99.7207Z" fill="#282828"/>
<path d="M122.487 99.7207V103.341C122.489 103.496 122.551 103.644 122.661 103.753C122.771 103.863 122.92 103.925 123.075 103.927H128.677C128.831 103.927 128.979 103.866 129.088 103.758C129.196 103.65 129.258 103.503 129.258 103.349V99.6285C129.259 99.5728 129.249 99.5174 129.228 99.4656C129.207 99.4138 129.177 99.3666 129.137 99.3268C129.098 99.287 129.051 99.2554 129 99.2338C128.948 99.2122 128.893 99.2011 128.837 99.2011H122.983C122.849 99.2076 122.723 99.2652 122.63 99.3619C122.538 99.4586 122.486 99.5871 122.487 99.7207V99.7207Z" fill="#282828"/>
<path d="M131.739 99.7207V103.341C131.741 103.496 131.804 103.644 131.914 103.753C132.024 103.863 132.172 103.925 132.328 103.927H137.929C138.006 103.927 138.081 103.912 138.151 103.883C138.222 103.854 138.286 103.812 138.34 103.758C138.394 103.704 138.436 103.641 138.466 103.57C138.495 103.5 138.51 103.425 138.51 103.349V99.6285C138.511 99.5728 138.501 99.5174 138.48 99.4656C138.46 99.4138 138.429 99.3666 138.39 99.3268C138.35 99.287 138.304 99.2554 138.252 99.2338C138.201 99.2122 138.145 99.2011 138.089 99.2011H132.235C132.101 99.2076 131.975 99.2652 131.883 99.3619C131.79 99.4586 131.739 99.5871 131.739 99.7207V99.7207Z" fill="#282828"/>
<path d="M140.991 99.7207V103.341C140.993 103.496 141.056 103.644 141.166 103.753C141.276 103.863 141.424 103.925 141.58 103.927H147.182C147.336 103.927 147.483 103.866 147.592 103.758C147.701 103.65 147.762 103.503 147.762 103.349V99.6285C147.763 99.5728 147.753 99.5174 147.732 99.4656C147.712 99.4138 147.681 99.3666 147.642 99.3268C147.603 99.287 147.556 99.2554 147.504 99.2338C147.453 99.2122 147.397 99.2011 147.341 99.2011H141.487C141.353 99.2076 141.227 99.2652 141.135 99.3619C141.042 99.4586 140.991 99.5871 140.991 99.7207V99.7207Z" fill="#282828"/>
<path d="M150.243 99.7207V103.341C150.245 103.496 150.308 103.644 150.418 103.753C150.528 103.863 150.677 103.925 150.832 103.927H156.434C156.51 103.927 156.586 103.912 156.656 103.883C156.726 103.854 156.79 103.812 156.844 103.758C156.898 103.704 156.941 103.641 156.97 103.57C156.999 103.5 157.014 103.425 157.014 103.349V99.6285C157.015 99.5728 157.005 99.5174 156.985 99.4656C156.964 99.4138 156.933 99.3666 156.894 99.3268C156.855 99.287 156.808 99.2554 156.757 99.2338C156.705 99.2122 156.65 99.2011 156.594 99.2011H150.74C150.606 99.2076 150.479 99.2652 150.387 99.3619C150.295 99.4586 150.243 99.5871 150.243 99.7207V99.7207Z" fill="#282828"/>
<path d="M159.495 99.7207V103.341C159.498 103.496 159.56 103.644 159.67 103.753C159.78 103.863 159.929 103.925 160.084 103.927H165.686C165.84 103.927 165.988 103.866 166.096 103.758C166.205 103.65 166.267 103.503 166.267 103.349V99.6285C166.268 99.5728 166.258 99.5174 166.237 99.4656C166.216 99.4138 166.185 99.3666 166.146 99.3268C166.107 99.287 166.06 99.2554 166.009 99.2338C165.957 99.2122 165.902 99.2011 165.846 99.2011H159.992C159.858 99.2076 159.732 99.2652 159.639 99.3619C159.547 99.4586 159.495 99.5871 159.495 99.7207V99.7207Z" fill="#282828"/>
<path d="M168.748 99.7207V103.341C168.75 103.496 168.813 103.644 168.923 103.753C169.033 103.863 169.181 103.925 169.337 103.927H174.938C175.015 103.927 175.09 103.912 175.16 103.883C175.231 103.854 175.295 103.812 175.349 103.758C175.403 103.704 175.445 103.641 175.475 103.57C175.504 103.5 175.519 103.425 175.519 103.349V99.6285C175.52 99.5728 175.51 99.5174 175.489 99.4656C175.469 99.4138 175.438 99.3666 175.399 99.3268C175.359 99.287 175.313 99.2554 175.261 99.2338C175.21 99.2122 175.154 99.2011 175.098 99.2011H169.244C169.11 99.2076 168.984 99.2652 168.891 99.3619C168.799 99.4586 168.748 99.5871 168.748 99.7207V99.7207Z" fill="#282828"/>
<path d="M178.16 99.7961V103.316C178.16 103.634 178.547 103.885 179.001 103.885H187.118C187.589 103.885 187.959 103.634 187.959 103.324V99.7207C187.959 99.4944 187.69 99.31 187.345 99.31H178.934C178.496 99.2933 178.16 99.5112 178.16 99.7961Z" fill="#282828"/>
<path d="M85.4776 99.7207V103.341C85.4797 103.496 85.5425 103.644 85.6524 103.753C85.7624 103.863 85.9109 103.925 86.0664 103.927H91.6682C91.8221 103.927 91.9697 103.866 92.0785 103.758C92.1874 103.65 92.2486 103.503 92.2486 103.349V99.6285C92.2497 99.5728 92.2396 99.5174 92.219 99.4656C92.1984 99.4138 92.1675 99.3666 92.1284 99.3268C92.0892 99.287 92.0425 99.2554 91.9909 99.2338C91.9393 99.2122 91.8839 99.2011 91.828 99.2011H85.9738C85.84 99.2076 85.7137 99.2652 85.6213 99.3619C85.5289 99.4586 85.4774 99.5871 85.4776 99.7207V99.7207Z" fill="#282828"/>
<path d="M85.528 107.003V110.698C85.5344 110.783 85.5576 110.866 85.5962 110.942C85.6347 111.018 85.688 111.085 85.7529 111.14C85.8178 111.196 85.893 111.238 85.9742 111.264C86.0554 111.29 86.1411 111.3 86.2262 111.293H94.856C95.0408 111.307 95.2237 111.248 95.3653 111.129C95.5069 111.01 95.5959 110.84 95.613 110.656V107.263C95.598 107.097 95.5183 106.943 95.3909 106.835C95.2635 106.727 95.0986 106.673 94.9317 106.684H85.9738C85.8729 106.672 85.771 106.698 85.6884 106.757C85.6057 106.816 85.5484 106.904 85.528 107.003V107.003Z" fill="#282828"/>
<path d="M85.5785 114.696V118.701C85.5913 118.818 85.6497 118.924 85.741 118.998C85.8324 119.072 85.9493 119.107 86.0664 119.095H99.9531C100.123 119.112 100.293 119.061 100.427 118.955C100.56 118.848 100.647 118.694 100.668 118.525V114.67C100.651 114.523 100.576 114.388 100.459 114.295C100.343 114.202 100.194 114.159 100.046 114.176H86.2346C86.0791 114.162 85.924 114.208 85.8018 114.304C85.6795 114.401 85.5996 114.541 85.5785 114.696V114.696Z" fill="#282828"/>
<path d="M86.3019 122.531V126.36C86.3019 126.543 86.3746 126.717 86.5039 126.846C86.6332 126.975 86.8087 127.047 86.9916 127.047H94.7719C94.893 127.047 95.0129 127.024 95.1247 126.977C95.2365 126.931 95.3379 126.863 95.4232 126.777C95.5084 126.691 95.5758 126.59 95.6213 126.478C95.6669 126.366 95.6898 126.246 95.6887 126.126V122.48C95.6887 122.274 95.6063 122.076 95.4596 121.929C95.3129 121.783 95.1139 121.701 94.9065 121.701H87.1346C86.9144 121.703 86.7039 121.791 86.5482 121.947C86.3925 122.102 86.3041 122.311 86.3019 122.531Z" fill="#282828"/>
<path d="M120.703 121.693H156.425C156.504 121.689 156.582 121.701 156.656 121.728C156.73 121.755 156.797 121.796 156.855 121.849C156.913 121.902 156.96 121.966 156.993 122.037C157.026 122.108 157.045 122.184 157.048 122.263V126.654C157.046 126.709 157.033 126.763 157.01 126.813C156.986 126.863 156.954 126.908 156.913 126.945C156.872 126.982 156.825 127.011 156.773 127.03C156.721 127.05 156.666 127.058 156.611 127.056H120.729C120.554 127.063 120.383 127.001 120.254 126.883C120.125 126.765 120.048 126.602 120.039 126.427V122.296C120.042 122.213 120.062 122.131 120.097 122.055C120.133 121.98 120.183 121.912 120.244 121.856C120.306 121.8 120.379 121.756 120.457 121.728C120.536 121.7 120.62 121.688 120.703 121.693V121.693Z" fill="#282828"/>
<path d="M159.571 123.872V126.67C159.571 126.708 159.579 126.745 159.593 126.779C159.607 126.814 159.628 126.845 159.655 126.872C159.682 126.898 159.713 126.919 159.748 126.934C159.782 126.948 159.82 126.955 159.857 126.955H167.654C167.741 126.953 167.823 126.918 167.884 126.857C167.945 126.796 167.98 126.714 167.982 126.628V123.93C167.98 123.844 167.945 123.762 167.884 123.701C167.823 123.641 167.741 123.605 167.654 123.603H159.84C159.769 123.603 159.701 123.632 159.65 123.682C159.6 123.732 159.571 123.8 159.571 123.872V123.872Z" fill="#282828"/>
<path d="M178.917 123.872V126.67C178.917 126.708 178.924 126.745 178.939 126.779C178.953 126.814 178.974 126.845 179.001 126.872C179.027 126.898 179.059 126.919 179.093 126.934C179.128 126.948 179.165 126.955 179.203 126.955H187C187.086 126.953 187.168 126.918 187.229 126.857C187.291 126.796 187.326 126.714 187.328 126.628V123.93C187.326 123.844 187.291 123.762 187.229 123.701C187.168 123.641 187.086 123.605 187 123.603H179.186C179.115 123.603 179.046 123.632 178.996 123.682C178.945 123.732 178.917 123.8 178.917 123.872V123.872Z" fill="#282828"/>
<path d="M170.506 125.053V127.148C170.506 127.257 170.573 127.349 170.657 127.349H177.521C177.596 127.349 177.655 127.265 177.655 127.156V125.061C177.655 124.952 177.588 124.86 177.512 124.86H170.64C170.565 124.86 170.506 124.944 170.506 125.053Z" fill="#282828"/>
<path d="M170.506 121.726V123.813C170.506 123.922 170.573 124.014 170.657 124.014H177.521C177.596 124.014 177.655 123.93 177.655 123.821V121.735C177.655 121.626 177.588 121.534 177.512 121.534H170.64C170.565 121.508 170.506 121.617 170.506 121.726Z" fill="#282828"/>
<path d="M264.357 83.4972L312.385 103.358L281.575 162.05L236.264 142.182L264.357 83.4972Z" fill="#8BC0F0" stroke="#8BC0F0" stroke-miterlimit="10"/>
<path d="M310.921 102.821L359.411 122.874L328.298 182.128L282.55 162.075L310.921 102.821Z" fill="#8BC0F0" stroke="#8BC0F0" stroke-miterlimit="10"/>
<path d="M241.159 141.201L266.393 86.7318L310.13 104.33L284.056 158.799L241.159 141.201Z" fill="white" stroke="#EFEFEF" stroke-miterlimit="10"/>
<path d="M310.972 105.168L355.55 123.603L326.953 178.073L284.897 159.637L310.972 105.168Z" fill="white" stroke="#EFEFEF" stroke-miterlimit="10"/>
<path d="M305.53 113.028L302.964 118.391" stroke="#BBBBBB" stroke-miterlimit="10"/>
<path d="M292.812 139.592L290.246 144.955" stroke="#BBBBBB" stroke-miterlimit="10"/>
<path d="M310.13 112.709L314.336 114.385L317.7 116.061L321.065 117.737L324.429 118.575L327.794 120.251L330.317 121.089L333.682 122.765L337.046 124.441L339.569 126.117L342.093 126.955L346.298 128.631" fill="#F8F8F8"/>
<path d="M310.13 112.709L314.336 114.385L317.7 116.061L321.065 117.737L324.429 118.575L327.794 120.251L330.317 121.089L333.682 122.765L337.046 124.441L339.569 126.117L342.093 126.955L346.298 128.631" stroke="#F8F8F8" stroke-miterlimit="10"/>
<path d="M266.393 94.2737L270.598 95.9497L273.963 97.6257L277.327 99.3017L280.691 100.14L284.056 101.816L286.579 102.654L289.944 104.33L293.308 106.006L295.831 107.682L298.355 108.52L302.56 110.196" fill="#F8F8F8"/>
<path d="M266.393 94.2737L270.598 95.9497L273.963 97.6257L277.327 99.3017L280.691 100.14L284.056 101.816L286.579 102.654L289.944 104.33L293.308 106.006L295.831 107.682L298.355 108.52L302.56 110.196" stroke="#F8F8F8" stroke-miterlimit="10"/>
<path d="M264.71 97.6257L268.916 99.3017L272.28 100.978L275.645 102.654L279.009 103.492L282.374 105.168L284.897 106.006L288.261 107.682L291.626 109.358L294.149 111.034L296.673 111.872L300.878 113.547" fill="#F8F8F8"/>
<path d="M264.71 97.6257L268.916 99.3017L272.28 100.978L275.645 102.654L279.009 103.492L282.374 105.168L284.897 106.006L288.261 107.682L291.626 109.358L294.149 111.034L296.673 111.872L300.878 113.547" stroke="#F8F8F8" stroke-miterlimit="10"/>
<path d="M262.187 100.978L266.393 102.654L269.757 104.33L273.121 106.006L276.486 106.844L279.85 108.52L282.374 109.358L285.738 111.034L289.103 112.709L291.626 114.385L294.149 115.223L298.355 116.899" fill="#F8F8F8"/>
<path d="M262.187 100.978L266.393 102.654L269.757 104.33L273.121 106.006L276.486 106.844L279.85 108.52L282.374 109.358L285.738 111.034L289.103 112.709L291.626 114.385L294.149 115.223L298.355 116.899" stroke="#F8F8F8" stroke-miterlimit="10"/>
<path d="M260.505 106.006L264.71 107.682L268.075 109.358L271.439 111.034L274.804 111.872L278.168 113.547L280.691 114.385L284.056 116.061L287.42 117.737L289.944 119.413L292.467 120.251L296.673 121.927" fill="#F8F8F8"/>
<path d="M260.505 106.006L264.71 107.682L268.075 109.358L271.439 111.034L274.804 111.872L278.168 113.547L280.691 114.385L284.056 116.061L287.42 117.737L289.944 119.413L292.467 120.251L296.673 121.927" stroke="#F8F8F8" stroke-miterlimit="10"/>
<path d="M257.981 110.196L262.187 111.872L265.551 113.547L268.916 115.223L272.28 116.061L275.645 117.737L278.168 118.575L281.533 120.251L284.897 121.927L287.42 123.603L289.944 124.441L294.149 126.117" fill="#F8F8F8"/>
<path d="M257.981 110.196L262.187 111.872L265.551 113.547L268.916 115.223L272.28 116.061L275.645 117.737L278.168 118.575L281.533 120.251L284.897 121.927L287.42 123.603L289.944 124.441L294.149 126.117" stroke="#F8F8F8" stroke-miterlimit="10"/>
<path d="M257.14 114.385L261.346 116.061L264.71 117.737L268.075 119.413L271.439 120.251L274.804 121.927L277.327 122.765L280.691 124.441L284.056 126.117L286.579 127.793L289.103 128.631L293.308 130.307" fill="#F8F8F8"/>
<path d="M257.14 114.385L261.346 116.061L264.71 117.737L268.075 119.413L271.439 120.251L274.804 121.927L277.327 122.765L280.691 124.441L284.056 126.117L286.579 127.793L289.103 128.631L293.308 130.307" stroke="#F8F8F8" stroke-miterlimit="10"/>
<path d="M253.776 118.575L257.981 120.251L261.346 121.927L264.71 123.603L268.075 124.441L271.439 126.117L273.963 126.955L277.327 128.631L280.691 130.307L283.215 131.983L285.738 132.821L289.944 134.497" fill="#F8F8F8"/>
<path d="M253.776 118.575L257.981 120.251L261.346 121.927L264.71 123.603L268.075 124.441L271.439 126.117L273.963 126.955L277.327 128.631L280.691 130.307L283.215 131.983L285.738 132.821L289.944 134.497" stroke="#F8F8F8" stroke-miterlimit="10"/>
<path d="M252.094 122.765L256.299 124.441L259.664 126.117L263.028 127.793L266.393 128.631L269.757 130.307L272.28 131.145L275.645 132.821L279.009 134.497L281.533 136.173L284.056 137.011L288.261 138.687" fill="#F8F8F8"/>
<path d="M252.094 122.765L256.299 124.441L259.664 126.117L263.028 127.793L266.393 128.631L269.757 130.307L272.28 131.145L275.645 132.821L279.009 134.497L281.533 136.173L284.056 137.011L288.261 138.687" stroke="#F8F8F8" stroke-miterlimit="10"/>
<path d="M249.57 128.631L253.776 130.307L257.14 131.983L260.505 133.659L263.869 134.497L267.234 136.173L269.757 137.011L273.121 138.687L276.486 140.363L279.009 142.039L281.533 142.877L285.738 144.553" fill="#F8F8F8"/>
<path d="M249.57 128.631L253.776 130.307L257.14 131.983L260.505 133.659L263.869 134.497L267.234 136.173L269.757 137.011L273.121 138.687L276.486 140.363L279.009 142.039L281.533 142.877L285.738 144.553" stroke="#F8F8F8" stroke-miterlimit="10"/>
<path d="M247.888 133.659L252.094 135.335L255.458 137.011L258.823 138.687L262.187 139.525L265.551 141.201L268.075 142.039L271.439 143.715L274.804 145.391L277.327 147.067L279.85 147.905L284.056 149.581" fill="#F8F8F8"/>
<path d="M247.888 133.659L252.094 135.335L255.458 137.011L258.823 138.687L262.187 139.525L265.551 141.201L268.075 142.039L271.439 143.715L274.804 145.391L277.327 147.067L279.85 147.905L284.056 149.581" stroke="#F8F8F8" stroke-miterlimit="10"/>
<path d="M245.365 137.011L249.57 138.687L252.935 140.363L256.299 142.039L259.664 142.877L263.028 144.553L265.551 145.391L268.916 147.067L272.28 148.743L274.804 150.419L277.327 151.257L281.533 152.933" fill="#F8F8F8"/>
<path d="M245.365 137.011L249.57 138.687L252.935 140.363L256.299 142.039L259.664 142.877L263.028 144.553L265.551 145.391L268.916 147.067L272.28 148.743L274.804 150.419L277.327 151.257L281.533 152.933" stroke="#F8F8F8" stroke-miterlimit="10"/>
<path d="M308.448 116.061L312.654 117.737L316.018 119.413L319.383 121.089L322.747 121.927L326.112 123.603L328.635 124.441L331.999 126.117L335.364 127.793L337.887 129.469L340.41 130.307L344.616 131.983" fill="#F8F8F8"/>
<path d="M308.448 116.061L312.654 117.737L316.018 119.413L319.383 121.089L322.747 121.927L326.112 123.603L328.635 124.441L331.999 126.117L335.364 127.793L337.887 129.469L340.41 130.307L344.616 131.983" stroke="#F8F8F8" stroke-miterlimit="10"/>
<path d="M305.925 120.251L310.13 121.927L313.495 123.603L316.859 125.279L320.224 126.117L323.588 127.793L326.112 128.631L329.476 130.307L332.84 131.983L335.364 133.659L337.887 134.497L342.093 136.173" fill="#F8F8F8"/>
<path d="M305.925 120.251L310.13 121.927L313.495 123.603L316.859 125.279L320.224 126.117L323.588 127.793L326.112 128.631L329.476 130.307L332.84 131.983L335.364 133.659L337.887 134.497L342.093 136.173" stroke="#F8F8F8" stroke-miterlimit="10"/>
<path d="M304.243 124.441L308.448 126.117L311.813 127.793L315.177 129.469L318.542 130.307L321.906 131.983L324.429 132.821L327.794 134.497L331.158 136.173L333.682 137.849L336.205 138.687L340.41 140.363" fill="#F8F8F8"/>
<path d="M304.243 124.441L308.448 126.117L311.813 127.793L315.177 129.469L318.542 130.307L321.906 131.983L324.429 132.821L327.794 134.497L331.158 136.173L333.682 137.849L336.205 138.687L340.41 140.363" stroke="#F8F8F8" stroke-miterlimit="10"/>
<path d="M302.56 128.631L306.766 130.307L310.13 131.983L313.495 133.659L316.859 134.497L320.224 136.173L322.747 137.011L326.112 138.687L329.476 140.363L331.999 142.039L334.523 142.877L338.728 144.553" fill="#F8F8F8"/>
<path d="M302.56 128.631L306.766 130.307L310.13 131.983L313.495 133.659L316.859 134.497L320.224 136.173L322.747 137.011L326.112 138.687L329.476 140.363L331.999 142.039L334.523 142.877L338.728 144.553" stroke="#F8F8F8" stroke-miterlimit="10"/>
<path d="M300.037 131.983L304.243 133.659L307.607 135.335L310.972 137.011L314.336 137.849L317.7 139.525L320.224 140.363L323.588 142.039L326.953 143.715L329.476 145.391L331.999 146.229L336.205 147.905" fill="#F8F8F8"/>
<path d="M300.037 131.983L304.243 133.659L307.607 135.335L310.972 137.011L314.336 137.849L317.7 139.525L320.224 140.363L323.588 142.039L326.953 143.715L329.476 145.391L331.999 146.229L336.205 147.905" stroke="#F8F8F8" stroke-miterlimit="10"/>
<path d="M298.355 135.335L302.56 137.011L305.925 138.687L309.289 140.363L312.654 141.201L316.018 142.877L318.542 143.715L321.906 145.391L325.27 147.067L327.794 148.743L330.317 149.581L334.523 151.257" fill="#F8F8F8"/>
<path d="M298.355 135.335L302.56 137.011L305.925 138.687L309.289 140.363L312.654 141.201L316.018 142.877L318.542 143.715L321.906 145.391L325.27 147.067L327.794 148.743L330.317 149.581L334.523 151.257" stroke="#F8F8F8" stroke-miterlimit="10"/>
<path d="M296.673 139.525L300.878 141.201L304.243 142.877L307.607 144.553L310.972 145.391L314.336 147.067L316.859 147.905L320.224 149.581L323.588 151.257L326.112 152.933L328.635 153.771L332.84 155.447" fill="#F8F8F8"/>
<path d="M296.673 139.525L300.878 141.201L304.243 142.877L307.607 144.553L310.972 145.391L314.336 147.067L316.859 147.905L320.224 149.581L323.588 151.257L326.112 152.933L328.635 153.771L332.84 155.447" stroke="#F8F8F8" stroke-miterlimit="10"/>
<path d="M294.149 143.715L298.355 145.391L301.719 147.067L305.084 148.743L308.448 149.581L311.813 151.257L314.336 152.095L317.7 153.771L321.065 155.447L323.588 157.123L326.112 157.961L330.317 159.637" fill="#F8F8F8"/>
<path d="M294.149 143.715L298.355 145.391L301.719 147.067L305.084 148.743L308.448 149.581L311.813 151.257L314.336 152.095L317.7 153.771L321.065 155.447L323.588 157.123L326.112 157.961L330.317 159.637" stroke="#F8F8F8" stroke-miterlimit="10"/>
<path d="M292.467 147.905L296.673 149.581L300.037 151.257L303.401 152.933L306.766 153.771L310.13 155.447L312.654 156.285L316.018 157.961L319.383 159.637L321.906 161.313L324.429 162.151L328.635 163.827" fill="#F8F8F8"/>
<path d="M292.467 147.905L296.673 149.581L300.037 151.257L303.401 152.933L306.766 153.771L310.13 155.447L312.654 156.285L316.018 157.961L319.383 159.637L321.906 161.313L324.429 162.151L328.635 163.827" stroke="#F8F8F8" stroke-miterlimit="10"/>
<path d="M289.944 151.257L294.149 152.933L297.514 154.609L300.878 156.285L304.243 157.123L307.607 158.799L310.13 159.637L313.495 161.313L316.859 162.989L319.383 164.665L321.906 165.503L326.112 167.179" fill="#F8F8F8"/>
<path d="M289.944 151.257L294.149 152.933L297.514 154.609L300.878 156.285L304.243 157.123L307.607 158.799L310.13 159.637L313.495 161.313L316.859 162.989L319.383 164.665L321.906 165.503L326.112 167.179" stroke="#F8F8F8" stroke-miterlimit="10"/>
<path d="M287.42 155.447L291.626 157.123L294.99 158.799L298.355 160.475L301.719 161.313L305.084 162.989L307.607 163.827L310.972 165.503L314.336 167.179L316.859 168.855L319.383 169.693L323.588 171.369" fill="#F8F8F8"/>
<path d="M287.42 155.447L291.626 157.123L294.99 158.799L298.355 160.475L301.719 161.313L305.084 162.989L307.607 163.827L310.972 165.503L314.336 167.179L316.859 168.855L319.383 169.693L323.588 171.369" stroke="#F8F8F8" stroke-miterlimit="10"/>
<path d="M249.352 39.7207L249.646 39.9218C251.227 40.9441 252.842 41.9078 254.449 42.905C256.972 44.4888 258.898 39.6285 258.377 37.7682C258.118 36.9545 257.645 36.2251 257.006 35.6564C256.251 34.8444 255.219 34.3423 254.112 34.2486C253.076 34.2756 252.09 34.6951 251.353 35.4218C250.672 36.0335 248.174 38.7318 249.352 39.7207Z" fill="#30A6EB" stroke="#30A6EB" stroke-miterlimit="10"/>
<path d="M232.605 54.4693C232.605 54.8045 233.766 55.9358 233.993 56.2039C234.584 56.9258 235.228 57.6035 235.919 58.2318C237.298 59.5155 238.935 60.4924 240.722 61.0978C243.67 61.9617 246.832 61.7386 249.629 60.4693C251.333 59.7124 252.906 58.6913 254.289 57.4441C254.976 56.8364 255.625 56.1872 256.232 55.5C256.686 54.9888 257.51 54.3017 257.628 53.5978C256.997 57.1927 257.022 60.8715 255.946 64.3911C254.667 68.581 251.74 71.933 247.535 73.0056C245.633 73.4736 243.646 73.4772 241.742 73.0162C239.838 72.5552 238.074 71.6431 236.6 70.3575C235.982 69.7999 235.434 69.1696 234.969 68.4805C233.707 66.6201 233.362 64.4497 233.084 62.2458C232.723 59.6699 232.563 57.0699 232.605 54.4693V54.4693Z" fill="#26ADE7" stroke="#26ADE7" stroke-miterlimit="10"/>
<path d="M244.86 62.9832C251.921 62.9832 257.645 57.2805 257.645 50.2458C257.645 43.2111 251.921 37.5084 244.86 37.5084C237.799 37.5084 232.075 43.2111 232.075 50.2458C232.075 57.2805 237.799 62.9832 244.86 62.9832Z" fill="#F9F4F0" stroke="#F9F4F0" stroke-miterlimit="10"/>
<path d="M245.373 58.9022C250.455 58.9022 254.575 54.7978 254.575 49.7346C254.575 44.6715 250.455 40.567 245.373 40.567C240.291 40.567 236.171 44.6715 236.171 49.7346C236.171 54.7978 240.291 58.9022 245.373 58.9022Z" fill="#3A1E08" stroke="#3A1E08" stroke-miterlimit="10"/>
<path d="M245.365 40.567C243.955 40.5674 242.565 40.8915 241.302 41.514C241.302 41.7067 241.302 41.8995 241.302 42.0922C241.301 43.6503 241.698 45.1831 242.457 46.5455C243.216 47.9078 244.312 49.0548 245.639 49.8778C246.967 50.7009 248.484 51.1728 250.046 51.2489C251.609 51.325 253.164 51.0028 254.566 50.3129C254.566 50.1201 254.566 49.9274 254.566 49.7346C254.566 47.3033 253.597 44.9714 251.871 43.2522C250.146 41.5329 247.805 40.567 245.365 40.567Z" fill="#533A26" stroke="#533A26" stroke-miterlimit="10"/>
<path d="M244.599 59.1452V58.391C244.599 56.8072 244.053 55.5922 243.834 55.5922C243.254 55.5922 240.469 54.0168 240.469 52.7933C240.469 51.9553 239.544 51.4693 238.56 50.9832C238.292 50.8609 238.067 50.6596 237.917 50.4065C237.766 50.1533 237.697 49.8604 237.719 49.567C237.677 49.1311 237.587 48.7011 237.45 48.2849C237.206 47.5559 236.954 47.405 236.853 47.3799C236.825 47.3671 236.795 47.3605 236.764 47.3605C236.734 47.3605 236.704 47.3671 236.676 47.3799L236.474 47.1201C235.973 48.4469 235.798 49.874 235.963 51.282C236.129 52.69 236.63 54.0381 237.426 55.2136C238.221 56.3891 239.287 57.3579 240.535 58.039C241.783 58.72 243.177 59.0936 244.599 59.1285V59.1452Z" fill="#B88C4E"/>
<path d="M260.236 82.1229L274.535 80.2626C275.05 80.1979 275.57 80.3372 275.984 80.6505C276.398 80.9639 276.672 81.4263 276.747 81.9385L281.221 115.399C281.305 116.019 281.145 116.646 280.775 117.15C280.405 117.655 279.854 117.997 279.236 118.106L264.685 120.62C264.362 120.676 264.031 120.666 263.713 120.592C263.394 120.517 263.093 120.379 262.829 120.185C262.565 119.992 262.343 119.748 262.176 119.467C262.01 119.186 261.902 118.874 261.859 118.55L257.561 85.6257C257.505 85.2207 257.53 84.8087 257.635 84.4133C257.739 84.0179 257.921 83.647 258.169 83.3216C258.417 82.9963 258.728 82.7229 259.083 82.5172C259.437 82.3115 259.829 82.1775 260.236 82.1229V82.1229Z" fill="#D8D8D8" stroke="#D8D8D8" stroke-miterlimit="10"/>
<path d="M259.605 84.2514L274.299 82.4497L278.134 109.458L263.44 111.863L259.605 84.2514Z" fill="#484848" stroke="#484848" stroke-miterlimit="10"/>
<path d="M271.439 116.899C272.368 116.899 273.121 116.149 273.121 115.223C273.121 114.298 272.368 113.547 271.439 113.547C270.51 113.547 269.757 114.298 269.757 115.223C269.757 116.149 270.51 116.899 271.439 116.899Z" fill="#BFBFBF" stroke="#BFBFBF" stroke-miterlimit="10"/>
<path d="M168.344 94.0642C168.306 94.0267 168.26 93.9981 168.209 93.9805L168.26 94.1145L168.344 94.0642Z" fill="#EFBF9B"/>
<path d="M171.347 90.5028C171.188 90.6401 171.07 90.8182 171.006 91.0178C170.943 91.2174 170.935 91.4306 170.985 91.6341C170.985 91.6927 171.826 94.986 171.826 94.986V95.0866C171.832 95.1376 171.851 95.1864 171.88 95.2287C171.91 95.271 171.949 95.3057 171.994 95.3296C172.171 95.4302 172.777 95.5726 174.408 94.7933C173.953 93.6031 173.407 92.449 172.777 91.3408C172.558 90.9855 172.272 90.6754 171.936 90.4274C171.838 90.3794 171.73 90.3587 171.622 90.3676C171.513 90.3764 171.41 90.4145 171.322 90.4776L171.347 90.5028Z" fill="#FD719D" stroke="#FD719D" stroke-miterlimit="10"/>
<path d="M168.268 94.1156L168.354 94.0642L168.268 94.1156Z" fill="#EFBF9B"/>
<path d="M184.384 106.659C184.922 106.425 185.225 104.145 185.225 102.654C185.225 102.461 185.015 102.285 184.813 102.184C184.641 102.085 184.448 102.027 184.249 102.015C184.05 102.003 183.852 102.038 183.669 102.117C183.604 102.163 183.559 102.232 183.543 102.31V102.654C183.543 102.922 183.543 103.232 183.543 103.567C183.467 104.615 183.375 105.922 183.98 106.466C184.022 106.542 184.224 106.71 184.384 106.659Z" fill="#FD719D" stroke="#FD719D" stroke-miterlimit="10"/>
<path d="M145.642 115.106C146.506 115.221 147.385 115.147 148.216 114.888V111.872C148.243 111.571 148.21 111.268 148.119 110.981C148.028 110.693 147.881 110.426 147.686 110.196C147.562 110.091 147.416 110.015 147.259 109.973C147.102 109.931 146.938 109.924 146.778 109.953C145.827 110.045 145.827 110.229 145.802 111.092C145.802 111.218 145.802 111.344 145.802 111.486C145.752 112.374 145.693 113.271 145.634 114.168C145.634 114.528 145.575 114.897 145.558 115.257H145.693C145.696 115.23 145.693 115.202 145.684 115.176C145.675 115.15 145.661 115.126 145.642 115.106Z" fill="#FD719D" stroke="#FD719D" stroke-miterlimit="10"/>
<path d="M163.356 90.838L164.828 93.7626C165.441 93.5844 165.96 93.1756 166.275 92.6229C166.337 92.3693 166.339 92.1046 166.281 91.8499C166.223 91.5953 166.105 91.3579 165.938 91.1565C165.097 89.5224 164.113 88.0642 163.76 87.9888C163.442 88.0177 163.143 88.1553 162.915 88.3782C162.686 88.6011 162.542 88.8958 162.507 89.2123C162.823 89.6267 163.073 90.0875 163.247 90.5782C163.278 90.6668 163.315 90.7536 163.356 90.838V90.838Z" fill="#FD719D" stroke="#FD719D" stroke-miterlimit="10"/>
<path d="M182.744 118.391C183.804 116.279 184.527 110.849 184.914 107.279C184.843 107.338 184.763 107.386 184.678 107.422C184.454 107.512 184.206 107.528 183.971 107.467C183.737 107.407 183.528 107.274 183.375 107.087C182.466 106.249 182.576 104.74 182.66 103.508V103.391C182.199 104.318 181.884 105.31 181.726 106.332C181.676 106.542 181.642 106.726 181.608 106.852C181.052 109.129 180.35 111.368 179.506 113.556C179.085 114.637 178.622 115.726 178.126 116.799C177.495 118.165 177.024 118.324 176.789 118.324H176.679C176.175 118.24 176.108 117.612 176.091 117.411C175.879 114.662 175.84 111.902 175.973 109.148C175.973 108.209 176.032 107.271 176.04 106.332C176.168 102.705 175.685 99.0824 174.61 95.6145C173.908 95.9914 173.135 96.217 172.339 96.2766C172.044 96.281 171.754 96.2057 171.498 96.0587C171.348 95.9695 171.221 95.8479 171.125 95.7028C171.028 95.5578 170.966 95.3929 170.943 95.2207C170.851 94.852 170.102 91.919 170.102 91.8687C170.043 91.5925 170.043 91.3069 170.102 91.0307C169.468 91.8163 169.048 92.7514 168.882 93.7458L168.832 93.9218C168.786 94.2016 168.657 94.4612 168.462 94.6676C170.525 99.8828 171.644 105.421 171.767 111.025H170.926C170.761 104.851 169.417 98.7648 166.965 93.0922C166.436 93.873 165.636 94.4311 164.719 94.6592L164.391 94.743L162.608 91.1983C162.608 91.1313 162.532 91.0224 162.473 90.8883C162.33 90.4961 162.14 90.1221 161.91 89.7738C161.91 89.7738 161.91 89.7737 161.91 89.824C161.716 90.4405 161.716 91.1014 161.91 91.7179C162.406 93.22 163.011 94.6847 163.718 96.1006C164.903 98.259 165.689 100.612 166.039 103.047C166.118 105.186 165.834 107.322 165.198 109.366C165.131 109.642 165.055 110.02 164.971 110.447C164.576 112.525 164.038 115.358 162.322 115.659L162.179 114.821C162.108 114.833 162.045 114.872 162.002 114.93C162.423 114.092 160.9 106.676 160.513 105.385C159.89 103.213 159.044 101.11 157.99 99.109C156.224 101.355 154.482 100.525 154.407 100.492L154.289 100.433L154.138 100.165C153.498 99.1132 152.989 97.9875 152.624 96.8129C152.363 97.5671 152.783 98.8408 153.12 99.6536L153.482 100.542C156.055 106.743 159.571 115.232 157.174 121.76C156.673 123.241 155.623 124.476 154.239 125.212C153.918 125.387 153.561 125.485 153.196 125.497H153.111C152.737 125.452 152.38 125.313 152.075 125.091C151.77 124.869 151.528 124.574 151.37 124.232C150.903 123.235 150.689 122.138 150.748 121.039C150.748 120.511 150.748 119.983 150.748 119.464C150.783 118.391 150.763 117.317 150.689 116.246C150.496 114.226 149.957 112.735 149.108 111.872V115.517L148.788 115.592C147.739 115.904 146.64 116.012 145.55 115.911C145.323 119.665 145.331 123.453 147.114 126.98C148.507 129.395 150.26 131.584 152.312 133.475C152.792 133.961 153.271 134.447 153.734 134.941C159.125 140.64 161.136 148.349 163.365 155.606C166.081 164.497 168.554 173.154 169.387 182.489C169.383 182.508 169.383 182.528 169.387 182.547C170.75 186.905 178.185 186.042 181.364 185.179C189.431 182.983 189.481 181.525 189.481 181.508L182.752 164.791C175.973 148.014 181.062 121.751 182.744 118.391Z" fill="#EFBF9B"/>
<path d="M154.802 99.7793C155.139 99.8799 156.249 100.031 157.443 98.3213C157.208 97.9358 156.955 97.5586 156.686 97.1899C155.946 96.1843 153.969 94.5503 153.397 94.7849C153.254 94.8352 153.128 95.1871 153.229 96C153.515 97.3456 154.049 98.6269 154.802 99.7793Z" fill="#FD719D" stroke="#FD719D" stroke-miterlimit="10"/>
<path d="M90.1794 110.196C90.1794 109.358 89.6747 108.52 89.271 108.52C88.8673 108.52 88.699 108.838 88.4719 109.508C88.0593 110.679 87.7855 111.894 87.6561 113.128H89.4645C89.8878 112.205 90.1304 111.21 90.1794 110.196Z" fill="#FD719D" stroke="#FD719D" stroke-width="2" stroke-miterlimit="10"/>
<path d="M120.047 118.944C119.859 118.964 119.679 119.033 119.526 119.145L118.836 123.335L121.73 124.056C122.051 122.838 121.962 121.548 121.477 120.385C121.149 119.682 120.636 118.911 120.047 118.944Z" fill="#FD719D" stroke="#FD719D" stroke-width="2" stroke-miterlimit="10"/>
<path d="M190.188 181.978C193.653 192.033 196.521 200.539 198.868 207.712L204.571 223.743C204.571 223.743 190.053 181.567 190.188 181.978Z" fill="#EFBF9B"/>
<path d="M198.868 207.712L183.543 164.506C176.89 147.93 181.861 122.07 183.543 118.76C185.225 115.45 186.066 104.455 186.066 103.994H185.999C186.066 103.282 186.066 102.721 186.066 102.662C186.052 102.402 185.966 102.151 185.817 101.937C185.669 101.722 185.464 101.553 185.225 101.447C184.919 101.274 184.572 101.182 184.22 101.182C183.868 101.182 183.521 101.274 183.215 101.447C183.072 101.547 182.954 101.678 182.869 101.831C182.785 101.983 182.736 102.153 182.727 102.327C181.634 102.763 181.205 104.841 180.944 106.173C180.944 106.374 180.868 106.542 180.835 106.659C180.287 108.906 179.593 111.114 178.757 113.271C178.345 114.335 177.916 115.408 177.403 116.464C177.282 116.736 177.135 116.997 176.965 117.243C176.761 114.561 176.724 111.868 176.856 109.182C176.856 108.235 176.915 107.288 176.923 106.349C177.008 100.307 176.015 95.6648 173.778 91.3827C173.709 91.2294 173.631 91.081 173.542 90.9386C173.5 90.8715 173.466 90.7961 173.433 90.7291C173.166 90.329 172.827 89.9822 172.432 89.7067C172.23 89.6057 172.006 89.5531 171.78 89.5531C171.554 89.5531 171.33 89.6057 171.128 89.7067C169.084 89.891 168.512 92.0614 168.125 93.5279V93.5866C167.806 92.7486 167.478 91.9777 167.15 91.1899L167.015 91.2402C166.945 91.0726 166.857 90.9126 166.754 90.7626C166.081 89.4218 164.811 87.176 163.853 87.176C163.349 87.2018 162.869 87.3963 162.491 87.7279C162.112 88.0595 161.857 88.5087 161.767 89.0028C161.554 89.0682 161.37 89.2042 161.245 89.3882C160.732 90.1341 161.026 91.6341 161.136 91.9944C161.63 93.5416 162.249 95.0465 162.986 96.4944C164.038 98.7235 165.03 100.827 165.224 103.198C165.285 105.245 165.001 107.288 164.382 109.24C164.307 109.525 164.231 109.919 164.147 110.38C163.928 111.536 163.558 113.464 162.894 114.394C162.894 111.67 161.338 105.302 161.312 105.235C160.497 102.227 159.189 99.3727 157.443 96.7877C157.132 96.3687 154.6 93.5279 153.162 94.0977C152.64 94.2989 152.413 94.8855 152.455 95.7737C151.724 96.2681 151.236 97.4078 152.329 100.064L152.699 100.952C155.223 107.028 158.663 115.341 156.375 121.567C155.946 122.846 155.044 123.913 153.852 124.55C153.635 124.676 153.388 124.742 153.137 124.743C152.905 124.701 152.688 124.603 152.504 124.457C152.321 124.31 152.177 124.121 152.085 123.905C151.689 123.027 151.513 122.067 151.572 121.106C151.572 120.587 151.572 120.067 151.572 119.547C151.608 118.446 151.586 117.344 151.505 116.246C151.253 113.48 150.386 111.637 148.982 110.765C148.878 110.312 148.645 109.898 148.309 109.575C148.097 109.394 147.848 109.259 147.58 109.181C147.312 109.103 147.029 109.083 146.753 109.123C145.07 109.299 145.07 110.204 145.02 111.075C145.02 111.201 145.02 111.318 145.02 111.453C145.02 112.341 144.911 113.229 144.852 114.117C144.532 118.567 144.213 123.168 146.383 127.433C147.686 130.014 149.747 132.109 151.732 134.137C152.203 134.623 152.674 135.101 153.137 135.587C158.008 140.76 161.817 146.832 164.349 153.461C166.99 160.358 167.587 167.422 168.613 174.654C170.968 191.33 170.884 208.291 172.533 225.042H204.403C202.939 220.332 201.147 214.642 198.868 207.712ZM183.543 103.567C183.543 103.232 183.543 102.922 183.543 102.654V102.31C183.559 102.232 183.604 102.163 183.669 102.117C183.852 102.038 184.05 102.003 184.249 102.015C184.448 102.027 184.641 102.085 184.813 102.184C185.015 102.285 185.225 102.461 185.225 102.654C185.225 104.128 184.88 106.425 184.384 106.659C184.266 106.71 184.064 106.542 183.98 106.466C183.333 105.922 183.425 104.615 183.543 103.567ZM171.28 90.5028C171.368 90.4396 171.471 90.4015 171.58 90.3927C171.688 90.3838 171.796 90.4045 171.894 90.4525C172.23 90.7006 172.516 91.0107 172.735 91.3659C173.346 92.4813 173.872 93.641 174.308 94.8352C172.676 95.6145 172.07 95.4721 171.894 95.3715C171.848 95.3475 171.809 95.3129 171.779 95.2706C171.75 95.2283 171.732 95.1795 171.725 95.1285V95.028C171.725 95.028 170.884 91.7347 170.884 91.676C170.83 91.4633 170.838 91.2394 170.908 91.0313C170.978 90.8232 171.107 90.6396 171.28 90.5028ZM168.344 94.0391L168.26 94.0894L168.209 93.9553C168.263 93.9802 168.309 94.0176 168.344 94.0642V94.0391ZM163.768 87.9888C164.122 88.0642 165.131 89.5224 165.947 91.1564C166.114 91.3579 166.231 91.5953 166.29 91.8499C166.348 92.1046 166.346 92.3693 166.283 92.6229C165.968 93.1756 165.449 93.5844 164.837 93.7626L163.356 90.838C163.315 90.7536 163.278 90.6668 163.247 90.5782C163.073 90.0875 162.823 89.6267 162.507 89.2123C162.543 88.8945 162.688 88.5988 162.918 88.3757C163.148 88.1526 163.449 88.0159 163.768 87.9888V87.9888ZM153.414 94.8101C153.986 94.5754 155.938 96.2095 156.703 97.2151C156.972 97.5838 157.225 97.9609 157.46 98.3464C156.266 100.022 155.155 99.905 154.819 99.8044C154.074 98.6584 153.547 97.3859 153.263 96.0503C153.145 95.2123 153.263 94.8603 153.414 94.8101V94.8101ZM145.626 114.134C145.684 113.237 145.743 112.341 145.794 111.453C145.794 111.31 145.794 111.184 145.794 111.059C145.794 110.221 145.794 110.011 146.77 109.919C146.93 109.89 147.094 109.897 147.251 109.939C147.408 109.981 147.554 110.057 147.678 110.162C147.873 110.393 148.02 110.66 148.111 110.947C148.202 111.235 148.235 111.538 148.208 111.838V114.855C147.376 115.114 146.498 115.188 145.634 115.073C145.664 115.105 145.682 115.146 145.684 115.19H145.541C145.567 114.863 145.592 114.494 145.626 114.134V114.134Z" fill="#EFBF9B"/>
<path d="M99.2045 99.5531C99.3288 99.4194 99.4639 99.2961 99.6083 99.1843C99.4622 99.2941 99.3269 99.4175 99.2045 99.5531V99.5531Z" fill="#FD719D"/>
<path d="M98.456 100.609C98.6594 100.254 98.8929 99.918 99.1541 99.6033C98.8891 99.9152 98.6554 100.252 98.456 100.609V100.609Z" fill="#FD719D"/>
<path d="M97.5055 102.36C97.7999 101.774 98.1111 101.196 98.4476 100.634C98.1195 101.179 97.8083 101.765 97.5055 102.36Z" fill="#FD719D"/>
<path d="M102.535 100.14C102.54 100.095 102.54 100.05 102.535 100.006C102.54 100.05 102.54 100.095 102.535 100.14V100.14Z" fill="#FD719D"/>
<path d="M96.9083 103.651L96.5298 104.489C96.7485 103.978 96.9756 103.475 97.2195 102.98L96.9083 103.651Z" fill="#FD719D"/>
<path d="M102.207 99.3017L102.301 99.4032L102.207 99.3017Z" fill="#FD719D"/>
<path d="M102.014 99.1174L102.091 99.1687L102.014 99.1174Z" fill="#FD719D"/>
<path d="M99.684 99.1257C99.8376 99.0139 100.004 98.9211 100.18 98.8492C100.006 98.9244 99.8396 99.017 99.684 99.1257Z" fill="#FD719D"/>
<path d="M100.18 98.8827C100.311 98.8327 100.446 98.7961 100.584 98.7737C100.446 98.7961 100.311 98.8327 100.18 98.8827V98.8827Z" fill="#FD719D"/>
<path d="M102.367 99.528C102.367 99.5782 102.426 99.6201 102.451 99.6788C102.476 99.7374 102.392 99.5782 102.367 99.528Z" fill="#FD719D"/>
<path d="M102.527 99.9721C102.531 99.9219 102.531 99.8714 102.527 99.8212C102.531 99.8714 102.531 99.9219 102.527 99.9721V99.9721Z" fill="#FD719D"/>
<path d="M99.6335 104.682C100.29 103.433 100.912 102.168 101.492 100.86C101.626 100.625 101.696 100.36 101.694 100.089C101.677 100.006 101.641 99.9283 101.59 99.8603C101.54 99.7923 101.475 99.7361 101.4 99.6955C101.262 99.621 101.109 99.5765 100.953 99.5649C100.796 99.5534 100.639 99.5751 100.491 99.6285C99.9137 99.9452 99.4536 100.439 99.1793 101.036C98.6175 101.995 98.1065 102.982 97.6485 103.994H97.7663L99.6335 104.682Z" fill="#FD719D"/>
<path d="M120.148 100.45C120.181 100.473 120.209 100.502 120.233 100.534C120.209 100.502 120.181 100.473 120.148 100.45V100.45Z" fill="#FD719D"/>
<path d="M117.095 101.968L117.155 101.891L117.095 101.968Z" fill="#FD719D"/>
<path d="M116.817 102.303L116.911 102.193L116.817 102.303Z" fill="#FD719D"/>
<path d="M120.678 101.849C120.674 101.874 120.674 101.9 120.678 101.925C120.674 101.9 120.674 101.874 120.678 101.849V101.849Z" fill="#FD719D"/>
<path d="M116.254 102.972L116.397 102.788L116.254 102.972Z" fill="#FD719D"/>
<path d="M116.548 102.637L116.658 102.494L116.548 102.637Z" fill="#FD719D"/>
<path d="M116.052 103.291L116.254 103.073L116.052 103.291Z" fill="#FD719D"/>
<path d="M115.539 104.02C115.657 103.844 115.825 103.601 116.018 103.332C115.833 103.584 115.674 103.818 115.539 104.02L115.379 104.12L115.539 104.02Z" fill="#FD719D"/>
<path d="M114.698 104.623L114.9 104.422L114.656 104.581L114.723 104.648L114.698 104.623Z" fill="#FD719D"/>
<path d="M119.618 100.215C119.688 100.203 119.759 100.203 119.829 100.215H119.618Z" fill="#FD719D"/>
<path d="M119.913 100.299L120.032 100.359L119.913 100.299Z" fill="#FD719D"/>
<path d="M120.459 100.793C120.519 100.911 120.567 101.035 120.602 101.162C120.567 101.035 120.519 100.911 120.459 100.793V100.793Z" fill="#FD719D"/>
<path d="M120.611 101.397C120.629 101.454 120.643 101.513 120.653 101.573C120.643 101.513 120.629 101.454 120.611 101.397V101.397Z" fill="#FD719D"/>
<path d="M118.062 105.712C118.903 104.874 120.35 102.536 119.66 101.162C119.61 101.061 119.576 101.053 119.551 101.053C118.937 101.011 117.339 102.838 116.187 104.564L116.052 104.69L115.985 104.732L117.516 106.249L118.062 105.712Z" fill="#FD719D"/>
<path d="M105.067 99.3436C105.092 99.2888 105.12 99.2356 105.151 99.1843C105.118 99.2347 105.09 99.288 105.067 99.3436V99.3436Z" fill="#FD719D"/>
<path d="M106.161 97.433C105.839 97.8943 105.558 98.3821 105.319 98.8911C105.579 98.345 105.901 97.8304 106.278 97.3575L106.161 97.433Z" fill="#FD719D"/>
<path d="M104.285 100.902L103.864 101.74L104.075 101.313C104.142 101.204 104.209 101.053 104.285 100.902Z" fill="#FD719D"/>
<path d="M108.406 96.6872C107.674 96.6537 106.95 96.8597 106.346 97.2738H106.304C106.918 96.8466 107.659 96.6397 108.406 96.6872V96.6872Z" fill="#FD719D"/>
<path d="M108.776 96.8129C108.712 96.7831 108.644 96.7606 108.575 96.7458C108.644 96.7606 108.712 96.7831 108.776 96.8129V96.8129Z" fill="#FD719D"/>
<path d="M109.525 98.3129C109.541 97.8517 109.385 97.401 109.088 97.0475C109.377 97.4016 109.53 97.8477 109.517 98.3045L109.525 98.3129Z" fill="#FD719D"/>
<path d="M107.187 102.109L108.684 98.3882C108.684 98.0614 108.617 97.676 108.381 97.5503C107.986 97.3491 107.145 97.7598 106.817 97.9776C106.127 99.042 105.53 100.163 105.033 101.33C105.471 101.397 106.161 101.69 107.187 102.109Z" fill="#FD719D"/>
<path d="M122.234 119.975C121.595 118.684 120.855 118.048 119.997 118.106C119.612 118.143 119.246 118.291 118.945 118.534H118.786V118.718C117.532 119.824 116.599 122.17 116.195 123.344C116.111 123.595 116.01 123.922 115.884 124.307C115.11 126.712 113.36 132.184 111.241 132.436V131.145C111.1 125.848 112.365 120.607 114.908 115.953C115.169 115.45 115.749 114.603 116.447 113.623C118.971 109.994 122.756 104.556 120.653 102.427C120.666 102.26 120.666 102.092 120.653 101.925C120.649 101.9 120.649 101.874 120.653 101.849V101.547C120.643 101.488 120.629 101.429 120.611 101.371C120.599 101.301 120.582 101.231 120.56 101.162C120.525 101.035 120.477 100.911 120.417 100.793C120.368 100.699 120.305 100.612 120.232 100.534C120.209 100.502 120.18 100.473 120.148 100.45L120.03 100.358L119.913 100.299H119.82C119.751 100.286 119.679 100.286 119.61 100.299H119.551H119.442H119.341L119.156 100.358H119.088L118.87 100.458H118.819L118.575 100.609L118.315 100.802C118.221 100.872 118.131 100.948 118.045 101.028C117.953 101.103 117.869 101.187 117.776 101.279L117.524 101.531V101.581L117.297 101.824L117.238 101.899L117.045 102.126L116.952 102.235L116.792 102.427L116.683 102.57L116.565 102.721L116.422 102.905L116.254 103.073L116.094 103.299C115.901 103.567 115.732 103.81 115.615 103.986L115.455 104.087L115.362 104.003L114.975 104.388L114.774 104.589C111.014 107.941 105.656 118.592 104.142 121.693C103.738 120.277 103.477 116.782 107.01 110.338C111.586 101.958 110.046 98.9078 109.533 98.2542C109.547 97.7975 109.394 97.3513 109.104 96.9972C109.017 96.9036 108.914 96.8244 108.802 96.7626V96.7626C108.737 96.7328 108.669 96.7103 108.6 96.6956C108.545 96.6723 108.489 96.6527 108.432 96.6369C107.679 96.6016 106.937 96.8233 106.329 97.2654C105.928 97.7619 105.589 98.3049 105.319 98.8827L105.168 99.176C105.137 99.2273 105.109 99.2804 105.084 99.3352L104.756 99.9721V100.048C104.621 100.307 104.487 100.584 104.335 100.886C104.26 101.036 104.192 101.187 104.117 101.346L103.906 101.774C103.343 102.955 102.872 103.927 102.493 104.715C102.715 103.194 102.833 101.66 102.847 100.123H102.577C102.582 100.078 102.582 100.033 102.577 99.9888V99.9888C102.581 99.9386 102.581 99.8882 102.577 99.838C102.582 99.7906 102.582 99.7429 102.577 99.6955C102.577 99.6369 102.519 99.595 102.493 99.5447L102.426 99.419L102.333 99.3185L102.216 99.1844L102.14 99.1341L101.947 98.9916C101.576 98.7849 101.147 98.7054 100.727 98.7654C100.589 98.7878 100.454 98.8243 100.323 98.8743C100.147 98.9463 99.9806 99.0391 99.8269 99.1509L99.7513 99.2095C99.6069 99.3213 99.4718 99.4446 99.3475 99.5782L99.2971 99.6285C99.0359 99.9432 98.8024 100.28 98.5989 100.634V100.634C98.2625 101.196 97.9513 101.774 97.6569 102.36L97.3625 102.98C97.1186 103.475 96.8915 103.978 96.6728 104.489C94.99 108.678 93.6621 113.001 92.7027 117.411C92.3495 118.902 91.9878 120.436 91.6009 121.944V121.793C91.6513 120.905 91.7355 120.008 91.828 119.053C92.1476 115.701 92.4841 112.198 90.9869 109.173L90.8691 109.232C90.7852 108.868 90.6066 108.532 90.3512 108.258C90.0957 107.985 89.7725 107.783 89.414 107.673C88.985 107.606 88.1944 107.673 87.6897 109.223C87.2063 110.607 86.9231 112.051 86.8486 113.514C86.3589 116.564 86.0778 119.644 86.0075 122.732C86.0075 124.86 86.8486 129.36 87.6897 134.12C88.5308 138.637 89.3719 143.296 89.3719 145.358C89.3719 146.782 87.8579 152.145 85.8729 158.539C78.6057 178.366 64.3404 214.374 60.219 224.966H94.1831C95.3859 209.497 98.0438 181.207 100.761 166.131C101.585 163.338 102.533 160.595 103.604 157.902C105.53 153.092 109.012 149.221 112.376 145.475C113.428 144.302 114.521 143.087 115.547 141.863C118.441 138.411 119.753 134.237 120.737 130.232C120.914 129.52 121.191 128.707 121.494 127.844C122.369 125.279 123.395 122.346 122.234 119.975ZM116.052 104.69L116.187 104.564C117.339 102.838 118.937 101.011 119.551 101.053C119.551 101.053 119.61 101.053 119.66 101.162C120.35 102.536 118.937 104.841 118.062 105.712L117.516 106.249L115.985 104.749L116.052 104.69ZM108.381 97.5503C108.617 97.676 108.675 98.0614 108.684 98.3883L107.187 102.109C106.135 101.69 105.504 101.43 105.033 101.271C105.53 100.105 106.127 98.9834 106.817 97.919C107.145 97.7598 107.986 97.3492 108.381 97.5503ZM99.1793 101.036C99.4536 100.439 99.9137 99.9452 100.491 99.6285C100.639 99.5751 100.796 99.5534 100.953 99.5649C101.109 99.5765 101.262 99.621 101.4 99.6955C101.475 99.7361 101.54 99.7923 101.59 99.8603C101.641 99.9283 101.677 100.006 101.694 100.089C101.696 100.36 101.626 100.625 101.492 100.86C100.912 102.151 100.29 103.433 99.6335 104.682L97.7663 104.036H97.6485C98.1052 103.01 98.6162 102.009 99.1793 101.036V101.036ZM88.4972 109.492C88.7243 108.821 89.0103 108.453 89.2962 108.503C89.5822 108.553 90.2047 109.341 90.2047 110.179C90.1636 111.191 89.9295 112.187 89.5149 113.112H87.6561C87.7936 111.876 88.0759 110.661 88.4972 109.492V109.492ZM121.73 124.022L118.836 123.302L119.526 119.112C119.679 119 119.859 118.93 120.047 118.911C120.636 118.911 121.149 119.648 121.477 120.31C121.971 121.486 122.06 122.791 121.73 124.022V124.022Z" fill="#EFBF9B"/>
</g>
<defs>
<clipPath id="clip0">
<rect width="364" height="225" fill="white" transform="translate(-4)"/>
</clipPath>
</defs>
</svg>
